<svg width="218" height="218" viewBox="0 0 218 218" fill="none" xmlns="http://www.w3.org/2000/svg">
<path d="M92 120H76.7031V117.391L84.2812 109.125C85.375 107.906 86.151 106.891 86.6094 106.078C87.0781 105.255 87.3125 104.432 87.3125 103.609C87.3125 102.526 87.0052 101.651 86.3906 100.984C85.7865 100.318 84.9688 99.9844 83.9375 99.9844C82.7083 99.9844 81.7552 100.359 81.0781 101.109C80.401 101.859 80.0625 102.885 80.0625 104.188H76.2656C76.2656 102.802 76.5781 101.557 77.2031 100.453C77.8385 99.3385 78.7396 98.474 79.9062 97.8594C81.0833 97.2448 82.4375 96.9375 83.9688 96.9375C86.1771 96.9375 87.9167 97.4948 89.1875 98.6094C90.4688 99.7135 91.1094 101.245 91.1094 103.203C91.1094 104.339 90.7865 105.531 90.1406 106.781C89.5052 108.021 88.4583 109.432 87 111.016L81.4375 116.969H92V120ZM95.9062 108.719L97.1406 97.25H109.359V100.531H100.297L99.6719 105.969C100.724 105.365 101.911 105.062 103.234 105.062C105.401 105.062 107.083 105.755 108.281 107.141C109.49 108.526 110.094 110.391 110.094 112.734C110.094 115.047 109.427 116.891 108.094 118.266C106.76 119.63 104.932 120.312 102.609 120.312C100.526 120.312 98.7969 119.724 97.4219 118.547C96.0573 117.359 95.3177 115.797 95.2031 113.859H98.875C99.0208 114.964 99.4167 115.812 100.062 116.406C100.708 116.99 101.552 117.281 102.594 117.281C103.76 117.281 104.667 116.865 105.312 116.031C105.969 115.198 106.297 114.062 106.297 112.625C106.297 111.24 105.938 110.146 105.219 109.344C104.5 108.531 103.51 108.125 102.25 108.125C101.562 108.125 100.979 108.219 100.5 108.406C100.021 108.583 99.5 108.938 98.9375 109.469L95.9062 108.719ZM120.891 101.625C120.891 100.25 121.333 99.125 122.219 98.25C123.104 97.3646 124.266 96.9219 125.703 96.9219C127.161 96.9219 128.328 97.3646 129.203 98.25C130.089 99.125 130.531 100.276 130.531 101.703V102.828C130.531 104.193 130.089 105.312 129.203 106.188C128.328 107.062 127.172 107.5 125.734 107.5C124.328 107.5 123.167 107.073 122.25 106.219C121.344 105.354 120.891 104.193 120.891 102.734V101.625ZM123.547 102.828C123.547 103.547 123.745 104.13 124.141 104.578C124.547 105.016 125.078 105.234 125.734 105.234C126.38 105.234 126.901 105.016 127.297 104.578C127.693 104.13 127.891 103.526 127.891 102.766V101.625C127.891 100.906 127.688 100.323 127.281 99.875C126.885 99.4271 126.359 99.2031 125.703 99.2031C125.047 99.2031 124.521 99.4323 124.125 99.8906C123.74 100.339 123.547 100.932 123.547 101.672V102.828ZM131.828 114.422C131.828 113.026 132.281 111.896 133.188 111.031C134.094 110.167 135.25 109.734 136.656 109.734C138.073 109.734 139.229 110.167 140.125 111.031C141.031 111.896 141.484 113.062 141.484 114.531V115.641C141.484 116.995 141.047 118.115 140.172 119C139.307 119.875 138.146 120.312 136.688 120.312C135.229 120.312 134.052 119.88 133.156 119.016C132.271 118.141 131.828 116.99 131.828 115.562V114.422ZM134.484 115.641C134.484 116.349 134.688 116.932 135.094 117.391C135.51 117.839 136.042 118.062 136.688 118.062C137.354 118.062 137.875 117.849 138.25 117.422C138.635 116.984 138.828 116.375 138.828 115.594V114.422C138.828 113.693 138.625 113.109 138.219 112.672C137.812 112.234 137.292 112.016 136.656 112.016C136.01 112.016 135.484 112.234 135.078 112.672C134.682 113.109 134.484 113.714 134.484 114.484V115.641ZM126.516 118.297L124.562 117.172L135.672 99.3906L137.625 100.516L126.516 118.297Z" fill="#0A7A22"/>
<path d="M188.61 109.288C188.61 153.096 153.096 188.61 109.288 188.61C65.4796 188.61 29.9658 153.096 29.9658 109.288C29.9658 65.4796 65.4796 29.9658 109.288 29.9658C153.096 29.9658 188.61 65.4796 188.61 109.288ZM49.4322 109.288C49.4322 142.345 76.2305 169.144 109.288 169.144C142.345 169.144 169.144 142.345 169.144 109.288C169.144 76.2305 142.345 49.4322 109.288 49.4322C76.2305 49.4322 49.4322 76.2305 49.4322 109.288Z" fill="#D1E5D4"/>
<path d="M104.051 35.8455C103.827 32.5393 100.961 30.0172 97.6807 30.4901C86.64 32.0818 76.0355 35.9882 66.5724 41.9788C55.4159 49.0413 46.1989 58.7772 39.7573 70.3035C33.3157 81.8298 29.8534 94.7818 29.6844 107.985C29.541 119.184 31.7707 130.263 36.2005 140.5C37.5164 143.541 41.1669 144.662 44.1 143.12L50.7087 139.645C53.6418 138.103 54.7388 134.484 53.4981 131.411C50.5333 124.069 49.0473 116.192 49.1492 108.234C49.2767 98.2712 51.8894 88.4977 56.7501 79.8001C61.6109 71.1025 68.5659 63.7559 76.9846 58.4265C83.7087 54.1698 91.1966 51.3077 99.0039 49.9853C102.271 49.4319 104.779 46.601 104.555 43.2949L104.051 35.8455Z" fill="#0A7A22"/>
</svg>
