<svg width="25" height="21" viewBox="0 0 25 21" fill="none" xmlns="http://www.w3.org/2000/svg">
<path d="M23.8477 15.082C23.9492 14.5312 23.9492 13.9688 23.8477 13.418L24.8555 12.8359C24.9727 12.7695 25.0234 12.6328 24.9844 12.5039C24.7227 11.6602 24.2734 10.8945 23.6875 10.2617C23.5977 10.1641 23.4531 10.1406 23.3359 10.207L22.3281 10.7891C21.9023 10.4258 21.4141 10.1445 20.8867 9.95703V8.79297C20.8867 8.66016 20.793 8.54297 20.6641 8.51562C19.793 8.32031 18.9062 8.32812 18.0781 8.51562C17.9492 8.54297 17.8555 8.66016 17.8555 8.79297V9.95703C17.3281 10.1445 16.8398 10.4258 16.4141 10.7891L15.4062 10.207C15.293 10.1406 15.1445 10.1641 15.0547 10.2617C14.4688 10.8945 14.0195 11.6602 13.7578 12.5039C13.7188 12.6328 13.7734 12.7695 13.8867 12.8359L14.8945 13.418C14.793 13.9688 14.793 14.5312 14.8945 15.082L13.8867 15.6641C13.7695 15.7305 13.7188 15.8672 13.7578 15.9961C14.0195 16.8398 14.4688 17.6016 15.0547 18.2383C15.1445 18.3359 15.2891 18.3594 15.4062 18.293L16.4141 17.7109C16.8398 18.0742 17.3281 18.3555 17.8555 18.543V19.707C17.8555 19.8398 17.9492 19.957 18.0781 19.9844C18.9492 20.1797 19.8359 20.1719 20.6641 19.9844C20.793 19.957 20.8867 19.8398 20.8867 19.707V18.543C21.4141 18.3555 21.9023 18.0742 22.3281 17.7109L23.3359 18.293C23.4492 18.3594 23.5977 18.3359 23.6875 18.2383C24.2734 17.6055 24.7227 16.8398 24.9844 15.9961C25.0234 15.8672 24.9688 15.7305 24.8555 15.6641L23.8477 15.082ZM19.375 16.1445C18.3281 16.1445 17.4805 15.293 17.4805 14.25C17.4805 13.207 18.332 12.3555 19.375 12.3555C20.418 12.3555 21.2695 13.207 21.2695 14.25C21.2695 15.293 20.4219 16.1445 19.375 16.1445ZM8.75 10.5C11.5117 10.5 13.75 8.26172 13.75 5.5C13.75 2.73828 11.5117 0.5 8.75 0.5C5.98828 0.5 3.75 2.73828 3.75 5.5C3.75 8.26172 5.98828 10.5 8.75 10.5ZM16.6094 19.3477C16.5195 19.3008 16.4297 19.2461 16.3438 19.1953L16.0352 19.375C15.8008 19.5078 15.5352 19.582 15.2695 19.582C14.8438 19.582 14.4336 19.4023 14.1406 19.0898C13.4258 18.3164 12.8789 17.375 12.5703 16.3711C12.3555 15.6797 12.6445 14.9492 13.2695 14.5859L13.5781 14.4062C13.5742 14.3047 13.5742 14.2031 13.5781 14.1016L13.2695 13.9219C12.6445 13.5625 12.3555 12.8281 12.5703 12.1367C12.6055 12.0234 12.6562 11.9102 12.6953 11.7969C12.5469 11.7852 12.4023 11.75 12.25 11.75H11.5977C10.7305 12.1484 9.76562 12.375 8.75 12.375C7.73438 12.375 6.77344 12.1484 5.90234 11.75H5.25C2.35156 11.75 0 14.1016 0 17V18.625C0 19.6602 0.839844 20.5 1.875 20.5H15.625C16.0195 20.5 16.3867 20.375 16.6875 20.168C16.6406 20.0195 16.6094 19.8672 16.6094 19.707V19.3477Z" fill="#D1E5D4"/>
</svg>
