<svg width="23" height="23" viewBox="0 0 23 23" fill="none" xmlns="http://www.w3.org/2000/svg">
<path d="M13.2456 16.9291H9.89736C9.34072 16.9291 8.89289 16.4813 8.89289 15.9247V8.89342H5.22241C4.47743 8.89342 4.10495 7.99358 4.63229 7.46624L10.9981 1.09626C11.312 0.782366 11.8268 0.782366 12.1407 1.09626L18.5106 7.46624C19.038 7.99358 18.6655 8.89342 17.9205 8.89342H14.25V15.9247C14.25 16.4813 13.8022 16.9291 13.2456 16.9291ZM22.2857 16.5943V21.2818C22.2857 21.8384 21.8379 22.2863 21.2813 22.2863H1.86164C1.305 22.2863 0.857178 21.8384 0.857178 21.2818V16.5943C0.857178 16.0377 1.305 15.5898 1.86164 15.5898H7.55361V15.9247C7.55361 17.2179 8.60411 18.2684 9.89736 18.2684H13.2456C14.5388 18.2684 15.5893 17.2179 15.5893 15.9247V15.5898H21.2813C21.8379 15.5898 22.2857 16.0377 22.2857 16.5943ZM17.096 20.2773C17.096 19.817 16.7193 19.4403 16.259 19.4403C15.7986 19.4403 15.4219 19.817 15.4219 20.2773C15.4219 20.7377 15.7986 21.1144 16.259 21.1144C16.7193 21.1144 17.096 20.7377 17.096 20.2773ZM19.7746 20.2773C19.7746 19.817 19.3979 19.4403 18.9375 19.4403C18.4772 19.4403 18.1005 19.817 18.1005 20.2773C18.1005 20.7377 18.4772 21.1144 18.9375 21.1144C19.3979 21.1144 19.7746 20.7377 19.7746 20.2773Z" fill="#0A7A22"/>
</svg>
