<svg width="13" height="15" viewBox="0 0 22 24" fill="none" xmlns="http://www.w3.org/2000/svg">
<path d="M11 24C12.6557 24 13.9986 22.657 13.9986 21H8.00144C8.00144 22.657 9.34441 24 11 24ZM21.0964 16.9823C20.1908 16.0092 18.4963 14.5453 18.4963 9.75C18.4963 6.10781 15.9425 3.19219 12.4991 2.47688V1.5C12.4991 0.671719 11.8278 0 11 0C10.1722 0 9.50097 0.671719 9.50097 1.5V2.47688C6.05753 3.19219 3.50378 6.10781 3.50378 9.75C3.50378 14.5453 1.80925 16.0092 0.903626 16.9823C0.622376 17.2847 0.497689 17.6461 0.500032 18C0.505189 18.7687 1.10847 19.5 2.00472 19.5H19.9953C20.8916 19.5 21.4953 18.7687 21.5 18C21.5024 17.6461 21.3777 17.2842 21.0964 16.9823Z" fill="#031D09" fill-opacity="0.8"/>
</svg>
