<svg width="18" height="20" viewBox="0 0 23 25" fill="none" xmlns="http://www.w3.org/2000/svg">
<path d="M11.5 25C13.2246 25 14.6236 23.6011 14.6236 21.875H8.3765C8.3765 23.6011 9.77542 25 11.5 25ZM22.0171 17.6899C21.0738 16.6763 19.3086 15.1514 19.3086 10.1562C19.3086 6.3623 16.6485 3.3252 13.0616 2.58008V1.5625C13.0616 0.699707 12.3623 0 11.5 0C10.6377 0 9.93851 0.699707 9.93851 1.5625V2.58008C6.3516 3.3252 3.69144 6.3623 3.69144 10.1562C3.69144 15.1514 1.9263 16.6763 0.982944 17.6899C0.689975 18.0049 0.560092 18.3813 0.562534 18.75C0.567905 19.5508 1.19632 20.3125 2.12992 20.3125H20.8702C21.8037 20.3125 22.4327 19.5508 22.4375 18.75C22.44 18.3813 22.3101 18.0044 22.0171 17.6899Z" fill="#D1E5D4"/>
</svg>
