<svg width="25" height="20" viewBox="0 0 31 28" fill="none" xmlns="http://www.w3.org/2000/svg">
<path d="M30.7547 7.4375V24.3125C30.7547 25.8652 29.4825 27.125 27.9145 27.125H3.29921C1.73117 27.125 0.458984 25.8652 0.458984 24.3125V7.4375C0.458984 5.88477 1.73117 4.625 3.29921 4.625H8.50629L9.23409 2.69727C9.64829 1.60156 10.7075 0.875 11.8909 0.875H19.3169C20.5003 0.875 21.5595 1.60156 21.9737 2.69727L22.7074 4.625H27.9145C29.4825 4.625 30.7547 5.88477 30.7547 7.4375ZM22.7074 15.875C22.7074 11.9961 19.524 8.84375 15.6068 8.84375C11.6897 8.84375 8.50629 11.9961 8.50629 15.875C8.50629 19.7539 11.6897 22.9062 15.6068 22.9062C19.524 22.9062 22.7074 19.7539 22.7074 15.875ZM20.8139 15.875C20.8139 18.7168 18.4767 21.0312 15.6068 21.0312C12.737 21.0312 10.3998 18.7168 10.3998 15.875C10.3998 13.0332 12.737 10.7188 15.6068 10.7188C18.4767 10.7188 20.8139 13.0332 20.8139 15.875Z" fill="white"/>
</svg>
