<svg width="24" height="20" viewBox="0 0 24 20" fill="none" xmlns="http://www.w3.org/2000/svg">
<path d="M4.8 13.6004H1.2C0.537375 13.6004 0 14.1378 0 14.8004V18.4004C0 19.063 0.537375 19.6004 1.2 19.6004H4.8C5.46263 19.6004 6 19.063 6 18.4004V14.8004C6 14.1378 5.46263 13.6004 4.8 13.6004ZM3.9 10.6004H11.1V12.4004H12.9V10.6004H20.1V12.4004H21.9V10.2408C21.9 9.44689 21.2539 8.80039 20.4596 8.80039H12.9V6.40039H14.4C15.0626 6.40039 15.6 5.86302 15.6 5.20039V1.60039C15.6 0.937766 15.0626 0.400391 14.4 0.400391H9.6C8.93738 0.400391 8.4 0.937766 8.4 1.60039V5.20039C8.4 5.86302 8.93738 6.40039 9.6 6.40039H11.1V8.80039H3.54038C2.74613 8.80039 2.1 9.44652 2.1 10.2408V12.4004H3.9V10.6004ZM13.8 13.6004H10.2C9.53738 13.6004 9 14.1378 9 14.8004V18.4004C9 19.063 9.53738 19.6004 10.2 19.6004H13.8C14.4626 19.6004 15 19.063 15 18.4004V14.8004C15 14.1378 14.4626 13.6004 13.8 13.6004ZM22.8 13.6004H19.2C18.5374 13.6004 18 14.1378 18 14.8004V18.4004C18 19.063 18.5374 19.6004 19.2 19.6004H22.8C23.4626 19.6004 24 19.063 24 18.4004V14.8004C24 14.1378 23.4626 13.6004 22.8 13.6004Z" fill="#031D09" fill-opacity="0.8"/>
<path d="M3.9 10.1004H3.4V10.6004V11.9004H2.6V10.2408C2.6 9.72266 3.02227 9.30039 3.54038 9.30039H11.1H11.6V8.80039V6.40039V5.90039H11.1H9.6C9.21352 5.90039 8.9 5.58687 8.9 5.20039V1.60039C8.9 1.21391 9.21352 0.900391 9.6 0.900391H14.4C14.7865 0.900391 15.1 1.21391 15.1 1.60039V5.20039C15.1 5.58687 14.7865 5.90039 14.4 5.90039H12.9H12.4V6.40039V8.80039V9.30039H12.9H20.4596C20.9776 9.30039 21.4 9.72295 21.4 10.2408V11.9004H20.6V10.6004V10.1004H20.1H12.9H12.4V10.6004V11.9004H11.6V10.6004V10.1004H11.1H3.9ZM1.2 14.1004H4.8C5.18648 14.1004 5.5 14.4139 5.5 14.8004V18.4004C5.5 18.7869 5.18648 19.1004 4.8 19.1004H1.2C0.813517 19.1004 0.5 18.7869 0.5 18.4004V14.8004C0.5 14.4139 0.813518 14.1004 1.2 14.1004ZM10.2 14.1004H13.8C14.1865 14.1004 14.5 14.4139 14.5 14.8004V18.4004C14.5 18.7869 14.1865 19.1004 13.8 19.1004H10.2C9.81352 19.1004 9.5 18.7869 9.5 18.4004V14.8004C9.5 14.4139 9.81352 14.1004 10.2 14.1004ZM19.2 14.1004H22.8C23.1865 14.1004 23.5 14.4139 23.5 14.8004V18.4004C23.5 18.7869 23.1865 19.1004 22.8 19.1004H19.2C18.8135 19.1004 18.5 18.7869 18.5 18.4004V14.8004C18.5 14.4139 18.8135 14.1004 19.2 14.1004Z" stroke="#031D09" stroke-opacity="0.8"/>
</svg>
