<svg width="25" height="21" viewBox="0 0 25 21" fill="none" xmlns="http://www.w3.org/2000/svg">
<path d="M5 14.25H1.25C0.559766 14.25 0 14.8098 0 15.5V19.25C0 19.9402 0.559766 20.5 1.25 20.5H5C5.69023 20.5 6.25 19.9402 6.25 19.25V15.5C6.25 14.8098 5.69023 14.25 5 14.25ZM4.0625 11.125H11.5625V13H13.4375V11.125H20.9375V13H22.8125V10.7504C22.8125 9.92344 22.1395 9.25 21.3121 9.25H13.4375V6.75H15C15.6902 6.75 16.25 6.19023 16.25 5.5V1.75C16.25 1.05977 15.6902 0.5 15 0.5H10C9.30977 0.5 8.75 1.05977 8.75 1.75V5.5C8.75 6.19023 9.30977 6.75 10 6.75H11.5625V9.25H3.68789C2.86055 9.25 2.1875 9.92305 2.1875 10.7504V13H4.0625V11.125ZM14.375 14.25H10.625C9.93477 14.25 9.375 14.8098 9.375 15.5V19.25C9.375 19.9402 9.93477 20.5 10.625 20.5H14.375C15.0652 20.5 15.625 19.9402 15.625 19.25V15.5C15.625 14.8098 15.0652 14.25 14.375 14.25ZM23.75 14.25H20C19.3098 14.25 18.75 14.8098 18.75 15.5V19.25C18.75 19.9402 19.3098 20.5 20 20.5H23.75C24.4402 20.5 25 19.9402 25 19.25V15.5C25 14.8098 24.4402 14.25 23.75 14.25Z" fill="#D1E5D4"/>
</svg>
