<svg width="194" height="203" viewBox="0 0 194 203" fill="none" xmlns="http://www.w3.org/2000/svg">
<path d="M19.776 105.2V150H9.408V113.52H0.448V105.2H19.776ZM46.7585 150.768C43.0465 150.768 39.7398 149.851 36.8385 148.016C33.9372 146.181 31.6545 143.536 29.9905 140.08C28.3692 136.581 27.5585 132.421 27.5585 127.6C27.5585 122.779 28.3692 118.64 29.9905 115.184C31.6545 111.685 33.9372 109.019 36.8385 107.184C39.7398 105.349 43.0465 104.432 46.7585 104.432C50.4705 104.432 53.7772 105.349 56.6785 107.184C59.5798 109.019 61.8412 111.685 63.4625 115.184C65.1265 118.64 65.9585 122.779 65.9585 127.6C65.9585 132.421 65.1265 136.581 63.4625 140.08C61.8412 143.536 59.5798 146.181 56.6785 148.016C53.7772 149.851 50.4705 150.768 46.7585 150.768ZM46.7585 142C49.4892 142 51.6225 140.827 53.1585 138.48C54.7372 136.133 55.5265 132.507 55.5265 127.6C55.5265 122.693 54.7372 119.067 53.1585 116.72C51.6225 114.373 49.4892 113.2 46.7585 113.2C44.0705 113.2 41.9372 114.373 40.3585 116.72C38.8225 119.067 38.0545 122.693 38.0545 127.6C38.0545 132.507 38.8225 136.133 40.3585 138.48C41.9372 140.827 44.0705 142 46.7585 142ZM90.196 150.768C86.484 150.768 83.1773 149.851 80.276 148.016C77.3747 146.181 75.092 143.536 73.428 140.08C71.8067 136.581 70.996 132.421 70.996 127.6C70.996 122.779 71.8067 118.64 73.428 115.184C75.092 111.685 77.3747 109.019 80.276 107.184C83.1773 105.349 86.484 104.432 90.196 104.432C93.908 104.432 97.2147 105.349 100.116 107.184C103.017 109.019 105.279 111.685 106.9 115.184C108.564 118.64 109.396 122.779 109.396 127.6C109.396 132.421 108.564 136.581 106.9 140.08C105.279 143.536 103.017 146.181 100.116 148.016C97.2147 149.851 93.908 150.768 90.196 150.768ZM90.196 142C92.9267 142 95.06 140.827 96.596 138.48C98.1747 136.133 98.964 132.507 98.964 127.6C98.964 122.693 98.1747 119.067 96.596 116.72C95.06 114.373 92.9267 113.2 90.196 113.2C87.508 113.2 85.3747 114.373 83.796 116.72C82.26 119.067 81.492 122.693 81.492 127.6C81.492 132.507 82.26 136.133 83.796 138.48C85.3747 140.827 87.508 142 90.196 142ZM133.634 150.768C129.922 150.768 126.615 149.851 123.714 148.016C120.812 146.181 118.53 143.536 116.866 140.08C115.244 136.581 114.434 132.421 114.434 127.6C114.434 122.779 115.244 118.64 116.866 115.184C118.53 111.685 120.812 109.019 123.714 107.184C126.615 105.349 129.922 104.432 133.634 104.432C137.346 104.432 140.652 105.349 143.554 107.184C146.455 109.019 148.716 111.685 150.338 115.184C152.002 118.64 152.834 122.779 152.834 127.6C152.834 132.421 152.002 136.581 150.338 140.08C148.716 143.536 146.455 146.181 143.554 148.016C140.652 149.851 137.346 150.768 133.634 150.768ZM133.634 142C136.364 142 138.498 140.827 140.034 138.48C141.612 136.133 142.402 132.507 142.402 127.6C142.402 122.693 141.612 119.067 140.034 116.72C138.498 114.373 136.364 113.2 133.634 113.2C130.946 113.2 128.812 114.373 127.234 116.72C125.698 119.067 124.93 122.693 124.93 127.6C124.93 132.507 125.698 136.133 127.234 138.48C128.812 140.827 130.946 142 133.634 142ZM190.057 131.504H178.921V142.384H170.665V131.504H159.593V123.696H170.665V112.816H178.921V123.696H190.057V131.504Z" fill="#064714"/>
<path d="M67.48 197.24C65.16 197.24 63.352 196.592 62.056 195.296C60.76 193.984 60.112 192.112 60.112 189.68V180.2H63.232V189.56C63.232 192.856 64.656 194.504 67.504 194.504C70.336 194.504 71.752 192.856 71.752 189.56V180.2H74.824V189.68C74.824 192.112 74.176 193.984 72.88 195.296C71.6 196.592 69.8 197.24 67.48 197.24ZM82.8655 197.168C81.8255 197.168 80.8095 197.032 79.8175 196.76C78.8255 196.488 78.0335 196.144 77.4415 195.728L78.5935 193.448C79.1695 193.832 79.8575 194.144 80.6575 194.384C81.4735 194.608 82.2735 194.72 83.0575 194.72C84.8495 194.72 85.7455 194.248 85.7455 193.304C85.7455 192.856 85.5135 192.544 85.0495 192.368C84.6015 192.192 83.8735 192.024 82.8655 191.864C81.8095 191.704 80.9455 191.52 80.2735 191.312C79.6175 191.104 79.0415 190.744 78.5455 190.232C78.0655 189.704 77.8255 188.976 77.8255 188.048C77.8255 186.832 78.3295 185.864 79.3375 185.144C80.3615 184.408 81.7375 184.04 83.4655 184.04C84.3455 184.04 85.2255 184.144 86.1055 184.352C86.9855 184.544 87.7055 184.808 88.2655 185.144L87.1135 187.424C86.0255 186.784 84.8015 186.464 83.4415 186.464C82.5615 186.464 81.8895 186.6 81.4255 186.872C80.9775 187.128 80.7535 187.472 80.7535 187.904C80.7535 188.384 80.9935 188.728 81.4735 188.936C81.9695 189.128 82.7295 189.312 83.7535 189.488C84.7775 189.648 85.6175 189.832 86.2735 190.04C86.9295 190.248 87.4895 190.6 87.9535 191.096C88.4335 191.592 88.6735 192.296 88.6735 193.208C88.6735 194.408 88.1535 195.368 87.1135 196.088C86.0735 196.808 84.6575 197.168 82.8655 197.168ZM103.305 190.664C103.305 190.872 103.289 191.168 103.257 191.552H93.2011C93.3771 192.496 93.8331 193.248 94.5691 193.808C95.3211 194.352 96.2491 194.624 97.3531 194.624C98.7611 194.624 99.9211 194.16 100.833 193.232L102.441 195.08C101.865 195.768 101.137 196.288 100.257 196.64C99.3771 196.992 98.3851 197.168 97.2811 197.168C95.8731 197.168 94.6331 196.888 93.5611 196.328C92.4891 195.768 91.6571 194.992 91.0651 194C90.4891 192.992 90.2011 191.856 90.2011 190.592C90.2011 189.344 90.4811 188.224 91.0411 187.232C91.6171 186.224 92.4091 185.44 93.4171 184.88C94.4251 184.32 95.5611 184.04 96.8251 184.04C98.0731 184.04 99.1851 184.32 100.161 184.88C101.153 185.424 101.921 186.2 102.465 187.208C103.025 188.2 103.305 189.352 103.305 190.664ZM96.8251 186.44C95.8651 186.44 95.0491 186.728 94.3771 187.304C93.7211 187.864 93.3211 188.616 93.1771 189.56H100.449C100.321 188.632 99.9291 187.88 99.2731 187.304C98.6171 186.728 97.8011 186.44 96.8251 186.44ZM109.043 186.056C109.907 184.712 111.427 184.04 113.603 184.04V186.896C113.347 186.848 113.115 186.824 112.907 186.824C111.739 186.824 110.827 187.168 110.171 187.856C109.515 188.528 109.187 189.504 109.187 190.784V197H106.187V184.184H109.043V186.056ZM120.155 197.168C119.115 197.168 118.099 197.032 117.107 196.76C116.115 196.488 115.323 196.144 114.731 195.728L115.883 193.448C116.459 193.832 117.147 194.144 117.947 194.384C118.763 194.608 119.563 194.72 120.347 194.72C122.139 194.72 123.035 194.248 123.035 193.304C123.035 192.856 122.803 192.544 122.339 192.368C121.891 192.192 121.163 192.024 120.155 191.864C119.099 191.704 118.235 191.52 117.563 191.312C116.907 191.104 116.331 190.744 115.835 190.232C115.355 189.704 115.115 188.976 115.115 188.048C115.115 186.832 115.619 185.864 116.627 185.144C117.651 184.408 119.027 184.04 120.755 184.04C121.635 184.04 122.515 184.144 123.395 184.352C124.275 184.544 124.995 184.808 125.555 185.144L124.403 187.424C123.315 186.784 122.091 186.464 120.731 186.464C119.851 186.464 119.179 186.6 118.715 186.872C118.267 187.128 118.043 187.472 118.043 187.904C118.043 188.384 118.283 188.728 118.763 188.936C119.259 189.128 120.019 189.312 121.043 189.488C122.067 189.648 122.907 189.832 123.563 190.04C124.219 190.248 124.779 190.6 125.243 191.096C125.723 191.592 125.963 192.296 125.963 193.208C125.963 194.408 125.443 195.368 124.403 196.088C123.363 196.808 121.947 197.168 120.155 197.168Z" fill="#064714"/>
<path d="M119.418 43.591C116.561 40.4959 113.094 38.0259 109.236 36.3365C105.378 34.6471 101.212 33.7749 96.9998 33.7749C92.7879 33.7749 88.6217 34.6471 84.7634 36.3365C80.9052 38.0259 77.4386 40.4959 74.582 43.591C74.141 44.0787 73.8943 44.7113 73.8887 45.3688V56.0354C73.898 56.7365 74.1831 57.4057 74.6822 57.8981C75.1813 58.3905 75.8542 58.6666 76.5553 58.6665H117.444C118.151 58.6665 118.83 58.3856 119.33 57.8855C119.83 57.3854 120.111 56.7071 120.111 55.9999V45.3332C120.097 44.688 119.851 44.0695 119.418 43.591Z" fill="#064714"/>
<path d="M97.0001 30.2224C103.873 30.2224 109.445 24.6508 109.445 17.7779C109.445 10.9051 103.873 5.3335 97.0001 5.3335C90.1272 5.3335 84.5557 10.9051 84.5557 17.7779C84.5557 24.6508 90.1272 30.2224 97.0001 30.2224Z" fill="#064714"/>
</svg>
