<svg width="168" height="203" viewBox="0 0 168 203" fill="none" xmlns="http://www.w3.org/2000/svg">
<path d="M54.168 180.2C55.624 180.2 56.888 180.44 57.96 180.92C59.048 181.4 59.88 182.088 60.456 182.984C61.032 183.88 61.32 184.944 61.32 186.176C61.32 187.392 61.032 188.456 60.456 189.368C59.88 190.264 59.048 190.952 57.96 191.432C56.888 191.912 55.624 192.152 54.168 192.152H50.376V197H47.256V180.2H54.168ZM54.024 189.512C55.384 189.512 56.416 189.224 57.12 188.648C57.824 188.072 58.176 187.248 58.176 186.176C58.176 185.104 57.824 184.28 57.12 183.704C56.416 183.128 55.384 182.84 54.024 182.84H50.376V189.512H54.024ZM69.8608 197.168C68.5648 197.168 67.3968 196.888 66.3568 196.328C65.3168 195.768 64.5008 194.992 63.9088 194C63.3328 192.992 63.0448 191.856 63.0448 190.592C63.0448 189.328 63.3328 188.2 63.9088 187.208C64.5008 186.216 65.3168 185.44 66.3568 184.88C67.3968 184.32 68.5648 184.04 69.8608 184.04C71.1728 184.04 72.3488 184.32 73.3888 184.88C74.4288 185.44 75.2368 186.216 75.8128 187.208C76.4048 188.2 76.7008 189.328 76.7008 190.592C76.7008 191.856 76.4048 192.992 75.8128 194C75.2368 194.992 74.4288 195.768 73.3888 196.328C72.3488 196.888 71.1728 197.168 69.8608 197.168ZM69.8608 194.6C70.9648 194.6 71.8768 194.232 72.5968 193.496C73.3168 192.76 73.6768 191.792 73.6768 190.592C73.6768 189.392 73.3168 188.424 72.5968 187.688C71.8768 186.952 70.9648 186.584 69.8608 186.584C68.7568 186.584 67.8448 186.952 67.1248 187.688C66.4208 188.424 66.0688 189.392 66.0688 190.592C66.0688 191.792 66.4208 192.76 67.1248 193.496C67.8448 194.232 68.7568 194.6 69.8608 194.6ZM79.5696 184.184H82.5696V197H79.5696V184.184ZM81.0816 182.072C80.5376 182.072 80.0816 181.904 79.7136 181.568C79.3456 181.216 79.1616 180.784 79.1616 180.272C79.1616 179.76 79.3456 179.336 79.7136 179C80.0816 178.648 80.5376 178.472 81.0816 178.472C81.6256 178.472 82.0816 178.64 82.4496 178.976C82.8176 179.296 83.0016 179.704 83.0016 180.2C83.0016 180.728 82.8176 181.176 82.4496 181.544C82.0976 181.896 81.6416 182.072 81.0816 182.072ZM93.7791 184.04C95.3951 184.04 96.6911 184.512 97.6671 185.456C98.6431 186.4 99.1311 187.8 99.1311 189.656V197H96.1311V190.04C96.1311 188.92 95.8671 188.08 95.3391 187.52C94.8111 186.944 94.0591 186.656 93.0831 186.656C91.9791 186.656 91.1071 186.992 90.4671 187.664C89.8271 188.32 89.5071 189.272 89.5071 190.52V197H86.5071V184.184H89.3631V185.84C89.8591 185.248 90.4831 184.8 91.2351 184.496C91.9871 184.192 92.8351 184.04 93.7791 184.04ZM110.641 196.304C110.289 196.592 109.857 196.808 109.345 196.952C108.849 197.096 108.321 197.168 107.761 197.168C106.353 197.168 105.265 196.8 104.497 196.064C103.729 195.328 103.345 194.256 103.345 192.848V186.68H101.233V184.28H103.345V181.352H106.345V184.28H109.777V186.68H106.345V192.776C106.345 193.4 106.497 193.88 106.801 194.216C107.105 194.536 107.545 194.696 108.121 194.696C108.793 194.696 109.353 194.52 109.801 194.168L110.641 196.304ZM117.069 197.168C116.029 197.168 115.013 197.032 114.021 196.76C113.029 196.488 112.237 196.144 111.645 195.728L112.797 193.448C113.373 193.832 114.061 194.144 114.861 194.384C115.677 194.608 116.477 194.72 117.261 194.72C119.053 194.72 119.949 194.248 119.949 193.304C119.949 192.856 119.717 192.544 119.253 192.368C118.805 192.192 118.077 192.024 117.069 191.864C116.013 191.704 115.149 191.52 114.477 191.312C113.821 191.104 113.245 190.744 112.749 190.232C112.269 189.704 112.029 188.976 112.029 188.048C112.029 186.832 112.533 185.864 113.541 185.144C114.565 184.408 115.941 184.04 117.669 184.04C118.549 184.04 119.429 184.144 120.309 184.352C121.189 184.544 121.909 184.808 122.469 185.144L121.317 187.424C120.229 186.784 119.005 186.464 117.645 186.464C116.765 186.464 116.093 186.6 115.629 186.872C115.181 187.128 114.957 187.472 114.957 187.904C114.957 188.384 115.197 188.728 115.677 188.936C116.173 189.128 116.933 189.312 117.957 189.488C118.981 189.648 119.821 189.832 120.477 190.04C121.133 190.248 121.693 190.6 122.157 191.096C122.637 191.592 122.877 192.296 122.877 193.208C122.877 194.408 122.357 195.368 121.317 196.088C120.277 196.808 118.861 197.168 117.069 197.168Z" fill="#064714"/>
<path d="M19.776 105.2V150H9.408V113.52H0.448V105.2H19.776ZM46.7585 150.768C43.0465 150.768 39.7398 149.851 36.8385 148.016C33.9372 146.181 31.6545 143.536 29.9905 140.08C28.3692 136.581 27.5585 132.421 27.5585 127.6C27.5585 122.779 28.3692 118.64 29.9905 115.184C31.6545 111.685 33.9372 109.019 36.8385 107.184C39.7398 105.349 43.0465 104.432 46.7585 104.432C50.4705 104.432 53.7772 105.349 56.6785 107.184C59.5798 109.019 61.8412 111.685 63.4625 115.184C65.1265 118.64 65.9585 122.779 65.9585 127.6C65.9585 132.421 65.1265 136.581 63.4625 140.08C61.8412 143.536 59.5798 146.181 56.6785 148.016C53.7772 149.851 50.4705 150.768 46.7585 150.768ZM46.7585 142C49.4892 142 51.6225 140.827 53.1585 138.48C54.7372 136.133 55.5265 132.507 55.5265 127.6C55.5265 122.693 54.7372 119.067 53.1585 116.72C51.6225 114.373 49.4892 113.2 46.7585 113.2C44.0705 113.2 41.9372 114.373 40.3585 116.72C38.8225 119.067 38.0545 122.693 38.0545 127.6C38.0545 132.507 38.8225 136.133 40.3585 138.48C41.9372 140.827 44.0705 142 46.7585 142ZM114.58 150L114.516 123.12L101.332 145.264H96.66L83.54 123.696V150H73.812V105.2H82.388L99.156 133.04L115.668 105.2H124.18L124.308 150H114.58ZM164.057 131.504H152.921V142.384H144.665V131.504H133.593V123.696H144.665V112.816H152.921V123.696H164.057V131.504Z" fill="#064714"/>
<path d="M60 16V48H87.52C86.9534 46.279 86.6653 44.4785 86.6667 42.6667H70.6667C70.6667 41.2522 70.1048 39.8956 69.1046 38.8954C68.1044 37.8952 66.7478 37.3333 65.3333 37.3333V26.6667C68.2933 26.6667 70.6667 24.2933 70.6667 21.3333H97.3333C97.3333 22.7478 97.8952 24.1044 98.8954 25.1046C99.8956 26.1048 101.252 26.6667 102.667 26.6667V26.8267C104.453 26.8267 106.24 27.1467 108 27.7333V16H60ZM84 24C79.4667 24.08 76 27.4667 76 32C76 36.5333 79.4667 39.84 84 40C85.0133 40 86.0533 39.7867 87.04 39.3867C87.76 36.4533 88.96 33.68 91.92 30.96C91.6 27.4133 88.24 23.92 84 24ZM109.68 32.72L99.36 43.12L95.76 39.4667L92 43.2533L99.3333 50.6667L113.413 36.48L109.68 32.72Z" fill="#064714"/>
</svg>
