<svg width="10" height="10" viewBox="0 0 10 10" fill="none" xmlns="http://www.w3.org/2000/svg">
<path d="M4.99967 9.33334C5.92265 9.33334 6.82491 9.05964 7.59234 8.54686C8.35977 8.03408 8.9579 7.30525 9.31111 6.45253C9.66432 5.5998 9.75674 4.66149 9.57667 3.75625C9.39661 2.851 8.95215 2.01948 8.29951 1.36684C7.64686 0.714192 6.81534 0.269735 5.9101 0.0896708C5.00485 -0.0903936 4.06654 0.00202199 3.21382 0.355231C2.3611 0.70844 1.63226 1.30658 1.11948 2.07401C0.606703 2.84144 0.333008 3.74369 0.333008 4.66667C0.333008 5.90435 0.824673 7.09133 1.69984 7.9665C2.57501 8.84167 3.762 9.33334 4.99967 9.33334ZM4.99967 1.33334C5.65895 1.33334 6.30341 1.52883 6.85157 1.8951C7.39974 2.26137 7.82698 2.78197 8.07927 3.39106C8.33156 4.00014 8.39758 4.67037 8.26896 5.31697C8.14034 5.96357 7.82287 6.55752 7.3567 7.02369C6.89052 7.48987 6.29658 7.80734 5.64998 7.93595C5.00337 8.06457 4.33315 7.99856 3.72406 7.74627C3.11498 7.49398 2.59438 7.06673 2.22811 6.51857C1.86184 5.97041 1.66634 5.32594 1.66634 4.66667C1.66634 3.78261 2.01753 2.93477 2.64265 2.30965C3.26777 1.68452 4.11562 1.33334 4.99967 1.33334Z" fill="#021807"/>
</svg>
