<svg width="161" height="35" viewBox="0 0 161 35" fill="none" xmlns="http://www.w3.org/2000/svg">
<circle cx="30.6204" cy="17.2434" r="13.7801" transform="rotate(-180 30.6204 17.2434)" stroke="#0A7A22" stroke-width="3.06225"/>
<path d="M26.0292 17.2444C26.0292 13.1612 26.694 9.53512 27.7135 6.98634C28.225 5.7077 28.7957 4.7757 29.3511 4.18841C29.9034 3.60435 30.3336 3.46425 30.6226 3.46425C30.9115 3.46425 31.3417 3.60435 31.894 4.18841C32.4495 4.7757 33.0202 5.7077 33.5316 6.98634C34.5511 9.53512 35.2159 13.1612 35.2159 17.2444C35.2159 21.3276 34.5511 24.9537 33.5316 27.5025C33.0202 28.7811 32.4495 29.7131 31.894 30.3004C31.3417 30.8844 30.9115 31.0245 30.6226 31.0245C30.3336 31.0245 29.9034 30.8844 29.3511 30.3004C28.7957 29.7131 28.225 28.7811 27.7135 27.5025C26.694 24.9537 26.0292 21.3276 26.0292 17.2444Z" stroke="#0A7A22" stroke-width="3.06225"/>
<path d="M30.6223 21.837C26.5392 21.837 22.913 21.1722 20.3643 20.1527C19.0856 19.6413 18.1536 19.0705 17.5663 18.5151C16.9823 17.9628 16.8422 17.5326 16.8422 17.2436C16.8422 16.9547 16.9823 16.5245 17.5663 15.9722C18.1536 15.4168 19.0856 14.846 20.3643 14.3346C22.913 13.3151 26.5392 12.6503 30.6223 12.6503C34.7055 12.6503 38.3316 13.3151 40.8804 14.3346C42.159 14.846 43.091 15.4168 43.6783 15.9722C44.2624 16.5245 44.4025 16.9547 44.4025 17.2436C44.4025 17.5326 44.2624 17.9628 43.6783 18.5151C43.091 19.0705 42.159 19.6413 40.8804 20.1527C38.3316 21.1722 34.7055 21.837 30.6223 21.837Z" stroke="#0A7A22" stroke-width="3.06225"/>
<path d="M61.2451 20.3057L56.7758 3.19996L44.1965 15.6234L61.2451 20.3057ZM52.5345 9.31829C41.7382 0.430006 31.7279 -1.25854 24.9116 1.80757C17.9953 4.91869 15.0436 12.622 17.9701 20.8204L20.8541 19.7909C18.375 12.8457 20.9381 6.95276 26.1678 4.60029C31.4976 2.20283 40.2647 3.18342 50.5882 11.6824L52.5345 9.31829Z" fill="#0A7A22"/>
<path d="M0 14.1816L4.46933 31.2873L17.0486 18.8639L0 14.1816ZM43.275 13.6669C42.9907 12.8705 42.1146 12.4553 41.3182 12.7396C40.5218 13.0239 40.1067 13.9 40.391 14.6964L43.275 13.6669ZM8.71061 25.169C19.5069 34.0573 29.5172 35.7458 36.3335 32.6797C43.2498 29.5686 46.2015 21.8653 43.275 13.6669L40.391 14.6964C42.8701 21.6416 40.307 27.5345 35.0773 29.887C29.7475 32.2845 20.9804 31.3039 10.6569 22.8049L8.71061 25.169Z" fill="#0A7A22"/>
<circle cx="7.65613" cy="21.837" r="1.02075" transform="rotate(-90 7.65613 21.837)" stroke="#0A7A22" stroke-width="1.02075"/>
<path d="M95.0741 22.8558C95.0827 22.9765 95.0482 23.0972 94.9707 23.2179C94.9017 23.33 94.8155 23.4334 94.712 23.5283C94.6172 23.6231 94.518 23.6964 94.4146 23.7481C94.3198 23.8085 94.2465 23.8429 94.1947 23.8516C94.074 23.8688 93.9404 23.8559 93.7939 23.8128C93.6473 23.7697 93.5352 23.7136 93.4576 23.6447C93.3973 23.5929 93.3542 23.5326 93.3283 23.4636C93.3111 23.386 93.2895 23.2782 93.2637 23.1403C93.2205 22.942 93.1774 22.7825 93.1343 22.6618C93.0999 22.5325 93.0697 22.4247 93.0438 22.3385C93.018 22.2437 92.9921 22.1575 92.9662 22.0799C92.949 22.0023 92.936 21.9075 92.9274 21.7954C92.8326 20.7436 92.7766 19.6961 92.7593 18.653C92.7421 17.6012 92.7507 16.5925 92.7852 15.6269C92.8197 14.6613 92.8714 13.7647 92.9404 12.9371C93.018 12.1008 93.0912 11.3767 93.1602 10.7646C93.2378 10.1438 93.3068 9.65242 93.3671 9.29033C93.4275 8.92824 93.4663 8.73427 93.4835 8.7084C93.5094 8.63943 93.5826 8.57477 93.7033 8.51443C93.8327 8.45408 93.9792 8.41097 94.143 8.38511C94.2637 8.36786 94.3542 8.35062 94.4146 8.33338C94.4749 8.31614 94.5267 8.29889 94.5698 8.28165C94.6129 8.25579 94.6603 8.23424 94.712 8.21699C94.7724 8.19113 94.8629 8.16096 94.9836 8.12647C95.087 8.10061 95.1474 8.15233 95.1646 8.28165C95.1819 8.41097 95.1776 8.64805 95.1517 8.9929C95.1258 9.33775 95.087 9.80761 95.0353 10.4025C94.9922 10.9973 94.9577 11.7474 94.9319 12.6526C95.0267 12.6698 95.1301 12.6785 95.2422 12.6785C95.3629 12.6785 95.4922 12.6785 95.6302 12.6785C96.0871 12.6785 96.6173 12.6311 97.2208 12.5362C97.8243 12.4414 98.4278 12.2733 99.0312 12.0319C99.6434 11.7819 100.221 11.4456 100.764 11.0232C101.307 10.5921 101.747 10.049 102.083 9.39379C102.135 9.26447 102.161 9.1136 102.161 8.94117C102.161 8.69978 102.079 8.4627 101.915 8.22993C101.76 7.98853 101.51 7.77731 101.165 7.59627C100.82 7.4066 100.372 7.25573 99.8201 7.14365C99.2683 7.02296 98.6045 6.96261 97.8286 6.96261C97.3717 6.96261 96.8975 6.99709 96.4061 7.06606C95.9147 7.13503 95.4146 7.24711 94.906 7.40229C94.3973 7.55747 93.8844 7.76007 93.3671 8.01008C92.8498 8.2601 92.3412 8.57046 91.8412 8.94117C91.8153 8.96704 91.7679 8.98859 91.6989 9.00583C91.6299 9.01446 91.561 9.01877 91.492 9.01877C91.3627 9.01877 91.2377 8.97135 91.117 8.87652C90.9963 8.78168 90.9359 8.68254 90.9359 8.57908C90.9359 8.52736 90.9532 8.48425 90.9877 8.44977C91.0221 8.40666 91.0609 8.36786 91.104 8.33338C91.1558 8.29889 91.1989 8.26872 91.2334 8.24286C91.2678 8.21699 91.2851 8.19544 91.2851 8.1782C91.2851 8.15233 91.2678 8.11785 91.2334 8.07474C91.1989 8.03164 91.1816 7.9756 91.1816 7.90663C91.1816 7.89801 91.1601 7.88939 91.117 7.88077C91.0739 7.87214 91.0221 7.85921 90.9618 7.84197C90.9101 7.82473 90.8626 7.79886 90.8195 7.76438C90.7764 7.72127 90.7549 7.66524 90.7549 7.59627C90.7549 7.54454 90.7807 7.50143 90.8325 7.46695C90.8928 7.43246 90.9618 7.38505 91.0394 7.3247C91.1428 7.26435 91.3239 7.14796 91.5825 6.97554C91.8412 6.80311 92.1515 6.60914 92.5136 6.39361C92.8843 6.17808 93.2938 5.95393 93.7421 5.72115C94.1904 5.48838 94.6603 5.27716 95.1517 5.08749C95.6517 4.88921 96.1604 4.72971 96.6777 4.60902C97.1949 4.4797 97.6993 4.41504 98.1907 4.41504C98.6907 4.41504 99.1692 4.50125 99.6261 4.67368C100.083 4.8461 100.51 5.07456 100.906 5.35906C101.303 5.64356 101.661 5.97548 101.98 6.35481C102.299 6.72552 102.57 7.11779 102.794 7.53161C103.027 7.9368 103.204 8.35062 103.325 8.77306C103.454 9.18688 103.519 9.57914 103.519 9.94986C103.519 10.3809 103.376 10.7947 103.092 11.1913C102.816 11.5879 102.458 11.9586 102.018 12.3034C101.587 12.6483 101.113 12.963 100.596 13.2475C100.079 13.5233 99.5873 13.7647 99.1218 13.9717C98.6821 14.1613 98.2295 14.2993 97.7639 14.3855C97.307 14.4631 96.8846 14.5105 96.4966 14.5277C96.9277 14.6915 97.3803 14.9157 97.8544 15.2002C98.3372 15.4847 98.8114 15.8813 99.2769 16.3899C99.5097 16.6485 99.7382 16.9977 99.9623 17.4374C100.186 17.8684 100.411 18.3469 100.635 18.8728C100.859 19.3987 101.083 19.9548 101.307 20.541C101.54 21.1273 101.781 21.7092 102.031 22.2868C102.29 22.8558 102.562 23.3989 102.846 23.9162C103.139 24.4421 103.45 24.9033 103.777 25.2999C104.113 25.6965 104.471 26.0112 104.851 26.2439C105.239 26.4853 105.661 26.606 106.118 26.606C106.532 26.606 106.98 26.4983 107.463 26.2827C107.954 26.0758 108.484 25.7181 109.053 25.2094C109.269 25.037 109.407 24.899 109.467 24.7956C109.536 24.7008 109.584 24.6533 109.609 24.6533C109.635 24.6533 109.653 24.6706 109.661 24.7051C109.678 24.7395 109.687 24.774 109.687 24.8085C109.696 24.8516 109.7 24.8904 109.7 24.9249C109.7 24.9594 109.704 24.9809 109.713 24.9896V25.0154C109.713 25.0585 109.696 25.0973 109.661 25.1318C109.687 25.1318 109.704 25.1447 109.713 25.1706C109.73 25.2051 109.739 25.2439 109.739 25.287C109.739 25.356 109.722 25.4249 109.687 25.4939C109.627 25.5801 109.553 25.731 109.467 25.9465C109.381 26.1707 109.265 26.4207 109.118 26.6966C108.98 26.9724 108.808 27.2569 108.601 27.5501C108.394 27.8518 108.14 28.1277 107.838 28.3777C107.545 28.6277 107.191 28.8303 106.777 28.9855C106.364 29.1493 105.885 29.2312 105.342 29.2312C105.014 29.2312 104.674 29.1881 104.32 29.1019C103.976 29.0157 103.626 28.8648 103.273 28.6493C102.928 28.4424 102.583 28.1665 102.238 27.8216C101.893 27.4768 101.562 27.0457 101.243 26.5284C101.079 26.2784 100.906 25.8862 100.725 25.3517C100.553 24.8171 100.368 24.2137 100.169 23.5412C99.9796 22.8601 99.777 22.1446 99.5614 21.3945C99.3459 20.6445 99.1131 19.9246 98.8631 19.2349C98.6131 18.5452 98.3415 17.9245 98.0484 17.3727C97.7639 16.8123 97.4579 16.3856 97.1303 16.0925C96.9492 15.9373 96.7639 15.7864 96.5742 15.6399C96.3845 15.4933 96.1949 15.3683 96.0052 15.2648C95.8242 15.1528 95.6431 15.0665 95.4621 15.0062C95.281 14.9372 95.1129 14.9027 94.9577 14.9027H94.906C94.906 15.3683 94.906 15.864 94.906 16.3899C94.9146 16.9158 94.9189 17.446 94.9189 17.9805C94.9275 18.5064 94.9362 19.0237 94.9448 19.5323C94.9534 20.041 94.962 20.5152 94.9707 20.9548C94.9879 21.3859 95.0051 21.7695 95.0224 22.1058C95.0396 22.4334 95.0569 22.6834 95.0741 22.8558Z" fill="#0A7A22"/>
<path d="M114.601 18.9504C114.601 19.0452 114.605 19.1573 114.614 19.2866C114.623 19.4159 114.627 19.5625 114.627 19.7263C114.627 19.9332 114.597 20.1919 114.536 20.5022C114.476 20.804 114.377 21.1229 114.239 21.4592C114.11 21.7954 113.933 22.1316 113.709 22.4679C113.485 22.8041 113.209 23.1058 112.881 23.3731C112.554 23.6403 112.166 23.8559 111.717 24.0197C111.278 24.1921 110.773 24.2783 110.204 24.2783C109.696 24.2783 109.174 24.1792 108.64 23.9809C108.114 23.7912 107.631 23.4938 107.191 23.0886C106.76 22.6748 106.402 22.1532 106.118 21.5238C105.842 20.8859 105.704 20.1272 105.704 19.2478C105.704 18.6961 105.773 18.1529 105.911 17.6184C106.058 17.0839 106.247 16.5796 106.48 16.1054C106.721 15.6312 107.002 15.1959 107.321 14.7993C107.648 14.3941 107.989 14.0492 108.342 13.7647C108.704 13.4716 109.075 13.2432 109.454 13.0794C109.842 12.9156 110.217 12.8337 110.579 12.8337C111.209 12.8337 111.726 12.9328 112.131 13.1311C112.545 13.3294 112.873 13.5751 113.114 13.8682C113.355 14.1613 113.523 14.476 113.618 14.8122C113.722 15.1398 113.774 15.4373 113.774 15.7045C113.774 15.9632 113.709 16.2606 113.58 16.5968C113.459 16.9244 113.256 17.2391 112.972 17.5408C112.687 17.834 112.317 18.084 111.86 18.2909C111.403 18.4892 110.842 18.5883 110.178 18.5883C109.825 18.5883 109.506 18.5409 109.222 18.4461C108.946 18.3426 108.7 18.2176 108.484 18.071C108.269 17.9159 108.084 17.7521 107.928 17.5796C107.782 17.3986 107.657 17.2305 107.553 17.0753C107.398 17.6098 107.321 18.2348 107.321 18.9504C107.321 19.4418 107.39 19.8858 107.527 20.2824C107.674 20.6703 107.872 21.0023 108.122 21.2781C108.372 21.554 108.67 21.7652 109.015 21.9118C109.359 22.0583 109.739 22.1316 110.153 22.1316C110.67 22.1316 111.122 22.0454 111.51 21.873C111.898 21.6919 112.235 21.4678 112.519 21.2005C112.812 20.9333 113.062 20.6445 113.269 20.3341C113.485 20.0151 113.67 19.7263 113.825 19.4677C113.98 19.2004 114.114 18.9806 114.226 18.8082C114.347 18.6357 114.463 18.5538 114.575 18.5624C114.627 18.5624 114.653 18.6056 114.653 18.6918C114.653 18.7349 114.649 18.778 114.64 18.8211C114.631 18.8642 114.618 18.9073 114.601 18.9504ZM110.709 14.1398C110.553 14.1398 110.351 14.1743 110.101 14.2432C109.859 14.3036 109.601 14.4156 109.325 14.5794C109.058 14.7433 108.79 14.9674 108.523 15.2519C108.256 15.5278 108.023 15.8813 107.825 16.3123C107.946 16.252 108.049 16.2002 108.135 16.1571C108.23 16.114 108.295 16.0925 108.329 16.0925C108.346 16.0925 108.372 16.1097 108.407 16.1442C108.605 16.4804 108.851 16.7218 109.144 16.8684C109.446 17.0063 109.782 17.0753 110.153 17.0753C110.446 17.0753 110.696 17.0279 110.903 16.933C111.118 16.8296 111.295 16.7003 111.433 16.5451C111.571 16.3899 111.67 16.2218 111.73 16.0407C111.791 15.8511 111.821 15.6657 111.821 15.4847C111.821 15.0967 111.722 14.7777 111.523 14.5277C111.325 14.2691 111.054 14.1398 110.709 14.1398Z" fill="#0A7A22"/>
<path d="M125.27 19.7004C125.27 20.1919 125.162 20.6919 124.947 21.2005C124.731 21.7092 124.425 22.1747 124.028 22.5972C123.64 23.011 123.166 23.3515 122.606 23.6188C122.046 23.886 121.416 24.0197 120.718 24.0197C120.149 24.0197 119.571 23.899 118.985 23.6576C118.407 23.4162 117.886 23.0713 117.42 22.623C116.955 22.1661 116.575 21.6144 116.282 20.9678C115.989 20.3212 115.843 19.597 115.843 18.7952C115.843 18.0021 115.993 17.252 116.295 16.5451C116.606 15.8295 117.011 15.2088 117.511 14.6829C118.011 14.1484 118.58 13.7259 119.218 13.4156C119.864 13.1052 120.528 12.95 121.209 12.95C121.839 12.95 122.369 13.0363 122.8 13.2087C123.24 13.3725 123.593 13.5708 123.86 13.8035C124.128 14.0277 124.317 14.2605 124.429 14.5019C124.55 14.7433 124.61 14.9372 124.61 15.0838C124.61 15.4114 124.541 15.6787 124.403 15.8856C124.266 16.0925 124.106 16.2477 123.925 16.3511C123.753 16.4546 123.584 16.5149 123.421 16.5322C123.265 16.5408 123.166 16.5106 123.123 16.4416C123.089 16.4071 123.05 16.3899 123.007 16.3899C122.972 16.3899 122.934 16.3985 122.89 16.4158C122.847 16.433 122.804 16.4503 122.761 16.4675C122.727 16.4847 122.696 16.4847 122.671 16.4675C122.627 16.4503 122.623 16.4115 122.658 16.3511C122.701 16.2908 122.722 16.239 122.722 16.1959C122.722 16.1183 122.718 16.0321 122.709 15.9373C122.709 15.8338 122.731 15.7261 122.774 15.614C122.852 15.4588 122.882 15.2907 122.865 15.1097C122.856 14.92 122.791 14.7433 122.671 14.5794C122.559 14.4156 122.377 14.2777 122.127 14.1656C121.886 14.0536 121.571 13.9975 121.183 13.9975C120.908 13.9975 120.58 14.088 120.201 14.2691C119.821 14.4501 119.459 14.7346 119.114 15.1226C118.778 15.5019 118.489 15.989 118.248 16.5839C118.015 17.1701 117.899 17.8728 117.899 18.6918C117.899 19.0452 117.942 19.4159 118.028 19.8039C118.123 20.1919 118.287 20.5496 118.519 20.8772C118.752 21.2048 119.067 21.4764 119.464 21.6919C119.86 21.8989 120.364 22.0023 120.977 22.0023C121.382 22.0023 121.752 21.9463 122.089 21.8342C122.434 21.7221 122.744 21.5799 123.02 21.4074C123.296 21.235 123.541 21.0454 123.757 20.8384C123.972 20.6315 124.153 20.4376 124.3 20.2565C124.447 20.0668 124.559 19.903 124.636 19.7651C124.722 19.6272 124.774 19.541 124.791 19.5065C124.826 19.4634 124.869 19.4332 124.921 19.4159C124.972 19.3901 125.024 19.3858 125.076 19.403C125.128 19.4116 125.171 19.4418 125.205 19.4935C125.248 19.5366 125.27 19.6056 125.27 19.7004Z" fill="#0A7A22"/>
<path d="M137.335 13.1311C137.309 13.1742 137.219 13.3208 137.064 13.5708C136.917 13.8122 136.727 14.1225 136.495 14.5019C136.262 14.8726 135.995 15.2993 135.693 15.7821C135.4 16.2563 135.094 16.752 134.775 17.2693C134.464 17.7779 134.154 18.2866 133.844 18.7952C133.533 19.3039 133.24 19.7823 132.964 20.2307C132.697 20.6703 132.464 21.0626 132.266 21.4074C132.068 21.7523 131.921 22.0109 131.826 22.1834C131.731 22.3558 131.598 22.623 131.425 22.9851C131.253 23.3472 131.055 23.761 130.831 24.2266C130.606 24.7008 130.365 25.2094 130.106 25.7525C129.856 26.2957 129.602 26.8388 129.343 27.3819C129.093 27.9337 128.848 28.4639 128.606 28.9726C128.374 29.4898 128.162 29.9511 127.973 30.3563C127.792 30.7615 127.641 31.0934 127.52 31.352C127.399 31.6193 127.33 31.7788 127.313 31.8305C127.236 32.0288 127.162 32.1495 127.093 32.1926C127.033 32.2443 126.942 32.2831 126.822 32.309C126.761 32.3176 126.714 32.3003 126.679 32.2572C126.645 32.2141 126.615 32.1624 126.589 32.1021C126.563 32.0417 126.537 31.9857 126.511 31.9339C126.485 31.8908 126.455 31.865 126.421 31.8564C126.309 31.8391 126.244 31.8132 126.227 31.7788C126.218 31.7529 126.192 31.6969 126.149 31.6107C126.123 31.5762 126.098 31.5546 126.072 31.546C126.046 31.546 126.02 31.546 125.994 31.546C125.968 31.546 125.951 31.5417 125.942 31.5331C125.925 31.5244 125.916 31.4986 125.916 31.4555C125.934 31.3089 125.947 31.1623 125.955 31.0158C125.973 30.8692 125.994 30.7356 126.02 30.6149C126.046 30.5201 126.132 30.3218 126.279 30.02C126.434 29.7183 126.623 29.3476 126.848 28.9079C127.072 28.4768 127.322 27.9941 127.598 27.4595C127.882 26.9336 128.167 26.3948 128.451 25.8431C128.744 25.2999 129.029 24.7611 129.305 24.2266C129.589 23.6921 129.843 23.205 130.068 22.7653C129.956 22.5239 129.805 22.2135 129.615 21.8342C129.425 21.4462 129.218 21.0195 128.994 20.5539C128.77 20.0798 128.529 19.5798 128.27 19.0539C128.02 18.528 127.774 18.0064 127.533 17.4891C127.292 16.9718 127.059 16.4718 126.835 15.989C126.61 15.5062 126.412 15.0752 126.24 14.6958C126.076 14.3079 125.947 13.9889 125.852 13.7389C125.757 13.4802 125.71 13.3208 125.71 13.2604C125.718 13.1569 125.74 13.088 125.774 13.0535C125.809 13.0104 125.856 12.9888 125.916 12.9888C125.968 12.9888 126.024 13.0018 126.085 13.0276C126.154 13.0535 126.223 13.0794 126.292 13.1052C126.395 13.1483 126.494 13.1914 126.589 13.2345C126.684 13.269 126.753 13.2518 126.796 13.1828C126.822 13.1138 126.895 13.0794 127.016 13.0794C127.136 13.0707 127.236 13.088 127.313 13.1311C127.339 13.1569 127.361 13.1656 127.378 13.1569C127.404 13.1483 127.425 13.1311 127.442 13.1052C127.468 13.0794 127.494 13.0535 127.52 13.0276C127.555 12.9931 127.593 12.9673 127.636 12.95C127.731 12.9328 127.817 12.95 127.895 13.0018C127.973 13.0535 128.046 13.1656 128.115 13.338C128.158 13.4673 128.244 13.6915 128.374 14.0104C128.511 14.3294 128.671 14.7001 128.852 15.1226C129.042 15.545 129.249 16.0019 129.473 16.4934C129.697 16.9761 129.921 17.4546 130.145 17.9288C130.369 18.3943 130.581 18.834 130.779 19.2478C130.986 19.6617 131.167 20.0065 131.322 20.2824C131.555 19.8513 131.805 19.3944 132.072 18.9116C132.348 18.4202 132.624 17.9331 132.9 17.4503C133.184 16.9589 133.464 16.4804 133.74 16.0149C134.016 15.5493 134.275 15.1183 134.516 14.7217C134.766 14.3251 134.986 13.9803 135.176 13.6872C135.365 13.3854 135.521 13.1569 135.641 13.0018C135.71 12.9156 135.745 12.8595 135.745 12.8337C135.745 12.8078 135.779 12.7819 135.848 12.7561C135.9 12.7388 135.943 12.7216 135.977 12.7043C136.021 12.6871 136.085 12.6871 136.171 12.7043C136.249 12.7216 136.309 12.7302 136.352 12.7302C136.396 12.7302 136.43 12.7561 136.456 12.8078C136.473 12.8337 136.499 12.8423 136.534 12.8337C136.568 12.825 136.607 12.8121 136.65 12.7949C136.702 12.769 136.753 12.7474 136.805 12.7302C136.857 12.7043 136.909 12.6957 136.96 12.7043C137.021 12.713 137.081 12.7259 137.141 12.7431C137.202 12.7518 137.253 12.7733 137.296 12.8078C137.348 12.8423 137.378 12.8854 137.387 12.9371C137.396 12.9888 137.378 13.0535 137.335 13.1311Z" fill="#0A7A22"/>
<path d="M146.452 19.7004C146.452 20.1919 146.344 20.6919 146.129 21.2005C145.913 21.7092 145.607 22.1747 145.211 22.5972C144.823 23.011 144.349 23.3515 143.788 23.6188C143.228 23.886 142.599 24.0197 141.9 24.0197C141.331 24.0197 140.754 23.899 140.167 23.6576C139.59 23.4162 139.068 23.0713 138.603 22.623C138.137 22.1661 137.758 21.6144 137.465 20.9678C137.171 20.3212 137.025 19.597 137.025 18.7952C137.025 18.0021 137.176 17.252 137.478 16.5451C137.788 15.8295 138.193 15.2088 138.693 14.6829C139.193 14.1484 139.762 13.7259 140.4 13.4156C141.047 13.1052 141.711 12.95 142.392 12.95C143.021 12.95 143.551 13.0363 143.982 13.2087C144.422 13.3725 144.775 13.5708 145.043 13.8035C145.31 14.0277 145.5 14.2605 145.612 14.5019C145.732 14.7433 145.793 14.9372 145.793 15.0838C145.793 15.4114 145.724 15.6787 145.586 15.8856C145.448 16.0925 145.288 16.2477 145.107 16.3511C144.935 16.4546 144.767 16.5149 144.603 16.5322C144.448 16.5408 144.349 16.5106 144.306 16.4416C144.271 16.4071 144.232 16.3899 144.189 16.3899C144.155 16.3899 144.116 16.3985 144.073 16.4158C144.03 16.433 143.987 16.4503 143.943 16.4675C143.909 16.4847 143.879 16.4847 143.853 16.4675C143.81 16.4503 143.806 16.4115 143.84 16.3511C143.883 16.2908 143.905 16.239 143.905 16.1959C143.905 16.1183 143.9 16.0321 143.892 15.9373C143.892 15.8338 143.913 15.7261 143.956 15.614C144.034 15.4588 144.064 15.2907 144.047 15.1097C144.038 14.92 143.974 14.7433 143.853 14.5794C143.741 14.4156 143.56 14.2777 143.31 14.1656C143.068 14.0536 142.754 13.9975 142.366 13.9975C142.09 13.9975 141.762 14.088 141.383 14.2691C141.004 14.4501 140.642 14.7346 140.297 15.1226C139.96 15.5019 139.672 15.989 139.43 16.5839C139.197 17.1701 139.081 17.8728 139.081 18.6918C139.081 19.0452 139.124 19.4159 139.21 19.8039C139.305 20.1919 139.469 20.5496 139.702 20.8772C139.935 21.2048 140.249 21.4764 140.646 21.6919C141.042 21.8989 141.547 22.0023 142.159 22.0023C142.564 22.0023 142.935 21.9463 143.271 21.8342C143.616 21.7221 143.926 21.5799 144.202 21.4074C144.478 21.235 144.724 21.0454 144.939 20.8384C145.155 20.6315 145.336 20.4376 145.482 20.2565C145.629 20.0668 145.741 19.903 145.819 19.7651C145.905 19.6272 145.956 19.541 145.974 19.5065C146.008 19.4634 146.051 19.4332 146.103 19.4159C146.155 19.3901 146.207 19.3858 146.258 19.403C146.31 19.4116 146.353 19.4418 146.388 19.4935C146.431 19.5366 146.452 19.6056 146.452 19.7004Z" fill="#0A7A22"/>
<path d="M150.59 6.40654C150.59 6.52724 150.582 6.76432 150.565 7.11779C150.547 7.47126 150.526 7.89801 150.5 8.39804C150.474 8.88945 150.444 9.43258 150.409 10.0274C150.383 10.6137 150.353 11.2042 150.319 11.7991C150.284 12.3853 150.254 12.9543 150.228 13.5061C150.202 14.0579 150.185 14.5407 150.177 14.9545C150.159 15.2045 150.146 15.4804 150.138 15.7821C150.138 16.0838 150.138 16.4071 150.138 16.752C150.138 17.2089 150.138 17.6874 150.138 18.1874C150.146 18.6788 150.155 19.1659 150.164 19.6487C150.172 20.1315 150.181 20.5971 150.19 21.0454C150.207 21.485 150.22 21.8816 150.228 22.2351C150.237 22.5886 150.241 22.886 150.241 23.1274C150.25 23.3602 150.254 23.5067 150.254 23.5671C150.254 23.6878 150.233 23.7783 150.19 23.8386C150.155 23.9076 150.108 23.9507 150.047 23.9679C149.996 23.9938 149.939 23.9981 149.879 23.9809C149.819 23.9723 149.767 23.955 149.724 23.9292C149.672 23.9033 149.629 23.8731 149.595 23.8386C149.569 23.8041 149.547 23.7783 149.53 23.761C149.513 23.7438 149.495 23.7395 149.478 23.7481C149.47 23.7567 149.461 23.7912 149.452 23.8516C149.427 24.0757 149.375 24.2438 149.297 24.3559C149.228 24.468 149.151 24.5413 149.064 24.5757C148.987 24.6188 148.914 24.6318 148.845 24.6145C148.776 24.5973 148.733 24.5671 148.715 24.524C148.698 24.4809 148.668 24.455 148.625 24.4464C148.59 24.4378 148.551 24.4292 148.508 24.4206C148.465 24.4206 148.422 24.4076 148.379 24.3818C148.345 24.3645 148.323 24.3214 148.314 24.2524C148.245 23.9593 148.202 23.5886 148.185 23.1403C148.168 22.6834 148.159 22.1704 148.159 21.6014C148.159 21.11 148.164 20.5798 148.172 20.0108C148.181 19.4418 148.185 18.8599 148.185 18.265C148.185 17.9202 148.185 17.5796 148.185 17.2434C148.185 16.8986 148.176 16.5494 148.159 16.1959V15.3812C148.159 14.6829 148.176 13.9846 148.211 13.2863C148.245 12.5793 148.289 11.9026 148.34 11.256C148.392 10.6094 148.448 10.0016 148.508 9.43258C148.569 8.86358 148.62 8.35924 148.664 7.91956C148.707 7.47988 148.741 7.1221 148.767 6.84622C148.793 6.57034 148.801 6.39792 148.793 6.32895C148.784 6.2686 148.789 6.22549 148.806 6.19963C148.832 6.17377 148.862 6.16083 148.896 6.16083C148.939 6.15221 148.983 6.1479 149.026 6.1479C149.069 6.13928 149.108 6.12635 149.142 6.10911C149.202 6.07462 149.25 6.066 149.284 6.08324C149.327 6.09186 149.362 6.10911 149.388 6.13497C149.414 6.16083 149.435 6.19101 149.452 6.22549C149.478 6.25136 149.513 6.26429 149.556 6.26429C149.608 6.25567 149.646 6.24274 149.672 6.22549C149.707 6.19963 149.733 6.17808 149.75 6.16083C149.776 6.13497 149.797 6.11342 149.814 6.09618C149.84 6.07893 149.871 6.07462 149.905 6.08324C149.974 6.10049 150.039 6.11342 150.099 6.12204C150.168 6.12204 150.202 6.10911 150.202 6.08324C150.22 6.01427 150.246 5.9841 150.28 5.99272C150.315 5.99272 150.358 6.01427 150.409 6.05738C150.461 6.10049 150.504 6.1479 150.539 6.19963C150.573 6.24274 150.59 6.31171 150.59 6.40654Z" fill="#0A7A22"/>
<path d="M160.949 18.9504C160.949 19.0452 160.953 19.1573 160.962 19.2866C160.97 19.4159 160.975 19.5625 160.975 19.7263C160.975 19.9332 160.944 20.1919 160.884 20.5022C160.824 20.804 160.725 21.1229 160.587 21.4592C160.457 21.7954 160.281 22.1316 160.056 22.4679C159.832 22.8041 159.556 23.1058 159.229 23.3731C158.901 23.6403 158.513 23.8559 158.065 24.0197C157.625 24.1921 157.121 24.2783 156.552 24.2783C156.043 24.2783 155.522 24.1792 154.987 23.9809C154.461 23.7912 153.979 23.4938 153.539 23.0886C153.108 22.6748 152.75 22.1532 152.466 21.5238C152.19 20.8859 152.052 20.1272 152.052 19.2478C152.052 18.6961 152.121 18.1529 152.259 17.6184C152.405 17.0839 152.595 16.5796 152.828 16.1054C153.069 15.6312 153.349 15.1959 153.668 14.7993C153.996 14.3941 154.336 14.0492 154.69 13.7647C155.052 13.4716 155.423 13.2432 155.802 13.0794C156.19 12.9156 156.565 12.8337 156.927 12.8337C157.556 12.8337 158.074 12.9328 158.479 13.1311C158.893 13.3294 159.22 13.5751 159.462 13.8682C159.703 14.1613 159.871 14.476 159.966 14.8122C160.069 15.1398 160.121 15.4373 160.121 15.7045C160.121 15.9632 160.056 16.2606 159.927 16.5968C159.806 16.9244 159.604 17.2391 159.319 17.5408C159.035 17.834 158.664 18.084 158.207 18.2909C157.75 18.4892 157.19 18.5883 156.526 18.5883C156.173 18.5883 155.854 18.5409 155.569 18.4461C155.293 18.3426 155.048 18.2176 154.832 18.071C154.616 17.9159 154.431 17.7521 154.276 17.5796C154.129 17.3986 154.004 17.2305 153.901 17.0753C153.746 17.6098 153.668 18.2348 153.668 18.9504C153.668 19.4418 153.737 19.8858 153.875 20.2824C154.022 20.6703 154.22 21.0023 154.47 21.2781C154.72 21.554 155.017 21.7652 155.362 21.9118C155.707 22.0583 156.086 22.1316 156.5 22.1316C157.018 22.1316 157.47 22.0454 157.858 21.873C158.246 21.6919 158.582 21.4678 158.867 21.2005C159.16 20.9333 159.41 20.6445 159.617 20.3341C159.832 20.0151 160.018 19.7263 160.173 19.4677C160.328 19.2004 160.462 18.9806 160.574 18.8082C160.694 18.6357 160.811 18.5538 160.923 18.5624C160.975 18.5624 161.001 18.6056 161.001 18.6918C161.001 18.7349 160.996 18.778 160.988 18.8211C160.979 18.8642 160.966 18.9073 160.949 18.9504ZM157.056 14.1398C156.901 14.1398 156.699 14.1743 156.449 14.2432C156.207 14.3036 155.948 14.4156 155.673 14.5794C155.405 14.7433 155.138 14.9674 154.871 15.2519C154.604 15.5278 154.371 15.8813 154.173 16.3123C154.293 16.252 154.397 16.2002 154.483 16.1571C154.578 16.114 154.642 16.0925 154.677 16.0925C154.694 16.0925 154.72 16.1097 154.754 16.1442C154.953 16.4804 155.198 16.7218 155.492 16.8684C155.793 17.0063 156.13 17.0753 156.5 17.0753C156.793 17.0753 157.043 17.0279 157.25 16.933C157.466 16.8296 157.643 16.7003 157.78 16.5451C157.918 16.3899 158.018 16.2218 158.078 16.0407C158.138 15.8511 158.168 15.6657 158.168 15.4847C158.168 15.0967 158.069 14.7777 157.871 14.5277C157.673 14.2691 157.401 14.1398 157.056 14.1398Z" fill="#0A7A22"/>
<path d="M84.6767 23.9298C82.5817 23.9298 80.9264 23.2918 79.7108 22.0159C78.5039 20.74 77.9004 18.9683 77.9004 16.7009C77.9004 14.4163 78.4608 12.6015 79.5815 11.2566C80.7109 9.91171 82.2239 9.23926 84.1206 9.23926C85.8966 9.23926 87.3018 9.8255 88.3364 10.998C89.3709 12.1618 89.8882 13.7007 89.8882 15.6146V16.9725H80.1247C80.1678 18.6364 80.5859 19.8994 81.379 20.7615C82.1808 21.6236 83.3059 22.0547 84.7543 22.0547C86.2802 22.0547 87.7889 21.7357 89.2804 21.0977V23.0116C88.5217 23.3393 87.8019 23.572 87.1208 23.71C86.4483 23.8565 85.6336 23.9298 84.6767 23.9298ZM84.0947 11.0368C82.9567 11.0368 82.0472 11.4075 81.3661 12.1489C80.6937 12.8903 80.2971 13.9163 80.1764 15.2267H87.5863C87.5863 13.8732 87.2846 12.8386 86.6811 12.1231C86.0776 11.3989 85.2155 11.0368 84.0947 11.0368Z" fill="#0A7A22"/>
</svg>
