<svg width="84" height="29" viewBox="0 0 84 29" fill="none" xmlns="http://www.w3.org/2000/svg">
<path d="M18.0741 18.8558C18.0827 18.9765 18.0482 19.0972 17.9707 19.2179C17.9017 19.33 17.8155 19.4334 17.712 19.5283C17.6172 19.6231 17.518 19.6964 17.4146 19.7481C17.3198 19.8085 17.2465 19.8429 17.1947 19.8516C17.074 19.8688 16.9404 19.8559 16.7939 19.8128C16.6473 19.7697 16.5352 19.7136 16.4576 19.6447C16.3973 19.5929 16.3542 19.5326 16.3283 19.4636C16.3111 19.386 16.2895 19.2782 16.2637 19.1403C16.2205 18.942 16.1774 18.7825 16.1343 18.6618C16.0999 18.5325 16.0697 18.4247 16.0438 18.3385C16.018 18.2437 15.9921 18.1575 15.9662 18.0799C15.949 18.0023 15.936 17.9075 15.9274 17.7954C15.8326 16.7436 15.7766 15.6961 15.7593 14.653C15.7421 13.6012 15.7507 12.5925 15.7852 11.6269C15.8197 10.6613 15.8714 9.76474 15.9404 8.93711C16.018 8.10085 16.0912 7.37667 16.1602 6.76456C16.2378 6.14383 16.3068 5.65242 16.3671 5.29033C16.4275 4.92824 16.4663 4.73427 16.4835 4.7084C16.5094 4.63943 16.5826 4.57477 16.7033 4.51443C16.8327 4.45408 16.9792 4.41097 17.143 4.38511C17.2637 4.36786 17.3542 4.35062 17.4146 4.33338C17.4749 4.31614 17.5267 4.29889 17.5698 4.28165C17.6129 4.25579 17.6603 4.23424 17.712 4.21699C17.7724 4.19113 17.8629 4.16096 17.9836 4.12647C18.087 4.10061 18.1474 4.15233 18.1646 4.28165C18.1819 4.41097 18.1776 4.64805 18.1517 4.9929C18.1258 5.33775 18.087 5.80761 18.0353 6.40247C17.9922 6.99733 17.9577 7.74738 17.9319 8.65261C18.0267 8.66985 18.1301 8.67847 18.2422 8.67847C18.3629 8.67847 18.4922 8.67847 18.6302 8.67847C19.0871 8.67847 19.6173 8.63105 20.2208 8.53622C20.8243 8.44139 21.4278 8.27327 22.0312 8.03188C22.6434 7.78186 23.221 7.44564 23.7641 7.0232C24.3072 6.59214 24.7469 6.049 25.0832 5.39379C25.1349 5.26447 25.1607 5.1136 25.1607 4.94117C25.1607 4.69978 25.0788 4.4627 24.915 4.22993C24.7599 3.98853 24.5098 3.77731 24.165 3.59627C23.8201 3.4066 23.3718 3.25573 22.8201 3.14365C22.2683 3.02296 21.6045 2.96261 20.8286 2.96261C20.3717 2.96261 19.8975 2.99709 19.4061 3.06606C18.9147 3.13503 18.4146 3.24711 17.906 3.40229C17.3973 3.55747 16.8844 3.76007 16.3671 4.01008C15.8498 4.2601 15.3412 4.57046 14.8412 4.94117C14.8153 4.96704 14.7679 4.98859 14.6989 5.00583C14.6299 5.01446 14.561 5.01877 14.492 5.01877C14.3627 5.01877 14.2377 4.97135 14.117 4.87652C13.9963 4.78168 13.9359 4.68254 13.9359 4.57908C13.9359 4.52736 13.9532 4.48425 13.9877 4.44977C14.0221 4.40666 14.0609 4.36786 14.104 4.33338C14.1558 4.29889 14.1989 4.26872 14.2334 4.24286C14.2678 4.21699 14.2851 4.19544 14.2851 4.1782C14.2851 4.15233 14.2678 4.11785 14.2334 4.07474C14.1989 4.03164 14.1816 3.9756 14.1816 3.90663C14.1816 3.89801 14.1601 3.88939 14.117 3.88077C14.0739 3.87214 14.0221 3.85921 13.9618 3.84197C13.9101 3.82473 13.8626 3.79886 13.8195 3.76438C13.7764 3.72127 13.7549 3.66524 13.7549 3.59627C13.7549 3.54454 13.7807 3.50143 13.8325 3.46695C13.8928 3.43246 13.9618 3.38505 14.0394 3.3247C14.1428 3.26435 14.3239 3.14796 14.5825 2.97554C14.8412 2.80311 15.1515 2.60914 15.5136 2.39361C15.8843 2.17808 16.2938 1.95393 16.7421 1.72115C17.1904 1.48838 17.6603 1.27716 18.1517 1.08749C18.6517 0.889206 19.1604 0.729713 19.6777 0.609016C20.1949 0.479698 20.6993 0.415039 21.1907 0.415039C21.6907 0.415039 22.1692 0.501251 22.6261 0.673675C23.083 0.8461 23.5098 1.07456 23.9064 1.35906C24.3029 1.64356 24.6607 1.97548 24.9797 2.35481C25.2987 2.72552 25.5703 3.11779 25.7944 3.53161C26.0272 3.9368 26.2039 4.35062 26.3246 4.77306C26.4539 5.18688 26.5186 5.57914 26.5186 5.94986C26.5186 6.38092 26.3763 6.79474 26.0918 7.19131C25.816 7.58789 25.4582 7.9586 25.0185 8.30345C24.5874 8.6483 24.1133 8.96297 23.596 9.24747C23.0787 9.52335 22.5873 9.76474 22.1218 9.97165C21.6821 10.1613 21.2295 10.2993 20.7639 10.3855C20.307 10.4631 19.8846 10.5105 19.4966 10.5277C19.9277 10.6915 20.3803 10.9157 20.8544 11.2002C21.3372 11.4847 21.8114 11.8813 22.2769 12.3899C22.5097 12.6485 22.7382 12.9977 22.9623 13.4374C23.1865 13.8684 23.4106 14.3469 23.6348 14.8728C23.8589 15.3987 24.0831 15.9548 24.3072 16.541C24.54 17.1273 24.7814 17.7092 25.0314 18.2868C25.2901 18.8558 25.5616 19.3989 25.8461 19.9162C26.1393 20.4421 26.4496 20.9033 26.7772 21.2999C27.1134 21.6965 27.4712 22.0112 27.8506 22.2439C28.2385 22.4853 28.661 22.606 29.1179 22.606C29.5317 22.606 29.98 22.4983 30.4628 22.2827C30.9542 22.0758 31.4844 21.7181 32.0534 21.2094C32.2689 21.037 32.4069 20.899 32.4672 20.7956C32.5362 20.7008 32.5836 20.6533 32.6095 20.6533C32.6353 20.6533 32.6526 20.6706 32.6612 20.7051C32.6784 20.7395 32.6871 20.774 32.6871 20.8085C32.6957 20.8516 32.7 20.8904 32.7 20.9249C32.7 20.9594 32.7043 20.9809 32.7129 20.9896V21.0154C32.7129 21.0585 32.6957 21.0973 32.6612 21.1318C32.6871 21.1318 32.7043 21.1447 32.7129 21.1706C32.7302 21.2051 32.7388 21.2439 32.7388 21.287C32.7388 21.356 32.7215 21.4249 32.6871 21.4939C32.6267 21.5801 32.5534 21.731 32.4672 21.9465C32.381 22.1707 32.2646 22.4207 32.1181 22.6966C31.9801 22.9724 31.8077 23.2569 31.6008 23.5501C31.3939 23.8518 31.1396 24.1277 30.8378 24.3777C30.5447 24.6277 30.1912 24.8303 29.7774 24.9855C29.3636 25.1493 28.8851 25.2312 28.342 25.2312C28.0144 25.2312 27.6738 25.1881 27.3204 25.1019C26.9755 25.0157 26.6263 24.8648 26.2729 24.6493C25.928 24.4424 25.5832 24.1665 25.2383 23.8216C24.8935 23.4768 24.5616 23.0457 24.2426 22.5284C24.0788 22.2784 23.9064 21.8862 23.7253 21.3517C23.5529 20.8171 23.3675 20.2137 23.1692 19.5412C22.9796 18.8601 22.777 18.1446 22.5614 17.3945C22.3459 16.6445 22.1131 15.9246 21.8631 15.2349C21.6131 14.5452 21.3415 13.9245 21.0484 13.3727C20.7639 12.8123 20.4579 12.3856 20.1303 12.0925C19.9492 11.9373 19.7639 11.7864 19.5742 11.6399C19.3845 11.4933 19.1949 11.3683 19.0052 11.2648C18.8242 11.1528 18.6431 11.0665 18.4621 11.0062C18.281 10.9372 18.1129 10.9027 17.9577 10.9027H17.906C17.906 11.3683 17.906 11.864 17.906 12.3899C17.9146 12.9158 17.9189 13.446 17.9189 13.9805C17.9275 14.5064 17.9362 15.0237 17.9448 15.5323C17.9534 16.041 17.962 16.5152 17.9707 16.9548C17.9879 17.3859 18.0051 17.7695 18.0224 18.1058C18.0396 18.4334 18.0569 18.6834 18.0741 18.8558Z" fill="#0A7A22"/>
<path d="M37.6012 14.9504C37.6012 15.0452 37.6055 15.1573 37.6141 15.2866C37.6227 15.4159 37.627 15.5625 37.627 15.7263C37.627 15.9332 37.5968 16.1919 37.5365 16.5022C37.4761 16.804 37.377 17.1229 37.2391 17.4592C37.1097 17.7954 36.933 18.1316 36.7089 18.4679C36.4847 18.8041 36.2088 19.1058 35.8812 19.3731C35.5536 19.6403 35.1657 19.8559 34.7174 20.0197C34.2777 20.1921 33.7733 20.2783 33.2043 20.2783C32.6957 20.2783 32.1741 20.1792 31.6396 19.9809C31.1137 19.7912 30.6309 19.4938 30.1912 19.0886C29.7602 18.6748 29.4024 18.1532 29.1179 17.5238C28.842 16.8859 28.7041 16.1272 28.7041 15.2478C28.7041 14.6961 28.773 14.1529 28.911 13.6184C29.0575 13.0839 29.2472 12.5796 29.48 12.1054C29.7214 11.6312 30.0016 11.1959 30.3205 10.7993C30.6481 10.3941 30.9887 10.0492 31.3422 9.76474C31.7042 9.47162 32.075 9.24316 32.4543 9.07936C32.8422 8.91555 33.2173 8.83365 33.5794 8.83365C34.2087 8.83365 34.726 8.9328 35.1312 9.13108C35.545 9.32937 35.8726 9.57508 36.114 9.8682C36.3554 10.1613 36.5235 10.476 36.6183 10.8122C36.7218 11.1398 36.7735 11.4373 36.7735 11.7045C36.7735 11.9632 36.7089 12.2606 36.5795 12.5968C36.4588 12.9244 36.2562 13.2391 35.9717 13.5408C35.6872 13.834 35.3165 14.084 34.8596 14.2909C34.4027 14.4892 33.8423 14.5883 33.1785 14.5883C32.825 14.5883 32.506 14.5409 32.2215 14.4461C31.9456 14.3426 31.6999 14.2176 31.4844 14.071C31.2689 13.9159 31.0835 13.7521 30.9283 13.5796C30.7818 13.3986 30.6568 13.2305 30.5533 13.0753C30.3981 13.6098 30.3205 14.2348 30.3205 14.9504C30.3205 15.4418 30.3895 15.8858 30.5274 16.2824C30.674 16.6703 30.8723 17.0023 31.1223 17.2781C31.3723 17.554 31.6698 17.7652 32.0146 17.9118C32.3595 18.0583 32.7388 18.1316 33.1526 18.1316C33.6699 18.1316 34.1225 18.0454 34.5104 17.873C34.8984 17.6919 35.2346 17.4678 35.5191 17.2005C35.8123 16.9333 36.0623 16.6445 36.2692 16.3341C36.4847 16.0151 36.6701 15.7263 36.8252 15.4677C36.9804 15.2004 37.1141 14.9806 37.2261 14.8082C37.3468 14.6357 37.4632 14.5538 37.5753 14.5624C37.627 14.5624 37.6529 14.6056 37.6529 14.6918C37.6529 14.7349 37.6486 14.778 37.6399 14.8211C37.6313 14.8642 37.6184 14.9073 37.6012 14.9504ZM33.7087 10.1398C33.5535 10.1398 33.3509 10.1743 33.1009 10.2432C32.8595 10.3036 32.6008 10.4156 32.325 10.5794C32.0577 10.7433 31.7905 10.9674 31.5232 11.2519C31.2559 11.5278 31.0232 11.8813 30.8249 12.3123C30.9456 12.252 31.049 12.2002 31.1352 12.1571C31.2301 12.114 31.2947 12.0925 31.3292 12.0925C31.3465 12.0925 31.3723 12.1097 31.4068 12.1442C31.6051 12.4804 31.8508 12.7218 32.1439 12.8684C32.4457 13.0063 32.7819 13.0753 33.1526 13.0753C33.4457 13.0753 33.6957 13.0279 33.9027 12.933C34.1182 12.8296 34.2949 12.7003 34.4329 12.5451C34.5708 12.3899 34.6699 12.2218 34.7303 12.0407C34.7906 11.8511 34.8208 11.6657 34.8208 11.4847C34.8208 11.0967 34.7217 10.7777 34.5234 10.5277C34.3251 10.2691 34.0535 10.1398 33.7087 10.1398Z" fill="#0A7A22"/>
<path d="M48.2699 15.7004C48.2699 16.1919 48.1621 16.6919 47.9466 17.2005C47.7311 17.7092 47.425 18.1747 47.0284 18.5972C46.6405 19.011 46.1663 19.3515 45.6059 19.6188C45.0456 19.886 44.4162 20.0197 43.7179 20.0197C43.1489 20.0197 42.5713 19.899 41.985 19.6576C41.4074 19.4162 40.8858 19.0713 40.4203 18.623C39.9547 18.1661 39.5754 17.6144 39.2823 16.9678C38.9892 16.3212 38.8426 15.597 38.8426 14.7952C38.8426 14.0021 38.9935 13.252 39.2952 12.5451C39.6056 11.8295 40.0108 11.2088 40.5108 10.6829C41.0108 10.1484 41.5798 9.72595 42.2178 9.41558C42.8644 9.10522 43.5282 8.95004 44.2093 8.95004C44.8387 8.95004 45.3689 9.03625 45.7999 9.20867C46.2396 9.37248 46.5931 9.57077 46.8603 9.80354C47.1276 10.0277 47.3173 10.2605 47.4293 10.5019C47.55 10.7433 47.6104 10.9372 47.6104 11.0838C47.6104 11.4114 47.5414 11.6787 47.4035 11.8856C47.2655 12.0925 47.106 12.2477 46.925 12.3511C46.7526 12.4546 46.5844 12.5149 46.4206 12.5322C46.2655 12.5408 46.1663 12.5106 46.1232 12.4416C46.0887 12.4071 46.0499 12.3899 46.0068 12.3899C45.9723 12.3899 45.9336 12.3985 45.8904 12.4158C45.8473 12.433 45.8042 12.4503 45.7611 12.4675C45.7266 12.4847 45.6965 12.4847 45.6706 12.4675C45.6275 12.4503 45.6232 12.4115 45.6577 12.3511C45.7008 12.2908 45.7223 12.239 45.7223 12.1959C45.7223 12.1183 45.718 12.0321 45.7094 11.9373C45.7094 11.8338 45.731 11.7261 45.7741 11.614C45.8517 11.4588 45.8818 11.2907 45.8646 11.1097C45.856 10.92 45.7913 10.7433 45.6706 10.5794C45.5585 10.4156 45.3775 10.2777 45.1275 10.1656C44.8861 10.0536 44.5714 9.99752 44.1834 9.99752C43.9076 9.99752 43.58 10.088 43.2006 10.2691C42.8213 10.4501 42.4592 10.7346 42.1144 11.1226C41.7781 11.5019 41.4893 11.989 41.2479 12.5839C41.0152 13.1701 40.8988 13.8728 40.8988 14.6918C40.8988 15.0452 40.9419 15.4159 41.0281 15.8039C41.1229 16.1919 41.2867 16.5496 41.5195 16.8772C41.7523 17.2048 42.0669 17.4764 42.4635 17.6919C42.8601 17.8989 43.3644 18.0023 43.9765 18.0023C44.3817 18.0023 44.7524 17.9463 45.0887 17.8342C45.4335 17.7221 45.7439 17.5799 46.0198 17.4074C46.2956 17.235 46.5413 17.0454 46.7569 16.8384C46.9724 16.6315 47.1535 16.4376 47.3 16.2565C47.4466 16.0668 47.5586 15.903 47.6362 15.7651C47.7225 15.6272 47.7742 15.541 47.7914 15.5065C47.8259 15.4634 47.869 15.4332 47.9207 15.4159C47.9725 15.3901 48.0242 15.3858 48.0759 15.403C48.1276 15.4116 48.1708 15.4418 48.2052 15.4935C48.2483 15.5366 48.2699 15.6056 48.2699 15.7004Z" fill="#0A7A22"/>
<path d="M60.3353 9.13108C60.3094 9.17419 60.2189 9.32075 60.0637 9.57077C59.9172 9.81216 59.7275 10.1225 59.4947 10.5019C59.2619 10.8726 58.9947 11.2993 58.6929 11.7821C58.3998 12.2563 58.0938 12.752 57.7748 13.2693C57.4644 13.7779 57.1541 14.2866 56.8437 14.7952C56.5333 15.3039 56.2402 15.7823 55.9643 16.2307C55.6971 16.6703 55.4643 17.0626 55.266 17.4074C55.0677 17.7523 54.9212 18.0109 54.8263 18.1834C54.7315 18.3558 54.5979 18.623 54.4254 18.9851C54.253 19.3472 54.0547 19.761 53.8306 20.2266C53.6064 20.7008 53.365 21.2094 53.1064 21.7525C52.8564 22.2957 52.6021 22.8388 52.3434 23.3819C52.0934 23.9337 51.8477 24.4639 51.6063 24.9726C51.3735 25.4898 51.1623 25.9511 50.9726 26.3563C50.7916 26.7615 50.6407 27.0934 50.52 27.352C50.3993 27.6193 50.3304 27.7788 50.3131 27.8305C50.2355 28.0288 50.1623 28.1495 50.0933 28.1926C50.0329 28.2443 49.9424 28.2831 49.8217 28.309C49.7614 28.3176 49.714 28.3003 49.6795 28.2572C49.645 28.2141 49.6148 28.1624 49.5889 28.1021C49.5631 28.0417 49.5372 27.9857 49.5114 27.9339C49.4855 27.8908 49.4553 27.865 49.4208 27.8564C49.3088 27.8391 49.2441 27.8132 49.2269 27.7788C49.2182 27.7529 49.1924 27.6969 49.1493 27.6107C49.1234 27.5762 49.0975 27.5546 49.0717 27.546C49.0458 27.546 49.0199 27.546 48.9941 27.546C48.9682 27.546 48.951 27.5417 48.9424 27.5331C48.9251 27.5244 48.9165 27.4986 48.9165 27.4555C48.9337 27.3089 48.9467 27.1623 48.9553 27.0158C48.9725 26.8692 48.9941 26.7356 49.0199 26.6149C49.0458 26.5201 49.132 26.3218 49.2786 26.02C49.4338 25.7183 49.6234 25.3476 49.8476 24.9079C50.0717 24.4768 50.3217 23.9941 50.5976 23.4595C50.8821 22.9336 51.1666 22.3948 51.4511 21.8431C51.7442 21.2999 52.0287 20.7611 52.3046 20.2266C52.5891 19.6921 52.8434 19.205 53.0676 18.7653C52.9555 18.5239 52.8047 18.2135 52.615 17.8342C52.4253 17.4462 52.2184 17.0195 51.9943 16.5539C51.7701 16.0798 51.5287 15.5798 51.2701 15.0539C51.0201 14.528 50.7744 14.0064 50.533 13.4891C50.2916 12.9718 50.0588 12.4718 49.8346 11.989C49.6105 11.5062 49.4122 11.0752 49.2398 10.6958C49.076 10.3079 48.9467 9.98889 48.8518 9.73888C48.757 9.48024 48.7096 9.32075 48.7096 9.2604C48.7182 9.15695 48.7398 9.08798 48.7742 9.05349C48.8087 9.01039 48.8561 8.98883 48.9165 8.98883C48.9682 8.98883 49.0243 9.00177 49.0846 9.02763C49.1536 9.05349 49.2225 9.07936 49.2915 9.10522C49.395 9.14833 49.4941 9.19143 49.5889 9.23454C49.6838 9.26902 49.7527 9.25178 49.7959 9.18281C49.8217 9.11384 49.895 9.07936 50.0157 9.07936C50.1364 9.07073 50.2355 9.08798 50.3131 9.13108C50.339 9.15695 50.3605 9.16557 50.3778 9.15695C50.4036 9.14833 50.4252 9.13108 50.4424 9.10522C50.4683 9.07936 50.4942 9.05349 50.52 9.02763C50.5545 8.99314 50.5933 8.96728 50.6364 8.95004C50.7313 8.9328 50.8175 8.95004 50.8951 9.00177C50.9726 9.05349 51.0459 9.16557 51.1149 9.33799C51.158 9.46731 51.2442 9.69146 51.3735 10.0104C51.5115 10.3294 51.671 10.7001 51.852 11.1226C52.0417 11.545 52.2486 12.0019 52.4727 12.4934C52.6969 12.9761 52.921 13.4546 53.1452 13.9288C53.3693 14.3943 53.5806 14.834 53.7789 15.2478C53.9858 15.6617 54.1668 16.0065 54.322 16.2824C54.5548 15.8513 54.8048 15.3944 55.072 14.9116C55.3479 14.4202 55.6238 13.9331 55.8997 13.4503C56.1842 12.9589 56.4644 12.4804 56.7402 12.0149C57.0161 11.5493 57.2748 11.1183 57.5161 10.7217C57.7662 10.3251 57.986 9.98027 58.1757 9.68715C58.3653 9.38541 58.5205 9.15695 58.6412 9.00177C58.7102 8.91555 58.7447 8.85952 58.7447 8.83365C58.7447 8.80779 58.7792 8.78193 58.8481 8.75606C58.8998 8.73882 58.943 8.72158 58.9774 8.70433C59.0205 8.68709 59.0852 8.68709 59.1714 8.70433C59.249 8.72158 59.3094 8.7302 59.3525 8.7302C59.3956 8.7302 59.4301 8.75606 59.4559 8.80779C59.4732 8.83365 59.499 8.84227 59.5335 8.83365C59.568 8.82503 59.6068 8.8121 59.6499 8.79486C59.7016 8.76899 59.7533 8.74744 59.8051 8.7302C59.8568 8.70433 59.9085 8.69571 59.9603 8.70433C60.0206 8.71296 60.081 8.72589 60.1413 8.74313C60.2017 8.75175 60.2534 8.7733 60.2965 8.80779C60.3482 8.84227 60.3784 8.88538 60.387 8.93711C60.3956 8.98883 60.3784 9.05349 60.3353 9.13108Z" fill="#0A7A22"/>
<path d="M69.4522 15.7004C69.4522 16.1919 69.3444 16.6919 69.1289 17.2005C68.9134 17.7092 68.6073 18.1747 68.2108 18.5972C67.8228 19.011 67.3486 19.3515 66.7883 19.6188C66.2279 19.886 65.5985 20.0197 64.9002 20.0197C64.3312 20.0197 63.7536 19.899 63.1674 19.6576C62.5897 19.4162 62.0681 19.0713 61.6026 18.623C61.1371 18.1661 60.7577 17.6144 60.4646 16.9678C60.1715 16.3212 60.0249 15.597 60.0249 14.7952C60.0249 14.0021 60.1758 13.252 60.4775 12.5451C60.7879 11.8295 61.1931 11.2088 61.6931 10.6829C62.1932 10.1484 62.7622 9.72595 63.4001 9.41558C64.0467 9.10522 64.7105 8.95004 65.3916 8.95004C66.021 8.95004 66.5512 9.03625 66.9822 9.20867C67.4219 9.37248 67.7754 9.57077 68.0426 9.80354C68.3099 10.0277 68.4996 10.2605 68.6116 10.5019C68.7323 10.7433 68.7927 10.9372 68.7927 11.0838C68.7927 11.4114 68.7237 11.6787 68.5858 11.8856C68.4478 12.0925 68.2883 12.2477 68.1073 12.3511C67.9349 12.4546 67.7668 12.5149 67.603 12.5322C67.4478 12.5408 67.3486 12.5106 67.3055 12.4416C67.271 12.4071 67.2323 12.3899 67.1891 12.3899C67.1547 12.3899 67.1159 12.3985 67.0728 12.4158C67.0297 12.433 66.9865 12.4503 66.9434 12.4675C66.909 12.4847 66.8788 12.4847 66.8529 12.4675C66.8098 12.4503 66.8055 12.4115 66.84 12.3511C66.8831 12.2908 66.9046 12.239 66.9046 12.1959C66.9046 12.1183 66.9003 12.0321 66.8917 11.9373C66.8917 11.8338 66.9133 11.7261 66.9564 11.614C67.034 11.4588 67.0641 11.2907 67.0469 11.1097C67.0383 10.92 66.9736 10.7433 66.8529 10.5794C66.7408 10.4156 66.5598 10.2777 66.3098 10.1656C66.0684 10.0536 65.7537 9.99752 65.3658 9.99752C65.0899 9.99752 64.7623 10.088 64.3829 10.2691C64.0036 10.4501 63.6415 10.7346 63.2967 11.1226C62.9604 11.5019 62.6716 11.989 62.4302 12.5839C62.1975 13.1701 62.0811 13.8728 62.0811 14.6918C62.0811 15.0452 62.1242 15.4159 62.2104 15.8039C62.3052 16.1919 62.469 16.5496 62.7018 16.8772C62.9346 17.2048 63.2493 17.4764 63.6458 17.6919C64.0424 17.8989 64.5467 18.0023 65.1588 18.0023C65.564 18.0023 65.9348 17.9463 66.271 17.8342C66.6158 17.7221 66.9262 17.5799 67.2021 17.4074C67.478 17.235 67.7237 17.0454 67.9392 16.8384C68.1547 16.6315 68.3358 16.4376 68.4823 16.2565C68.6289 16.0668 68.741 15.903 68.8186 15.7651C68.9048 15.6272 68.9565 15.541 68.9737 15.5065C69.0082 15.4634 69.0513 15.4332 69.1031 15.4159C69.1548 15.3901 69.2065 15.3858 69.2582 15.403C69.31 15.4116 69.3531 15.4418 69.3876 15.4935C69.4307 15.5366 69.4522 15.6056 69.4522 15.7004Z" fill="#0A7A22"/>
<path d="M73.5904 2.40654C73.5904 2.52724 73.5818 2.76432 73.5645 3.11779C73.5473 3.47126 73.5257 3.89801 73.4999 4.39804C73.474 4.88945 73.4438 5.43258 73.4093 6.02745C73.3835 6.61369 73.3533 7.20424 73.3188 7.79911C73.2843 8.38535 73.2542 8.95435 73.2283 9.50611C73.2024 10.0579 73.1852 10.5407 73.1766 10.9545C73.1593 11.2045 73.1464 11.4804 73.1378 11.7821C73.1378 12.0838 73.1378 12.4071 73.1378 12.752C73.1378 13.2089 73.1378 13.6874 73.1378 14.1874C73.1464 14.6788 73.155 15.1659 73.1636 15.6487C73.1723 16.1315 73.1809 16.5971 73.1895 17.0454C73.2067 17.485 73.2197 17.8816 73.2283 18.2351C73.2369 18.5886 73.2412 18.886 73.2412 19.1274C73.2499 19.3602 73.2542 19.5067 73.2542 19.5671C73.2542 19.6878 73.2326 19.7783 73.1895 19.8386C73.155 19.9076 73.1076 19.9507 73.0473 19.9679C72.9955 19.9938 72.9395 19.9981 72.8791 19.9809C72.8188 19.9723 72.7671 19.955 72.724 19.9292C72.6722 19.9033 72.6291 19.8731 72.5946 19.8386C72.5688 19.8041 72.5472 19.7783 72.53 19.761C72.5127 19.7438 72.4955 19.7395 72.4783 19.7481C72.4696 19.7567 72.461 19.7912 72.4524 19.8516C72.4265 20.0757 72.3748 20.2438 72.2972 20.3559C72.2282 20.468 72.1507 20.5413 72.0644 20.5757C71.9868 20.6188 71.9136 20.6318 71.8446 20.6145C71.7756 20.5973 71.7325 20.5671 71.7153 20.524C71.698 20.4809 71.6679 20.455 71.6248 20.4464C71.5903 20.4378 71.5515 20.4292 71.5084 20.4206C71.4653 20.4206 71.4222 20.4076 71.3791 20.3818C71.3446 20.3645 71.323 20.3214 71.3144 20.2524C71.2454 19.9593 71.2023 19.5886 71.1851 19.1403C71.1678 18.6834 71.1592 18.1704 71.1592 17.6014C71.1592 17.11 71.1635 16.5798 71.1721 16.0108C71.1808 15.4418 71.1851 14.8599 71.1851 14.265C71.1851 13.9202 71.1851 13.5796 71.1851 13.2434C71.1851 12.8986 71.1765 12.5494 71.1592 12.1959V11.3812C71.1592 10.6829 71.1765 9.98458 71.2109 9.28627C71.2454 8.57933 71.2885 7.90256 71.3403 7.25597C71.392 6.60938 71.448 6.00158 71.5084 5.43258C71.5687 4.86358 71.6204 4.35924 71.6636 3.91956C71.7067 3.47988 71.7411 3.1221 71.767 2.84622C71.7929 2.57034 71.8015 2.39792 71.7929 2.32895C71.7842 2.2686 71.7886 2.22549 71.8058 2.19963C71.8317 2.17377 71.8618 2.16083 71.8963 2.16083C71.9394 2.15221 71.9825 2.1479 72.0256 2.1479C72.0687 2.13928 72.1075 2.12635 72.142 2.10911C72.2024 2.07462 72.2498 2.066 72.2843 2.08324C72.3274 2.09186 72.3619 2.10911 72.3877 2.13497C72.4136 2.16083 72.4352 2.19101 72.4524 2.22549C72.4783 2.25136 72.5127 2.26429 72.5558 2.26429C72.6076 2.25567 72.6464 2.24274 72.6722 2.22549C72.7067 2.19963 72.7326 2.17808 72.7498 2.16083C72.7757 2.13497 72.7972 2.11342 72.8145 2.09618C72.8403 2.07893 72.8705 2.07462 72.905 2.08324C72.974 2.10049 73.0386 2.11342 73.099 2.12204C73.168 2.12204 73.2024 2.10911 73.2024 2.08324C73.2197 2.01427 73.2455 1.9841 73.28 1.99272C73.3145 1.99272 73.3576 2.01427 73.4093 2.05738C73.4611 2.10049 73.5042 2.1479 73.5387 2.19963C73.5732 2.24274 73.5904 2.31171 73.5904 2.40654Z" fill="#0A7A22"/>
<path d="M83.9488 14.9504C83.9488 15.0452 83.9531 15.1573 83.9617 15.2866C83.9703 15.4159 83.9746 15.5625 83.9746 15.7263C83.9746 15.9332 83.9445 16.1919 83.8841 16.5022C83.8238 16.804 83.7246 17.1229 83.5867 17.4592C83.4574 17.7954 83.2806 18.1316 83.0565 18.4679C82.8323 18.8041 82.5564 19.1058 82.2288 19.3731C81.9012 19.6403 81.5133 19.8559 81.065 20.0197C80.6253 20.1921 80.121 20.2783 79.552 20.2783C79.0433 20.2783 78.5217 20.1792 77.9872 19.9809C77.4613 19.7912 76.9785 19.4938 76.5388 19.0886C76.1078 18.6748 75.75 18.1532 75.4655 17.5238C75.1896 16.8859 75.0517 16.1272 75.0517 15.2478C75.0517 14.6961 75.1207 14.1529 75.2586 13.6184C75.4052 13.0839 75.5948 12.5796 75.8276 12.1054C76.069 11.6312 76.3492 11.1959 76.6682 10.7993C76.9958 10.3941 77.3363 10.0492 77.6898 9.76474C78.0519 9.47162 78.4226 9.24316 78.8019 9.07936C79.1899 8.91555 79.5649 8.83365 79.927 8.83365C80.5563 8.83365 81.0736 8.9328 81.4788 9.13108C81.8926 9.32937 82.2202 9.57508 82.4616 9.8682C82.703 10.1613 82.8711 10.476 82.966 10.8122C83.0694 11.1398 83.1211 11.4373 83.1211 11.7045C83.1211 11.9632 83.0565 12.2606 82.9272 12.5968C82.8065 12.9244 82.6039 13.2391 82.3194 13.5408C82.0349 13.834 81.6642 14.084 81.2072 14.2909C80.7503 14.4892 80.1899 14.5883 79.5261 14.5883C79.1726 14.5883 78.8536 14.5409 78.5691 14.4461C78.2933 14.3426 78.0476 14.2176 77.832 14.071C77.6165 13.9159 77.4311 13.7521 77.276 13.5796C77.1294 13.3986 77.0044 13.2305 76.9009 13.0753C76.7458 13.6098 76.6682 14.2348 76.6682 14.9504C76.6682 15.4418 76.7371 15.8858 76.8751 16.2824C77.0216 16.6703 77.2199 17.0023 77.4699 17.2781C77.72 17.554 78.0174 17.7652 78.3622 17.9118C78.7071 18.0583 79.0864 18.1316 79.5002 18.1316C80.0175 18.1316 80.4701 18.0454 80.8581 17.873C81.246 17.6919 81.5823 17.4678 81.8668 17.2005C82.1599 16.9333 82.4099 16.6445 82.6168 16.3341C82.8323 16.0151 83.0177 15.7263 83.1729 15.4677C83.328 15.2004 83.4617 14.9806 83.5738 14.8082C83.6945 14.6357 83.8108 14.5538 83.9229 14.5624C83.9746 14.5624 84.0005 14.6056 84.0005 14.6918C84.0005 14.7349 83.9962 14.778 83.9876 14.8211C83.979 14.8642 83.966 14.9073 83.9488 14.9504ZM80.0563 10.1398C79.9011 10.1398 79.6985 10.1743 79.4485 10.2432C79.2071 10.3036 78.9485 10.4156 78.6726 10.5794C78.4053 10.7433 78.1381 10.9674 77.8708 11.2519C77.6036 11.5278 77.3708 11.8813 77.1725 12.3123C77.2932 12.252 77.3967 12.2002 77.4829 12.1571C77.5777 12.114 77.6424 12.0925 77.6768 12.0925C77.6941 12.0925 77.72 12.1097 77.7544 12.1442C77.9527 12.4804 78.1984 12.7218 78.4916 12.8684C78.7933 13.0063 79.1295 13.0753 79.5002 13.0753C79.7934 13.0753 80.0434 13.0279 80.2503 12.933C80.4658 12.8296 80.6425 12.7003 80.7805 12.5451C80.9184 12.3899 81.0176 12.2218 81.0779 12.0407C81.1383 11.8511 81.1684 11.6657 81.1684 11.4847C81.1684 11.0967 81.0693 10.7777 80.871 10.5277C80.6727 10.2691 80.4011 10.1398 80.0563 10.1398Z" fill="#0A7A22"/>
<path d="M7.67666 19.9298C5.58171 19.9298 3.92644 19.2918 2.71084 18.0159C1.50388 16.74 0.900391 14.9683 0.900391 12.7009C0.900391 10.4163 1.46077 8.60153 2.58153 7.25662C3.71091 5.91171 5.22393 5.23926 7.12059 5.23926C8.89656 5.23926 10.3018 5.8255 11.3364 6.99799C12.3709 8.16185 12.8882 9.70074 12.8882 11.6146V12.9725H3.12466C3.16777 14.6364 3.5859 15.8994 4.37905 16.7615C5.18082 17.6236 6.30589 18.0547 7.75425 18.0547C9.28021 18.0547 10.7889 17.7357 12.2804 17.0977V19.0116C11.5217 19.3393 10.8019 19.572 10.1208 19.71C9.44832 19.8565 8.63362 19.9298 7.67666 19.9298ZM7.09473 7.03678C5.95673 7.03678 5.04719 7.40749 4.36612 8.14892C3.69366 8.89034 3.29709 9.91627 3.17639 11.2267H10.5863C10.5863 9.87316 10.2846 8.83861 9.68109 8.12305C9.07761 7.39887 8.21549 7.03678 7.09473 7.03678Z" fill="#0A7A22"/>
</svg>
