<svg width="62" height="35" viewBox="0 0 62 35" fill="none" xmlns="http://www.w3.org/2000/svg">
<circle cx="30.6204" cy="17.2434" r="13.7801" transform="rotate(-180 30.6204 17.2434)" stroke="#0A7A22" stroke-width="3.06225"/>
<path d="M26.0292 17.2444C26.0292 13.1612 26.694 9.53512 27.7135 6.98634C28.225 5.7077 28.7957 4.7757 29.3511 4.18841C29.9034 3.60435 30.3336 3.46425 30.6226 3.46425C30.9115 3.46425 31.3417 3.60435 31.894 4.18841C32.4495 4.7757 33.0202 5.7077 33.5316 6.98634C34.5511 9.53512 35.2159 13.1612 35.2159 17.2444C35.2159 21.3276 34.5511 24.9537 33.5316 27.5025C33.0202 28.7811 32.4495 29.7131 31.894 30.3004C31.3417 30.8844 30.9115 31.0245 30.6226 31.0245C30.3336 31.0245 29.9034 30.8844 29.3511 30.3004C28.7957 29.7131 28.225 28.7811 27.7135 27.5025C26.694 24.9537 26.0292 21.3276 26.0292 17.2444Z" stroke="#0A7A22" stroke-width="3.06225"/>
<path d="M30.6223 21.837C26.5392 21.837 22.913 21.1722 20.3643 20.1527C19.0856 19.6413 18.1536 19.0705 17.5663 18.5151C16.9823 17.9628 16.8422 17.5326 16.8422 17.2436C16.8422 16.9547 16.9823 16.5245 17.5663 15.9722C18.1536 15.4168 19.0856 14.846 20.3643 14.3346C22.913 13.3151 26.5392 12.6503 30.6223 12.6503C34.7055 12.6503 38.3316 13.3151 40.8804 14.3346C42.159 14.846 43.091 15.4168 43.6783 15.9722C44.2624 16.5245 44.4025 16.9547 44.4025 17.2436C44.4025 17.5326 44.2624 17.9628 43.6783 18.5151C43.091 19.0705 42.159 19.6413 40.8804 20.1527C38.3316 21.1722 34.7055 21.837 30.6223 21.837Z" stroke="#0A7A22" stroke-width="3.06225"/>
<path d="M61.2451 20.3057L56.7758 3.19996L44.1965 15.6234L61.2451 20.3057ZM52.5345 9.31829C41.7382 0.430006 31.7279 -1.25854 24.9116 1.80757C17.9953 4.91869 15.0436 12.622 17.9701 20.8204L20.8541 19.7909C18.375 12.8457 20.9381 6.95276 26.1678 4.60029C31.4976 2.20283 40.2647 3.18342 50.5882 11.6824L52.5345 9.31829Z" fill="#0A7A22"/>
<path d="M0 14.1816L4.46933 31.2873L17.0486 18.8639L0 14.1816ZM43.275 13.6669C42.9907 12.8705 42.1146 12.4553 41.3182 12.7396C40.5218 13.0239 40.1067 13.9 40.391 14.6964L43.275 13.6669ZM8.71061 25.169C19.5069 34.0573 29.5172 35.7458 36.3335 32.6797C43.2498 29.5686 46.2015 21.8653 43.275 13.6669L40.391 14.6964C42.8701 21.6416 40.307 27.5345 35.0773 29.887C29.7475 32.2845 20.9804 31.3039 10.6569 22.8049L8.71061 25.169Z" fill="#0A7A22"/>
<circle cx="7.65613" cy="21.837" r="1.02075" transform="rotate(-90 7.65613 21.837)" stroke="#0A7A22" stroke-width="1.02075"/>
</svg>
