<svg width="161" height="35" viewBox="0 0 161 35" fill="none" xmlns="http://www.w3.org/2000/svg">
<circle cx="30.6204" cy="17.2444" r="13.7801" transform="rotate(-180 30.6204 17.2444)" stroke="white" stroke-width="3.06225"/>
<path d="M26.0297 17.2449C26.0297 13.1617 26.6945 9.53561 27.714 6.98682C28.2254 5.70819 28.7962 4.77619 29.3516 4.1889C29.9039 3.60484 30.3341 3.46474 30.6231 3.46474C30.912 3.46474 31.3422 3.60484 31.8945 4.1889C32.4499 4.77619 33.0207 5.70819 33.5321 6.98682C34.5516 9.53561 35.2164 13.1617 35.2164 17.2449C35.2164 21.328 34.5516 24.9542 33.5321 27.5029C33.0207 28.7816 32.4499 29.7136 31.8945 30.3009C31.3422 30.8849 30.912 31.025 30.6231 31.025C30.3341 31.025 29.9039 30.8849 29.3516 30.3009C28.7962 29.7136 28.2254 28.7816 27.714 27.5029C26.6945 24.9542 26.0297 21.328 26.0297 17.2449Z" stroke="white" stroke-width="3.06225"/>
<path d="M30.6228 21.837C26.5396 21.837 22.9135 21.1722 20.3648 20.1527C19.0861 19.6413 18.1541 19.0705 17.5668 18.5151C16.9828 17.9628 16.8427 17.5326 16.8427 17.2436C16.8427 16.9547 16.9828 16.5245 17.5668 15.9722C18.1541 15.4168 19.0861 14.846 20.3648 14.3346C22.9135 13.3151 26.5396 12.6503 30.6228 12.6503C34.706 12.6503 38.3321 13.3151 40.8809 14.3346C42.1595 14.846 43.0915 15.4168 43.6788 15.9722C44.2629 16.5245 44.403 16.9547 44.403 17.2436C44.403 17.5326 44.2629 17.9628 43.6788 18.5151C43.0915 19.0705 42.1595 19.6413 40.8809 20.1527C38.3321 21.1722 34.706 21.837 30.6228 21.837Z" stroke="white" stroke-width="3.06225"/>
<path d="M61.2451 20.3057L56.7758 3.19996L44.1965 15.6234L61.2451 20.3057ZM52.5345 9.31829C41.7382 0.430006 31.7279 -1.25854 24.9116 1.80757C17.9953 4.91869 15.0436 12.622 17.9701 20.8204L20.8541 19.7909C18.375 12.8457 20.9381 6.95276 26.1678 4.60029C31.4976 2.20283 40.2647 3.18342 50.5882 11.6824L52.5345 9.31829Z" fill="white"/>
<path d="M0 14.1826L4.46933 31.2883L17.0486 18.8649L0 14.1826ZM43.275 13.6679C42.9907 12.8715 42.1146 12.4563 41.3182 12.7406C40.5218 13.0249 40.1067 13.901 40.391 14.6974L43.275 13.6679ZM8.71061 25.17C19.5069 34.0583 29.5172 35.7468 36.3335 32.6807C43.2498 29.5696 46.2015 21.8662 43.275 13.6679L40.391 14.6974C42.8701 21.6426 40.307 27.5355 35.0773 29.888C29.7475 32.2855 20.9804 31.3049 10.6569 22.8058L8.71061 25.17Z" fill="white"/>
<path d="M95.0731 22.8563C95.0818 22.977 95.0473 23.0977 94.9697 23.2184C94.9007 23.3305 94.8145 23.4339 94.711 23.5288C94.6162 23.6236 94.5171 23.6969 94.4136 23.7486C94.3188 23.8089 94.2455 23.8434 94.1938 23.852C94.0731 23.8693 93.9394 23.8564 93.7929 23.8133C93.6463 23.7701 93.5342 23.7141 93.4567 23.6451C93.3963 23.5934 93.3532 23.5331 93.3273 23.4641C93.3101 23.3865 93.2885 23.2787 93.2627 23.1408C93.2196 22.9425 93.1765 22.783 93.1334 22.6623C93.0989 22.533 93.0687 22.4252 93.0428 22.339C93.017 22.2442 92.9911 22.158 92.9652 22.0804C92.948 22.0028 92.9351 21.908 92.9265 21.7959C92.8316 20.7441 92.7756 19.6966 92.7583 18.6535C92.7411 17.6017 92.7497 16.593 92.7842 15.6274C92.8187 14.6618 92.8704 13.7652 92.9394 12.9376C93.017 12.1013 93.0903 11.3772 93.1592 10.765C93.2368 10.1443 93.3058 9.65291 93.3661 9.29082C93.4265 8.92873 93.4653 8.73475 93.4825 8.70889C93.5084 8.63992 93.5817 8.57526 93.7024 8.51491C93.8317 8.45457 93.9782 8.41146 94.142 8.3856C94.2627 8.36835 94.3533 8.35111 94.4136 8.33387C94.474 8.31663 94.5257 8.29938 94.5688 8.28214C94.6119 8.25628 94.6593 8.23472 94.711 8.21748C94.7714 8.19162 94.8619 8.16144 94.9826 8.12696C95.0861 8.1011 95.1464 8.15282 95.1637 8.28214C95.1809 8.41146 95.1766 8.64854 95.1507 8.99339C95.1249 9.33824 95.0861 9.80809 95.0343 10.403C94.9912 10.9978 94.9567 11.7479 94.9309 12.6531C95.0257 12.6703 95.1292 12.679 95.2412 12.679C95.3619 12.679 95.4913 12.679 95.6292 12.679C96.0861 12.679 96.6163 12.6315 97.2198 12.5367C97.8233 12.4419 98.4268 12.2738 99.0303 12.0324C99.6424 11.7824 100.22 11.4461 100.763 11.0237C101.306 10.5926 101.746 10.0495 102.082 9.39428C102.134 9.26496 102.16 9.11409 102.16 8.94166C102.16 8.70027 102.078 8.46319 101.914 8.23041C101.759 7.98902 101.509 7.7778 101.164 7.59675C100.819 7.40709 100.371 7.25622 99.8191 7.14414C99.2674 7.02344 98.6035 6.9631 97.8276 6.9631C97.3707 6.9631 96.8965 6.99758 96.4051 7.06655C95.9137 7.13552 95.4137 7.2476 94.905 7.40278C94.3964 7.55796 93.8834 7.76056 93.3661 8.01057C92.8489 8.26059 92.3402 8.57095 91.8402 8.94166C91.8143 8.96753 91.7669 8.98908 91.6979 9.00632C91.629 9.01494 91.56 9.01925 91.491 9.01925C91.3617 9.01925 91.2367 8.97184 91.116 8.877C90.9953 8.78217 90.935 8.68303 90.935 8.57957C90.935 8.52785 90.9522 8.48474 90.9867 8.45025C91.0212 8.40715 91.06 8.36835 91.1031 8.33387C91.1548 8.29938 91.1979 8.26921 91.2324 8.24335C91.2669 8.21748 91.2841 8.19593 91.2841 8.17869C91.2841 8.15282 91.2669 8.11834 91.2324 8.07523C91.1979 8.03213 91.1807 7.97609 91.1807 7.90712C91.1807 7.8985 91.1591 7.88988 91.116 7.88125C91.0729 7.87263 91.0212 7.8597 90.9608 7.84246C90.9091 7.82522 90.8617 7.79935 90.8186 7.76487C90.7755 7.72176 90.7539 7.66572 90.7539 7.59675C90.7539 7.54503 90.7798 7.50192 90.8315 7.46744C90.8918 7.43295 90.9608 7.38553 91.0384 7.32519C91.1419 7.26484 91.3229 7.14845 91.5815 6.97603C91.8402 6.8036 92.1505 6.60963 92.5126 6.3941C92.8833 6.17857 93.2929 5.95441 93.7412 5.72164C94.1895 5.48887 94.6593 5.27765 95.1507 5.08798C95.6508 4.88969 96.1594 4.7302 96.6767 4.6095C97.194 4.48019 97.6983 4.41553 98.1897 4.41553C98.6897 4.41553 99.1682 4.50174 99.6251 4.67416C100.082 4.84659 100.509 5.07505 100.905 5.35955C101.302 5.64405 101.66 5.97597 101.979 6.3553C102.298 6.72601 102.569 7.11828 102.793 7.5321C103.026 7.93729 103.203 8.35111 103.324 8.77355C103.453 9.18737 103.518 9.57963 103.518 9.95035C103.518 10.3814 103.375 10.7952 103.091 11.1918C102.815 11.5884 102.457 11.9591 102.018 12.3039C101.586 12.6488 101.112 12.9635 100.595 13.248C100.078 13.5238 99.5863 13.7652 99.1208 13.9721C98.6811 14.1618 98.2285 14.2997 97.7629 14.386C97.306 14.4635 96.8836 14.511 96.4956 14.5282C96.9267 14.692 97.3793 14.9162 97.8535 15.2007C98.3363 15.4852 98.8104 15.8817 99.276 16.3904C99.5087 16.649 99.7372 16.9982 99.9614 17.4379C100.186 17.8689 100.41 18.3474 100.634 18.8733C100.858 19.3992 101.082 19.9553 101.306 20.5415C101.539 21.1277 101.78 21.7097 102.03 22.2873C102.289 22.8563 102.561 23.3994 102.845 23.9167C103.138 24.4426 103.449 24.9038 103.776 25.3004C104.112 25.697 104.47 26.0117 104.85 26.2444C105.238 26.4858 105.66 26.6065 106.117 26.6065C106.531 26.6065 106.979 26.4988 107.462 26.2832C107.953 26.0763 108.483 25.7185 109.052 25.2099C109.268 25.0375 109.406 24.8995 109.466 24.7961C109.535 24.7012 109.583 24.6538 109.608 24.6538C109.634 24.6538 109.652 24.6711 109.66 24.7055C109.677 24.74 109.686 24.7745 109.686 24.809C109.695 24.8521 109.699 24.8909 109.699 24.9254C109.699 24.9599 109.703 24.9814 109.712 24.99V25.0159C109.712 25.059 109.695 25.0978 109.66 25.1323C109.686 25.1323 109.703 25.1452 109.712 25.1711C109.729 25.2056 109.738 25.2444 109.738 25.2875C109.738 25.3564 109.721 25.4254 109.686 25.4944C109.626 25.5806 109.552 25.7315 109.466 25.947C109.38 26.1712 109.264 26.4212 109.117 26.697C108.979 26.9729 108.807 27.2574 108.6 27.5505C108.393 27.8523 108.139 28.1282 107.837 28.3782C107.544 28.6282 107.19 28.8308 106.776 28.986C106.363 29.1498 105.884 29.2317 105.341 29.2317C105.013 29.2317 104.673 29.1886 104.319 29.1024C103.975 29.0162 103.625 28.8653 103.272 28.6498C102.927 28.4428 102.582 28.167 102.237 27.8221C101.893 27.4773 101.561 27.0462 101.242 26.5289C101.078 26.2789 100.905 25.8867 100.724 25.3521C100.552 24.8176 100.367 24.2141 100.168 23.5417C99.9786 22.8606 99.776 22.145 99.5605 21.395C99.3449 20.645 99.1122 19.9251 98.8622 19.2354C98.6121 18.5457 98.3406 17.925 98.0475 17.3732C97.7629 16.8128 97.4569 16.3861 97.1293 16.093C96.9482 15.9378 96.7629 15.7869 96.5732 15.6403C96.3836 15.4938 96.1939 15.3688 96.0042 15.2653C95.8232 15.1532 95.6421 15.067 95.4611 15.0067C95.28 14.9377 95.1119 14.9032 94.9567 14.9032H94.905C94.905 15.3688 94.905 15.8645 94.905 16.3904C94.9136 16.9163 94.918 17.4465 94.918 17.981C94.9266 18.5069 94.9352 19.0242 94.9438 19.5328C94.9524 20.0415 94.9611 20.5156 94.9697 20.9553C94.9869 21.3864 95.0042 21.77 95.0214 22.1063C95.0386 22.4339 95.0559 22.6839 95.0731 22.8563Z" fill="white"/>
<path d="M114.6 18.9509C114.6 19.0457 114.604 19.1578 114.613 19.2871C114.622 19.4164 114.626 19.563 114.626 19.7268C114.626 19.9337 114.596 20.1923 114.536 20.5027C114.475 20.8045 114.376 21.1234 114.238 21.4597C114.109 21.7959 113.932 22.1321 113.708 22.4683C113.484 22.8046 113.208 23.1063 112.88 23.3736C112.553 23.6408 112.165 23.8564 111.716 24.0202C111.277 24.1926 110.772 24.2788 110.203 24.2788C109.695 24.2788 109.173 24.1797 108.639 23.9814C108.113 23.7917 107.63 23.4943 107.19 23.0891C106.759 22.6753 106.401 22.1537 106.117 21.5243C105.841 20.8864 105.703 20.1277 105.703 19.2483C105.703 18.6966 105.772 18.1534 105.91 17.6189C106.057 17.0844 106.246 16.5801 106.479 16.1059C106.72 15.6317 107.001 15.1964 107.32 14.7998C107.647 14.3946 107.988 14.0497 108.341 13.7652C108.703 13.4721 109.074 13.2436 109.453 13.0798C109.841 12.916 110.216 12.8341 110.578 12.8341C111.208 12.8341 111.725 12.9333 112.13 13.1316C112.544 13.3299 112.872 13.5756 113.113 13.8687C113.354 14.1618 113.523 14.4765 113.617 14.8127C113.721 15.1403 113.773 15.4377 113.773 15.705C113.773 15.9636 113.708 16.2611 113.579 16.5973C113.458 16.9249 113.255 17.2396 112.971 17.5413C112.686 17.8344 112.316 18.0845 111.859 18.2914C111.402 18.4897 110.841 18.5888 110.177 18.5888C109.824 18.5888 109.505 18.5414 109.221 18.4465C108.945 18.3431 108.699 18.2181 108.483 18.0715C108.268 17.9163 108.083 17.7525 107.927 17.5801C107.781 17.3991 107.656 17.231 107.552 17.0758C107.397 17.6103 107.32 18.2353 107.32 18.9509C107.32 19.4423 107.389 19.8863 107.526 20.2829C107.673 20.6708 107.871 21.0027 108.121 21.2786C108.371 21.5545 108.669 21.7657 109.014 21.9123C109.358 22.0588 109.738 22.1321 110.152 22.1321C110.669 22.1321 111.122 22.0459 111.509 21.8735C111.897 21.6924 112.234 21.4683 112.518 21.201C112.811 20.9338 113.061 20.645 113.268 20.3346C113.484 20.0156 113.669 19.7268 113.824 19.4682C113.979 19.2009 114.113 18.9811 114.225 18.8086C114.346 18.6362 114.462 18.5543 114.574 18.5629C114.626 18.5629 114.652 18.606 114.652 18.6923C114.652 18.7354 114.648 18.7785 114.639 18.8216C114.63 18.8647 114.617 18.9078 114.6 18.9509ZM110.708 14.1403C110.553 14.1403 110.35 14.1747 110.1 14.2437C109.859 14.3041 109.6 14.4161 109.324 14.5799C109.057 14.7437 108.789 14.9679 108.522 15.2524C108.255 15.5283 108.022 15.8817 107.824 16.3128C107.945 16.2525 108.048 16.2007 108.134 16.1576C108.229 16.1145 108.294 16.093 108.328 16.093C108.345 16.093 108.371 16.1102 108.406 16.1447C108.604 16.4809 108.85 16.7223 109.143 16.8689C109.445 17.0068 109.781 17.0758 110.152 17.0758C110.445 17.0758 110.695 17.0284 110.902 16.9335C111.117 16.8301 111.294 16.7008 111.432 16.5456C111.57 16.3904 111.669 16.2223 111.729 16.0412C111.79 15.8516 111.82 15.6662 111.82 15.4852C111.82 15.0972 111.721 14.7782 111.522 14.5282C111.324 14.2696 111.053 14.1403 110.708 14.1403Z" fill="white"/>
<path d="M125.269 19.7009C125.269 20.1923 125.161 20.6924 124.946 21.201C124.73 21.7097 124.424 22.1752 124.027 22.5977C123.64 23.0115 123.165 23.352 122.605 23.6193C122.045 23.8865 121.415 24.0202 120.717 24.0202C120.148 24.0202 119.57 23.8995 118.984 23.6581C118.406 23.4167 117.885 23.0718 117.419 22.6235C116.954 22.1666 116.574 21.6148 116.281 20.9683C115.988 20.3217 115.842 19.5975 115.842 18.7957C115.842 18.0026 115.992 17.2525 116.294 16.5456C116.605 15.83 117.01 15.2093 117.51 14.6834C118.01 14.1489 118.579 13.7264 119.217 13.4161C119.863 13.1057 120.527 12.9505 121.208 12.9505C121.838 12.9505 122.368 13.0367 122.799 13.2092C123.239 13.373 123.592 13.5713 123.859 13.804C124.127 14.0282 124.316 14.261 124.428 14.5023C124.549 14.7437 124.609 14.9377 124.609 15.0843C124.609 15.4119 124.54 15.6791 124.402 15.886C124.265 16.093 124.105 16.2481 123.924 16.3516C123.752 16.455 123.583 16.5154 123.42 16.5326C123.264 16.5413 123.165 16.5111 123.122 16.4421C123.088 16.4076 123.049 16.3904 123.006 16.3904C122.971 16.3904 122.933 16.399 122.889 16.4163C122.846 16.4335 122.803 16.4507 122.76 16.468C122.726 16.4852 122.695 16.4852 122.67 16.468C122.627 16.4507 122.622 16.4119 122.657 16.3516C122.7 16.2912 122.721 16.2395 122.721 16.1964C122.721 16.1188 122.717 16.0326 122.708 15.9378C122.708 15.8343 122.73 15.7266 122.773 15.6145C122.851 15.4593 122.881 15.2912 122.864 15.1101C122.855 14.9205 122.79 14.7437 122.67 14.5799C122.558 14.4161 122.377 14.2782 122.126 14.1661C121.885 14.054 121.57 13.998 121.182 13.998C120.907 13.998 120.579 14.0885 120.2 14.2696C119.82 14.4506 119.458 14.7351 119.113 15.1231C118.777 15.5024 118.488 15.9895 118.247 16.5844C118.014 17.1706 117.898 17.8732 117.898 18.6923C117.898 19.0457 117.941 19.4164 118.027 19.8044C118.122 20.1923 118.286 20.5501 118.519 20.8777C118.751 21.2053 119.066 21.4769 119.463 21.6924C119.859 21.8993 120.363 22.0028 120.976 22.0028C121.381 22.0028 121.751 21.9468 122.088 21.8347C122.433 21.7226 122.743 21.5804 123.019 21.4079C123.295 21.2355 123.54 21.0458 123.756 20.8389C123.971 20.632 124.152 20.438 124.299 20.257C124.446 20.0673 124.558 19.9035 124.635 19.7656C124.721 19.6277 124.773 19.5414 124.79 19.507C124.825 19.4639 124.868 19.4337 124.92 19.4164C124.971 19.3906 125.023 19.3863 125.075 19.4035C125.127 19.4121 125.17 19.4423 125.204 19.494C125.247 19.5371 125.269 19.6061 125.269 19.7009Z" fill="white"/>
<path d="M137.334 13.1316C137.308 13.1747 137.218 13.3212 137.063 13.5713C136.916 13.8126 136.727 14.123 136.494 14.5023C136.261 14.8731 135.994 15.2998 135.692 15.7826C135.399 16.2568 135.093 16.7525 134.774 17.2698C134.463 17.7784 134.153 18.2871 133.843 18.7957C133.532 19.3044 133.239 19.7828 132.963 20.2311C132.696 20.6708 132.463 21.0631 132.265 21.4079C132.067 21.7528 131.92 22.0114 131.825 22.1838C131.731 22.3563 131.597 22.6235 131.424 22.9856C131.252 23.3477 131.054 23.7615 130.83 24.2271C130.605 24.7012 130.364 25.2099 130.105 25.753C129.855 26.2962 129.601 26.8393 129.342 27.3824C129.092 27.9342 128.847 28.4644 128.605 28.973C128.373 29.4903 128.161 29.9516 127.972 30.3568C127.791 30.7619 127.64 31.0939 127.519 31.3525C127.398 31.6198 127.329 31.7793 127.312 31.831C127.235 32.0293 127.161 32.15 127.092 32.1931C127.032 32.2448 126.941 32.2836 126.821 32.3095C126.76 32.3181 126.713 32.3008 126.678 32.2577C126.644 32.2146 126.614 32.1629 126.588 32.1025C126.562 32.0422 126.536 31.9862 126.51 31.9344C126.485 31.8913 126.454 31.8655 126.42 31.8568C126.308 31.8396 126.243 31.8137 126.226 31.7793C126.217 31.7534 126.191 31.6974 126.148 31.6111C126.122 31.5767 126.097 31.5551 126.071 31.5465C126.045 31.5465 126.019 31.5465 125.993 31.5465C125.967 31.5465 125.95 31.5422 125.941 31.5335C125.924 31.5249 125.916 31.4991 125.916 31.456C125.933 31.3094 125.946 31.1628 125.954 31.0163C125.972 30.8697 125.993 30.7361 126.019 30.6154C126.045 30.5206 126.131 30.3223 126.278 30.0205C126.433 29.7188 126.622 29.3481 126.847 28.9084C127.071 28.4773 127.321 27.9945 127.597 27.46C127.881 26.9341 128.166 26.3953 128.45 25.8435C128.743 25.3004 129.028 24.7616 129.304 24.2271C129.588 23.6926 129.842 23.2055 130.067 22.7658C129.955 22.5244 129.804 22.214 129.614 21.8347C129.424 21.4467 129.217 21.02 128.993 20.5544C128.769 20.0803 128.528 19.5802 128.269 19.0543C128.019 18.5285 127.773 18.0069 127.532 17.4896C127.291 16.9723 127.058 16.4723 126.834 15.9895C126.61 15.5067 126.411 15.0757 126.239 14.6963C126.075 14.3084 125.946 13.9894 125.851 13.7394C125.756 13.4807 125.709 13.3212 125.709 13.2609C125.717 13.1574 125.739 13.0885 125.773 13.054C125.808 13.0109 125.855 12.9893 125.916 12.9893C125.967 12.9893 126.023 13.0023 126.084 13.0281C126.153 13.054 126.222 13.0798 126.291 13.1057C126.394 13.1488 126.493 13.1919 126.588 13.235C126.683 13.2695 126.752 13.2523 126.795 13.1833C126.821 13.1143 126.894 13.0798 127.015 13.0798C127.135 13.0712 127.235 13.0885 127.312 13.1316C127.338 13.1574 127.36 13.1661 127.377 13.1574C127.403 13.1488 127.424 13.1316 127.441 13.1057C127.467 13.0798 127.493 13.054 127.519 13.0281C127.554 12.9936 127.592 12.9678 127.635 12.9505C127.73 12.9333 127.816 12.9505 127.894 13.0023C127.972 13.054 128.045 13.1661 128.114 13.3385C128.157 13.4678 128.243 13.692 128.373 14.0109C128.51 14.3299 128.67 14.7006 128.851 15.1231C129.041 15.5455 129.248 16.0024 129.472 16.4938C129.696 16.9766 129.92 17.4551 130.144 17.9293C130.368 18.3948 130.58 18.8345 130.778 19.2483C130.985 19.6621 131.166 20.007 131.321 20.2829C131.554 19.8518 131.804 19.3949 132.071 18.9121C132.347 18.4207 132.623 17.9336 132.899 17.4508C133.183 16.9594 133.463 16.4809 133.739 16.0154C134.015 15.5498 134.274 15.1188 134.515 14.7222C134.765 14.3256 134.985 13.9808 135.175 13.6876C135.364 13.3859 135.52 13.1574 135.64 13.0023C135.709 12.916 135.744 12.86 135.744 12.8341C135.744 12.8083 135.778 12.7824 135.847 12.7565C135.899 12.7393 135.942 12.7221 135.976 12.7048C136.02 12.6876 136.084 12.6876 136.17 12.7048C136.248 12.7221 136.308 12.7307 136.351 12.7307C136.395 12.7307 136.429 12.7565 136.455 12.8083C136.472 12.8341 136.498 12.8428 136.533 12.8341C136.567 12.8255 136.606 12.8126 136.649 12.7953C136.701 12.7695 136.752 12.7479 136.804 12.7307C136.856 12.7048 136.908 12.6962 136.959 12.7048C137.02 12.7134 137.08 12.7264 137.14 12.7436C137.201 12.7522 137.252 12.7738 137.296 12.8083C137.347 12.8428 137.377 12.8859 137.386 12.9376C137.395 12.9893 137.377 13.054 137.334 13.1316Z" fill="white"/>
<path d="M146.451 19.7009C146.451 20.1923 146.343 20.6924 146.128 21.201C145.912 21.7097 145.606 22.1752 145.21 22.5977C144.822 23.0115 144.348 23.352 143.787 23.6193C143.227 23.8865 142.598 24.0202 141.899 24.0202C141.33 24.0202 140.753 23.8995 140.166 23.6581C139.589 23.4167 139.067 23.0718 138.602 22.6235C138.136 22.1666 137.757 21.6148 137.464 20.9683C137.171 20.3217 137.024 19.5975 137.024 18.7957C137.024 18.0026 137.175 17.2525 137.477 16.5456C137.787 15.83 138.192 15.2093 138.692 14.6834C139.192 14.1489 139.761 13.7264 140.399 13.4161C141.046 13.1057 141.71 12.9505 142.391 12.9505C143.02 12.9505 143.55 13.0367 143.981 13.2092C144.421 13.373 144.774 13.5713 145.042 13.804C145.309 14.0282 145.499 14.261 145.611 14.5023C145.731 14.7437 145.792 14.9377 145.792 15.0843C145.792 15.4119 145.723 15.6791 145.585 15.886C145.447 16.093 145.287 16.2481 145.106 16.3516C144.934 16.455 144.766 16.5154 144.602 16.5326C144.447 16.5413 144.348 16.5111 144.305 16.4421C144.27 16.4076 144.231 16.3904 144.188 16.3904C144.154 16.3904 144.115 16.399 144.072 16.4163C144.029 16.4335 143.986 16.4507 143.942 16.468C143.908 16.4852 143.878 16.4852 143.852 16.468C143.809 16.4507 143.805 16.4119 143.839 16.3516C143.882 16.2912 143.904 16.2395 143.904 16.1964C143.904 16.1188 143.899 16.0326 143.891 15.9378C143.891 15.8343 143.912 15.7266 143.955 15.6145C144.033 15.4593 144.063 15.2912 144.046 15.1101C144.037 14.9205 143.973 14.7437 143.852 14.5799C143.74 14.4161 143.559 14.2782 143.309 14.1661C143.067 14.054 142.753 13.998 142.365 13.998C142.089 13.998 141.761 14.0885 141.382 14.2696C141.003 14.4506 140.641 14.7351 140.296 15.1231C139.959 15.5024 139.671 15.9895 139.429 16.5844C139.196 17.1706 139.08 17.8732 139.08 18.6923C139.08 19.0457 139.123 19.4164 139.209 19.8044C139.304 20.1923 139.468 20.5501 139.701 20.8777C139.934 21.2053 140.248 21.4769 140.645 21.6924C141.041 21.8993 141.546 22.0028 142.158 22.0028C142.563 22.0028 142.934 21.9468 143.27 21.8347C143.615 21.7226 143.925 21.5804 144.201 21.4079C144.477 21.2355 144.723 21.0458 144.938 20.8389C145.154 20.632 145.335 20.438 145.481 20.257C145.628 20.0673 145.74 19.9035 145.818 19.7656C145.904 19.6277 145.956 19.5414 145.973 19.507C146.007 19.4639 146.05 19.4337 146.102 19.4164C146.154 19.3906 146.206 19.3863 146.257 19.4035C146.309 19.4121 146.352 19.4423 146.387 19.494C146.43 19.5371 146.451 19.6061 146.451 19.7009Z" fill="white"/>
<path d="M150.589 6.40703C150.589 6.52772 150.581 6.76481 150.564 7.11828C150.546 7.47175 150.525 7.8985 150.499 8.39853C150.473 8.88994 150.443 9.43307 150.408 10.0279C150.383 10.6142 150.352 11.2047 150.318 11.7996C150.283 12.3858 150.253 12.9548 150.227 13.5066C150.201 14.0584 150.184 14.5411 150.176 14.955C150.158 15.205 150.145 15.4809 150.137 15.7826C150.137 16.0843 150.137 16.4076 150.137 16.7525C150.137 17.2094 150.137 17.6879 150.137 18.1879C150.145 18.6793 150.154 19.1664 150.163 19.6492C150.171 20.132 150.18 20.5975 150.189 21.0458C150.206 21.4855 150.219 21.8821 150.227 22.2356C150.236 22.589 150.24 22.8865 150.24 23.1279C150.249 23.3606 150.253 23.5072 150.253 23.5675C150.253 23.6882 150.232 23.7788 150.189 23.8391C150.154 23.9081 150.107 23.9512 150.046 23.9684C149.995 23.9943 149.939 23.9986 149.878 23.9814C149.818 23.9727 149.766 23.9555 149.723 23.9296C149.671 23.9038 149.628 23.8736 149.594 23.8391C149.568 23.8046 149.546 23.7788 149.529 23.7615C149.512 23.7443 149.495 23.74 149.477 23.7486C149.469 23.7572 149.46 23.7917 149.451 23.852C149.426 24.0762 149.374 24.2443 149.296 24.3564C149.227 24.4685 149.15 24.5417 149.063 24.5762C148.986 24.6193 148.913 24.6323 148.844 24.615C148.775 24.5978 148.732 24.5676 148.714 24.5245C148.697 24.4814 148.667 24.4555 148.624 24.4469C148.589 24.4383 148.55 24.4297 148.507 24.421C148.464 24.421 148.421 24.4081 148.378 24.3823C148.344 24.365 148.322 24.3219 148.313 24.2529C148.244 23.9598 148.201 23.5891 148.184 23.1408C148.167 22.6839 148.158 22.1709 148.158 21.6019C148.158 21.1105 148.163 20.5803 148.171 20.0113C148.18 19.4423 148.184 18.8604 148.184 18.2655C148.184 17.9207 148.184 17.5801 148.184 17.2439C148.184 16.899 148.175 16.5499 148.158 16.1964V15.3817C148.158 14.6834 148.175 13.9851 148.21 13.2868C148.244 12.5798 148.288 11.903 148.339 11.2565C148.391 10.6099 148.447 10.0021 148.507 9.43307C148.568 8.86407 148.619 8.35973 148.663 7.92005C148.706 7.48037 148.74 7.12259 148.766 6.84671C148.792 6.57083 148.801 6.39841 148.792 6.32944C148.783 6.26909 148.788 6.22598 148.805 6.20012C148.831 6.17425 148.861 6.16132 148.895 6.16132C148.938 6.1527 148.982 6.14839 149.025 6.14839C149.068 6.13977 149.107 6.12684 149.141 6.1096C149.201 6.07511 149.249 6.06649 149.283 6.08373C149.326 6.09235 149.361 6.1096 149.387 6.13546C149.413 6.16132 149.434 6.1915 149.451 6.22598C149.477 6.25185 149.512 6.26478 149.555 6.26478C149.607 6.25616 149.645 6.24322 149.671 6.22598C149.706 6.20012 149.732 6.17857 149.749 6.16132C149.775 6.13546 149.796 6.11391 149.814 6.09666C149.839 6.07942 149.87 6.07511 149.904 6.08373C149.973 6.10097 150.038 6.11391 150.098 6.12253C150.167 6.12253 150.201 6.1096 150.201 6.08373C150.219 6.01476 150.245 5.98459 150.279 5.99321C150.314 5.99321 150.357 6.01476 150.408 6.05787C150.46 6.10097 150.503 6.14839 150.538 6.20012C150.572 6.24322 150.589 6.31219 150.589 6.40703Z" fill="white"/>
<path d="M160.948 18.9509C160.948 19.0457 160.952 19.1578 160.961 19.2871C160.969 19.4164 160.974 19.563 160.974 19.7268C160.974 19.9337 160.943 20.1923 160.883 20.5027C160.823 20.8045 160.724 21.1234 160.586 21.4597C160.456 21.7959 160.28 22.1321 160.056 22.4683C159.831 22.8046 159.555 23.1063 159.228 23.3736C158.9 23.6408 158.512 23.8564 158.064 24.0202C157.624 24.1926 157.12 24.2788 156.551 24.2788C156.042 24.2788 155.521 24.1797 154.986 23.9814C154.46 23.7917 153.978 23.4943 153.538 23.0891C153.107 22.6753 152.749 22.1537 152.465 21.5243C152.189 20.8864 152.051 20.1277 152.051 19.2483C152.051 18.6966 152.12 18.1534 152.258 17.6189C152.404 17.0844 152.594 16.5801 152.827 16.1059C153.068 15.6317 153.348 15.1964 153.667 14.7998C153.995 14.3946 154.335 14.0497 154.689 13.7652C155.051 13.4721 155.422 13.2436 155.801 13.0798C156.189 12.916 156.564 12.8341 156.926 12.8341C157.555 12.8341 158.073 12.9333 158.478 13.1316C158.892 13.3299 159.219 13.5756 159.461 13.8687C159.702 14.1618 159.87 14.4765 159.965 14.8127C160.068 15.1403 160.12 15.4377 160.12 15.705C160.12 15.9636 160.056 16.2611 159.926 16.5973C159.805 16.9249 159.603 17.2396 159.318 17.5413C159.034 17.8344 158.663 18.0845 158.206 18.2914C157.749 18.4897 157.189 18.5888 156.525 18.5888C156.172 18.5888 155.853 18.5414 155.568 18.4465C155.292 18.3431 155.047 18.2181 154.831 18.0715C154.616 17.9163 154.43 17.7525 154.275 17.5801C154.128 17.3991 154.003 17.231 153.9 17.0758C153.745 17.6103 153.667 18.2353 153.667 18.9509C153.667 19.4423 153.736 19.8863 153.874 20.2829C154.021 20.6708 154.219 21.0027 154.469 21.2786C154.719 21.5545 155.016 21.7657 155.361 21.9123C155.706 22.0588 156.085 22.1321 156.499 22.1321C157.017 22.1321 157.469 22.0459 157.857 21.8735C158.245 21.6924 158.581 21.4683 158.866 21.201C159.159 20.9338 159.409 20.645 159.616 20.3346C159.831 20.0156 160.017 19.7268 160.172 19.4682C160.327 19.2009 160.461 18.9811 160.573 18.8086C160.693 18.6362 160.81 18.5543 160.922 18.5629C160.974 18.5629 161 18.606 161 18.6923C161 18.7354 160.995 18.7785 160.987 18.8216C160.978 18.8647 160.965 18.9078 160.948 18.9509ZM157.055 14.1403C156.9 14.1403 156.698 14.1747 156.448 14.2437C156.206 14.3041 155.947 14.4161 155.672 14.5799C155.404 14.7437 155.137 14.9679 154.87 15.2524C154.603 15.5283 154.37 15.8817 154.172 16.3128C154.292 16.2525 154.396 16.2007 154.482 16.1576C154.577 16.1145 154.641 16.093 154.676 16.093C154.693 16.093 154.719 16.1102 154.753 16.1447C154.952 16.4809 155.197 16.7223 155.491 16.8689C155.792 17.0068 156.129 17.0758 156.499 17.0758C156.792 17.0758 157.042 17.0284 157.249 16.9335C157.465 16.8301 157.642 16.7008 157.78 16.5456C157.917 16.3904 158.017 16.2223 158.077 16.0412C158.137 15.8516 158.167 15.6662 158.167 15.4852C158.167 15.0972 158.068 14.7782 157.87 14.5282C157.672 14.2696 157.4 14.1403 157.055 14.1403Z" fill="white"/>
<path d="M84.6762 23.9303C82.5812 23.9303 80.9259 23.2923 79.7104 22.0164C78.5034 20.7404 77.8999 18.9688 77.8999 16.7014C77.8999 14.4168 78.4603 12.602 79.581 11.2571C80.7104 9.9122 82.2234 9.23975 84.1201 9.23975C85.8961 9.23975 87.3013 9.82599 88.3359 10.9985C89.3704 12.1623 89.8877 13.7012 89.8877 15.6151V16.973H80.1242C80.1673 18.6369 80.5854 19.8999 81.3786 20.762C82.1803 21.6241 83.3054 22.0552 84.7538 22.0552C86.2797 22.0552 87.7884 21.7362 89.2799 21.0982V23.0121C88.5212 23.3397 87.8014 23.5725 87.1203 23.7105C86.4478 23.857 85.6331 23.9303 84.6762 23.9303ZM84.0942 11.0373C82.9562 11.0373 82.0467 11.408 81.3656 12.1494C80.6932 12.8908 80.2966 13.9168 80.1759 15.2272H87.5858C87.5858 13.8736 87.2841 12.8391 86.6806 12.1235C86.0771 11.3994 85.215 11.0373 84.0942 11.0373Z" fill="white"/>
</svg>
