<svg width="22" height="22" viewBox="0 0 22 22" fill="none" xmlns="http://www.w3.org/2000/svg">
<path d="M19.3443 16.1563H17.6966C17.5841 16.1563 17.4786 16.2055 17.4083 16.2922C17.2443 16.4914 17.0685 16.6836 16.8833 16.8664C16.1261 17.6245 15.229 18.2286 14.2419 18.6453C13.2192 19.0773 12.1201 19.2989 11.0099 19.2969C9.88724 19.2969 8.79974 19.0766 7.77787 18.6453C6.79074 18.2286 5.89374 17.6245 5.13646 16.8664C4.37782 16.111 3.7729 15.2155 3.35521 14.2297C2.92162 13.2078 2.70365 12.1227 2.70365 11C2.70365 9.87738 2.92396 8.79222 3.35521 7.77035C3.7724 6.78363 4.3724 5.89535 5.13646 5.13363C5.90052 4.37191 6.7888 3.77191 7.77787 3.35472C8.79974 2.92347 9.88724 2.70316 11.0099 2.70316C12.1326 2.70316 13.2201 2.92113 14.2419 3.35472C15.231 3.77191 16.1193 4.37191 16.8833 5.13363C17.0685 5.31879 17.2419 5.51097 17.4083 5.70785C17.4786 5.79457 17.5865 5.84379 17.6966 5.84379H19.3443C19.4919 5.84379 19.5833 5.67972 19.5013 5.5555C17.7036 2.76175 14.5583 0.912535 10.9841 0.92191C5.36849 0.935973 0.866146 5.49457 0.922396 11.1032C0.978646 16.6227 5.47396 21.0782 11.0099 21.0782C14.5747 21.0782 17.706 19.2313 19.5013 16.4446C19.581 16.3203 19.4919 16.1563 19.3443 16.1563ZM21.4279 10.8524L18.1021 8.22738C17.9779 8.12894 17.7974 8.218 17.7974 8.37504V10.1563H10.438C10.3349 10.1563 10.2505 10.2407 10.2505 10.3438V11.6563C10.2505 11.7594 10.3349 11.8438 10.438 11.8438H17.7974V13.625C17.7974 13.7821 17.9802 13.8711 18.1021 13.7727L21.4279 11.1477C21.4503 11.1302 21.4684 11.1077 21.4809 11.0822C21.4933 11.0566 21.4998 11.0285 21.4998 11C21.4998 10.9716 21.4933 10.9435 21.4809 10.9179C21.4684 10.8923 21.4503 10.8699 21.4279 10.8524Z" fill="#C1292E"/>
</svg>
