<svg width="358" height="398" viewBox="0 0 358 398" fill="none" xmlns="http://www.w3.org/2000/svg">
<path opacity="0.16" fill-rule="evenodd" clip-rule="evenodd" d="M170.026 4.83656C202.218 8.32065 231.237 21.2761 261.2 32.7248C292.611 44.7266 335.037 46.5386 351.386 74.133C368.5 103.018 347.468 138.73 343.402 171.464C340.419 195.475 336.353 218.505 330.525 242.064C324.701 265.605 326.799 293.163 308.944 310.761C291.027 328.42 260.967 327.75 236.061 335.164C214.039 341.72 191.432 343.996 170.026 352.116C135.656 365.154 108.321 402.406 71.5514 397.57C38.5539 393.23 14.5252 359.828 4.58503 330.356C-5.31435 301.005 19.3491 270.913 18.4652 240.174C17.7849 216.517 -0.935396 195.828 0.0365686 172.18C1.07916 146.814 14.1991 124.024 24.2104 100.394C37.1804 69.7819 39.0016 30.8047 67.9814 11.8133C96.1801 -6.6662 135.719 1.12363 170.026 4.83656Z" fill="#235789"/>
</svg>
