<svg width="25" height="17" viewBox="0 0 25 17" fill="none" xmlns="http://www.w3.org/2000/svg">
<path d="M23.9583 0.166504H3.81944C3.24414 0.166504 2.77778 0.632867 2.77778 1.20817V1.55539H1.04167C0.466363 1.55539 0 2.02176 0 2.59706V14.4026C0 15.745 1.08819 16.8332 2.43056 16.8332H22.9167C24.0673 16.8332 25 15.9004 25 14.7498V1.20817C25 0.632867 24.5336 0.166504 23.9583 0.166504ZM2.43056 14.7498C2.33847 14.7498 2.25015 14.7133 2.18503 14.6481C2.11992 14.583 2.08333 14.4947 2.08333 14.4026V3.63873H2.77778V14.4026C2.77778 14.4947 2.7412 14.583 2.67608 14.6481C2.61096 14.7133 2.52264 14.7498 2.43056 14.7498ZM12.6736 14.0554H6.07639C5.78876 14.0554 5.55556 13.8222 5.55556 13.5346V13.1873C5.55556 12.8997 5.78876 12.6665 6.07639 12.6665H12.6736C12.9612 12.6665 13.1944 12.8997 13.1944 13.1873V13.5346C13.1944 13.8222 12.9612 14.0554 12.6736 14.0554ZM21.7014 14.0554H15.1042C14.8165 14.0554 14.5833 13.8222 14.5833 13.5346V13.1873C14.5833 12.8997 14.8165 12.6665 15.1042 12.6665H21.7014C21.989 12.6665 22.2222 12.8997 22.2222 13.1873V13.5346C22.2222 13.8222 21.989 14.0554 21.7014 14.0554ZM12.6736 9.88873H6.07639C5.78876 9.88873 5.55556 9.65552 5.55556 9.36789V9.02067C5.55556 8.73304 5.78876 8.49984 6.07639 8.49984H12.6736C12.9612 8.49984 13.1944 8.73304 13.1944 9.02067V9.36789C13.1944 9.65552 12.9612 9.88873 12.6736 9.88873ZM21.7014 9.88873H15.1042C14.8165 9.88873 14.5833 9.65552 14.5833 9.36789V9.02067C14.5833 8.73304 14.8165 8.49984 15.1042 8.49984H21.7014C21.989 8.49984 22.2222 8.73304 22.2222 9.02067V9.36789C22.2222 9.65552 21.989 9.88873 21.7014 9.88873ZM21.7014 5.72206H6.07639C5.78876 5.72206 5.55556 5.48886 5.55556 5.20123V3.46511C5.55556 3.17748 5.78876 2.94428 6.07639 2.94428H21.7014C21.989 2.94428 22.2222 3.17748 22.2222 3.46511V5.20123C22.2222 5.48886 21.989 5.72206 21.7014 5.72206Z" fill="#D1E5D4"/>
</svg>
