<svg width="30" height="25" viewBox="0 0 42 28" fill="none" xmlns="http://www.w3.org/2000/svg">
<path d="M40.25 0H6.41667C5.45016 0 4.66667 0.78349 4.66667 1.75V2.33333H1.75C0.78349 2.33333 0 3.11682 0 4.08333V23.9167C0 26.1718 1.82817 28 4.08333 28H38.5C40.433 28 42 26.433 42 24.5V1.75C42 0.78349 41.2165 0 40.25 0ZM4.08333 24.5C3.92862 24.5 3.78025 24.4385 3.67085 24.3291C3.56146 24.2197 3.5 24.0714 3.5 23.9167V5.83333H4.66667V23.9167C4.66667 24.0714 4.60521 24.2197 4.49581 24.3291C4.38642 24.4385 4.23804 24.5 4.08333 24.5ZM21.2917 23.3333H10.2083C9.72511 23.3333 9.33333 22.9416 9.33333 22.4583V21.875C9.33333 21.3918 9.72511 21 10.2083 21H21.2917C21.7749 21 22.1667 21.3918 22.1667 21.875V22.4583C22.1667 22.9416 21.7749 23.3333 21.2917 23.3333ZM36.4583 23.3333H25.375C24.8918 23.3333 24.5 22.9416 24.5 22.4583V21.875C24.5 21.3918 24.8918 21 25.375 21H36.4583C36.9416 21 37.3333 21.3918 37.3333 21.875V22.4583C37.3333 22.9416 36.9416 23.3333 36.4583 23.3333ZM21.2917 16.3333H10.2083C9.72511 16.3333 9.33333 15.9416 9.33333 15.4583V14.875C9.33333 14.3918 9.72511 14 10.2083 14H21.2917C21.7749 14 22.1667 14.3918 22.1667 14.875V15.4583C22.1667 15.9416 21.7749 16.3333 21.2917 16.3333ZM36.4583 16.3333H25.375C24.8918 16.3333 24.5 15.9416 24.5 15.4583V14.875C24.5 14.3918 24.8918 14 25.375 14H36.4583C36.9416 14 37.3333 14.3918 37.3333 14.875V15.4583C37.3333 15.9416 36.9416 16.3333 36.4583 16.3333ZM36.4583 9.33333H10.2083C9.72511 9.33333 9.33333 8.94155 9.33333 8.45833V5.54167C9.33333 5.05845 9.72511 4.66667 10.2083 4.66667H36.4583C36.9416 4.66667 37.3333 5.05845 37.3333 5.54167V8.45833C37.3333 8.94155 36.9416 9.33333 36.4583 9.33333Z" fill="#18A0FB"/>
</svg>
