<svg width="701" height="330" viewBox="0 0 701 330" fill="none" xmlns="http://www.w3.org/2000/svg">
<path d="M8.00391 15.4258H4.69922V22H1.73438V4.9375H7.73438C9.70312 4.9375 11.2227 5.37891 12.293 6.26172C13.3633 7.14453 13.8984 8.42188 13.8984 10.0938C13.8984 11.2344 13.6211 12.1914 13.0664 12.9648C12.5195 13.7305 11.7539 14.3203 10.7695 14.7344L14.6016 21.8477V22H11.4258L8.00391 15.4258ZM4.69922 13.0469H7.74609C8.74609 13.0469 9.52734 12.7969 10.0898 12.2969C10.6523 11.7891 10.9336 11.0977 10.9336 10.2227C10.9336 9.30859 10.6719 8.60156 10.1484 8.10156C9.63281 7.60156 8.85938 7.34375 7.82812 7.32812H4.69922V13.0469ZM22.0195 22.2344C20.2148 22.2344 18.75 21.668 17.625 20.5352C16.5078 19.3945 15.9492 17.8789 15.9492 15.9883V15.6367C15.9492 14.3711 16.1914 13.2422 16.6758 12.25C17.168 11.25 17.8555 10.4727 18.7383 9.91797C19.6211 9.36328 20.6055 9.08594 21.6914 9.08594C23.418 9.08594 24.75 9.63672 25.6875 10.7383C26.6328 11.8398 27.1055 13.3984 27.1055 15.4141V16.5625H18.8203C18.9062 17.6094 19.2539 18.4375 19.8633 19.0469C20.4805 19.6562 21.2539 19.9609 22.1836 19.9609C23.4883 19.9609 24.5508 19.4336 25.3711 18.3789L26.9062 19.8438C26.3984 20.6016 25.7188 21.1914 24.8672 21.6133C24.0234 22.0273 23.0742 22.2344 22.0195 22.2344ZM21.6797 11.3711C20.8984 11.3711 20.2656 11.6445 19.7812 12.1914C19.3047 12.7383 19 13.5 18.8672 14.4766H24.293V14.2656C24.2305 13.3125 23.9766 12.5938 23.5312 12.1094C23.0859 11.6172 22.4688 11.3711 21.6797 11.3711ZM34.5352 19.9609C35.2461 19.9609 35.8359 19.7539 36.3047 19.3398C36.7734 18.9258 37.0234 18.4141 37.0547 17.8047H39.7383C39.707 18.5938 39.4609 19.332 39 20.0195C38.5391 20.6992 37.9141 21.2383 37.125 21.6367C36.3359 22.0352 35.4844 22.2344 34.5703 22.2344C32.7969 22.2344 31.3906 21.6602 30.3516 20.5117C29.3125 19.3633 28.793 17.7773 28.793 15.7539V15.4609C28.793 13.5312 29.3086 11.9883 30.3398 10.832C31.3711 9.66797 32.7773 9.08594 34.5586 9.08594C36.0664 9.08594 37.293 9.52734 38.2383 10.4102C39.1914 11.2852 39.6914 12.4375 39.7383 13.8672H37.0547C37.0234 13.1406 36.7734 12.543 36.3047 12.0742C35.8438 11.6055 35.2539 11.3711 34.5352 11.3711C33.6133 11.3711 32.9023 11.707 32.4023 12.3789C31.9023 13.043 31.6484 14.0547 31.6406 15.4141V15.8711C31.6406 17.2461 31.8867 18.2734 32.3789 18.9531C32.8789 19.625 33.5977 19.9609 34.5352 19.9609ZM46.3242 17.9219L48.9023 9.32031H51.9375L46.8984 23.9219C46.125 26.0547 44.8125 27.1211 42.9609 27.1211C42.5469 27.1211 42.0898 27.0508 41.5898 26.9102V24.707L42.1289 24.7422C42.8477 24.7422 43.3867 24.6094 43.7461 24.3438C44.1133 24.0859 44.4023 23.6484 44.6133 23.0312L45.0234 21.9414L40.5703 9.32031H43.6406L46.3242 17.9219ZM58.6289 19.9609C59.3398 19.9609 59.9297 19.7539 60.3984 19.3398C60.8672 18.9258 61.1172 18.4141 61.1484 17.8047H63.832C63.8008 18.5938 63.5547 19.332 63.0938 20.0195C62.6328 20.6992 62.0078 21.2383 61.2188 21.6367C60.4297 22.0352 59.5781 22.2344 58.6641 22.2344C56.8906 22.2344 55.4844 21.6602 54.4453 20.5117C53.4062 19.3633 52.8867 17.7773 52.8867 15.7539V15.4609C52.8867 13.5312 53.4023 11.9883 54.4336 10.832C55.4648 9.66797 56.8711 9.08594 58.6523 9.08594C60.1602 9.08594 61.3867 9.52734 62.332 10.4102C63.2852 11.2852 63.7852 12.4375 63.832 13.8672H61.1484C61.1172 13.1406 60.8672 12.543 60.3984 12.0742C59.9375 11.6055 59.3477 11.3711 58.6289 11.3711C57.707 11.3711 56.9961 11.707 56.4961 12.3789C55.9961 13.043 55.7422 14.0547 55.7344 15.4141V15.8711C55.7344 17.2461 55.9805 18.2734 56.4727 18.9531C56.9727 19.625 57.6914 19.9609 58.6289 19.9609ZM69.0117 22H66.1641V4H69.0117V22ZM77.707 22.2344C75.9023 22.2344 74.4375 21.668 73.3125 20.5352C72.1953 19.3945 71.6367 17.8789 71.6367 15.9883V15.6367C71.6367 14.3711 71.8789 13.2422 72.3633 12.25C72.8555 11.25 73.543 10.4727 74.4258 9.91797C75.3086 9.36328 76.293 9.08594 77.3789 9.08594C79.1055 9.08594 80.4375 9.63672 81.375 10.7383C82.3203 11.8398 82.793 13.3984 82.793 15.4141V16.5625H74.5078C74.5938 17.6094 74.9414 18.4375 75.5508 19.0469C76.168 19.6562 76.9414 19.9609 77.8711 19.9609C79.1758 19.9609 80.2383 19.4336 81.0586 18.3789L82.5938 19.8438C82.0859 20.6016 81.4062 21.1914 80.5547 21.6133C79.7109 22.0273 78.7617 22.2344 77.707 22.2344ZM77.3672 11.3711C76.5859 11.3711 75.9531 11.6445 75.4688 12.1914C74.9922 12.7383 74.6875 13.5 74.5547 14.4766H79.9805V14.2656C79.918 13.3125 79.6641 12.5938 79.2188 12.1094C78.7734 11.6172 78.1562 11.3711 77.3672 11.3711ZM97.5352 15.4258H94.2305V22H91.2656V4.9375H97.2656C99.2344 4.9375 100.754 5.37891 101.824 6.26172C102.895 7.14453 103.43 8.42188 103.43 10.0938C103.43 11.2344 103.152 12.1914 102.598 12.9648C102.051 13.7305 101.285 14.3203 100.301 14.7344L104.133 21.8477V22H100.957L97.5352 15.4258ZM94.2305 13.0469H97.2773C98.2773 13.0469 99.0586 12.7969 99.6211 12.2969C100.184 11.7891 100.465 11.0977 100.465 10.2227C100.465 9.30859 100.203 8.60156 99.6797 8.10156C99.1641 7.60156 98.3906 7.34375 97.3594 7.32812H94.2305V13.0469ZM111.551 22.2344C109.746 22.2344 108.281 21.668 107.156 20.5352C106.039 19.3945 105.48 17.8789 105.48 15.9883V15.6367C105.48 14.3711 105.723 13.2422 106.207 12.25C106.699 11.25 107.387 10.4727 108.27 9.91797C109.152 9.36328 110.137 9.08594 111.223 9.08594C112.949 9.08594 114.281 9.63672 115.219 10.7383C116.164 11.8398 116.637 13.3984 116.637 15.4141V16.5625H108.352C108.438 17.6094 108.785 18.4375 109.395 19.0469C110.012 19.6562 110.785 19.9609 111.715 19.9609C113.02 19.9609 114.082 19.4336 114.902 18.3789L116.438 19.8438C115.93 20.6016 115.25 21.1914 114.398 21.6133C113.555 22.0273 112.605 22.2344 111.551 22.2344ZM111.211 11.3711C110.43 11.3711 109.797 11.6445 109.312 12.1914C108.836 12.7383 108.531 13.5 108.398 14.4766H113.824V14.2656C113.762 13.3125 113.508 12.5938 113.062 12.1094C112.617 11.6172 112 11.3711 111.211 11.3711ZM118.324 15.5547C118.324 13.5703 118.777 11.9961 119.684 10.832C120.59 9.66797 121.816 9.08594 123.363 9.08594C124.777 9.08594 125.898 9.58203 126.727 10.5742L126.891 9.32031H129.422V26.875H126.574V20.9219C125.746 21.7969 124.668 22.2344 123.34 22.2344C121.824 22.2344 120.609 21.6445 119.695 20.4648C118.781 19.2773 118.324 17.6406 118.324 15.5547ZM121.172 15.8008C121.172 17.0977 121.426 18.1172 121.934 18.8594C122.449 19.5938 123.16 19.9609 124.066 19.9609C125.191 19.9609 126.027 19.4805 126.574 18.5195V12.7539C126.027 11.832 125.199 11.3711 124.09 11.3711C123.184 11.3711 122.469 11.7344 121.945 12.4609C121.43 13.1875 121.172 14.3008 121.172 15.8008ZM140.18 20.7578C139.344 21.7422 138.156 22.2344 136.617 22.2344C135.242 22.2344 134.199 21.832 133.488 21.0273C132.785 20.2227 132.434 19.0586 132.434 17.5352V9.32031H135.281V17.5C135.281 19.1094 135.949 19.9141 137.285 19.9141C138.668 19.9141 139.602 19.418 140.086 18.4258V9.32031H142.934V22H140.25L140.18 20.7578ZM151.418 22.2344C149.613 22.2344 148.148 21.668 147.023 20.5352C145.906 19.3945 145.348 17.8789 145.348 15.9883V15.6367C145.348 14.3711 145.59 13.2422 146.074 12.25C146.566 11.25 147.254 10.4727 148.137 9.91797C149.02 9.36328 150.004 9.08594 151.09 9.08594C152.816 9.08594 154.148 9.63672 155.086 10.7383C156.031 11.8398 156.504 13.3984 156.504 15.4141V16.5625H148.219C148.305 17.6094 148.652 18.4375 149.262 19.0469C149.879 19.6562 150.652 19.9609 151.582 19.9609C152.887 19.9609 153.949 19.4336 154.77 18.3789L156.305 19.8438C155.797 20.6016 155.117 21.1914 154.266 21.6133C153.422 22.0273 152.473 22.2344 151.418 22.2344ZM151.078 11.3711C150.297 11.3711 149.664 11.6445 149.18 12.1914C148.703 12.7383 148.398 13.5 148.266 14.4766H153.691V14.2656C153.629 13.3125 153.375 12.5938 152.93 12.1094C152.484 11.6172 151.867 11.3711 151.078 11.3711ZM165.832 18.5547C165.832 18.0469 165.621 17.6602 165.199 17.3945C164.785 17.1289 164.094 16.8945 163.125 16.6914C162.156 16.4883 161.348 16.2305 160.699 15.918C159.277 15.2305 158.566 14.2344 158.566 12.9297C158.566 11.8359 159.027 10.9219 159.949 10.1875C160.871 9.45312 162.043 9.08594 163.465 9.08594C164.98 9.08594 166.203 9.46094 167.133 10.2109C168.07 10.9609 168.539 11.9336 168.539 13.1289H165.691C165.691 12.582 165.488 12.1289 165.082 11.7695C164.676 11.4023 164.137 11.2188 163.465 11.2188C162.84 11.2188 162.328 11.3633 161.93 11.6523C161.539 11.9414 161.344 12.3281 161.344 12.8125C161.344 13.25 161.527 13.5898 161.895 13.832C162.262 14.0742 163.004 14.3203 164.121 14.5703C165.238 14.8125 166.113 15.1055 166.746 15.4492C167.387 15.7852 167.859 16.1914 168.164 16.668C168.477 17.1445 168.633 17.7227 168.633 18.4023C168.633 19.543 168.16 20.4688 167.215 21.1797C166.27 21.8828 165.031 22.2344 163.5 22.2344C162.461 22.2344 161.535 22.0469 160.723 21.6719C159.91 21.2969 159.277 20.7812 158.824 20.125C158.371 19.4688 158.145 18.7617 158.145 18.0039H160.91C160.949 18.6758 161.203 19.1953 161.672 19.5625C162.141 19.9219 162.762 20.1016 163.535 20.1016C164.285 20.1016 164.855 19.9609 165.246 19.6797C165.637 19.3906 165.832 19.0156 165.832 18.5547ZM174.691 6.23828V9.32031H176.93V11.4297H174.691V18.5078C174.691 18.9922 174.785 19.3438 174.973 19.5625C175.168 19.7734 175.512 19.8789 176.004 19.8789C176.332 19.8789 176.664 19.8398 177 19.7617V21.9648C176.352 22.1445 175.727 22.2344 175.125 22.2344C172.938 22.2344 171.844 21.0273 171.844 18.6133V11.4297H169.758V9.32031H171.844V6.23828H174.691Z" fill="black"/>
<path d="M580.078 10.1484C580.078 11.8411 579.789 13.099 579.211 13.9219C578.633 14.7448 577.729 15.1562 576.5 15.1562C575.286 15.1562 574.388 14.7552 573.805 13.9531C573.221 13.1458 572.919 11.9427 572.898 10.3438V8.41406C572.898 6.74219 573.188 5.5 573.766 4.6875C574.344 3.875 575.25 3.46875 576.484 3.46875C577.708 3.46875 578.609 3.86198 579.188 4.64844C579.766 5.42969 580.062 6.63802 580.078 8.27344V10.1484ZM578.633 8.17188C578.633 6.94792 578.461 6.05729 578.117 5.5C577.773 4.9375 577.229 4.65625 576.484 4.65625C575.745 4.65625 575.206 4.9349 574.867 5.49219C574.529 6.04948 574.354 6.90625 574.344 8.0625V10.375C574.344 11.6042 574.521 12.513 574.875 13.1016C575.234 13.6849 575.776 13.9766 576.5 13.9766C577.214 13.9766 577.742 13.7005 578.086 13.1484C578.435 12.5964 578.617 11.7266 578.633 10.5391V8.17188ZM589.383 15H581.93V13.9609L585.867 9.58594C586.451 8.92448 586.852 8.38802 587.07 7.97656C587.294 7.5599 587.406 7.13021 587.406 6.6875C587.406 6.09375 587.227 5.60677 586.867 5.22656C586.508 4.84635 586.029 4.65625 585.43 4.65625C584.711 4.65625 584.151 4.86198 583.75 5.27344C583.354 5.67969 583.156 6.2474 583.156 6.97656H581.711C581.711 5.92969 582.047 5.08333 582.719 4.4375C583.396 3.79167 584.299 3.46875 585.43 3.46875C586.487 3.46875 587.323 3.7474 587.938 4.30469C588.552 4.85677 588.859 5.59375 588.859 6.51562C588.859 7.63542 588.146 8.96875 586.719 10.5156L583.672 13.8203H589.383V15ZM591.352 15.9766H590.109L594.859 3.625H596.094L591.352 15.9766ZM604.641 10.1484C604.641 11.8411 604.352 13.099 603.773 13.9219C603.195 14.7448 602.292 15.1562 601.062 15.1562C599.849 15.1562 598.951 14.7552 598.367 13.9531C597.784 13.1458 597.482 11.9427 597.461 10.3438V8.41406C597.461 6.74219 597.75 5.5 598.328 4.6875C598.906 3.875 599.812 3.46875 601.047 3.46875C602.271 3.46875 603.172 3.86198 603.75 4.64844C604.328 5.42969 604.625 6.63802 604.641 8.27344V10.1484ZM603.195 8.17188C603.195 6.94792 603.023 6.05729 602.68 5.5C602.336 4.9375 601.792 4.65625 601.047 4.65625C600.307 4.65625 599.768 4.9349 599.43 5.49219C599.091 6.04948 598.917 6.90625 598.906 8.0625V10.375C598.906 11.6042 599.083 12.513 599.438 13.1016C599.797 13.6849 600.339 13.9766 601.062 13.9766C601.776 13.9766 602.305 13.7005 602.648 13.1484C602.997 12.5964 603.18 11.7266 603.195 10.5391V8.17188ZM612.031 10C611.729 10.3594 611.367 10.6484 610.945 10.8672C610.529 11.0859 610.07 11.1953 609.57 11.1953C608.914 11.1953 608.341 11.0339 607.852 10.7109C607.367 10.388 606.992 9.9349 606.727 9.35156C606.461 8.76302 606.328 8.11458 606.328 7.40625C606.328 6.64583 606.471 5.96094 606.758 5.35156C607.049 4.74219 607.461 4.27604 607.992 3.95312C608.523 3.63021 609.143 3.46875 609.852 3.46875C610.977 3.46875 611.862 3.89062 612.508 4.73438C613.159 5.57292 613.484 6.71875 613.484 8.17188V8.59375C613.484 10.8073 613.047 12.4245 612.172 13.4453C611.297 14.4609 609.977 14.9818 608.211 15.0078H607.93V13.7891H608.234C609.427 13.7682 610.344 13.4583 610.984 12.8594C611.625 12.2552 611.974 11.3021 612.031 10ZM609.805 10C610.289 10 610.734 9.85156 611.141 9.55469C611.552 9.25781 611.852 8.89062 612.039 8.45312V7.875C612.039 6.92708 611.833 6.15625 611.422 5.5625C611.01 4.96875 610.49 4.67188 609.859 4.67188C609.224 4.67188 608.714 4.91667 608.328 5.40625C607.943 5.89062 607.75 6.53125 607.75 7.32812C607.75 8.10417 607.935 8.74479 608.305 9.25C608.68 9.75 609.18 10 609.805 10ZM615.914 15.9766H614.672L619.422 3.625H620.656L615.914 15.9766ZM629.523 15H622.07V13.9609L626.008 9.58594C626.591 8.92448 626.992 8.38802 627.211 7.97656C627.435 7.5599 627.547 7.13021 627.547 6.6875C627.547 6.09375 627.367 5.60677 627.008 5.22656C626.648 4.84635 626.169 4.65625 625.57 4.65625C624.852 4.65625 624.292 4.86198 623.891 5.27344C623.495 5.67969 623.297 6.2474 623.297 6.97656H621.852C621.852 5.92969 622.188 5.08333 622.859 4.4375C623.536 3.79167 624.44 3.46875 625.57 3.46875C626.628 3.46875 627.464 3.7474 628.078 4.30469C628.693 4.85677 629 5.59375 629 6.51562C629 7.63542 628.286 8.96875 626.859 10.5156L623.812 13.8203H629.523V15ZM638.188 10.1484C638.188 11.8411 637.898 13.099 637.32 13.9219C636.742 14.7448 635.839 15.1562 634.609 15.1562C633.396 15.1562 632.497 14.7552 631.914 13.9531C631.331 13.1458 631.029 11.9427 631.008 10.3438V8.41406C631.008 6.74219 631.297 5.5 631.875 4.6875C632.453 3.875 633.359 3.46875 634.594 3.46875C635.818 3.46875 636.719 3.86198 637.297 4.64844C637.875 5.42969 638.172 6.63802 638.188 8.27344V10.1484ZM636.742 8.17188C636.742 6.94792 636.57 6.05729 636.227 5.5C635.883 4.9375 635.339 4.65625 634.594 4.65625C633.854 4.65625 633.315 4.9349 632.977 5.49219C632.638 6.04948 632.464 6.90625 632.453 8.0625V10.375C632.453 11.6042 632.63 12.513 632.984 13.1016C633.344 13.6849 633.885 13.9766 634.609 13.9766C635.323 13.9766 635.852 13.7005 636.195 13.1484C636.544 12.5964 636.727 11.7266 636.742 10.5391V8.17188ZM647.492 15H640.039V13.9609L643.977 9.58594C644.56 8.92448 644.961 8.38802 645.18 7.97656C645.404 7.5599 645.516 7.13021 645.516 6.6875C645.516 6.09375 645.336 5.60677 644.977 5.22656C644.617 4.84635 644.138 4.65625 643.539 4.65625C642.82 4.65625 642.26 4.86198 641.859 5.27344C641.464 5.67969 641.266 6.2474 641.266 6.97656H639.82C639.82 5.92969 640.156 5.08333 640.828 4.4375C641.505 3.79167 642.409 3.46875 643.539 3.46875C644.596 3.46875 645.432 3.7474 646.047 4.30469C646.661 4.85677 646.969 5.59375 646.969 6.51562C646.969 7.63542 646.255 8.96875 644.828 10.5156L641.781 13.8203H647.492V15ZM653.773 15H652.32V5.36719L649.406 6.4375V5.125L653.547 3.57031H653.773V15Z" fill="black"/>
<path d="M352.469 166.484C351.198 167.828 349.714 168.5 348.016 168.5C346.016 168.5 344.422 167.802 343.234 166.406C342.047 165 341.453 163.156 341.453 160.875C341.453 159.375 341.755 158.016 342.359 156.797C342.964 155.578 343.823 154.63 344.938 153.953C346.052 153.276 347.344 152.938 348.812 152.938C351.104 152.938 352.922 153.792 354.266 155.5C355.609 157.208 356.281 159.495 356.281 162.359V163.422C356.281 167.526 355.354 170.656 353.5 172.812C351.646 174.969 348.88 176.062 345.203 176.094H344.75V172.953H345.297C347.536 172.922 349.255 172.385 350.453 171.344C351.651 170.292 352.323 168.672 352.469 166.484ZM348.812 165.531C349.573 165.531 350.286 165.312 350.953 164.875C351.62 164.438 352.135 163.833 352.5 163.062V161.578C352.5 159.901 352.156 158.552 351.469 157.531C350.781 156.51 349.891 156 348.797 156C347.703 156 346.828 156.453 346.172 157.359C345.526 158.255 345.203 159.391 345.203 160.766C345.203 162.193 345.531 163.344 346.188 164.219C346.844 165.094 347.719 165.531 348.812 165.531ZM374.719 166.422C374.719 169.693 374.104 172.161 372.875 173.828C371.656 175.484 369.797 176.312 367.297 176.312C364.839 176.312 362.984 175.505 361.734 173.891C360.495 172.266 359.859 169.865 359.828 166.688V162.75C359.828 159.479 360.438 157.026 361.656 155.391C362.885 153.755 364.755 152.938 367.266 152.938C369.755 152.938 371.609 153.734 372.828 155.328C374.057 156.922 374.688 159.307 374.719 162.484V166.422ZM370.922 162.172C370.922 160.036 370.63 158.474 370.047 157.484C369.464 156.484 368.536 155.984 367.266 155.984C366.026 155.984 365.115 156.458 364.531 157.406C363.948 158.344 363.641 159.812 363.609 161.812V166.969C363.609 169.094 363.906 170.677 364.5 171.719C365.094 172.76 366.026 173.281 367.297 173.281C368.516 173.281 369.417 172.802 370 171.844C370.583 170.875 370.891 169.365 370.922 167.312V162.172ZM385.891 157.625C385.891 156.25 386.333 155.125 387.219 154.25C388.104 153.365 389.266 152.922 390.703 152.922C392.161 152.922 393.328 153.365 394.203 154.25C395.089 155.125 395.531 156.276 395.531 157.703V158.828C395.531 160.193 395.089 161.312 394.203 162.188C393.328 163.062 392.172 163.5 390.734 163.5C389.328 163.5 388.167 163.073 387.25 162.219C386.344 161.354 385.891 160.193 385.891 158.734V157.625ZM388.547 158.828C388.547 159.547 388.745 160.13 389.141 160.578C389.547 161.016 390.078 161.234 390.734 161.234C391.38 161.234 391.901 161.016 392.297 160.578C392.693 160.13 392.891 159.526 392.891 158.766V157.625C392.891 156.906 392.688 156.323 392.281 155.875C391.885 155.427 391.359 155.203 390.703 155.203C390.047 155.203 389.521 155.432 389.125 155.891C388.74 156.339 388.547 156.932 388.547 157.672V158.828ZM396.828 170.422C396.828 169.026 397.281 167.896 398.188 167.031C399.094 166.167 400.25 165.734 401.656 165.734C403.073 165.734 404.229 166.167 405.125 167.031C406.031 167.896 406.484 169.062 406.484 170.531V171.641C406.484 172.995 406.047 174.115 405.172 175C404.307 175.875 403.146 176.312 401.688 176.312C400.229 176.312 399.052 175.88 398.156 175.016C397.271 174.141 396.828 172.99 396.828 171.562V170.422ZM399.484 171.641C399.484 172.349 399.688 172.932 400.094 173.391C400.51 173.839 401.042 174.062 401.688 174.062C402.354 174.062 402.875 173.849 403.25 173.422C403.635 172.984 403.828 172.375 403.828 171.594V170.422C403.828 169.693 403.625 169.109 403.219 168.672C402.812 168.234 402.292 168.016 401.656 168.016C401.01 168.016 400.484 168.234 400.078 168.672C399.682 169.109 399.484 169.714 399.484 170.484V171.641ZM391.516 174.297L389.562 173.172L400.672 155.391L402.625 156.516L391.516 174.297Z" fill="#0A7A22"/>
<path d="M453.61 165.288C453.61 209.096 418.097 244.61 374.288 244.61C330.48 244.61 294.966 209.096 294.966 165.288C294.966 121.48 330.48 85.9658 374.288 85.9658C418.097 85.9658 453.61 121.48 453.61 165.288ZM314.432 165.288C314.432 198.345 341.231 225.144 374.288 225.144C407.346 225.144 434.144 198.345 434.144 165.288C434.144 132.231 407.346 105.432 374.288 105.432C341.231 105.432 314.432 132.231 314.432 165.288Z" fill="#D1E5D4"/>
<path d="M368.646 85.8587C355.472 86.7499 342.729 90.9157 331.572 97.9783C320.416 105.041 311.199 114.777 304.757 126.303C298.316 137.829 294.853 150.781 294.684 163.984C294.515 177.187 297.645 190.224 303.789 201.911L321.02 192.853C316.383 184.034 314.022 174.196 314.149 164.234C314.277 154.271 316.889 144.497 321.75 135.8C326.611 127.102 333.566 119.755 341.985 114.426C350.403 109.097 360.019 105.953 369.96 105.281L368.646 85.8587Z" fill="#0A7A22"/>
<path d="M41.4922 110.398H38.8203V115H37.3125V103.625H41.0781C42.3594 103.625 43.3438 103.917 44.0312 104.5C44.724 105.083 45.0703 105.932 45.0703 107.047C45.0703 107.755 44.8776 108.372 44.4922 108.898C44.112 109.424 43.5807 109.818 42.8984 110.078L45.5703 114.906V115H43.9609L41.4922 110.398ZM38.8203 109.172H41.125C41.8698 109.172 42.4609 108.979 42.8984 108.594C43.3411 108.208 43.5625 107.693 43.5625 107.047C43.5625 106.344 43.3516 105.805 42.9297 105.43C42.513 105.055 41.9089 104.865 41.1172 104.859H38.8203V109.172ZM50.4609 115.156C49.3151 115.156 48.3828 114.781 47.6641 114.031C46.9453 113.276 46.5859 112.268 46.5859 111.008V110.742C46.5859 109.904 46.7448 109.156 47.0625 108.5C47.3854 107.839 47.8333 107.323 48.4062 106.953C48.9844 106.578 49.6094 106.391 50.2812 106.391C51.3802 106.391 52.2344 106.753 52.8438 107.477C53.4531 108.201 53.7578 109.237 53.7578 110.586V111.188H48.0312C48.0521 112.021 48.2943 112.695 48.7578 113.211C49.2266 113.721 49.8203 113.977 50.5391 113.977C51.0495 113.977 51.4818 113.872 51.8359 113.664C52.1901 113.456 52.5 113.18 52.7656 112.836L53.6484 113.523C52.9401 114.612 51.8776 115.156 50.4609 115.156ZM50.2812 107.578C49.6979 107.578 49.2083 107.792 48.8125 108.219C48.4167 108.641 48.1719 109.234 48.0781 110H52.3125V109.891C52.2708 109.156 52.0729 108.589 51.7188 108.188C51.3646 107.781 50.8854 107.578 50.2812 107.578ZM58.8281 113.977C59.3438 113.977 59.7943 113.82 60.1797 113.508C60.5651 113.195 60.7786 112.805 60.8203 112.336H62.1875C62.1615 112.82 61.9948 113.281 61.6875 113.719C61.3802 114.156 60.9688 114.505 60.4531 114.766C59.9427 115.026 59.401 115.156 58.8281 115.156C57.6771 115.156 56.7604 114.773 56.0781 114.008C55.401 113.237 55.0625 112.185 55.0625 110.852V110.609C55.0625 109.786 55.2135 109.055 55.5156 108.414C55.8177 107.773 56.25 107.276 56.8125 106.922C57.3802 106.568 58.0495 106.391 58.8203 106.391C59.7682 106.391 60.5547 106.674 61.1797 107.242C61.8099 107.81 62.1458 108.547 62.1875 109.453H60.8203C60.7786 108.906 60.5703 108.458 60.1953 108.109C59.8255 107.755 59.3672 107.578 58.8203 107.578C58.0859 107.578 57.5156 107.844 57.1094 108.375C56.7083 108.901 56.5078 109.664 56.5078 110.664V110.938C56.5078 111.911 56.7083 112.661 57.1094 113.188C57.5104 113.714 58.0833 113.977 58.8281 113.977ZM66.5781 112.883L68.5469 106.547H70.0938L66.6953 116.305C66.1693 117.711 65.3333 118.414 64.1875 118.414L63.9141 118.391L63.375 118.289V117.117L63.7656 117.148C64.2552 117.148 64.6354 117.049 64.9062 116.852C65.1823 116.654 65.4089 116.292 65.5859 115.766L65.9062 114.906L62.8906 106.547H64.4688L66.5781 112.883ZM74.6719 113.977C75.1875 113.977 75.638 113.82 76.0234 113.508C76.4089 113.195 76.6224 112.805 76.6641 112.336H78.0312C78.0052 112.82 77.8385 113.281 77.5312 113.719C77.224 114.156 76.8125 114.505 76.2969 114.766C75.7865 115.026 75.2448 115.156 74.6719 115.156C73.5208 115.156 72.6042 114.773 71.9219 114.008C71.2448 113.237 70.9062 112.185 70.9062 110.852V110.609C70.9062 109.786 71.0573 109.055 71.3594 108.414C71.6615 107.773 72.0938 107.276 72.6562 106.922C73.224 106.568 73.8932 106.391 74.6641 106.391C75.612 106.391 76.3984 106.674 77.0234 107.242C77.6536 107.81 77.9896 108.547 78.0312 109.453H76.6641C76.6224 108.906 76.4141 108.458 76.0391 108.109C75.6693 107.755 75.2109 107.578 74.6641 107.578C73.9297 107.578 73.3594 107.844 72.9531 108.375C72.5521 108.901 72.3516 109.664 72.3516 110.664V110.938C72.3516 111.911 72.5521 112.661 72.9531 113.188C73.3542 113.714 73.9271 113.977 74.6719 113.977ZM81.2266 115H79.7812V103H81.2266V115ZM87.0547 115.156C85.9089 115.156 84.9766 114.781 84.2578 114.031C83.5391 113.276 83.1797 112.268 83.1797 111.008V110.742C83.1797 109.904 83.3385 109.156 83.6562 108.5C83.9792 107.839 84.4271 107.323 85 106.953C85.5781 106.578 86.2031 106.391 86.875 106.391C87.974 106.391 88.8281 106.753 89.4375 107.477C90.0469 108.201 90.3516 109.237 90.3516 110.586V111.188H84.625C84.6458 112.021 84.888 112.695 85.3516 113.211C85.8203 113.721 86.4141 113.977 87.1328 113.977C87.6432 113.977 88.0755 113.872 88.4297 113.664C88.7839 113.456 89.0938 113.18 89.3594 112.836L90.2422 113.523C89.5339 114.612 88.4714 115.156 87.0547 115.156ZM86.875 107.578C86.2917 107.578 85.8021 107.792 85.4062 108.219C85.0104 108.641 84.7656 109.234 84.6719 110H88.9062V109.891C88.8646 109.156 88.6667 108.589 88.3125 108.188C87.9583 107.781 87.4792 107.578 86.875 107.578ZM100.086 107.844C99.8672 107.807 99.6302 107.789 99.375 107.789C98.4271 107.789 97.7839 108.193 97.4453 109V115H96V106.547H97.4062L97.4297 107.523C97.9036 106.768 98.5755 106.391 99.4453 106.391C99.7266 106.391 99.9401 106.427 100.086 106.5V107.844ZM104.773 115.156C103.628 115.156 102.695 114.781 101.977 114.031C101.258 113.276 100.898 112.268 100.898 111.008V110.742C100.898 109.904 101.057 109.156 101.375 108.5C101.698 107.839 102.146 107.323 102.719 106.953C103.297 106.578 103.922 106.391 104.594 106.391C105.693 106.391 106.547 106.753 107.156 107.477C107.766 108.201 108.07 109.237 108.07 110.586V111.188H102.344C102.365 112.021 102.607 112.695 103.07 113.211C103.539 113.721 104.133 113.977 104.852 113.977C105.362 113.977 105.794 113.872 106.148 113.664C106.503 113.456 106.812 113.18 107.078 112.836L107.961 113.523C107.253 114.612 106.19 115.156 104.773 115.156ZM104.594 107.578C104.01 107.578 103.521 107.792 103.125 108.219C102.729 108.641 102.484 109.234 102.391 110H106.625V109.891C106.583 109.156 106.385 108.589 106.031 108.188C105.677 107.781 105.198 107.578 104.594 107.578ZM109.398 110.703C109.398 109.375 109.703 108.326 110.312 107.555C110.922 106.779 111.74 106.391 112.766 106.391C113.766 106.391 114.555 106.727 115.133 107.398L115.195 106.547H116.523V118.25H115.078V114.219C114.495 114.844 113.719 115.156 112.75 115.156C111.729 115.156 110.914 114.76 110.305 113.969C109.701 113.172 109.398 112.117 109.398 110.805V110.703ZM110.844 110.867C110.844 111.836 111.047 112.596 111.453 113.148C111.865 113.701 112.417 113.977 113.109 113.977C113.969 113.977 114.625 113.596 115.078 112.836V108.695C114.62 107.951 113.969 107.578 113.125 107.578C112.427 107.578 111.872 107.857 111.461 108.414C111.049 108.966 110.844 109.784 110.844 110.867ZM124.062 114.164C123.5 114.826 122.674 115.156 121.586 115.156C120.685 115.156 119.997 114.896 119.523 114.375C119.055 113.849 118.818 113.073 118.812 112.047V106.547H120.258V112.008C120.258 113.289 120.779 113.93 121.82 113.93C122.924 113.93 123.659 113.518 124.023 112.695V106.547H125.469V115H124.094L124.062 114.164ZM131.18 115.156C130.034 115.156 129.102 114.781 128.383 114.031C127.664 113.276 127.305 112.268 127.305 111.008V110.742C127.305 109.904 127.464 109.156 127.781 108.5C128.104 107.839 128.552 107.323 129.125 106.953C129.703 106.578 130.328 106.391 131 106.391C132.099 106.391 132.953 106.753 133.562 107.477C134.172 108.201 134.477 109.237 134.477 110.586V111.188H128.75C128.771 112.021 129.013 112.695 129.477 113.211C129.945 113.721 130.539 113.977 131.258 113.977C131.768 113.977 132.201 113.872 132.555 113.664C132.909 113.456 133.219 113.18 133.484 112.836L134.367 113.523C133.659 114.612 132.596 115.156 131.18 115.156ZM131 107.578C130.417 107.578 129.927 107.792 129.531 108.219C129.135 108.641 128.891 109.234 128.797 110H133.031V109.891C132.99 109.156 132.792 108.589 132.438 108.188C132.083 107.781 131.604 107.578 131 107.578ZM141.078 112.758C141.078 112.367 140.93 112.065 140.633 111.852C140.341 111.633 139.828 111.445 139.094 111.289C138.365 111.133 137.784 110.945 137.352 110.727C136.924 110.508 136.607 110.247 136.398 109.945C136.195 109.643 136.094 109.284 136.094 108.867C136.094 108.174 136.385 107.589 136.969 107.109C137.557 106.63 138.307 106.391 139.219 106.391C140.177 106.391 140.953 106.638 141.547 107.133C142.146 107.628 142.445 108.26 142.445 109.031H140.992C140.992 108.635 140.823 108.294 140.484 108.008C140.151 107.721 139.729 107.578 139.219 107.578C138.693 107.578 138.281 107.693 137.984 107.922C137.688 108.151 137.539 108.451 137.539 108.82C137.539 109.169 137.677 109.432 137.953 109.609C138.229 109.786 138.727 109.956 139.445 110.117C140.169 110.279 140.755 110.471 141.203 110.695C141.651 110.919 141.982 111.19 142.195 111.508C142.414 111.82 142.523 112.203 142.523 112.656C142.523 113.411 142.221 114.018 141.617 114.477C141.013 114.93 140.229 115.156 139.266 115.156C138.589 115.156 137.99 115.036 137.469 114.797C136.948 114.557 136.539 114.224 136.242 113.797C135.951 113.365 135.805 112.898 135.805 112.398H137.25C137.276 112.883 137.469 113.268 137.828 113.555C138.193 113.836 138.672 113.977 139.266 113.977C139.812 113.977 140.25 113.867 140.578 113.648C140.911 113.424 141.078 113.128 141.078 112.758ZM146.367 104.5V106.547H147.945V107.664H146.367V112.906C146.367 113.245 146.438 113.5 146.578 113.672C146.719 113.839 146.958 113.922 147.297 113.922C147.464 113.922 147.693 113.891 147.984 113.828V115C147.604 115.104 147.234 115.156 146.875 115.156C146.229 115.156 145.742 114.961 145.414 114.57C145.086 114.18 144.922 113.625 144.922 112.906V107.664H143.383V106.547H144.922V104.5H146.367ZM157 113.977C157.516 113.977 157.966 113.82 158.352 113.508C158.737 113.195 158.951 112.805 158.992 112.336H160.359C160.333 112.82 160.167 113.281 159.859 113.719C159.552 114.156 159.141 114.505 158.625 114.766C158.115 115.026 157.573 115.156 157 115.156C155.849 115.156 154.932 114.773 154.25 114.008C153.573 113.237 153.234 112.185 153.234 110.852V110.609C153.234 109.786 153.385 109.055 153.688 108.414C153.99 107.773 154.422 107.276 154.984 106.922C155.552 106.568 156.221 106.391 156.992 106.391C157.94 106.391 158.727 106.674 159.352 107.242C159.982 107.81 160.318 108.547 160.359 109.453H158.992C158.951 108.906 158.742 108.458 158.367 108.109C157.997 107.755 157.539 107.578 156.992 107.578C156.258 107.578 155.688 107.844 155.281 108.375C154.88 108.901 154.68 109.664 154.68 110.664V110.938C154.68 111.911 154.88 112.661 155.281 113.188C155.682 113.714 156.255 113.977 157 113.977ZM166.07 107.844C165.852 107.807 165.615 107.789 165.359 107.789C164.411 107.789 163.768 108.193 163.43 109V115H161.984V106.547H163.391L163.414 107.523C163.888 106.768 164.56 106.391 165.43 106.391C165.711 106.391 165.924 106.427 166.07 106.5V107.844ZM170.758 115.156C169.612 115.156 168.68 114.781 167.961 114.031C167.242 113.276 166.883 112.268 166.883 111.008V110.742C166.883 109.904 167.042 109.156 167.359 108.5C167.682 107.839 168.13 107.323 168.703 106.953C169.281 106.578 169.906 106.391 170.578 106.391C171.677 106.391 172.531 106.753 173.141 107.477C173.75 108.201 174.055 109.237 174.055 110.586V111.188H168.328C168.349 112.021 168.591 112.695 169.055 113.211C169.523 113.721 170.117 113.977 170.836 113.977C171.346 113.977 171.779 113.872 172.133 113.664C172.487 113.456 172.797 113.18 173.062 112.836L173.945 113.523C173.237 114.612 172.174 115.156 170.758 115.156ZM170.578 107.578C169.995 107.578 169.505 107.792 169.109 108.219C168.714 108.641 168.469 109.234 168.375 110H172.609V109.891C172.568 109.156 172.37 108.589 172.016 108.188C171.661 107.781 171.182 107.578 170.578 107.578ZM180.953 115C180.87 114.833 180.802 114.536 180.75 114.109C180.078 114.807 179.276 115.156 178.344 115.156C177.51 115.156 176.826 114.922 176.289 114.453C175.758 113.979 175.492 113.38 175.492 112.656C175.492 111.776 175.826 111.094 176.492 110.609C177.164 110.12 178.107 109.875 179.32 109.875H180.727V109.211C180.727 108.706 180.576 108.305 180.273 108.008C179.971 107.706 179.526 107.555 178.938 107.555C178.422 107.555 177.99 107.685 177.641 107.945C177.292 108.206 177.117 108.521 177.117 108.891H175.664C175.664 108.469 175.812 108.062 176.109 107.672C176.411 107.276 176.818 106.964 177.328 106.734C177.844 106.505 178.409 106.391 179.023 106.391C179.997 106.391 180.76 106.635 181.312 107.125C181.865 107.609 182.151 108.279 182.172 109.133V113.023C182.172 113.799 182.271 114.417 182.469 114.875V115H180.953ZM178.555 113.898C179.008 113.898 179.438 113.781 179.844 113.547C180.25 113.312 180.544 113.008 180.727 112.633V110.898H179.594C177.823 110.898 176.938 111.417 176.938 112.453C176.938 112.906 177.089 113.26 177.391 113.516C177.693 113.771 178.081 113.898 178.555 113.898ZM186.398 104.5V106.547H187.977V107.664H186.398V112.906C186.398 113.245 186.469 113.5 186.609 113.672C186.75 113.839 186.99 113.922 187.328 113.922C187.495 113.922 187.724 113.891 188.016 113.828V115C187.635 115.104 187.266 115.156 186.906 115.156C186.26 115.156 185.773 114.961 185.445 114.57C185.117 114.18 184.953 113.625 184.953 112.906V107.664H183.414V106.547H184.953V104.5H186.398ZM193.18 115.156C192.034 115.156 191.102 114.781 190.383 114.031C189.664 113.276 189.305 112.268 189.305 111.008V110.742C189.305 109.904 189.464 109.156 189.781 108.5C190.104 107.839 190.552 107.323 191.125 106.953C191.703 106.578 192.328 106.391 193 106.391C194.099 106.391 194.953 106.753 195.562 107.477C196.172 108.201 196.477 109.237 196.477 110.586V111.188H190.75C190.771 112.021 191.013 112.695 191.477 113.211C191.945 113.721 192.539 113.977 193.258 113.977C193.768 113.977 194.201 113.872 194.555 113.664C194.909 113.456 195.219 113.18 195.484 112.836L196.367 113.523C195.659 114.612 194.596 115.156 193.18 115.156ZM193 107.578C192.417 107.578 191.927 107.792 191.531 108.219C191.135 108.641 190.891 109.234 190.797 110H195.031V109.891C194.99 109.156 194.792 108.589 194.438 108.188C194.083 107.781 193.604 107.578 193 107.578ZM197.805 110.703C197.805 109.406 198.112 108.365 198.727 107.578C199.341 106.786 200.146 106.391 201.141 106.391C202.13 106.391 202.914 106.729 203.492 107.406V103H204.938V115H203.609L203.539 114.094C202.961 114.802 202.156 115.156 201.125 115.156C200.146 115.156 199.346 114.755 198.727 113.953C198.112 113.151 197.805 112.104 197.805 110.812V110.703ZM199.25 110.867C199.25 111.826 199.448 112.576 199.844 113.117C200.24 113.659 200.786 113.93 201.484 113.93C202.401 113.93 203.07 113.518 203.492 112.695V108.812C203.06 108.016 202.396 107.617 201.5 107.617C200.792 107.617 200.24 107.891 199.844 108.438C199.448 108.984 199.25 109.794 199.25 110.867Z" fill="black"/>
<path d="M7.20939 109.231C7.33564 109.777 6.73583 110.193 6.26923 109.901L4.67799 108.907L2.691 112.087C2.17209 112.917 2.77186 114 3.75045 114H5.78123C6.04009 114 6.24997 114.21 6.24997 114.469V116.031C6.24997 116.29 6.04009 116.5 5.78123 116.5H3.75447C0.811743 116.5 -0.983878 113.256 0.574478 110.762L2.55971 107.583L0.968892 106.589C0.496979 106.294 0.618658 105.575 1.15948 105.45L5.4656 104.456C5.80197 104.378 6.13751 104.588 6.21517 104.924L7.20939 109.231ZM11.0594 102.085L12.6723 104.667L11.0809 105.661C10.6101 105.955 10.7293 106.675 11.2714 106.8L15.5776 107.794C15.9163 107.872 16.25 107.66 16.3271 107.326L17.3213 103.02C17.4462 102.479 16.8529 102.054 16.3811 102.349L14.7918 103.342L13.18 100.761C11.7143 98.4158 8.28899 98.4104 6.81997 100.761L6.11829 101.884C5.98119 102.104 6.04798 102.393 6.26751 102.53L7.59247 103.358C7.812 103.495 8.10122 103.429 8.23841 103.209L8.94001 102.086C9.43657 101.292 10.5796 101.318 11.0594 102.085ZM19.4253 110.762L18.3505 109.041C18.2133 108.822 17.924 108.755 17.7044 108.892L16.3817 109.718C16.1622 109.856 16.0954 110.145 16.2326 110.364L17.3093 112.088C17.8272 112.916 17.229 114 16.2493 114H12.5V112.126C12.5 111.571 11.8264 111.291 11.433 111.684L8.30806 114.808C8.06395 115.052 8.06395 115.448 8.30806 115.692L11.433 118.817C11.8238 119.207 12.5 118.934 12.5 118.375V116.5H16.2453C19.1856 116.5 20.9849 113.258 19.4253 110.762Z" fill="#0A7A22"/>
<path d="M41.4922 146.398H38.8203V151H37.3125V139.625H41.0781C42.3594 139.625 43.3438 139.917 44.0312 140.5C44.724 141.083 45.0703 141.932 45.0703 143.047C45.0703 143.755 44.8776 144.372 44.4922 144.898C44.112 145.424 43.5807 145.818 42.8984 146.078L45.5703 150.906V151H43.9609L41.4922 146.398ZM38.8203 145.172H41.125C41.8698 145.172 42.4609 144.979 42.8984 144.594C43.3411 144.208 43.5625 143.693 43.5625 143.047C43.5625 142.344 43.3516 141.805 42.9297 141.43C42.513 141.055 41.9089 140.865 41.1172 140.859H38.8203V145.172ZM50.4609 151.156C49.3151 151.156 48.3828 150.781 47.6641 150.031C46.9453 149.276 46.5859 148.268 46.5859 147.008V146.742C46.5859 145.904 46.7448 145.156 47.0625 144.5C47.3854 143.839 47.8333 143.323 48.4062 142.953C48.9844 142.578 49.6094 142.391 50.2812 142.391C51.3802 142.391 52.2344 142.753 52.8438 143.477C53.4531 144.201 53.7578 145.237 53.7578 146.586V147.188H48.0312C48.0521 148.021 48.2943 148.695 48.7578 149.211C49.2266 149.721 49.8203 149.977 50.5391 149.977C51.0495 149.977 51.4818 149.872 51.8359 149.664C52.1901 149.456 52.5 149.18 52.7656 148.836L53.6484 149.523C52.9401 150.612 51.8776 151.156 50.4609 151.156ZM50.2812 143.578C49.6979 143.578 49.2083 143.792 48.8125 144.219C48.4167 144.641 48.1719 145.234 48.0781 146H52.3125V145.891C52.2708 145.156 52.0729 144.589 51.7188 144.188C51.3646 143.781 50.8854 143.578 50.2812 143.578ZM58.8281 149.977C59.3438 149.977 59.7943 149.82 60.1797 149.508C60.5651 149.195 60.7786 148.805 60.8203 148.336H62.1875C62.1615 148.82 61.9948 149.281 61.6875 149.719C61.3802 150.156 60.9688 150.505 60.4531 150.766C59.9427 151.026 59.401 151.156 58.8281 151.156C57.6771 151.156 56.7604 150.773 56.0781 150.008C55.401 149.237 55.0625 148.185 55.0625 146.852V146.609C55.0625 145.786 55.2135 145.055 55.5156 144.414C55.8177 143.773 56.25 143.276 56.8125 142.922C57.3802 142.568 58.0495 142.391 58.8203 142.391C59.7682 142.391 60.5547 142.674 61.1797 143.242C61.8099 143.81 62.1458 144.547 62.1875 145.453H60.8203C60.7786 144.906 60.5703 144.458 60.1953 144.109C59.8255 143.755 59.3672 143.578 58.8203 143.578C58.0859 143.578 57.5156 143.844 57.1094 144.375C56.7083 144.901 56.5078 145.664 56.5078 146.664V146.938C56.5078 147.911 56.7083 148.661 57.1094 149.188C57.5104 149.714 58.0833 149.977 58.8281 149.977ZM66.5781 148.883L68.5469 142.547H70.0938L66.6953 152.305C66.1693 153.711 65.3333 154.414 64.1875 154.414L63.9141 154.391L63.375 154.289V153.117L63.7656 153.148C64.2552 153.148 64.6354 153.049 64.9062 152.852C65.1823 152.654 65.4089 152.292 65.5859 151.766L65.9062 150.906L62.8906 142.547H64.4688L66.5781 148.883ZM74.6719 149.977C75.1875 149.977 75.638 149.82 76.0234 149.508C76.4089 149.195 76.6224 148.805 76.6641 148.336H78.0312C78.0052 148.82 77.8385 149.281 77.5312 149.719C77.224 150.156 76.8125 150.505 76.2969 150.766C75.7865 151.026 75.2448 151.156 74.6719 151.156C73.5208 151.156 72.6042 150.773 71.9219 150.008C71.2448 149.237 70.9062 148.185 70.9062 146.852V146.609C70.9062 145.786 71.0573 145.055 71.3594 144.414C71.6615 143.773 72.0938 143.276 72.6562 142.922C73.224 142.568 73.8932 142.391 74.6641 142.391C75.612 142.391 76.3984 142.674 77.0234 143.242C77.6536 143.81 77.9896 144.547 78.0312 145.453H76.6641C76.6224 144.906 76.4141 144.458 76.0391 144.109C75.6693 143.755 75.2109 143.578 74.6641 143.578C73.9297 143.578 73.3594 143.844 72.9531 144.375C72.5521 144.901 72.3516 145.664 72.3516 146.664V146.938C72.3516 147.911 72.5521 148.661 72.9531 149.188C73.3542 149.714 73.9271 149.977 74.6719 149.977ZM81.2266 151H79.7812V139H81.2266V151ZM87.0547 151.156C85.9089 151.156 84.9766 150.781 84.2578 150.031C83.5391 149.276 83.1797 148.268 83.1797 147.008V146.742C83.1797 145.904 83.3385 145.156 83.6562 144.5C83.9792 143.839 84.4271 143.323 85 142.953C85.5781 142.578 86.2031 142.391 86.875 142.391C87.974 142.391 88.8281 142.753 89.4375 143.477C90.0469 144.201 90.3516 145.237 90.3516 146.586V147.188H84.625C84.6458 148.021 84.888 148.695 85.3516 149.211C85.8203 149.721 86.4141 149.977 87.1328 149.977C87.6432 149.977 88.0755 149.872 88.4297 149.664C88.7839 149.456 89.0938 149.18 89.3594 148.836L90.2422 149.523C89.5339 150.612 88.4714 151.156 87.0547 151.156ZM86.875 143.578C86.2917 143.578 85.8021 143.792 85.4062 144.219C85.0104 144.641 84.7656 145.234 84.6719 146H88.9062V145.891C88.8646 145.156 88.6667 144.589 88.3125 144.188C87.9583 143.781 87.4792 143.578 86.875 143.578ZM100.086 143.844C99.8672 143.807 99.6302 143.789 99.375 143.789C98.4271 143.789 97.7839 144.193 97.4453 145V151H96V142.547H97.4062L97.4297 143.523C97.9036 142.768 98.5755 142.391 99.4453 142.391C99.7266 142.391 99.9401 142.427 100.086 142.5V143.844ZM104.773 151.156C103.628 151.156 102.695 150.781 101.977 150.031C101.258 149.276 100.898 148.268 100.898 147.008V146.742C100.898 145.904 101.057 145.156 101.375 144.5C101.698 143.839 102.146 143.323 102.719 142.953C103.297 142.578 103.922 142.391 104.594 142.391C105.693 142.391 106.547 142.753 107.156 143.477C107.766 144.201 108.07 145.237 108.07 146.586V147.188H102.344C102.365 148.021 102.607 148.695 103.07 149.211C103.539 149.721 104.133 149.977 104.852 149.977C105.362 149.977 105.794 149.872 106.148 149.664C106.503 149.456 106.812 149.18 107.078 148.836L107.961 149.523C107.253 150.612 106.19 151.156 104.773 151.156ZM104.594 143.578C104.01 143.578 103.521 143.792 103.125 144.219C102.729 144.641 102.484 145.234 102.391 146H106.625V145.891C106.583 145.156 106.385 144.589 106.031 144.188C105.677 143.781 105.198 143.578 104.594 143.578ZM109.398 146.703C109.398 145.375 109.703 144.326 110.312 143.555C110.922 142.779 111.74 142.391 112.766 142.391C113.766 142.391 114.555 142.727 115.133 143.398L115.195 142.547H116.523V154.25H115.078V150.219C114.495 150.844 113.719 151.156 112.75 151.156C111.729 151.156 110.914 150.76 110.305 149.969C109.701 149.172 109.398 148.117 109.398 146.805V146.703ZM110.844 146.867C110.844 147.836 111.047 148.596 111.453 149.148C111.865 149.701 112.417 149.977 113.109 149.977C113.969 149.977 114.625 149.596 115.078 148.836V144.695C114.62 143.951 113.969 143.578 113.125 143.578C112.427 143.578 111.872 143.857 111.461 144.414C111.049 144.966 110.844 145.784 110.844 146.867ZM124.062 150.164C123.5 150.826 122.674 151.156 121.586 151.156C120.685 151.156 119.997 150.896 119.523 150.375C119.055 149.849 118.818 149.073 118.812 148.047V142.547H120.258V148.008C120.258 149.289 120.779 149.93 121.82 149.93C122.924 149.93 123.659 149.518 124.023 148.695V142.547H125.469V151H124.094L124.062 150.164ZM131.18 151.156C130.034 151.156 129.102 150.781 128.383 150.031C127.664 149.276 127.305 148.268 127.305 147.008V146.742C127.305 145.904 127.464 145.156 127.781 144.5C128.104 143.839 128.552 143.323 129.125 142.953C129.703 142.578 130.328 142.391 131 142.391C132.099 142.391 132.953 142.753 133.562 143.477C134.172 144.201 134.477 145.237 134.477 146.586V147.188H128.75C128.771 148.021 129.013 148.695 129.477 149.211C129.945 149.721 130.539 149.977 131.258 149.977C131.768 149.977 132.201 149.872 132.555 149.664C132.909 149.456 133.219 149.18 133.484 148.836L134.367 149.523C133.659 150.612 132.596 151.156 131.18 151.156ZM131 143.578C130.417 143.578 129.927 143.792 129.531 144.219C129.135 144.641 128.891 145.234 128.797 146H133.031V145.891C132.99 145.156 132.792 144.589 132.438 144.188C132.083 143.781 131.604 143.578 131 143.578ZM141.078 148.758C141.078 148.367 140.93 148.065 140.633 147.852C140.341 147.633 139.828 147.445 139.094 147.289C138.365 147.133 137.784 146.945 137.352 146.727C136.924 146.508 136.607 146.247 136.398 145.945C136.195 145.643 136.094 145.284 136.094 144.867C136.094 144.174 136.385 143.589 136.969 143.109C137.557 142.63 138.307 142.391 139.219 142.391C140.177 142.391 140.953 142.638 141.547 143.133C142.146 143.628 142.445 144.26 142.445 145.031H140.992C140.992 144.635 140.823 144.294 140.484 144.008C140.151 143.721 139.729 143.578 139.219 143.578C138.693 143.578 138.281 143.693 137.984 143.922C137.688 144.151 137.539 144.451 137.539 144.82C137.539 145.169 137.677 145.432 137.953 145.609C138.229 145.786 138.727 145.956 139.445 146.117C140.169 146.279 140.755 146.471 141.203 146.695C141.651 146.919 141.982 147.19 142.195 147.508C142.414 147.82 142.523 148.203 142.523 148.656C142.523 149.411 142.221 150.018 141.617 150.477C141.013 150.93 140.229 151.156 139.266 151.156C138.589 151.156 137.99 151.036 137.469 150.797C136.948 150.557 136.539 150.224 136.242 149.797C135.951 149.365 135.805 148.898 135.805 148.398H137.25C137.276 148.883 137.469 149.268 137.828 149.555C138.193 149.836 138.672 149.977 139.266 149.977C139.812 149.977 140.25 149.867 140.578 149.648C140.911 149.424 141.078 149.128 141.078 148.758ZM146.367 140.5V142.547H147.945V143.664H146.367V148.906C146.367 149.245 146.438 149.5 146.578 149.672C146.719 149.839 146.958 149.922 147.297 149.922C147.464 149.922 147.693 149.891 147.984 149.828V151C147.604 151.104 147.234 151.156 146.875 151.156C146.229 151.156 145.742 150.961 145.414 150.57C145.086 150.18 144.922 149.625 144.922 148.906V143.664H143.383V142.547H144.922V140.5H146.367ZM158.828 151C158.745 150.833 158.677 150.536 158.625 150.109C157.953 150.807 157.151 151.156 156.219 151.156C155.385 151.156 154.701 150.922 154.164 150.453C153.633 149.979 153.367 149.38 153.367 148.656C153.367 147.776 153.701 147.094 154.367 146.609C155.039 146.12 155.982 145.875 157.195 145.875H158.602V145.211C158.602 144.706 158.451 144.305 158.148 144.008C157.846 143.706 157.401 143.555 156.812 143.555C156.297 143.555 155.865 143.685 155.516 143.945C155.167 144.206 154.992 144.521 154.992 144.891H153.539C153.539 144.469 153.688 144.062 153.984 143.672C154.286 143.276 154.693 142.964 155.203 142.734C155.719 142.505 156.284 142.391 156.898 142.391C157.872 142.391 158.635 142.635 159.188 143.125C159.74 143.609 160.026 144.279 160.047 145.133V149.023C160.047 149.799 160.146 150.417 160.344 150.875V151H158.828ZM156.43 149.898C156.883 149.898 157.312 149.781 157.719 149.547C158.125 149.312 158.419 149.008 158.602 148.633V146.898H157.469C155.698 146.898 154.812 147.417 154.812 148.453C154.812 148.906 154.964 149.26 155.266 149.516C155.568 149.771 155.956 149.898 156.43 149.898ZM165.703 149.977C166.219 149.977 166.669 149.82 167.055 149.508C167.44 149.195 167.654 148.805 167.695 148.336H169.062C169.036 148.82 168.87 149.281 168.562 149.719C168.255 150.156 167.844 150.505 167.328 150.766C166.818 151.026 166.276 151.156 165.703 151.156C164.552 151.156 163.635 150.773 162.953 150.008C162.276 149.237 161.938 148.185 161.938 146.852V146.609C161.938 145.786 162.089 145.055 162.391 144.414C162.693 143.773 163.125 143.276 163.688 142.922C164.255 142.568 164.924 142.391 165.695 142.391C166.643 142.391 167.43 142.674 168.055 143.242C168.685 143.81 169.021 144.547 169.062 145.453H167.695C167.654 144.906 167.445 144.458 167.07 144.109C166.701 143.755 166.242 143.578 165.695 143.578C164.961 143.578 164.391 143.844 163.984 144.375C163.583 144.901 163.383 145.664 163.383 146.664V146.938C163.383 147.911 163.583 148.661 163.984 149.188C164.385 149.714 164.958 149.977 165.703 149.977ZM174.078 149.977C174.594 149.977 175.044 149.82 175.43 149.508C175.815 149.195 176.029 148.805 176.07 148.336H177.438C177.411 148.82 177.245 149.281 176.938 149.719C176.63 150.156 176.219 150.505 175.703 150.766C175.193 151.026 174.651 151.156 174.078 151.156C172.927 151.156 172.01 150.773 171.328 150.008C170.651 149.237 170.312 148.185 170.312 146.852V146.609C170.312 145.786 170.464 145.055 170.766 144.414C171.068 143.773 171.5 143.276 172.062 142.922C172.63 142.568 173.299 142.391 174.07 142.391C175.018 142.391 175.805 142.674 176.43 143.242C177.06 143.81 177.396 144.547 177.438 145.453H176.07C176.029 144.906 175.82 144.458 175.445 144.109C175.076 143.755 174.617 143.578 174.07 143.578C173.336 143.578 172.766 143.844 172.359 144.375C171.958 144.901 171.758 145.664 171.758 146.664V146.938C171.758 147.911 171.958 148.661 172.359 149.188C172.76 149.714 173.333 149.977 174.078 149.977ZM182.57 151.156C181.424 151.156 180.492 150.781 179.773 150.031C179.055 149.276 178.695 148.268 178.695 147.008V146.742C178.695 145.904 178.854 145.156 179.172 144.5C179.495 143.839 179.943 143.323 180.516 142.953C181.094 142.578 181.719 142.391 182.391 142.391C183.49 142.391 184.344 142.753 184.953 143.477C185.562 144.201 185.867 145.237 185.867 146.586V147.188H180.141C180.161 148.021 180.404 148.695 180.867 149.211C181.336 149.721 181.93 149.977 182.648 149.977C183.159 149.977 183.591 149.872 183.945 149.664C184.299 149.456 184.609 149.18 184.875 148.836L185.758 149.523C185.049 150.612 183.987 151.156 182.57 151.156ZM182.391 143.578C181.807 143.578 181.318 143.792 180.922 144.219C180.526 144.641 180.281 145.234 180.188 146H184.422V145.891C184.38 145.156 184.182 144.589 183.828 144.188C183.474 143.781 182.995 143.578 182.391 143.578ZM194.688 146.867C194.688 148.154 194.393 149.19 193.805 149.977C193.216 150.763 192.419 151.156 191.414 151.156C190.388 151.156 189.581 150.831 188.992 150.18V154.25H187.547V142.547H188.867L188.938 143.484C189.526 142.755 190.344 142.391 191.391 142.391C192.406 142.391 193.208 142.773 193.797 143.539C194.391 144.305 194.688 145.37 194.688 146.734V146.867ZM193.242 146.703C193.242 145.75 193.039 144.997 192.633 144.445C192.227 143.893 191.669 143.617 190.961 143.617C190.086 143.617 189.43 144.005 188.992 144.781V148.82C189.424 149.591 190.086 149.977 190.977 149.977C191.669 149.977 192.219 149.703 192.625 149.156C193.036 148.604 193.242 147.786 193.242 146.703ZM198.492 140.5V142.547H200.07V143.664H198.492V148.906C198.492 149.245 198.562 149.5 198.703 149.672C198.844 149.839 199.083 149.922 199.422 149.922C199.589 149.922 199.818 149.891 200.109 149.828V151C199.729 151.104 199.359 151.156 199 151.156C198.354 151.156 197.867 150.961 197.539 150.57C197.211 150.18 197.047 149.625 197.047 148.906V143.664H195.508V142.547H197.047V140.5H198.492ZM205.273 151.156C204.128 151.156 203.195 150.781 202.477 150.031C201.758 149.276 201.398 148.268 201.398 147.008V146.742C201.398 145.904 201.557 145.156 201.875 144.5C202.198 143.839 202.646 143.323 203.219 142.953C203.797 142.578 204.422 142.391 205.094 142.391C206.193 142.391 207.047 142.753 207.656 143.477C208.266 144.201 208.57 145.237 208.57 146.586V147.188H202.844C202.865 148.021 203.107 148.695 203.57 149.211C204.039 149.721 204.633 149.977 205.352 149.977C205.862 149.977 206.294 149.872 206.648 149.664C207.003 149.456 207.312 149.18 207.578 148.836L208.461 149.523C207.753 150.612 206.69 151.156 205.273 151.156ZM205.094 143.578C204.51 143.578 204.021 143.792 203.625 144.219C203.229 144.641 202.984 145.234 202.891 146H207.125V145.891C207.083 145.156 206.885 144.589 206.531 144.188C206.177 143.781 205.698 143.578 205.094 143.578ZM209.898 146.703C209.898 145.406 210.206 144.365 210.82 143.578C211.435 142.786 212.24 142.391 213.234 142.391C214.224 142.391 215.008 142.729 215.586 143.406V139H217.031V151H215.703L215.633 150.094C215.055 150.802 214.25 151.156 213.219 151.156C212.24 151.156 211.44 150.755 210.82 149.953C210.206 149.151 209.898 148.104 209.898 146.812V146.703ZM211.344 146.867C211.344 147.826 211.542 148.576 211.938 149.117C212.333 149.659 212.88 149.93 213.578 149.93C214.495 149.93 215.164 149.518 215.586 148.695V144.812C215.154 144.016 214.49 143.617 213.594 143.617C212.885 143.617 212.333 143.891 211.938 144.438C211.542 144.984 211.344 145.794 211.344 146.867Z" fill="black"/>
<path d="M7.20939 145.231C7.33564 145.777 6.73583 146.193 6.26923 145.901L4.67799 144.907L2.691 148.087C2.17209 148.917 2.77186 150 3.75045 150H5.78123C6.04009 150 6.24997 150.21 6.24997 150.469V152.031C6.24997 152.29 6.04009 152.5 5.78123 152.5H3.75447C0.811743 152.5 -0.983878 149.256 0.574478 146.762L2.55971 143.583L0.968892 142.589C0.496979 142.294 0.618658 141.575 1.15948 141.45L5.4656 140.456C5.80197 140.378 6.13751 140.588 6.21517 140.924L7.20939 145.231ZM11.0594 138.085L12.6723 140.667L11.0809 141.661C10.6101 141.955 10.7293 142.675 11.2714 142.8L15.5776 143.794C15.9163 143.872 16.25 143.66 16.3271 143.326L17.3213 139.02C17.4462 138.479 16.8529 138.054 16.3811 138.349L14.7918 139.342L13.18 136.761C11.7143 134.416 8.28899 134.41 6.81997 136.761L6.11829 137.884C5.98119 138.104 6.04798 138.393 6.26751 138.53L7.59247 139.358C7.812 139.495 8.10122 139.429 8.23841 139.209L8.94001 138.086C9.43657 137.292 10.5796 137.318 11.0594 138.085ZM19.4253 146.762L18.3505 145.041C18.2133 144.822 17.924 144.755 17.7044 144.892L16.3817 145.718C16.1622 145.856 16.0954 146.145 16.2326 146.364L17.3093 148.088C17.8272 148.916 17.229 150 16.2493 150H12.5V148.126C12.5 147.571 11.8264 147.291 11.433 147.684L8.30806 150.808C8.06395 151.052 8.06395 151.448 8.30806 151.692L11.433 154.817C11.8238 155.207 12.5 154.934 12.5 154.375V152.5H16.2453C19.1856 152.5 20.9849 149.258 19.4253 146.762Z" fill="#DADADA"/>
<path d="M41.4922 182.398H38.8203V187H37.3125V175.625H41.0781C42.3594 175.625 43.3438 175.917 44.0312 176.5C44.724 177.083 45.0703 177.932 45.0703 179.047C45.0703 179.755 44.8776 180.372 44.4922 180.898C44.112 181.424 43.5807 181.818 42.8984 182.078L45.5703 186.906V187H43.9609L41.4922 182.398ZM38.8203 181.172H41.125C41.8698 181.172 42.4609 180.979 42.8984 180.594C43.3411 180.208 43.5625 179.693 43.5625 179.047C43.5625 178.344 43.3516 177.805 42.9297 177.43C42.513 177.055 41.9089 176.865 41.1172 176.859H38.8203V181.172ZM50.4609 187.156C49.3151 187.156 48.3828 186.781 47.6641 186.031C46.9453 185.276 46.5859 184.268 46.5859 183.008V182.742C46.5859 181.904 46.7448 181.156 47.0625 180.5C47.3854 179.839 47.8333 179.323 48.4062 178.953C48.9844 178.578 49.6094 178.391 50.2812 178.391C51.3802 178.391 52.2344 178.753 52.8438 179.477C53.4531 180.201 53.7578 181.237 53.7578 182.586V183.188H48.0312C48.0521 184.021 48.2943 184.695 48.7578 185.211C49.2266 185.721 49.8203 185.977 50.5391 185.977C51.0495 185.977 51.4818 185.872 51.8359 185.664C52.1901 185.456 52.5 185.18 52.7656 184.836L53.6484 185.523C52.9401 186.612 51.8776 187.156 50.4609 187.156ZM50.2812 179.578C49.6979 179.578 49.2083 179.792 48.8125 180.219C48.4167 180.641 48.1719 181.234 48.0781 182H52.3125V181.891C52.2708 181.156 52.0729 180.589 51.7188 180.188C51.3646 179.781 50.8854 179.578 50.2812 179.578ZM58.8281 185.977C59.3438 185.977 59.7943 185.82 60.1797 185.508C60.5651 185.195 60.7786 184.805 60.8203 184.336H62.1875C62.1615 184.82 61.9948 185.281 61.6875 185.719C61.3802 186.156 60.9688 186.505 60.4531 186.766C59.9427 187.026 59.401 187.156 58.8281 187.156C57.6771 187.156 56.7604 186.773 56.0781 186.008C55.401 185.237 55.0625 184.185 55.0625 182.852V182.609C55.0625 181.786 55.2135 181.055 55.5156 180.414C55.8177 179.773 56.25 179.276 56.8125 178.922C57.3802 178.568 58.0495 178.391 58.8203 178.391C59.7682 178.391 60.5547 178.674 61.1797 179.242C61.8099 179.81 62.1458 180.547 62.1875 181.453H60.8203C60.7786 180.906 60.5703 180.458 60.1953 180.109C59.8255 179.755 59.3672 179.578 58.8203 179.578C58.0859 179.578 57.5156 179.844 57.1094 180.375C56.7083 180.901 56.5078 181.664 56.5078 182.664V182.938C56.5078 183.911 56.7083 184.661 57.1094 185.188C57.5104 185.714 58.0833 185.977 58.8281 185.977ZM66.5781 184.883L68.5469 178.547H70.0938L66.6953 188.305C66.1693 189.711 65.3333 190.414 64.1875 190.414L63.9141 190.391L63.375 190.289V189.117L63.7656 189.148C64.2552 189.148 64.6354 189.049 64.9062 188.852C65.1823 188.654 65.4089 188.292 65.5859 187.766L65.9062 186.906L62.8906 178.547H64.4688L66.5781 184.883ZM74.6719 185.977C75.1875 185.977 75.638 185.82 76.0234 185.508C76.4089 185.195 76.6224 184.805 76.6641 184.336H78.0312C78.0052 184.82 77.8385 185.281 77.5312 185.719C77.224 186.156 76.8125 186.505 76.2969 186.766C75.7865 187.026 75.2448 187.156 74.6719 187.156C73.5208 187.156 72.6042 186.773 71.9219 186.008C71.2448 185.237 70.9062 184.185 70.9062 182.852V182.609C70.9062 181.786 71.0573 181.055 71.3594 180.414C71.6615 179.773 72.0938 179.276 72.6562 178.922C73.224 178.568 73.8932 178.391 74.6641 178.391C75.612 178.391 76.3984 178.674 77.0234 179.242C77.6536 179.81 77.9896 180.547 78.0312 181.453H76.6641C76.6224 180.906 76.4141 180.458 76.0391 180.109C75.6693 179.755 75.2109 179.578 74.6641 179.578C73.9297 179.578 73.3594 179.844 72.9531 180.375C72.5521 180.901 72.3516 181.664 72.3516 182.664V182.938C72.3516 183.911 72.5521 184.661 72.9531 185.188C73.3542 185.714 73.9271 185.977 74.6719 185.977ZM81.2266 187H79.7812V175H81.2266V187ZM88.7656 187C88.6823 186.833 88.6146 186.536 88.5625 186.109C87.8906 186.807 87.0885 187.156 86.1562 187.156C85.3229 187.156 84.638 186.922 84.1016 186.453C83.5703 185.979 83.3047 185.38 83.3047 184.656C83.3047 183.776 83.638 183.094 84.3047 182.609C84.9766 182.12 85.9193 181.875 87.1328 181.875H88.5391V181.211C88.5391 180.706 88.388 180.305 88.0859 180.008C87.7839 179.706 87.3385 179.555 86.75 179.555C86.2344 179.555 85.8021 179.685 85.4531 179.945C85.1042 180.206 84.9297 180.521 84.9297 180.891H83.4766C83.4766 180.469 83.625 180.062 83.9219 179.672C84.224 179.276 84.6302 178.964 85.1406 178.734C85.6562 178.505 86.2214 178.391 86.8359 178.391C87.8099 178.391 88.5729 178.635 89.125 179.125C89.6771 179.609 89.9635 180.279 89.9844 181.133V185.023C89.9844 185.799 90.0833 186.417 90.2812 186.875V187H88.7656ZM86.3672 185.898C86.8203 185.898 87.25 185.781 87.6562 185.547C88.0625 185.312 88.3568 185.008 88.5391 184.633V182.898H87.4062C85.6354 182.898 84.75 183.417 84.75 184.453C84.75 184.906 84.901 185.26 85.2031 185.516C85.5052 185.771 85.8932 185.898 86.3672 185.898ZM99.4062 182.867C99.4062 184.159 99.1094 185.198 98.5156 185.984C97.9219 186.766 97.125 187.156 96.125 187.156C95.0573 187.156 94.2318 186.779 93.6484 186.023L93.5781 187H92.25V175H93.6953V179.477C94.2786 178.753 95.0833 178.391 96.1094 178.391C97.1354 178.391 97.9401 178.779 98.5234 179.555C99.112 180.331 99.4062 181.393 99.4062 182.742V182.867ZM97.9609 182.703C97.9609 181.719 97.7708 180.958 97.3906 180.422C97.0104 179.885 96.4635 179.617 95.75 179.617C94.7969 179.617 94.112 180.06 93.6953 180.945V184.602C94.138 185.487 94.8281 185.93 95.7656 185.93C96.4583 185.93 96.9974 185.661 97.3828 185.125C97.7682 184.589 97.9609 183.781 97.9609 182.703ZM102.805 187H101.359V175H102.805V187ZM108.633 187.156C107.487 187.156 106.555 186.781 105.836 186.031C105.117 185.276 104.758 184.268 104.758 183.008V182.742C104.758 181.904 104.917 181.156 105.234 180.5C105.557 179.839 106.005 179.323 106.578 178.953C107.156 178.578 107.781 178.391 108.453 178.391C109.552 178.391 110.406 178.753 111.016 179.477C111.625 180.201 111.93 181.237 111.93 182.586V183.188H106.203C106.224 184.021 106.466 184.695 106.93 185.211C107.398 185.721 107.992 185.977 108.711 185.977C109.221 185.977 109.654 185.872 110.008 185.664C110.362 185.456 110.672 185.18 110.938 184.836L111.82 185.523C111.112 186.612 110.049 187.156 108.633 187.156ZM108.453 179.578C107.87 179.578 107.38 179.792 106.984 180.219C106.589 180.641 106.344 181.234 106.25 182H110.484V181.891C110.443 181.156 110.245 180.589 109.891 180.188C109.536 179.781 109.057 179.578 108.453 179.578ZM118.531 184.758C118.531 184.367 118.383 184.065 118.086 183.852C117.794 183.633 117.281 183.445 116.547 183.289C115.818 183.133 115.237 182.945 114.805 182.727C114.378 182.508 114.06 182.247 113.852 181.945C113.648 181.643 113.547 181.284 113.547 180.867C113.547 180.174 113.839 179.589 114.422 179.109C115.01 178.63 115.76 178.391 116.672 178.391C117.63 178.391 118.406 178.638 119 179.133C119.599 179.628 119.898 180.26 119.898 181.031H118.445C118.445 180.635 118.276 180.294 117.938 180.008C117.604 179.721 117.182 179.578 116.672 179.578C116.146 179.578 115.734 179.693 115.438 179.922C115.141 180.151 114.992 180.451 114.992 180.82C114.992 181.169 115.13 181.432 115.406 181.609C115.682 181.786 116.18 181.956 116.898 182.117C117.622 182.279 118.208 182.471 118.656 182.695C119.104 182.919 119.435 183.19 119.648 183.508C119.867 183.82 119.977 184.203 119.977 184.656C119.977 185.411 119.674 186.018 119.07 186.477C118.466 186.93 117.682 187.156 116.719 187.156C116.042 187.156 115.443 187.036 114.922 186.797C114.401 186.557 113.992 186.224 113.695 185.797C113.404 185.365 113.258 184.898 113.258 184.398H114.703C114.729 184.883 114.922 185.268 115.281 185.555C115.646 185.836 116.125 185.977 116.719 185.977C117.266 185.977 117.703 185.867 118.031 185.648C118.365 185.424 118.531 185.128 118.531 184.758ZM129.219 185.977C129.734 185.977 130.185 185.82 130.57 185.508C130.956 185.195 131.169 184.805 131.211 184.336H132.578C132.552 184.82 132.385 185.281 132.078 185.719C131.771 186.156 131.359 186.505 130.844 186.766C130.333 187.026 129.792 187.156 129.219 187.156C128.068 187.156 127.151 186.773 126.469 186.008C125.792 185.237 125.453 184.185 125.453 182.852V182.609C125.453 181.786 125.604 181.055 125.906 180.414C126.208 179.773 126.641 179.276 127.203 178.922C127.771 178.568 128.44 178.391 129.211 178.391C130.159 178.391 130.945 178.674 131.57 179.242C132.201 179.81 132.536 180.547 132.578 181.453H131.211C131.169 180.906 130.961 180.458 130.586 180.109C130.216 179.755 129.758 179.578 129.211 179.578C128.477 179.578 127.906 179.844 127.5 180.375C127.099 180.901 126.898 181.664 126.898 182.664V182.938C126.898 183.911 127.099 184.661 127.5 185.188C127.901 185.714 128.474 185.977 129.219 185.977ZM133.82 182.695C133.82 181.867 133.982 181.122 134.305 180.461C134.633 179.799 135.086 179.289 135.664 178.93C136.247 178.57 136.911 178.391 137.656 178.391C138.807 178.391 139.737 178.789 140.445 179.586C141.159 180.383 141.516 181.443 141.516 182.766V182.867C141.516 183.69 141.357 184.43 141.039 185.086C140.727 185.737 140.276 186.245 139.688 186.609C139.104 186.974 138.432 187.156 137.672 187.156C136.526 187.156 135.596 186.758 134.883 185.961C134.174 185.164 133.82 184.109 133.82 182.797V182.695ZM135.273 182.867C135.273 183.805 135.49 184.557 135.922 185.125C136.359 185.693 136.943 185.977 137.672 185.977C138.406 185.977 138.99 185.69 139.422 185.117C139.854 184.539 140.07 183.732 140.07 182.695C140.07 181.768 139.849 181.018 139.406 180.445C138.969 179.867 138.385 179.578 137.656 179.578C136.943 179.578 136.367 179.862 135.93 180.43C135.492 180.997 135.273 181.81 135.273 182.867ZM144.898 187H143.453V175H144.898V187ZM148.789 187H147.344V175H148.789V187ZM154.617 187.156C153.471 187.156 152.539 186.781 151.82 186.031C151.102 185.276 150.742 184.268 150.742 183.008V182.742C150.742 181.904 150.901 181.156 151.219 180.5C151.542 179.839 151.99 179.323 152.562 178.953C153.141 178.578 153.766 178.391 154.438 178.391C155.536 178.391 156.391 178.753 157 179.477C157.609 180.201 157.914 181.237 157.914 182.586V183.188H152.188C152.208 184.021 152.451 184.695 152.914 185.211C153.383 185.721 153.977 185.977 154.695 185.977C155.206 185.977 155.638 185.872 155.992 185.664C156.346 185.456 156.656 185.18 156.922 184.836L157.805 185.523C157.096 186.612 156.034 187.156 154.617 187.156ZM154.438 179.578C153.854 179.578 153.365 179.792 152.969 180.219C152.573 180.641 152.328 181.234 152.234 182H156.469V181.891C156.427 181.156 156.229 180.589 155.875 180.188C155.521 179.781 155.042 179.578 154.438 179.578ZM162.984 185.977C163.5 185.977 163.951 185.82 164.336 185.508C164.721 185.195 164.935 184.805 164.977 184.336H166.344C166.318 184.82 166.151 185.281 165.844 185.719C165.536 186.156 165.125 186.505 164.609 186.766C164.099 187.026 163.557 187.156 162.984 187.156C161.833 187.156 160.917 186.773 160.234 186.008C159.557 185.237 159.219 184.185 159.219 182.852V182.609C159.219 181.786 159.37 181.055 159.672 180.414C159.974 179.773 160.406 179.276 160.969 178.922C161.536 178.568 162.206 178.391 162.977 178.391C163.924 178.391 164.711 178.674 165.336 179.242C165.966 179.81 166.302 180.547 166.344 181.453H164.977C164.935 180.906 164.727 180.458 164.352 180.109C163.982 179.755 163.523 179.578 162.977 179.578C162.242 179.578 161.672 179.844 161.266 180.375C160.865 180.901 160.664 181.664 160.664 182.664V182.938C160.664 183.911 160.865 184.661 161.266 185.188C161.667 185.714 162.24 185.977 162.984 185.977ZM169.93 176.5V178.547H171.508V179.664H169.93V184.906C169.93 185.245 170 185.5 170.141 185.672C170.281 185.839 170.521 185.922 170.859 185.922C171.026 185.922 171.255 185.891 171.547 185.828V187C171.167 187.104 170.797 187.156 170.438 187.156C169.792 187.156 169.305 186.961 168.977 186.57C168.648 186.18 168.484 185.625 168.484 184.906V179.664H166.945V178.547H168.484V176.5H169.93ZM176.711 187.156C175.565 187.156 174.633 186.781 173.914 186.031C173.195 185.276 172.836 184.268 172.836 183.008V182.742C172.836 181.904 172.995 181.156 173.312 180.5C173.635 179.839 174.083 179.323 174.656 178.953C175.234 178.578 175.859 178.391 176.531 178.391C177.63 178.391 178.484 178.753 179.094 179.477C179.703 180.201 180.008 181.237 180.008 182.586V183.188H174.281C174.302 184.021 174.544 184.695 175.008 185.211C175.477 185.721 176.07 185.977 176.789 185.977C177.299 185.977 177.732 185.872 178.086 185.664C178.44 185.456 178.75 185.18 179.016 184.836L179.898 185.523C179.19 186.612 178.128 187.156 176.711 187.156ZM176.531 179.578C175.948 179.578 175.458 179.792 175.062 180.219C174.667 180.641 174.422 181.234 174.328 182H178.562V181.891C178.521 181.156 178.323 180.589 177.969 180.188C177.615 179.781 177.135 179.578 176.531 179.578ZM181.336 182.703C181.336 181.406 181.643 180.365 182.258 179.578C182.872 178.786 183.677 178.391 184.672 178.391C185.661 178.391 186.445 178.729 187.023 179.406V175H188.469V187H187.141L187.07 186.094C186.492 186.802 185.688 187.156 184.656 187.156C183.677 187.156 182.878 186.755 182.258 185.953C181.643 185.151 181.336 184.104 181.336 182.812V182.703ZM182.781 182.867C182.781 183.826 182.979 184.576 183.375 185.117C183.771 185.659 184.318 185.93 185.016 185.93C185.932 185.93 186.602 185.518 187.023 184.695V180.812C186.591 180.016 185.927 179.617 185.031 179.617C184.323 179.617 183.771 179.891 183.375 180.438C182.979 180.984 182.781 181.794 182.781 182.867Z" fill="black"/>
<path d="M7.20939 181.231C7.33564 181.777 6.73583 182.193 6.26923 181.901L4.67799 180.907L2.691 184.087C2.17209 184.917 2.77186 186 3.75045 186H5.78123C6.04009 186 6.24997 186.21 6.24997 186.469V188.031C6.24997 188.29 6.04009 188.5 5.78123 188.5H3.75447C0.811743 188.5 -0.983878 185.256 0.574478 182.762L2.55971 179.583L0.968892 178.589C0.496979 178.294 0.618658 177.575 1.15948 177.45L5.4656 176.456C5.80197 176.378 6.13751 176.588 6.21517 176.924L7.20939 181.231ZM11.0594 174.085L12.6723 176.667L11.0809 177.661C10.6101 177.955 10.7293 178.675 11.2714 178.8L15.5776 179.794C15.9163 179.872 16.25 179.66 16.3271 179.326L17.3213 175.02C17.4462 174.479 16.8529 174.054 16.3811 174.349L14.7918 175.342L13.18 172.761C11.7143 170.416 8.28899 170.41 6.81997 172.761L6.11829 173.884C5.98119 174.104 6.04798 174.393 6.26751 174.53L7.59247 175.358C7.812 175.495 8.10122 175.429 8.23841 175.209L8.94001 174.086C9.43657 173.292 10.5796 173.318 11.0594 174.085ZM19.4253 182.762L18.3505 181.041C18.2133 180.822 17.924 180.755 17.7044 180.892L16.3817 181.718C16.1622 181.856 16.0954 182.145 16.2326 182.364L17.3093 184.088C17.8272 184.916 17.229 186 16.2493 186H12.5V184.126C12.5 183.571 11.8264 183.291 11.433 183.684L8.30806 186.808C8.06395 187.052 8.06395 187.448 8.30806 187.692L11.433 190.817C11.8238 191.207 12.5 190.934 12.5 190.375V188.5H16.2453C19.1856 188.5 20.9849 185.258 19.4253 182.762Z" fill="#DADADA"/>
<path d="M38.8203 218.547V223H37.3203V211.625H41.5156C42.7604 211.625 43.7344 211.943 44.4375 212.578C45.1458 213.214 45.5 214.055 45.5 215.102C45.5 216.206 45.1536 217.057 44.4609 217.656C43.7734 218.25 42.7865 218.547 41.5 218.547H38.8203ZM38.8203 217.32H41.5156C42.3177 217.32 42.9323 217.133 43.3594 216.758C43.7865 216.378 44 215.831 44 215.117C44 214.44 43.7865 213.898 43.3594 213.492C42.9323 213.086 42.3464 212.875 41.6016 212.859H38.8203V217.32ZM52.3125 223C52.2292 222.833 52.1615 222.536 52.1094 222.109C51.4375 222.807 50.6354 223.156 49.7031 223.156C48.8698 223.156 48.1849 222.922 47.6484 222.453C47.1172 221.979 46.8516 221.38 46.8516 220.656C46.8516 219.776 47.1849 219.094 47.8516 218.609C48.5234 218.12 49.4661 217.875 50.6797 217.875H52.0859V217.211C52.0859 216.706 51.9349 216.305 51.6328 216.008C51.3307 215.706 50.8854 215.555 50.2969 215.555C49.7812 215.555 49.349 215.685 49 215.945C48.651 216.206 48.4766 216.521 48.4766 216.891H47.0234C47.0234 216.469 47.1719 216.062 47.4688 215.672C47.7708 215.276 48.1771 214.964 48.6875 214.734C49.2031 214.505 49.7682 214.391 50.3828 214.391C51.3568 214.391 52.1198 214.635 52.6719 215.125C53.224 215.609 53.5104 216.279 53.5312 217.133V221.023C53.5312 221.799 53.6302 222.417 53.8281 222.875V223H52.3125ZM49.9141 221.898C50.3672 221.898 50.7969 221.781 51.2031 221.547C51.6094 221.312 51.9036 221.008 52.0859 220.633V218.898H50.9531C49.1823 218.898 48.2969 219.417 48.2969 220.453C48.2969 220.906 48.4479 221.26 48.75 221.516C49.0521 221.771 49.4401 221.898 49.9141 221.898ZM58.4375 220.883L60.4062 214.547H61.9531L58.5547 224.305C58.0286 225.711 57.1927 226.414 56.0469 226.414L55.7734 226.391L55.2344 226.289V225.117L55.625 225.148C56.1146 225.148 56.4948 225.049 56.7656 224.852C57.0417 224.654 57.2682 224.292 57.4453 223.766L57.7656 222.906L54.75 214.547H56.3281L58.4375 220.883ZM64.6094 214.547L64.6484 215.484C65.2682 214.755 66.1042 214.391 67.1562 214.391C68.3385 214.391 69.1432 214.844 69.5703 215.75C69.8516 215.344 70.2161 215.016 70.6641 214.766C71.1172 214.516 71.651 214.391 72.2656 214.391C74.1198 214.391 75.0625 215.372 75.0938 217.336V223H73.6484V217.422C73.6484 216.818 73.5104 216.367 73.2344 216.07C72.9583 215.768 72.4948 215.617 71.8438 215.617C71.3073 215.617 70.862 215.779 70.5078 216.102C70.1536 216.419 69.9479 216.849 69.8906 217.391V223H68.4375V217.461C68.4375 216.232 67.8359 215.617 66.6328 215.617C65.6849 215.617 65.0365 216.021 64.6875 216.828V223H63.2422V214.547H64.6094ZM80.7891 223.156C79.6432 223.156 78.7109 222.781 77.9922 222.031C77.2734 221.276 76.9141 220.268 76.9141 219.008V218.742C76.9141 217.904 77.0729 217.156 77.3906 216.5C77.7135 215.839 78.1615 215.323 78.7344 214.953C79.3125 214.578 79.9375 214.391 80.6094 214.391C81.7083 214.391 82.5625 214.753 83.1719 215.477C83.7812 216.201 84.0859 217.237 84.0859 218.586V219.188H78.3594C78.3802 220.021 78.6224 220.695 79.0859 221.211C79.5547 221.721 80.1484 221.977 80.8672 221.977C81.3776 221.977 81.8099 221.872 82.1641 221.664C82.5182 221.456 82.8281 221.18 83.0938 220.836L83.9766 221.523C83.2682 222.612 82.2057 223.156 80.7891 223.156ZM80.6094 215.578C80.026 215.578 79.5365 215.792 79.1406 216.219C78.7448 216.641 78.5 217.234 78.4062 218H82.6406V217.891C82.599 217.156 82.401 216.589 82.0469 216.188C81.6927 215.781 81.2135 215.578 80.6094 215.578ZM87.1328 214.547L87.1797 215.609C87.8255 214.797 88.6693 214.391 89.7109 214.391C91.4974 214.391 92.3984 215.398 92.4141 217.414V223H90.9688V217.406C90.9635 216.797 90.8229 216.346 90.5469 216.055C90.276 215.763 89.8516 215.617 89.2734 215.617C88.8047 215.617 88.3932 215.742 88.0391 215.992C87.6849 216.242 87.4089 216.57 87.2109 216.977V223H85.7656V214.547H87.1328ZM96.5547 212.5V214.547H98.1328V215.664H96.5547V220.906C96.5547 221.245 96.625 221.5 96.7656 221.672C96.9062 221.839 97.1458 221.922 97.4844 221.922C97.651 221.922 97.8802 221.891 98.1719 221.828V223C97.7917 223.104 97.4219 223.156 97.0625 223.156C96.4167 223.156 95.9297 222.961 95.6016 222.57C95.2734 222.18 95.1094 221.625 95.1094 220.906V215.664H93.5703V214.547H95.1094V212.5H96.5547ZM107.883 215.844C107.664 215.807 107.427 215.789 107.172 215.789C106.224 215.789 105.581 216.193 105.242 217V223H103.797V214.547H105.203L105.227 215.523C105.701 214.768 106.372 214.391 107.242 214.391C107.523 214.391 107.737 214.427 107.883 214.5V215.844ZM112.57 223.156C111.424 223.156 110.492 222.781 109.773 222.031C109.055 221.276 108.695 220.268 108.695 219.008V218.742C108.695 217.904 108.854 217.156 109.172 216.5C109.495 215.839 109.943 215.323 110.516 214.953C111.094 214.578 111.719 214.391 112.391 214.391C113.49 214.391 114.344 214.753 114.953 215.477C115.562 216.201 115.867 217.237 115.867 218.586V219.188H110.141C110.161 220.021 110.404 220.695 110.867 221.211C111.336 221.721 111.93 221.977 112.648 221.977C113.159 221.977 113.591 221.872 113.945 221.664C114.299 221.456 114.609 221.18 114.875 220.836L115.758 221.523C115.049 222.612 113.987 223.156 112.57 223.156ZM112.391 215.578C111.807 215.578 111.318 215.792 110.922 216.219C110.526 216.641 110.281 217.234 110.188 218H114.422V217.891C114.38 217.156 114.182 216.589 113.828 216.188C113.474 215.781 112.995 215.578 112.391 215.578ZM120.938 221.977C121.453 221.977 121.904 221.82 122.289 221.508C122.674 221.195 122.888 220.805 122.93 220.336H124.297C124.271 220.82 124.104 221.281 123.797 221.719C123.49 222.156 123.078 222.505 122.562 222.766C122.052 223.026 121.51 223.156 120.938 223.156C119.786 223.156 118.87 222.773 118.188 222.008C117.51 221.237 117.172 220.185 117.172 218.852V218.609C117.172 217.786 117.323 217.055 117.625 216.414C117.927 215.773 118.359 215.276 118.922 214.922C119.49 214.568 120.159 214.391 120.93 214.391C121.878 214.391 122.664 214.674 123.289 215.242C123.919 215.81 124.255 216.547 124.297 217.453H122.93C122.888 216.906 122.68 216.458 122.305 216.109C121.935 215.755 121.477 215.578 120.93 215.578C120.195 215.578 119.625 215.844 119.219 216.375C118.818 216.901 118.617 217.664 118.617 218.664V218.938C118.617 219.911 118.818 220.661 119.219 221.188C119.62 221.714 120.193 221.977 120.938 221.977ZM129.43 223.156C128.284 223.156 127.352 222.781 126.633 222.031C125.914 221.276 125.555 220.268 125.555 219.008V218.742C125.555 217.904 125.714 217.156 126.031 216.5C126.354 215.839 126.802 215.323 127.375 214.953C127.953 214.578 128.578 214.391 129.25 214.391C130.349 214.391 131.203 214.753 131.812 215.477C132.422 216.201 132.727 217.237 132.727 218.586V219.188H127C127.021 220.021 127.263 220.695 127.727 221.211C128.195 221.721 128.789 221.977 129.508 221.977C130.018 221.977 130.451 221.872 130.805 221.664C131.159 221.456 131.469 221.18 131.734 220.836L132.617 221.523C131.909 222.612 130.846 223.156 129.43 223.156ZM129.25 215.578C128.667 215.578 128.177 215.792 127.781 216.219C127.385 216.641 127.141 217.234 127.047 218H131.281V217.891C131.24 217.156 131.042 216.589 130.688 216.188C130.333 215.781 129.854 215.578 129.25 215.578ZM135.977 223H134.531V214.547H135.977V223ZM134.414 212.305C134.414 212.07 134.484 211.872 134.625 211.711C134.771 211.549 134.984 211.469 135.266 211.469C135.547 211.469 135.76 211.549 135.906 211.711C136.052 211.872 136.125 212.07 136.125 212.305C136.125 212.539 136.052 212.734 135.906 212.891C135.76 213.047 135.547 213.125 135.266 213.125C134.984 213.125 134.771 213.047 134.625 212.891C134.484 212.734 134.414 212.539 134.414 212.305ZM141.086 221.039L143.18 214.547H144.656L141.625 223H140.523L137.461 214.547H138.938L141.086 221.039ZM149.445 223.156C148.299 223.156 147.367 222.781 146.648 222.031C145.93 221.276 145.57 220.268 145.57 219.008V218.742C145.57 217.904 145.729 217.156 146.047 216.5C146.37 215.839 146.818 215.323 147.391 214.953C147.969 214.578 148.594 214.391 149.266 214.391C150.365 214.391 151.219 214.753 151.828 215.477C152.438 216.201 152.742 217.237 152.742 218.586V219.188H147.016C147.036 220.021 147.279 220.695 147.742 221.211C148.211 221.721 148.805 221.977 149.523 221.977C150.034 221.977 150.466 221.872 150.82 221.664C151.174 221.456 151.484 221.18 151.75 220.836L152.633 221.523C151.924 222.612 150.862 223.156 149.445 223.156ZM149.266 215.578C148.682 215.578 148.193 215.792 147.797 216.219C147.401 216.641 147.156 217.234 147.062 218H151.297V217.891C151.255 217.156 151.057 216.589 150.703 216.188C150.349 215.781 149.87 215.578 149.266 215.578ZM154.07 218.703C154.07 217.406 154.378 216.365 154.992 215.578C155.607 214.786 156.411 214.391 157.406 214.391C158.396 214.391 159.18 214.729 159.758 215.406V211H161.203V223H159.875L159.805 222.094C159.227 222.802 158.422 223.156 157.391 223.156C156.411 223.156 155.612 222.755 154.992 221.953C154.378 221.151 154.07 220.104 154.07 218.812V218.703ZM155.516 218.867C155.516 219.826 155.714 220.576 156.109 221.117C156.505 221.659 157.052 221.93 157.75 221.93C158.667 221.93 159.336 221.518 159.758 220.695V216.812C159.326 216.016 158.661 215.617 157.766 215.617C157.057 215.617 156.505 215.891 156.109 216.438C155.714 216.984 155.516 217.794 155.516 218.867Z" fill="black"/>
<path d="M7.20939 217.231C7.33564 217.777 6.73583 218.193 6.26923 217.901L4.67799 216.907L2.691 220.087C2.17209 220.917 2.77186 222 3.75045 222H5.78123C6.04009 222 6.24997 222.21 6.24997 222.469V224.031C6.24997 224.29 6.04009 224.5 5.78123 224.5H3.75447C0.811743 224.5 -0.983878 221.256 0.574478 218.762L2.55971 215.583L0.968892 214.589C0.496979 214.294 0.618658 213.575 1.15948 213.45L5.4656 212.456C5.80197 212.378 6.13751 212.588 6.21517 212.924L7.20939 217.231ZM11.0594 210.085L12.6723 212.667L11.0809 213.661C10.6101 213.955 10.7293 214.675 11.2714 214.8L15.5776 215.794C15.9163 215.872 16.25 215.66 16.3271 215.326L17.3213 211.02C17.4462 210.479 16.8529 210.054 16.3811 210.349L14.7918 211.342L13.18 208.761C11.7143 206.416 8.28899 206.41 6.81997 208.761L6.11829 209.884C5.98119 210.104 6.04798 210.393 6.26751 210.53L7.59247 211.358C7.812 211.495 8.10122 211.429 8.23841 211.209L8.94001 210.086C9.43657 209.292 10.5796 209.318 11.0594 210.085ZM19.4253 218.762L18.3505 217.041C18.2133 216.822 17.924 216.755 17.7044 216.892L16.3817 217.718C16.1622 217.856 16.0954 218.145 16.2326 218.364L17.3093 220.088C17.8272 220.916 17.229 222 16.2493 222H12.5V220.126C12.5 219.571 11.8264 219.291 11.433 219.684L8.30806 222.808C8.06395 223.052 8.06395 223.448 8.30806 223.692L11.433 226.817C11.8238 227.207 12.5 226.934 12.5 226.375V224.5H16.2453C19.1856 224.5 20.9849 221.258 19.4253 218.762Z" fill="#DADADA"/>
<rect x="547.5" y="270.5" width="153" height="59" rx="9.5" fill="#0A7A22"/>
<path d="M601.754 302.445C601.582 304.266 600.91 305.688 599.738 306.711C598.566 307.727 597.008 308.234 595.062 308.234C593.703 308.234 592.504 307.914 591.465 307.273C590.434 306.625 589.637 305.707 589.074 304.52C588.512 303.332 588.219 301.953 588.195 300.383V298.789C588.195 297.18 588.48 295.762 589.051 294.535C589.621 293.309 590.438 292.363 591.5 291.699C592.57 291.035 593.805 290.703 595.203 290.703C597.086 290.703 598.602 291.215 599.75 292.238C600.898 293.262 601.566 294.707 601.754 296.574H598.801C598.66 295.348 598.301 294.465 597.723 293.926C597.152 293.379 596.312 293.105 595.203 293.105C593.914 293.105 592.922 293.578 592.227 294.523C591.539 295.461 591.188 296.84 591.172 298.66V300.172C591.172 302.016 591.5 303.422 592.156 304.391C592.82 305.359 593.789 305.844 595.062 305.844C596.227 305.844 597.102 305.582 597.688 305.059C598.273 304.535 598.645 303.664 598.801 302.445H601.754ZM611.715 308C611.59 307.758 611.48 307.363 611.387 306.816C610.48 307.762 609.371 308.234 608.059 308.234C606.785 308.234 605.746 307.871 604.941 307.145C604.137 306.418 603.734 305.52 603.734 304.449C603.734 303.098 604.234 302.062 605.234 301.344C606.242 300.617 607.68 300.254 609.547 300.254H611.293V299.422C611.293 298.766 611.109 298.242 610.742 297.852C610.375 297.453 609.816 297.254 609.066 297.254C608.418 297.254 607.887 297.418 607.473 297.746C607.059 298.066 606.852 298.477 606.852 298.977H604.004C604.004 298.281 604.234 297.633 604.695 297.031C605.156 296.422 605.781 295.945 606.57 295.602C607.367 295.258 608.254 295.086 609.23 295.086C610.715 295.086 611.898 295.461 612.781 296.211C613.664 296.953 614.117 298 614.141 299.352V305.07C614.141 306.211 614.301 307.121 614.621 307.801V308H611.715ZM608.586 305.949C609.148 305.949 609.676 305.812 610.168 305.539C610.668 305.266 611.043 304.898 611.293 304.438V302.047H609.758C608.703 302.047 607.91 302.23 607.379 302.598C606.848 302.965 606.582 303.484 606.582 304.156C606.582 304.703 606.762 305.141 607.121 305.469C607.488 305.789 607.977 305.949 608.586 305.949ZM619.766 295.32L619.848 296.785C620.785 295.652 622.016 295.086 623.539 295.086C626.18 295.086 627.523 296.598 627.57 299.621V308H624.723V299.785C624.723 298.98 624.547 298.387 624.195 298.004C623.852 297.613 623.285 297.418 622.496 297.418C621.348 297.418 620.492 297.938 619.93 298.977V308H617.082V295.32H619.766ZM635.691 305.961C636.402 305.961 636.992 305.754 637.461 305.34C637.93 304.926 638.18 304.414 638.211 303.805H640.895C640.863 304.594 640.617 305.332 640.156 306.02C639.695 306.699 639.07 307.238 638.281 307.637C637.492 308.035 636.641 308.234 635.727 308.234C633.953 308.234 632.547 307.66 631.508 306.512C630.469 305.363 629.949 303.777 629.949 301.754V301.461C629.949 299.531 630.465 297.988 631.496 296.832C632.527 295.668 633.934 295.086 635.715 295.086C637.223 295.086 638.449 295.527 639.395 296.41C640.348 297.285 640.848 298.438 640.895 299.867H638.211C638.18 299.141 637.93 298.543 637.461 298.074C637 297.605 636.41 297.371 635.691 297.371C634.77 297.371 634.059 297.707 633.559 298.379C633.059 299.043 632.805 300.055 632.797 301.414V301.871C632.797 303.246 633.043 304.273 633.535 304.953C634.035 305.625 634.754 305.961 635.691 305.961ZM648.629 308.234C646.824 308.234 645.359 307.668 644.234 306.535C643.117 305.395 642.559 303.879 642.559 301.988V301.637C642.559 300.371 642.801 299.242 643.285 298.25C643.777 297.25 644.465 296.473 645.348 295.918C646.23 295.363 647.215 295.086 648.301 295.086C650.027 295.086 651.359 295.637 652.297 296.738C653.242 297.84 653.715 299.398 653.715 301.414V302.562H645.43C645.516 303.609 645.863 304.438 646.473 305.047C647.09 305.656 647.863 305.961 648.793 305.961C650.098 305.961 651.16 305.434 651.98 304.379L653.516 305.844C653.008 306.602 652.328 307.191 651.477 307.613C650.633 308.027 649.684 308.234 648.629 308.234ZM648.289 297.371C647.508 297.371 646.875 297.645 646.391 298.191C645.914 298.738 645.609 299.5 645.477 300.477H650.902V300.266C650.84 299.312 650.586 298.594 650.141 298.109C649.695 297.617 649.078 297.371 648.289 297.371ZM658.965 308H656.117V290H658.965V308Z" fill="white"/>
<rect x="547.5" y="270.5" width="153" height="59" rx="9.5" stroke="white"/>
</svg>
