<svg width="32" height="24" viewBox="0 0 42 34" fill="none" xmlns="http://www.w3.org/2000/svg">
<path d="M12.6 10.7H14.7V2.30004H12.6C10.2802 2.30004 8.4 4.1802 8.4 6.50004C8.4 8.81988 10.2802 10.7 12.6 10.7ZM0 27.5C0 29.8199 1.88016 31.7 4.2 31.7H6.3V23.3H4.2C1.88016 23.3 0 25.1802 0 27.5ZM22.1458 19.1C19.8548 19.1 17.1478 19.961 15.2729 21.2C13.6461 22.275 12.3513 23.3 8.4 23.3V31.7L12.1754 32.7481C13.8954 33.2258 15.6542 33.6091 17.4457 33.7357C19.591 33.8873 21.7507 33.7797 23.8494 33.3288C31.0341 31.7854 33.6 28.3676 33.6 25.4C33.6 21.2 28.0757 19.1 22.1458 19.1ZM32.2494 0.671883C30.1507 0.221039 27.991 0.112758 25.8457 0.265008C24.0542 0.391664 22.2954 0.774914 20.5754 1.25201L16.8 2.30004V10.7C20.7506 10.7 22.0461 11.7251 23.6729 12.8C25.5478 14.039 28.2548 14.9 30.5458 14.9C36.4757 14.9 42 12.8 42 8.60004C42 5.63248 39.4341 2.21473 32.2494 0.671883Z" fill="black"/>
</svg>
