<svg width="40" height="40" viewBox="0 0 40 40" fill="none" xmlns="http://www.w3.org/2000/svg">
<circle opacity="0.1" cx="20" cy="20" r="20" fill="#FCFDFC"/>
<path d="M8.77885 8.00007C8.67783 7.99865 8.57755 8.01938 8.48373 8.06107C8.38992 8.10276 8.30441 8.16459 8.23208 8.24303C8.15976 8.32148 8.10204 8.41499 8.06222 8.51824C8.0224 8.62149 8.00125 8.73246 8 8.84479C8.00081 8.89485 8.00402 8.94482 8.00962 8.99449L11.274 31.0269C11.3144 31.2972 11.4393 31.5429 11.6266 31.7209C11.8139 31.8989 12.0517 31.9977 12.2981 31.9999H27.9568C28.1409 32.0026 28.3197 31.9318 28.4609 31.8004C28.602 31.6689 28.6961 31.4855 28.726 31.2835L31.9904 8.99984C32.0224 8.7766 31.9735 8.54839 31.8546 8.36507C31.7357 8.18174 31.5564 8.05821 31.3558 8.02145C31.3112 8.01504 31.2662 8.01147 31.2212 8.01076L8.77885 8.00007ZM22.5241 23.9216H17.5241L16.1731 16.0624H23.7356L22.5241 23.9216Z" fill="#FCFDFC"/>
</svg>
