<svg width="30" height="20" viewBox="0 0 43 42" fill="none" xmlns="http://www.w3.org/2000/svg">
<path d="M15.64 21.4838C15.9051 22.632 14.6455 23.5046 13.6657 22.8921L10.324 20.804L6.15135 27.4815C5.06165 29.2251 6.32116 31.4996 8.3762 31.4996H12.6408C13.1845 31.4996 13.6252 31.9403 13.6252 32.4839V35.7652C13.6252 36.3088 13.1845 36.7496 12.6408 36.7496H8.38465C2.20491 36.7496 -1.5659 29.937 1.70665 24.7008L5.87564 18.0244L2.53492 15.9369C1.5439 15.3178 1.79943 13.8073 2.93515 13.545L11.978 11.4574C12.6844 11.2943 13.389 11.7347 13.5521 12.4409L15.64 21.4838ZM23.7251 6.47904L27.1121 11.8993L23.7701 13.9876C22.7815 14.6051 23.0318 16.1166 24.1703 16.3795L33.2132 18.4672C33.9246 18.6311 34.6254 18.1851 34.7873 17.4836L36.875 8.44073C37.1373 7.30509 35.8915 6.413 34.9007 7.03242L31.5631 9.11798L28.1782 3.6972C25.1003 -1.22739 17.9072 -1.23871 14.8222 3.6972L13.3487 6.05691C13.0608 6.51792 13.201 7.12504 13.6621 7.41313L16.4445 9.15178C16.9055 9.43988 17.5128 9.29968 17.8009 8.83867L19.2743 6.48084C20.3171 4.81225 22.7174 4.8668 23.7251 6.47904ZM41.2934 24.7008L39.0363 21.0861C38.7483 20.6248 38.1408 20.4845 37.6796 20.7727L34.902 22.5084C34.441 22.7965 34.3007 23.4037 34.5888 23.8648L36.8499 27.4834C37.9374 29.2234 36.6812 31.4996 34.6239 31.4996H26.7502V27.5637C26.7502 26.3978 25.3358 25.8096 24.5097 26.6357L17.9472 33.1966C17.4346 33.7091 17.4346 34.5402 17.9472 35.0527L24.5097 41.6143C25.3302 42.435 26.7502 41.8601 26.7502 40.6862V36.7496H34.6154C40.7902 36.7496 44.5686 29.9412 41.2934 24.7008Z" fill="#0A7A22"/>
</svg>
