<svg width="24" height="24" viewBox="0 0 24 24" fill="none" xmlns="http://www.w3.org/2000/svg">
<g clip-path="url(#clip0)">
<path d="M8.65128 12.2758C8.80278 12.9319 8.08302 13.4305 7.52309 13.0805L5.61359 11.8873L3.2292 15.703C2.60652 16.6993 3.32623 17.999 4.50055 17.999H6.93748C7.24813 17.999 7.49998 18.2509 7.49998 18.5615V20.4365C7.49998 20.7472 7.24813 20.999 6.93748 20.999H4.50537C0.974094 20.999 -1.18066 17.1062 0.689376 14.114L3.07166 10.299L1.16267 9.10611C0.596376 8.75234 0.742391 7.88919 1.39138 7.73933L6.55873 6.54636C6.96238 6.45317 7.36503 6.70484 7.45822 7.10839L8.65128 12.2758ZM13.2713 3.70161L15.2067 6.79892L13.2971 7.99222C12.7322 8.34509 12.8752 9.20877 13.5258 9.359L18.6931 10.552C19.0996 10.6457 19.5001 10.3908 19.5926 9.98994L20.7856 4.82258C20.9354 4.17364 20.2235 3.66388 19.6574 4.01783L17.7502 5.20958L15.816 2.11199C14.0572 -0.702062 9.94681 -0.708531 8.18398 2.11199L7.34197 3.46039C7.17744 3.72383 7.25759 4.07075 7.52103 4.23538L9.11098 5.22889C9.37442 5.39352 9.72148 5.31341 9.88611 5.04997L10.728 3.70264C11.3239 2.74916 12.6955 2.78033 13.2713 3.70161ZM23.3104 14.114L22.0206 12.0485C21.856 11.7849 21.5089 11.7047 21.2454 11.8694L19.6581 12.8612C19.3947 13.0258 19.3145 13.3729 19.4792 13.6363L20.7712 15.7041C21.3927 16.6984 20.6748 17.9991 19.4992 17.9991H15V15.75C15 15.0838 14.1918 14.7477 13.7197 15.2197L9.96969 18.9688C9.67677 19.2617 9.67677 19.7366 9.96969 20.0294L13.7197 23.7789C14.1885 24.2479 15 23.9194 15 23.2485V20.999H19.4944C23.0228 20.999 25.1819 17.1086 23.3104 14.114Z" fill="#031D09" fill-opacity="0.8"/>
<path d="M13.6953 3.43661L13.6954 3.43665L15.6308 6.53396L15.8957 6.95799L15.4717 7.22295L13.562 8.41624L13.562 8.41628C13.374 8.53367 13.4227 8.82202 13.6382 8.87182C13.6382 8.87182 13.6383 8.87182 13.6383 8.87182L18.8054 10.0647L13.6953 3.43661ZM13.6953 3.43661C12.9288 2.21025 11.1009 2.16261 10.304 3.43766L10.304 3.43768L9.46209 4.785C9.46209 4.785 9.46209 4.785 9.46209 4.78501C9.44381 4.81425 9.40522 4.82316 9.37596 4.80488L9.37594 4.80487L7.786 3.81136C7.786 3.81136 7.786 3.81135 7.78599 3.81135C7.75664 3.793 7.74782 3.75445 7.76605 3.72526L7.76607 3.72522L8.60798 2.37699C8.60802 2.37693 8.60805 2.37687 8.60809 2.37682C10.1747 -0.129549 13.8285 -0.124262 15.3919 2.37681C15.3919 2.37683 15.3919 2.37685 15.3919 2.37687C15.3919 2.37691 15.392 2.37695 15.392 2.37699L17.3261 5.4744L17.591 5.89865L18.0151 5.6336L19.9223 4.44185L19.9224 4.44179C20.1096 4.32476 20.3483 4.49387 20.2984 4.71007L20.2984 4.7101L19.1054 9.87746L19.1054 9.87748M13.6953 3.43661L19.1054 9.87748M19.1054 9.87748C19.0745 10.0115 18.9409 10.0959 18.8056 10.0648L19.1054 9.87748ZM8.1641 12.3882L8.1641 12.3882C8.21332 12.6014 7.97802 12.7752 7.78813 12.6565L7.78806 12.6565L5.87856 11.4633L5.45454 11.1983L5.18957 11.6223L2.8052 15.438C2.8052 15.438 2.80519 15.438 2.80518 15.4381C1.97469 16.7669 2.93298 18.499 4.50055 18.499H6.93748C6.97198 18.499 6.99998 18.5271 6.99998 18.5615V20.4365C6.99998 20.471 6.97198 20.499 6.93748 20.499H4.50537C1.3671 20.499 -0.548671 17.0384 1.11338 14.379L1.11348 14.3789L3.49576 10.5638L3.76051 10.1398L3.33662 9.87496L1.42763 8.68209L1.42758 8.68205C1.24022 8.56501 1.28764 8.27646 1.50385 8.22651C1.50386 8.22651 1.50386 8.22651 1.50387 8.22651L6.67121 7.03355C6.80575 7.00248 6.93997 7.08636 6.97104 7.22089L8.1641 12.3882ZM22.8862 14.3789L22.8864 14.379C24.5496 17.0403 22.6304 20.499 19.4944 20.499H15H14.5V20.999V23.2485C14.5 23.4686 14.2309 23.583 14.0733 23.4254L14.0732 23.4253L10.3232 19.6759L9.96969 20.0294L10.3232 19.6759C10.2256 19.5783 10.2256 19.42 10.3232 19.3224C10.3232 19.3224 10.3232 19.3224 10.3232 19.3224L14.0732 15.5733L14.0732 15.5733C14.2297 15.4168 14.5 15.5283 14.5 15.75V17.9991V18.4991H15H19.4992C21.0684 18.4991 22.0243 16.7657 21.1953 15.4391C21.1952 15.4391 21.1952 15.4391 21.1952 15.4391L19.9032 13.3714C19.8849 13.3421 19.8938 13.3035 19.9231 13.2852L21.5103 12.2934C21.5396 12.2751 21.5782 12.284 21.5965 12.3133L22.0206 12.0485L21.5965 12.3133L22.8862 14.3789Z" stroke="#031D09" stroke-opacity="0.8"/>
</g>
<defs>
<clipPath id="clip0">
<rect width="24" height="24" fill="white"/>
</clipPath>
</defs>
</svg>
