<svg width="15" height="15" viewBox="0 0 25 25" fill="none" xmlns="http://www.w3.org/2000/svg">
<path d="M9.012 12.7878C9.16981 13.4712 8.42005 13.9907 7.8368 13.6261L5.84774 12.3831L3.364 16.3578C2.71537 17.3957 3.46507 18.7495 4.68831 18.7495H7.22679C7.55037 18.7495 7.81273 19.0119 7.81273 19.3355V21.2886C7.81273 21.6122 7.55037 21.8745 7.22679 21.8745H4.69334C1.01493 21.8745 -1.22961 17.8195 0.718344 14.7027L3.19989 10.7286L1.21136 9.48606C0.621469 9.11755 0.773568 8.21843 1.44959 8.06233L6.83226 6.81965C7.25272 6.72258 7.67215 6.98474 7.76922 7.4051L9.012 12.7878ZM13.8245 3.85637L15.8406 7.08274L13.8514 8.32576C13.2629 8.69334 13.4119 9.59299 14.0896 9.74949L19.4722 10.9922C19.8957 11.0898 20.3128 10.8243 20.4092 10.4067L21.6519 5.02405C21.808 4.34807 21.0664 3.81707 20.4767 4.18577L18.49 5.42717L16.4752 2.20051C14.6431 -0.730785 10.3615 -0.737524 8.52523 2.20051L7.64813 3.6051C7.47674 3.87952 7.56024 4.24089 7.83465 4.41238L9.49085 5.44729C9.76527 5.61878 10.1268 5.53533 10.2983 5.26091L11.1753 3.85745C11.796 2.86423 13.2247 2.8967 13.8245 3.85637ZM24.2819 14.7027L22.9384 12.5511C22.7669 12.2765 22.4054 12.1929 22.1308 12.3645L20.4775 13.3976C20.2031 13.5691 20.1196 13.9306 20.291 14.2051L21.6369 16.359C22.2843 17.3947 21.5365 18.7496 20.3119 18.7496H15.6252V16.4068C15.6252 15.7128 14.7833 15.3627 14.2916 15.8544L10.3853 19.7597C10.0802 20.0648 10.0802 20.5595 10.3853 20.8645L14.2916 24.7702C14.78 25.2587 15.6252 24.9165 15.6252 24.2178V21.8745H20.3069C23.9824 21.8745 26.2314 17.8219 24.2819 14.7027Z" fill="#D1E5D4"/>
</svg>
