<svg width="48" height="48" viewBox="0 0 48 48" fill="none" xmlns="http://www.w3.org/2000/svg">
<circle cx="24" cy="24" r="24" fill="#235789"/>
<path d="M20.6513 24.2767C20.8028 24.9328 20.083 25.4315 19.5231 25.0815L17.6136 23.8883L15.2292 27.704C14.6065 28.7003 15.3262 30 16.5005 30H18.9375C19.2481 30 19.5 30.2518 19.5 30.5625V32.4375C19.5 32.7481 19.2481 33 18.9375 33H16.5054C12.9741 33 10.8193 29.1071 12.6894 26.115L15.0717 22.2999L13.1627 21.1071C12.5964 20.7533 12.7424 19.8901 13.3914 19.7403L18.5587 18.5473C18.9624 18.4541 19.365 18.7058 19.4582 19.1094L20.6513 24.2767ZM25.2713 15.7026L27.2067 18.7999L25.297 19.9932C24.7321 20.3461 24.8752 21.2097 25.5257 21.36L30.6931 22.5529C31.0996 22.6466 31.5 22.3918 31.5926 21.9909L32.7855 16.8235C32.9354 16.1746 32.2235 15.6648 31.6573 16.0188L29.7501 17.2105L27.8159 14.113C26.0572 11.2989 21.9468 11.2924 20.184 14.113L19.342 15.4614C19.1774 15.7248 19.2576 16.0717 19.521 16.2363L21.111 17.2299C21.3744 17.3945 21.7215 17.3144 21.8861 17.0509L22.728 15.7036C23.3239 14.7501 24.6955 14.7813 25.2713 15.7026ZM35.3103 26.115L34.0205 24.0495C33.856 23.7859 33.5089 23.7057 33.2453 23.8703L31.6581 24.8622C31.3947 25.0268 31.3145 25.3738 31.4791 25.6373L32.7712 27.705C33.3926 28.6993 32.6748 30 31.4992 30H27V27.7509C27 27.0847 26.1917 26.7486 25.7197 27.2206L21.9697 30.9697C21.6767 31.2626 21.6767 31.7375 21.9697 32.0304L25.7197 35.7799C26.1885 36.2488 27 35.9203 27 35.2495V33H31.4943C35.0228 33 37.1819 29.1095 35.3103 26.115Z" fill="#FDFFFC"/>
</svg>
