<svg width="23" height="23" viewBox="0 0 23 23" fill="none" xmlns="http://www.w3.org/2000/svg">
<path d="M22.4375 6.86133V5.82129L21.0459 5.3916L20.9385 4.88379L21.9199 3.87305L21.4121 2.92578L19.9961 3.29199L19.6445 2.92578L20.0107 1.54883L19.0781 0.982422L18.0381 2.00781L17.5156 1.85156L17.1738 0.5625H16.0703L15.7676 1.85156L15.1768 2.00781L14.2148 0.982422L13.2676 1.51953L13.6631 2.87207L13.2676 3.28223L11.876 2.91602L11.3389 3.84863L12.3496 4.87402L12.208 5.38184L10.8164 5.7627L10.8018 6.82227L12.208 7.18848L12.3252 7.7793L11.3438 8.75098L11.8516 9.6543L13.2969 9.28809L13.6484 9.70801L13.2529 11.0215L14.2246 11.5879L15.1719 10.5918L15.7383 10.7334L16.0654 12.125L17.1689 12.1396L17.4961 10.7334L18.0625 10.5625L19.0732 11.6172L20.0693 11.0264L19.6396 9.65918L20.0205 9.26367L21.4268 9.69336L21.9297 8.71191L20.9092 7.79395L21.0166 7.20312L22.4375 6.86133ZM16.6172 9.06836C15.0889 9.06836 13.8438 7.82812 13.8438 6.29492C13.8438 4.76172 15.084 3.52148 16.6172 3.52148C18.1504 3.52148 19.3906 4.76172 19.3906 6.29492C19.3906 7.83301 18.1504 9.06836 16.6172 9.06836ZM20.1475 9.86914L22.4375 10.5771V12.5254L19.7471 13.1797L19.5469 14.2881L21.4463 16.0117L20.5088 17.8623L17.8721 17.0469L17.1592 17.7891L17.9746 20.3525L16.1045 21.4609L14.2051 19.4834L13.1455 19.8057L12.5303 22.4424L10.46 22.418L9.84473 19.8008L8.78516 19.5273L7.00781 21.4023L5.18164 20.3428L5.92383 17.877L5.25488 17.0908L2.54492 17.7793L1.58301 16.0801L3.43359 14.2539L3.19922 13.1406L0.5625 12.4521L0.586914 10.4551L3.19922 9.7373L3.47754 8.77539L1.57812 6.85156L2.58887 5.10352L5.20605 5.79199L5.94824 5.02539L5.20605 2.48633L6.9834 1.47559L8.78027 3.39941L9.88867 3.10156L10.4551 0.5625H12.5254L13.0918 2.80371L11.9883 2.51562L11.6807 2.43262L11.5195 2.71094L10.9824 3.64355L10.8213 3.91699L11.0459 4.1416L11.8857 4.99121L11.8711 5.04004L10.709 5.35742L10.4062 5.44043L10.4014 5.75293L10.3916 6.38281C8.07227 6.89062 6.32422 8.96094 6.32422 11.4365C6.32422 14.2832 8.63379 16.5977 11.4854 16.5977C13.9512 16.5977 16.0117 14.8691 16.5244 12.5547L17.1689 12.5645L17.5059 12.5693L17.584 12.2422L17.8574 11.0703L17.9502 11.041L18.7852 11.9102L19.0146 12.1494L19.2979 11.9834L20.2939 11.3926L20.5771 11.2217L20.4795 10.9043L20.1475 9.86914Z" fill="#031D09" fill-opacity="0.8"/>
</svg>
