<svg width="397" height="201" viewBox="0 0 443 251" fill="none" xmlns="http://www.w3.org/2000/svg">
<g clip-path="url(#clip0)">
<path opacity="0.1" d="M266.311 180.257C274.869 179.775 285.487 174.032 293.743 171.491C303.514 168.493 313.324 165.608 323.173 162.837C357.459 153.184 392.113 144.96 427.135 138.163C430.403 137.527 433.677 136.906 436.955 136.301C431.848 125.382 423.936 115.98 414.008 109.034C414.262 106.643 414.391 104.242 414.395 101.838C414.395 63.8549 383.714 33.0628 345.854 33.0628C334.198 33.0505 322.737 36.0271 312.59 41.7023C285.793 24.2623 250.818 13.707 212.551 13.707C158.175 13.707 110.44 35.0206 83.3918 67.1154L210.514 88.3638L288.481 101.39C199.598 104.015 110.44 106.624 21.8132 100.463C10.114 111.663 2.7092 126.535 0.864325 142.538C-0.980545 158.541 2.84902 174.681 11.6986 188.2C11.6986 189.575 11.7566 190.939 11.8612 192.292C14.1188 192.931 16.2989 193.552 18.2545 193.958C49.6491 200.52 81.2452 206.011 113.043 210.433C89.6108 224.727 61.0752 226.75 34.046 232.804C47.1347 243.493 64.9089 250.045 84.4954 250.045H376.132C407.711 250.045 433.307 228.294 433.307 201.46C438.046 193.728 441.204 185.151 442.601 176.215C384.167 181.798 325.005 176.951 266.311 180.257Z" fill="#0A7A22"/>
<path opacity="0.1" d="M443 164.787C443.031 153.727 440.374 142.823 435.252 132.993C430.13 123.162 422.694 114.695 413.57 108.306C413.822 105.917 413.952 103.516 413.957 101.114C413.957 63.1307 383.261 32.3501 345.416 32.3501C333.759 32.3377 322.298 35.3129 312.149 40.9858C285.352 23.5381 250.373 12.979 212.106 12.979C149.861 12.979 96.2829 40.9283 72.522 81.0076C71.2015 80.9309 69.8732 80.8888 68.5334 80.8888C30.6848 80.8888 -0.00767866 111.681 -0.00767866 149.664C-0.0342074 163.081 3.88369 176.216 11.2687 187.468C11.2687 221.643 43.8702 249.347 84.0694 249.347H375.714C407.289 249.347 432.885 227.593 432.885 200.759C439.526 189.912 443.026 177.468 443 164.787Z" fill="#0A7A22"/>
<path d="M361.789 122.65C361.235 122.229 360.586 121.948 359.899 121.83C359.175 121.665 358.435 121.562 357.699 121.447L348.165 120.087C347.203 119.91 346.222 119.858 345.246 119.933C344.756 119.973 344.279 120.109 343.843 120.332C343.407 120.556 343.02 120.863 342.705 121.236C342.421 121.583 342.266 122.016 342.264 122.462C342.317 122.911 342.465 123.345 342.698 123.734C342.79 123.916 342.869 124.104 342.934 124.297C343.025 124.731 343.139 125.159 343.275 125.581C343.317 125.672 343.372 125.757 343.437 125.834C343.439 125.855 343.439 125.877 343.437 125.899C343.333 126.427 343.67 126.979 343.519 127.489C343.387 127.926 342.957 128.19 342.686 128.554C342.505 128.812 342.405 129.117 342.398 129.431C342.391 129.745 342.478 130.054 342.647 130.32C342.938 130.765 343.464 131.067 343.615 131.577C343.813 132.247 343.279 132.895 342.802 133.412C341.926 134.364 341.116 135.374 340.378 136.435C340.171 136.696 340.037 137.006 339.991 137.335C339.948 138.002 340.595 138.588 340.483 139.251C340.394 139.772 339.879 140.09 339.433 140.4C337.788 141.473 336.467 143.197 336.335 145.147C335.913 142.044 334.614 139.123 332.587 136.718C332.033 136.059 331.425 135.397 331.197 134.561C331.112 134.228 331.096 133.872 330.98 133.55C330.593 132.535 329.361 132.098 328.823 131.163C328.436 130.504 328.436 129.657 327.956 129.079C327.475 128.5 326.72 128.37 326.306 127.811C326.099 127.432 325.923 127.037 325.779 126.631C325.606 126.299 325.361 126.009 325.063 125.78C325.006 125.735 324.946 125.693 324.885 125.654C324.949 125.597 325.001 125.527 325.036 125.449C325.071 125.371 325.09 125.287 325.09 125.201C325.09 124.753 324.641 124.458 324.25 124.236C323.746 123.952 323.254 123.646 322.774 123.328C323.298 123.087 323.752 122.719 324.095 122.259C324.525 121.573 324.702 120.761 324.598 119.96C324.572 119.314 324.328 118.695 323.905 118.202C323.661 117.945 323.355 117.761 323.1 117.52C322.437 116.88 322.213 115.934 321.938 115.06C321.574 113.911 321.005 112.704 319.944 112.095C319.432 111.8 318.836 111.662 318.337 111.351C317.837 111.041 317.419 110.455 317.593 109.892C317.709 109.508 318.069 109.244 318.313 108.918C318.605 108.497 318.716 107.98 318.624 107.478C318.532 106.975 318.244 106.53 317.822 106.237C317.535 106.056 317.183 105.899 317.125 105.57C316.9 105.512 316.697 105.393 316.538 105.227C316.379 105.06 316.271 104.852 316.226 104.627C316.139 104.177 316.139 103.714 316.226 103.263C316.327 102.551 316.426 101.841 316.524 101.133C316.695 101.203 316.878 101.24 317.063 101.24C317.247 101.24 317.43 101.203 317.601 101.133C317.936 101.671 318.325 102.175 318.763 102.635C319.942 104.013 320.86 105.59 321.473 107.29C321.694 107.903 321.919 108.589 322.492 108.915C322.689 109.026 322.914 109.083 323.107 109.202C323.346 109.367 323.551 109.575 323.711 109.815C324.176 110.424 324.641 111.029 325.102 111.639L325.125 111.731C325.137 111.785 325.158 111.836 325.187 111.884C325.273 111.979 325.391 112.04 325.52 112.052C326.945 112.378 328.544 112.677 329.779 111.907C330.895 111.217 331.383 109.853 332.327 108.941C332.997 108.294 333.946 107.792 334.136 106.88C333.91 106.811 333.687 106.731 333.47 106.639C333.663 106.447 333.857 106.225 334.12 105.972C334.503 105.602 334.848 105.195 335.15 104.758C335.477 104.218 335.737 103.642 335.925 103.041C336.671 100.937 337.42 98.8306 338.171 96.7234C338.527 95.7273 338.883 94.7235 339.333 93.7542C339.797 92.7044 340.347 91.6968 340.854 90.6661C342.164 87.9858 343.174 85.1724 343.867 82.2756C343.99 81.8804 344.031 81.4646 343.987 81.0534C343.879 80.3906 343.371 79.8695 342.887 79.3983C342.401 78.8769 341.846 78.4221 341.238 78.0458C340.932 77.858 340.592 77.7321 340.237 77.6755C339.882 77.6189 339.519 77.6328 339.17 77.7163C338.179 78.0037 337.555 79.0075 337.327 80.0151C337.098 81.0228 337.183 82.061 337.087 83.0802C336.947 84.5552 336.436 85.9805 336.312 87.4593C336.246 88.3137 336.312 89.1796 336.208 90.034C336.017 91.1521 335.623 92.2269 335.046 93.2063C333.79 95.5421 332.09 97.6158 330.039 99.3134C329.803 99.5088 329.559 99.6965 329.326 99.9072C329.326 99.7425 329.353 99.5739 329.377 99.4092C329.208 99.4526 329.044 99.5102 328.885 99.5816C328.904 99.3881 328.885 99.1927 328.827 99.0069C328.517 98.0912 327.138 97.8575 326.891 96.9265C326.849 96.6962 326.827 96.463 326.825 96.2292C326.743 95.4131 326.182 94.7235 325.988 93.9304C325.81 93.1986 325.946 92.3979 325.601 91.7197C325.307 91.2957 324.961 90.9096 324.571 90.5703C324.106 90.0445 323.77 89.4189 323.591 88.7428C323.541 88.5551 323.495 88.3597 323.44 88.172C323.499 87.7468 323.451 87.3139 323.301 86.9115C322.949 86.0456 322.039 85.4901 321.709 84.6127C321.454 83.9307 321.566 83.0802 321.082 82.5514C320.825 82.2988 320.51 82.1109 320.164 82.0036C318.392 81.3207 316.532 80.8861 314.638 80.7124C313.577 80.6166 312.408 80.563 311.649 79.8236C310.762 78.9653 310.72 77.4213 309.682 76.7585C308.768 76.1723 307.475 76.6053 306.766 77.429C306.659 77.5502 306.561 77.6782 306.472 77.8121C306.342 77.2986 306.315 76.7652 306.39 76.2413C306.39 76.111 306.417 75.9769 306.429 75.8582C308.177 75.2929 309.665 74.1303 310.627 72.5786C310.627 72.5786 310.627 72.5786 310.627 72.6016L310.673 72.7203C310.785 73 310.964 73.2682 311.227 73.2989C311.402 73.2968 311.571 73.236 311.707 73.1264C311.941 72.9658 312.156 72.7809 312.35 72.5747C312.448 72.4675 312.541 72.3563 312.629 72.2414C312.807 72.0022 312.96 71.7454 313.086 71.4752C313.278 71.0686 313.408 70.636 313.473 70.1917C313.543 69.7472 313.55 69.2913 313.628 68.8469C313.7 68.5029 313.795 68.1637 313.91 67.8316C313.949 67.7205 313.988 67.6094 314.023 67.4983C314.058 67.3872 314.108 67.2377 314.147 67.1151C314.389 66.3271 314.519 65.5096 314.534 64.6861C314.534 64.5482 314.534 64.4102 314.534 64.2723C314.52 63.7348 314.397 63.2056 314.174 62.7154C313.951 62.2253 313.631 61.7842 313.233 61.418C312.567 60.8778 311.684 60.6517 311.196 59.92C310.878 59.4295 310.809 58.7974 310.623 58.2227C310.422 57.5349 310.03 56.9166 309.492 56.4378C308.954 55.9591 308.292 55.639 307.579 55.514C306.721 55.4209 305.86 55.6552 305.17 56.1691L305.116 56.2113C304.732 56.5014 304.407 56.86 304.156 57.2687C303.644 57.1293 303.176 56.8659 302.793 56.5024C302.406 56.1461 302.107 55.6979 301.716 55.353C301.351 55.0219 300.902 54.7938 300.417 54.6927C299.932 54.5917 299.429 54.6212 298.959 54.7784C298.476 54.97 298.045 55.2724 297.702 55.6607C297.36 56.0489 297.115 56.512 296.988 57.012C296.775 57.8012 296.814 58.7093 296.369 59.3682C296.024 59.8816 295.459 60.1345 295.064 60.6019C294.818 60.8979 294.651 61.2493 294.576 61.6249C294.529 61.8349 294.507 62.0496 294.51 62.2647C294.51 62.3605 294.51 62.4563 294.533 62.5482C294.533 62.5482 294.533 62.5789 294.533 62.5942C294.547 62.6992 294.569 62.8029 294.599 62.9045C294.709 63.2929 294.906 63.6518 295.176 63.9543C295.431 64.244 295.751 64.4721 296.109 64.621C296.256 64.6774 296.406 64.7248 296.558 64.7627L297.019 64.8662L297.182 64.9045C296.626 65.9375 296.317 67.0831 296.279 68.253C296.242 69.4228 296.476 70.5855 296.965 71.6514C296.965 71.7587 296.938 71.866 296.926 71.9732C296.863 73.4819 296.93 74.993 297.128 76.4903C297.182 77.0842 297.213 77.7393 296.845 78.2106C296.677 78.396 296.489 78.5618 296.283 78.7048C296.492 78.4366 296.705 78.1723 296.922 77.9079C296.376 77.3639 295.513 77.2949 294.738 77.3485C293.239 77.4593 291.784 77.8991 290.479 78.6359C289.611 79.1301 288.721 79.7852 287.729 79.6703C287.145 79.6052 286.568 79.2872 285.998 79.4404C285.678 79.5699 285.38 79.7455 285.112 79.9615C284.9 80.1118 284.644 80.1898 284.384 80.1837C283.776 79.4443 282.835 78.9424 282.107 78.3408C281.278 77.6111 280.52 76.8069 279.841 75.9386C278.587 74.4406 277.336 72.9387 276.104 71.4253C275.067 70.1534 274.002 68.7779 273.82 67.1496C273.801 66.9881 273.792 66.8256 273.793 66.663C273.818 65.8894 273.916 65.1197 274.087 64.3643C274.133 64.1819 274.133 63.9911 274.087 63.8087C273.971 63.4256 273.525 63.2838 273.142 63.1995C273.192 62.9045 273.227 62.6019 273.247 62.3145C273.463 59.0196 273.227 55.671 273.932 52.4451C274.199 51.2038 274.637 49.9471 275.539 49.0467C276.952 47.633 279.318 47.292 280.403 45.6177C281.309 44.2231 280.949 42.25 279.81 41.0202C278.672 39.7903 276.918 39.2884 275.249 39.3497C274.78 39.3338 274.318 39.4565 273.92 39.7022C273.549 40.0286 273.271 40.4462 273.115 40.9129L271.454 44.9089C270.972 45.9493 270.566 47.0222 270.238 48.1196C269.773 49.7977 269.669 51.5677 269.301 53.2611C269.301 54.5638 268.453 56.1883 267.988 57.3875C267.469 58.7361 266.908 60.0694 266.439 61.4448C266.323 61.7896 265.916 62.8126 265.664 63.7436C265.569 63.7984 265.481 63.864 265.401 63.939C265.199 64.1954 265.015 64.4655 264.851 64.7474C264.499 65.2071 263.926 65.4524 263.539 65.8968C263.151 66.3412 263.07 67.1573 263.608 67.3795C263.718 67.4158 263.83 67.4403 263.945 67.4523C264.016 67.4582 264.086 67.4697 264.154 67.4868C264.735 67.6477 264.964 68.3718 264.878 68.9695C264.793 69.5672 264.491 70.1189 264.441 70.7166C264.336 71.774 264.964 72.7586 265.568 73.6475C266.193 74.611 266.884 75.5314 267.636 76.4022C268.182 77.0076 268.797 77.5516 269.347 78.134C271.442 80.2642 273.107 82.7545 274.989 85.0686C275.666 85.942 276.436 86.7409 277.285 87.4517C277.84 87.881 278.421 88.2763 279.024 88.6355L282.261 90.6661C282.629 90.9323 283.044 91.1261 283.485 91.237C283.629 91.2562 283.775 91.2562 283.919 91.237C283.938 91.3328 283.954 91.4247 283.977 91.5205C284.229 92.5243 284.782 93.4362 284.844 94.4591C284.906 95.4821 284.813 96.528 284.887 97.5625C284.957 98.5165 285.17 99.4781 285.224 100.417C285.332 102.225 284.883 104.011 284.449 105.781C283.795 108.371 283.4 111.014 282.126 113.363C281.77 114.01 281.351 114.669 281.351 115.409C281.351 115.497 281.351 115.589 281.375 115.677L280.794 116.003C280.623 116.098 280.453 116.194 280.298 116.294C279.562 116.769 278.776 117.294 278.474 118.114C278.23 118.776 278.343 119.535 278.048 120.179C278.034 120.208 278.019 120.236 278.002 120.263C277.692 120.861 277.076 121.305 276.937 121.96C276.832 122.462 277.034 122.995 276.937 123.493C276.937 123.493 276.937 123.493 276.937 123.512C276.849 123.762 276.779 124.018 276.728 124.278C276.724 124.363 276.732 124.448 276.751 124.531C276.825 124.821 276.987 125.082 277.216 125.278C277.355 125.411 277.507 125.53 277.669 125.634C277.834 125.742 278.004 125.841 278.18 125.933L278.281 125.987C278.428 126.064 278.575 126.136 278.726 126.205L278.827 126.247C279.001 126.324 279.179 126.393 279.357 126.454L279.481 126.493C279.621 126.539 279.764 126.581 279.907 126.615L280.004 126.646L280.093 126.665L280.48 126.745L280.623 126.772C280.794 126.8 280.968 126.823 281.146 126.841H281.301C281.433 126.841 281.561 126.86 281.688 126.864H281.87C282.006 126.864 282.138 126.864 282.258 126.864H282.397C282.579 126.864 282.761 126.837 282.943 126.814H283.001C283.164 126.791 283.326 126.765 283.489 126.73L283.613 126.703C283.764 126.669 283.915 126.634 284.066 126.588L284.147 126.565C284.329 126.512 284.511 126.454 284.689 126.385C285.306 126.135 285.904 125.842 286.479 125.508C286.866 125.297 287.253 125.083 287.64 124.887C287.927 124.744 288.222 124.616 288.523 124.504C289.256 124.195 290.052 124.063 290.847 124.121C291.239 124.174 291.627 124.252 292.008 124.355C292.008 124.397 292.008 124.439 292.008 124.481C292.323 126.32 292.634 128.159 292.942 129.998C293.448 129.637 293.985 129.318 294.545 129.044C294.44 129.322 294.371 129.612 294.339 129.906C294.316 130.134 294.316 130.364 294.339 130.592C294.374 130.956 294.452 131.358 294.231 131.646C294.095 131.822 293.844 131.922 293.77 132.121C293.716 132.325 293.703 132.537 293.731 132.745C293.716 132.983 293.614 133.208 293.445 133.378C293.276 133.548 293.05 133.653 292.81 133.672C292.921 133.981 292.923 134.317 292.817 134.627C292.711 134.937 292.503 135.203 292.225 135.381C292.063 135.458 291.912 135.556 291.776 135.672C291.643 135.842 291.554 136.04 291.516 136.251C291.005 138.148 289.952 139.86 288.484 141.182C287.934 141.61 287.431 142.095 286.986 142.63C286.71 143.044 286.483 143.487 286.308 143.952C285.275 146.45 284.227 148.949 283.164 151.45C282.575 152.848 282.002 154.27 281.816 155.775C281.351 159.905 277.634 163.407 278.331 167.507C278.472 168.531 278.889 169.498 279.539 170.307C280.314 171.231 281.475 171.759 282.637 172.189C285.623 173.338 288.771 173.966 291.908 174.598L296.833 175.598C297.8 175.818 298.781 175.972 299.769 176.058C300.957 176.139 302.177 176.027 303.335 176.326C304.051 176.51 304.737 176.851 305.476 176.89C306.111 176.924 306.894 176.79 307.269 177.303C307.645 177.817 307.354 178.495 307.711 178.951C308.284 179.675 309.682 178.951 310.305 179.633C310.476 179.895 310.606 180.18 310.692 180.479C310.787 180.665 310.919 180.829 311.08 180.962C311.118 181.178 311.133 181.398 311.126 181.617C311.045 182.507 310.858 183.384 310.569 184.23C310.104 185.786 309.64 187.343 309.178 188.901C309.002 189.451 308.872 190.015 308.791 190.586C308.762 190.864 308.762 191.144 308.791 191.422C308.872 192.268 309.364 193.142 310.181 193.418C310.815 193.584 311.489 193.501 312.063 193.188C312.617 192.902 313.137 192.555 313.612 192.153C314.47 191.512 315.223 190.744 315.847 189.878C317.783 187.012 317.155 183.135 318.515 179.966C319.417 177.851 321.175 176.135 321.76 173.905C321.897 173.481 321.913 173.027 321.806 172.595C321.562 171.828 320.737 171.392 319.967 171.116H319.932C319.299 170.893 318.652 170.71 317.996 170.568C317.833 170.533 317.667 170.507 317.5 170.48C317.132 170.183 316.839 169.805 316.644 169.376C316.614 169.148 316.553 168.925 316.462 168.714C316.401 168.622 316.318 168.547 316.221 168.493C316.124 168.44 316.016 168.411 315.905 168.407C315.517 168.369 314.999 168.507 314.576 168.476C313.713 168.415 313.14 167.576 312.365 167.189C311.591 166.802 310.751 166.898 309.926 166.955C309.631 166.995 309.331 166.977 309.043 166.901C308.699 166.745 308.385 166.531 308.113 166.269C307.637 165.902 307.081 165.65 306.488 165.532C305.896 165.415 305.285 165.435 304.702 165.591C304.331 165.739 303.939 165.827 303.54 165.852C302.785 165.809 302.251 165.143 301.693 164.637C300.167 163.254 297.995 162.89 296.144 161.982C295.861 161.878 295.624 161.677 295.478 161.415C295.265 160.894 295.745 160.373 296.179 160.016L299.362 157.4C302.847 154.534 307.203 152.377 308.822 148.174C308.991 147.61 309.253 147.078 309.597 146.599C309.722 146.453 309.866 146.324 310.026 146.216C310.731 145.765 311.584 145.6 312.408 145.756C313.412 145.979 314.364 146.39 315.212 146.967C316.598 147.797 317.947 148.691 319.258 149.649C320.557 150.568 321.793 151.571 322.956 152.653C324.989 154.568 326.682 156.84 328.575 158.905C330.469 160.97 332.633 162.898 335.263 163.886C337.892 164.875 341.071 164.832 343.329 163.174C345.935 161.258 346.771 157.833 347.43 154.691C348.882 153.304 349.319 151.193 350.028 149.327C350.473 148.143 351.043 147.028 351.523 145.848C352.096 144.461 352.545 143.029 352.994 141.599C353.503 140.164 353.849 138.678 354.024 137.167C354.21 134.78 353.564 132.24 354.241 129.998C355.136 129.803 355.949 129.305 356.828 129.014C358.137 128.588 359.539 128.657 360.925 128.665H361.014C361.492 128.715 361.972 128.603 362.377 128.347C362.842 127.964 362.915 127.309 362.939 126.715C362.993 125.247 362.9 123.6 361.789 122.65ZM305.682 57.2955C305.361 57.3739 305.03 57.3972 304.702 57.3645L305.682 57.2955Z" fill="url(#paint0_linear)"/>
<path d="M307.207 81.5325C306.738 81.9265 306.189 82.2154 305.596 82.3792L302.851 83.3524C301.36 83.8811 299.803 84.4137 298.231 84.2221C297.352 84.1148 293.584 83.5669 293.015 82.8888C292.148 81.839 295.187 80.295 296.225 79.41C296.46 79.2427 296.678 79.0527 296.876 78.8429C297.263 78.3755 297.213 77.7204 297.159 77.1304C296.962 75.6356 296.894 74.127 296.957 72.6209C296.987 72.2619 297.039 71.9049 297.112 71.552C297.499 69.7896 299.157 70.4332 300.466 70.9007C302.041 71.407 303.565 72.06 305.016 72.8508C305.458 73.0762 305.842 73.3986 306.139 73.7933C306.712 74.6515 306.483 75.7779 306.39 76.8583C306.309 77.6974 306.313 78.502 306.843 79.1111C307.11 79.344 307.355 79.6005 307.575 79.8774C307.699 80.1562 307.73 80.4668 307.664 80.7643C307.598 81.0618 307.438 81.3308 307.207 81.5325Z" fill="#BE6F72"/>
<path d="M269.281 53.9203C269.669 52.2231 269.754 50.4722 270.218 48.7902C270.546 47.6966 270.953 46.6276 271.434 45.5911L273.142 41.6487C273.298 41.1832 273.576 40.7668 273.948 40.4418C274.346 40.1979 274.808 40.0753 275.276 40.0894C276.945 40.0281 278.699 40.5415 279.837 41.756C280.976 42.9705 281.336 44.936 280.43 46.3267C279.346 48.001 276.98 48.3381 275.566 49.7481C274.664 50.6484 274.226 51.9013 273.959 53.1388C273.254 56.3571 273.491 59.6941 273.274 62.9814C273.204 64.0043 273.003 65.1729 272.112 65.7016C271.574 65.9626 270.975 66.0776 270.377 66.0349L267.837 66.0771C267.411 66.0771 265.866 66.3414 265.583 66.0234C265.088 65.4679 266.218 62.7017 266.424 62.0848C266.88 60.7171 267.442 59.3838 267.972 58.039C268.433 56.8398 269.281 55.2192 269.281 53.9203Z" fill="#BE6F72"/>
<path d="M321.733 174.285C321.148 176.499 319.39 178.223 318.488 180.334C317.128 183.495 317.74 187.361 315.819 190.219C315.196 191.087 314.443 191.856 313.585 192.499C313.11 192.899 312.59 193.244 312.036 193.529C311.462 193.843 310.788 193.925 310.154 193.759C309.337 193.483 308.845 192.61 308.764 191.767C308.735 191.49 308.735 191.212 308.764 190.935C308.845 190.365 308.975 189.802 309.151 189.253C309.616 187.703 310.079 186.15 310.541 184.595C310.831 183.751 311.018 182.876 311.099 181.989C311.149 181.024 310.53 179.767 310.793 178.867C310.913 178.461 311.362 178.101 311.568 177.76C311.859 177.269 312.083 176.742 312.234 176.193C312.551 175.124 312.768 173.982 313.434 173.082C313.869 172.548 314.377 172.077 314.944 171.683C315.363 171.32 315.854 171.047 316.385 170.882C316.9 170.793 317.429 170.818 317.934 170.955C318.591 171.094 319.237 171.276 319.87 171.499H319.905C320.679 171.775 321.5 172.2 321.744 172.974C321.863 173.404 321.859 173.857 321.733 174.285Z" fill="#3F3D56"/>
<path d="M362.935 127.183C362.911 127.777 362.838 128.439 362.373 128.811C361.968 129.067 361.488 129.179 361.01 129.129H360.905C359.523 129.129 358.117 129.052 356.808 129.478C355.813 129.803 354.899 130.401 353.862 130.52C352.433 130.681 351.089 129.907 349.823 129.233C348.63 128.597 347.407 128.022 346.156 127.508C345.335 127.175 343.658 126.961 343.263 126.072C343.128 125.651 343.014 125.224 342.922 124.792C342.857 124.599 342.778 124.411 342.686 124.229C342.454 123.841 342.306 123.409 342.252 122.961C342.254 122.514 342.409 122.082 342.694 121.735C343.01 121.365 343.396 121.06 343.832 120.839C344.267 120.617 344.742 120.483 345.23 120.444C346.206 120.369 347.187 120.42 348.15 120.597L357.684 121.953C358.419 122.057 359.159 122.16 359.883 122.336C360.571 122.454 361.219 122.736 361.773 123.156C362.9 124.091 362.993 125.735 362.935 127.183Z" fill="#3F3D56"/>
<path d="M354.555 129.634C353.393 132.06 354.23 134.929 354.021 137.611C353.845 139.118 353.5 140.601 352.991 142.033C352.541 143.458 352.092 144.887 351.519 146.27C351.039 147.419 350.47 148.569 350.024 149.741C349.316 151.611 348.863 153.714 347.426 155.105C346.768 158.239 345.931 161.664 343.325 163.564C341.06 165.22 337.904 165.277 335.259 164.277C332.614 163.277 330.465 161.361 328.571 159.296C326.678 157.231 324.986 154.982 322.953 153.059C321.787 151.977 320.549 150.975 319.247 150.059C317.935 149.117 316.586 148.23 315.2 147.4C314.351 146.826 313.4 146.416 312.396 146.193C311.572 146.037 310.719 146.202 310.015 146.653C309.855 146.761 309.71 146.89 309.585 147.036C309.24 147.514 308.979 148.044 308.811 148.607C307.184 152.799 302.82 154.952 299.335 157.81L296.152 160.419C295.718 160.775 295.238 161.296 295.451 161.814C295.597 162.075 295.834 162.276 296.117 162.381C297.968 163.285 300.14 163.649 301.666 165.028C302.224 165.534 302.758 166.2 303.513 166.239C303.912 166.216 304.304 166.129 304.675 165.982C305.258 165.826 305.869 165.806 306.461 165.923C307.053 166.04 307.609 166.291 308.086 166.656C308.358 166.918 308.672 167.132 309.016 167.289C309.304 167.364 309.604 167.382 309.899 167.342C310.724 167.285 311.599 167.212 312.338 167.576C313.078 167.94 313.686 168.798 314.549 168.859C314.972 168.89 315.475 168.752 315.878 168.79C315.989 168.794 316.097 168.823 316.194 168.877C316.291 168.93 316.374 169.006 316.435 169.097C316.526 169.307 316.587 169.529 316.617 169.756C316.776 170.296 317.31 170.626 317.659 171.07C318.193 171.752 318.271 172.679 318.217 173.541C318.041 176.237 316.827 178.763 314.824 180.598C314.256 181.173 313.531 181.573 312.737 181.748C312.34 181.83 311.926 181.787 311.555 181.624C311.184 181.461 310.874 181.187 310.669 180.84C310.583 180.542 310.452 180.257 310.282 179.997C309.659 179.319 308.261 180.039 307.688 179.315C307.331 178.863 307.587 178.139 307.246 177.671C306.905 177.204 306.084 177.288 305.453 177.261C304.714 177.223 304.028 176.878 303.312 176.698C302.15 176.399 300.934 176.51 299.745 176.43C298.757 176.344 297.777 176.19 296.81 175.97L291.884 174.974C288.748 174.342 285.6 173.702 282.614 172.572C281.472 172.143 280.322 171.614 279.516 170.695C278.867 169.887 278.449 168.92 278.308 167.898C277.607 163.81 281.324 160.316 281.793 156.197C281.96 154.695 282.567 153.277 283.141 151.883C284.191 149.39 285.239 146.896 286.285 144.4C286.454 143.936 286.675 143.491 286.943 143.075C287.389 142.541 287.891 142.057 288.442 141.63C289.909 140.313 290.962 138.605 291.474 136.711C291.512 136.5 291.601 136.302 291.733 136.132C291.871 136.019 292.022 135.922 292.183 135.845C292.459 135.667 292.667 135.402 292.773 135.093C292.879 134.783 292.877 134.448 292.767 134.14C293.008 134.12 293.233 134.016 293.402 133.846C293.571 133.676 293.673 133.451 293.689 133.213C293.661 133.006 293.674 132.795 293.728 132.592C293.821 132.393 294.053 132.293 294.189 132.117C294.409 131.83 294.332 131.428 294.297 131.067C294.274 130.839 294.274 130.61 294.297 130.382C294.382 129.57 294.749 128.813 295.335 128.24C296.26 127.34 297.577 127.573 298.855 127.359C300.129 127.086 301.374 126.693 302.572 126.182C305.932 124.873 309.47 124.063 313.07 123.78C316.688 123.499 320.322 124.071 323.673 125.451C324.16 125.646 324.62 125.904 325.04 126.217C325.338 126.444 325.582 126.733 325.756 127.064C325.899 127.469 326.075 127.863 326.283 128.24C326.697 128.799 327.479 128.979 327.932 129.508C328.385 130.037 328.424 130.929 328.8 131.585C329.338 132.519 330.585 132.952 330.957 133.968C331.073 134.29 331.088 134.642 331.174 134.975C331.383 135.811 332.01 136.47 332.564 137.129C334.594 139.531 335.894 142.454 336.312 145.557C336.436 143.615 337.757 141.895 339.41 140.822C339.855 140.535 340.37 140.217 340.46 139.695C340.572 139.036 339.925 138.45 339.968 137.78C340.015 137.452 340.148 137.143 340.355 136.883C341.093 135.825 341.903 134.818 342.779 133.868C343.255 133.351 343.79 132.719 343.592 132.037C343.441 131.527 342.915 131.228 342.624 130.784C342.455 130.519 342.368 130.21 342.375 129.897C342.382 129.583 342.482 129.279 342.663 129.021C342.934 128.658 343.364 128.393 343.495 127.96C343.646 127.451 343.31 126.899 343.414 126.374C343.556 125.954 343.837 125.593 344.212 125.351C344.726 124.888 345.31 124.508 345.943 124.225C346.965 123.842 348.104 123.983 349.188 124.133C351 124.382 353.033 124.765 354.055 126.267C354.71 127.205 355.043 128.631 354.555 129.634Z" fill="#65617D"/>
<path opacity="0.1" d="M362.935 127.183C362.911 127.777 362.838 128.439 362.373 128.811C361.969 129.067 361.488 129.179 361.01 129.129H360.906C361.064 128.332 362.044 127.876 362.214 127.068C362.244 126.82 362.221 126.568 362.148 126.329C362.074 126.089 361.952 125.868 361.789 125.677C360.96 124.57 359.628 123.957 358.303 123.509C354.562 122.239 350.554 121.943 346.663 122.647C345.605 122.817 344.576 123.13 343.604 123.578C343.282 123.777 342.971 123.994 342.674 124.229C342.442 123.841 342.294 123.409 342.241 122.961C342.242 122.514 342.398 122.082 342.682 121.735C342.998 121.365 343.385 121.06 343.82 120.839C344.255 120.617 344.731 120.483 345.219 120.444C346.194 120.369 347.176 120.42 348.138 120.597L357.672 121.953C358.408 122.057 359.148 122.16 359.872 122.336C360.559 122.454 361.208 122.736 361.761 123.156C362.9 124.091 362.993 125.735 362.935 127.183Z" fill="black"/>
<path opacity="0.1" d="M321.733 174.285C321.148 176.499 319.39 178.223 318.488 180.334C317.128 183.495 317.74 187.361 315.819 190.219C315.196 191.087 314.443 191.856 313.585 192.499C313.11 192.899 312.59 193.244 312.036 193.529C311.462 193.843 310.788 193.925 310.154 193.759C309.337 193.483 308.845 192.61 308.764 191.767C308.735 191.49 308.735 191.212 308.764 190.935L308.787 190.997C309.124 191.801 309.674 192.644 310.541 192.786C310.867 192.809 311.194 192.766 311.502 192.658C311.81 192.551 312.092 192.382 312.33 192.161C313.608 191.146 314.352 189.633 315.06 188.173C315.615 187.12 316.054 186.012 316.369 184.867C316.524 184.215 316.598 183.549 316.757 182.897C317.492 179.733 319.998 177.15 320.551 173.944C320.597 173.723 320.607 173.497 320.582 173.273C320.509 172.981 320.397 172.7 320.249 172.438C320.115 172.141 320.016 171.83 319.955 171.511C320.73 171.787 321.551 172.212 321.795 172.986C321.895 173.416 321.873 173.865 321.733 174.285Z" fill="black"/>
<path opacity="0.1" d="M315.885 168.791C315.527 169.718 314.924 170.533 314.139 171.151C313.037 171.982 311.746 172.534 310.379 172.76C309.743 172.921 309.075 172.913 308.443 172.737C307.583 172.442 306.963 171.645 306.084 171.415C305.457 171.247 304.783 171.396 304.148 171.304C303.006 171.147 302.119 170.285 301.197 169.595C298.375 167.496 294.669 166.818 291.846 164.718C291.72 164.642 291.616 164.535 291.544 164.408C291.49 164.27 291.47 164.122 291.486 163.975C291.496 162.701 291.785 161.445 292.334 160.293C292.783 159.489 293.317 158.735 293.929 158.044C296.458 154.979 298.998 151.891 302.026 149.305C303.296 148.22 304.683 147.209 306.286 146.719C307.176 146.447 308.934 146.19 310.019 146.65C309.859 146.758 309.714 146.887 309.589 147.033C309.244 147.51 308.982 148.041 308.814 148.604C307.184 152.799 302.82 154.952 299.335 157.81L296.152 160.419C295.718 160.776 295.238 161.297 295.451 161.814C295.597 162.076 295.834 162.277 296.117 162.381C297.968 163.285 300.14 163.649 301.666 165.028C302.224 165.534 302.758 166.201 303.513 166.239C303.912 166.216 304.304 166.129 304.675 165.982C305.258 165.826 305.869 165.806 306.461 165.923C307.053 166.04 307.609 166.291 308.086 166.657C308.357 166.918 308.672 167.132 309.016 167.289C309.304 167.364 309.604 167.382 309.899 167.343C310.724 167.285 311.599 167.212 312.338 167.576C313.078 167.94 313.686 168.798 314.549 168.86C314.979 168.89 315.483 168.745 315.885 168.791Z" fill="black"/>
<path d="M280.271 116.792C279.535 117.259 278.753 117.788 278.451 118.6C278.203 119.263 278.319 120.022 278.021 120.665C277.723 121.309 277.053 121.757 276.906 122.447C276.801 122.949 277.007 123.478 276.906 123.98C276.818 124.241 276.747 124.507 276.693 124.776C276.654 125.347 277.15 125.811 277.634 126.129C278.665 126.792 279.838 127.207 281.06 127.34C282.282 127.473 283.518 127.321 284.67 126.895C285.704 126.512 286.637 125.888 287.629 125.397C288.595 124.846 289.701 124.58 290.816 124.631C291.455 124.7 292.066 124.93 292.705 125.014C293.021 125.076 293.347 125.061 293.655 124.97C293.964 124.879 294.245 124.715 294.475 124.493C294.672 124.223 294.805 123.913 294.862 123.585C295.4 121.482 295.157 119.252 294.645 117.137C294.134 115.022 293.36 112.988 292.814 110.884C292.426 109.325 292.128 107.727 291.482 106.252C290.835 104.777 289.747 103.405 288.225 102.842C288.105 102.784 287.969 102.766 287.838 102.792C287.74 102.833 287.654 102.896 287.586 102.976C286.382 104.239 285.475 105.748 284.93 107.398C284.322 109.233 284.155 111.179 283.597 113.022C283.357 113.788 283.048 114.815 282.436 115.401C281.824 115.987 280.964 116.351 280.271 116.792Z" fill="#3F3D56"/>
<path opacity="0.1" d="M294.874 123.574C294.809 123.903 294.67 124.213 294.467 124.482C294.238 124.705 293.956 124.868 293.648 124.959C293.339 125.049 293.013 125.063 292.697 124.999C292.062 124.922 291.451 124.688 290.812 124.616C289.697 124.565 288.591 124.831 287.625 125.382C286.633 125.872 285.688 126.481 284.662 126.876C283.161 127.439 281.521 127.532 279.965 127.14C279.139 126.935 278.353 126.593 277.642 126.129C277.154 125.815 276.662 125.363 276.701 124.777C276.755 124.508 276.826 124.243 276.914 123.983C277.014 123.482 276.813 122.953 276.914 122.451C277.061 121.761 277.735 121.302 278.029 120.666C278.323 120.03 278.211 119.267 278.455 118.604C278.757 117.788 279.543 117.263 280.279 116.792C281.014 116.321 281.89 115.961 282.478 115.39C282.554 115.301 282.623 115.206 282.683 115.106C283.108 114.459 283.419 113.745 283.605 112.995C284.174 111.149 284.329 109.206 284.933 107.367C285.481 105.719 286.39 104.211 287.594 102.95C287.658 102.867 287.744 102.804 287.841 102.766C287.972 102.739 288.108 102.756 288.229 102.812C289.747 103.379 290.835 104.75 291.485 106.225C292.136 107.7 292.411 109.29 292.817 110.854C293.36 112.957 294.138 114.999 294.649 117.11C295.16 119.221 295.412 121.466 294.874 123.574Z" fill="black"/>
<path opacity="0.1" d="M306.39 76.8471C304.569 77.4195 302.599 77.3058 300.858 76.5278C299.116 75.7499 297.727 74.3626 296.957 72.6326C296.987 72.2736 297.039 71.9167 297.112 71.5637C297.499 69.8013 299.157 70.445 300.465 70.9124C302.041 71.4187 303.564 72.0717 305.015 72.8625C305.457 73.0879 305.842 73.4103 306.138 73.805C306.712 74.6517 306.483 75.7781 306.39 76.8471Z" fill="black"/>
<path d="M304.051 76.8242C308.329 76.8242 311.796 73.3936 311.796 69.1616C311.796 64.9297 308.329 61.499 304.051 61.499C299.774 61.499 296.307 64.9297 296.307 69.1616C296.307 73.3936 299.774 76.8242 304.051 76.8242Z" fill="#BE6F72"/>
<path opacity="0.1" d="M325.067 126.424C325.067 127.06 324.196 127.263 323.549 127.228C321.225 127.094 318.952 126.462 316.652 126.654C313.744 126.914 311.072 128.504 308.156 128.65C307.033 128.707 305.891 128.542 304.783 128.745C303.351 129.01 302.073 129.872 300.613 129.994C299.346 130.102 298.096 129.631 296.829 129.68C295.944 129.733 295.081 129.976 294.301 130.393C294.386 129.582 294.752 128.825 295.339 128.251C296.264 127.351 297.581 127.585 298.859 127.37C300.133 127.098 301.378 126.704 302.576 126.194C305.936 124.884 309.474 124.074 313.074 123.792C316.69 123.507 320.322 124.076 323.673 125.451C324.16 125.646 324.62 125.904 325.04 126.217C325.061 126.284 325.07 126.354 325.067 126.424Z" fill="black"/>
<path d="M300.469 83.1531L297.333 82.0037L296.008 81.5209C295.469 81.2972 294.901 81.1476 294.32 81.0765C292.802 80.9615 291.373 81.9615 290.564 83.2373C289.755 84.5132 289.449 86.0342 289.189 87.5169C288.833 89.5449 288.531 91.5806 288.283 93.624C288.016 95.4692 287.88 97.3307 287.876 99.1947C287.966 103.938 288.98 108.616 290.095 113.233C290.642 115.28 291.054 117.359 291.331 119.458C291.424 120.324 291.466 121.194 291.559 122.064C291.66 123.041 291.822 124.006 291.985 124.976L292.918 130.481C294.08 129.665 295.401 128.949 296.829 128.906C298.096 128.86 299.35 129.328 300.613 129.221C302.065 129.102 303.351 128.24 304.783 127.975C305.891 127.772 307.033 127.933 308.16 127.88C311.072 127.734 313.748 126.14 316.652 125.884C318.956 125.677 321.245 126.32 323.553 126.454C324.196 126.493 325.067 126.29 325.067 125.65C325.067 125.205 324.618 124.91 324.227 124.688C322.383 123.59 320.629 122.351 318.979 120.983C317.454 119.788 315.905 118.562 314.855 116.945C312.327 113.056 313.194 107.796 311.037 103.693C309.283 100.359 311.037 95.9917 311.037 92.2332C311.037 90.3597 311.037 88.4632 310.592 86.6434C310.313 85.6255 309.967 84.6272 309.554 83.655L308.048 79.8811C308.016 79.7708 307.955 79.6713 307.87 79.5938C307.768 79.5247 307.648 79.4886 307.525 79.4903C306.62 79.4367 305.728 79.7195 305.023 80.2834C304.315 80.8543 303.862 81.6742 303.165 82.268C302.402 82.9232 301.418 83.4979 300.469 83.1531Z" fill="#E3E8F4"/>
<path d="M305.53 80.9772C305.778 79.9275 306.045 78.8355 306.754 78.0156C307.463 77.1957 308.756 76.7628 309.67 77.349C310.708 78.0156 310.75 79.5558 311.637 80.414C312.412 81.1496 313.573 81.2071 314.627 81.3029C316.521 81.4734 318.381 81.9068 320.153 82.5902C320.498 82.6962 320.813 82.8828 321.07 83.1343C321.554 83.6783 321.458 84.5135 321.698 85.1917C322.027 86.0652 322.937 86.6207 323.289 87.4904C323.676 88.4559 323.289 89.5364 322.964 90.5287C322.379 92.3102 322.011 94.1607 321.442 95.95C320.873 97.7392 320.064 99.5016 318.731 100.85C318.143 101.448 317.268 102 316.493 101.643L316.195 103.77C316.108 104.219 316.108 104.68 316.195 105.13C316.24 105.355 316.348 105.562 316.507 105.729C316.666 105.896 316.869 106.015 317.093 106.072C317.151 106.402 317.504 106.559 317.79 106.739C318.002 106.882 318.183 107.065 318.322 107.278C318.461 107.491 318.557 107.729 318.603 107.978C318.648 108.228 318.644 108.484 318.589 108.731C318.534 108.979 318.429 109.213 318.282 109.421C318.038 109.746 317.678 110.003 317.562 110.39C317.388 110.949 317.802 111.54 318.305 111.846C318.809 112.153 319.401 112.294 319.912 112.589C320.974 113.195 321.543 114.386 321.907 115.543C322.178 116.417 322.402 117.363 323.068 117.999C323.324 118.24 323.63 118.424 323.874 118.677C324.296 119.171 324.54 119.79 324.567 120.436C324.673 121.237 324.495 122.049 324.064 122.735C323.289 123.83 321.845 124.156 320.579 124.65C318.522 125.485 316.83 126.98 315.018 128.252C314.28 128.84 313.41 129.244 312.481 129.432C311.227 129.596 309.991 129.049 308.729 128.999C307.974 129.006 307.222 129.103 306.491 129.29L304.167 129.788C304.291 128.006 303.3 126.221 302.746 124.524C301.701 121.328 301.507 117.911 301.755 114.562C302.003 111.214 302.692 107.911 303.374 104.624C303.85 102.325 303.803 99.923 304.535 97.6894C305.221 95.54 306.2 93.4749 306.561 91.2375C307.149 87.6169 304.702 84.548 305.53 80.9772Z" fill="#3F3D56"/>
<path d="M323.146 88.0611C323.36 88.4504 323.51 88.8706 323.592 89.3063C323.771 89.9812 324.106 90.6056 324.571 91.13C324.961 91.4699 325.307 91.856 325.601 92.2794C325.958 92.946 325.822 93.7582 325.989 94.4862C326.182 95.2793 326.744 95.9689 326.825 96.785C326.827 97.0188 326.849 97.252 326.891 97.4823C327.142 98.4094 328.521 98.6316 328.827 99.5588C329.032 100.16 328.68 100.815 328.746 101.448C328.794 101.643 328.806 101.846 328.78 102.045C328.693 102.271 328.539 102.466 328.339 102.605C327.057 103.816 326.17 105.378 325.791 107.091C325.418 108.795 325.222 110.532 325.206 112.275L323.692 110.294C323.532 110.054 323.327 109.846 323.088 109.681C322.894 109.566 322.67 109.509 322.472 109.394C321.899 109.072 321.675 108.39 321.454 107.777C320.841 106.08 319.922 104.507 318.743 103.133C318.128 102.417 317.411 101.697 317.276 100.766C317.235 100.338 317.259 99.9069 317.345 99.486C317.733 96.9765 318.147 94.4057 319.382 92.1797C319.959 91.1376 320.707 90.1951 321.26 89.1377C321.632 88.4366 322.155 86.6129 323.146 88.0611Z" fill="#3F3D56"/>
<path d="M284.945 90.4711C284.952 90.7936 284.869 91.1118 284.705 91.3906C284.557 91.5603 284.364 91.686 284.148 91.7536C283.932 91.8213 283.701 91.8282 283.481 91.7737C283.04 91.6642 282.625 91.4717 282.258 91.2067C281.178 90.5324 280.099 89.8568 279.02 89.1799C278.418 88.8207 277.837 88.4266 277.282 87.9999C276.432 87.2905 275.662 86.4928 274.985 85.6206C273.103 83.3219 271.438 80.8277 269.343 78.7243C268.774 78.1496 268.181 77.5979 267.632 76.9964C266.88 76.1269 266.189 75.2078 265.564 74.2455C264.96 73.3605 264.332 72.3797 264.437 71.3222C264.499 70.7246 264.789 70.1728 264.874 69.579C264.96 68.9851 264.731 68.261 264.15 68.1001C264.082 68.083 264.012 68.0715 263.941 68.0656C263.827 68.0536 263.714 68.0292 263.604 67.9928C263.066 67.7706 263.147 66.9469 263.535 66.514C263.922 66.081 264.495 65.8396 264.847 65.3646C265.011 65.0827 265.195 64.8125 265.397 64.5562C265.657 64.3362 265.966 64.1823 266.3 64.1079C268.533 63.4566 270.896 63.3684 273.173 63.8512C273.56 63.9355 274.002 64.0887 274.118 64.4604C274.164 64.6414 274.164 64.831 274.118 65.0121C273.947 65.7675 273.849 66.5372 273.824 67.3109C273.823 67.4722 273.832 67.6334 273.851 67.7936C274.033 69.4181 275.098 70.7935 276.135 72.0617C277.367 73.5712 278.618 75.0692 279.872 76.5634C280.551 77.4293 281.309 78.231 282.138 78.958C282.912 79.594 283.915 80.1074 284.519 80.9235C285.011 81.5825 284.852 82.4828 284.906 83.2759C285.086 85.6706 285.099 88.0747 284.945 90.4711Z" fill="#3F3D56"/>
<path d="M334.124 106.455C334.507 106.087 334.852 105.683 335.154 105.248C335.48 104.71 335.74 104.135 335.929 103.536L338.175 97.2332C338.531 96.2371 338.887 95.2371 339.336 94.2678C339.801 93.2219 340.351 92.2142 340.858 91.2028C342.163 88.541 343.172 85.7469 343.867 82.8697C343.989 82.4744 344.03 82.0588 343.987 81.6475C343.879 80.9847 343.371 80.4675 342.887 79.9962C342.401 79.4761 341.846 79.0225 341.238 78.6476C340.932 78.4597 340.592 78.3338 340.237 78.2773C339.882 78.2207 339.519 78.2346 339.17 78.3181C338.179 78.6055 337.555 79.6093 337.327 80.6169C337.098 81.6245 337.183 82.6552 337.087 83.6819C336.947 85.1532 336.436 86.5746 336.312 88.0496C336.246 88.904 336.312 89.766 336.208 90.6166C336.017 91.7335 335.623 92.807 335.046 93.7851C333.788 96.1149 332.088 98.1832 330.039 99.8768C329.478 100.287 328.973 100.767 328.536 101.306C328.172 101.845 327.926 102.453 327.812 103.091C327.555 104.064 327.667 105.095 328.126 105.992C328.757 107.057 329.969 107.524 331.127 107.762C332.691 108.083 333.052 107.555 334.124 106.455Z" fill="#BE6F72"/>
<path d="M304.098 58.0584C304.431 57.4386 304.942 56.9296 305.566 56.5951C306.19 56.2606 306.899 56.1152 307.606 56.1772C308.318 56.302 308.981 56.6215 309.518 57.0995C310.056 57.5776 310.448 58.1951 310.65 58.8821C310.832 59.453 310.905 60.0852 311.223 60.5756C311.703 61.315 312.594 61.5295 313.26 62.0659C313.658 62.4315 313.977 62.8719 314.201 63.3613C314.424 63.8508 314.547 64.3795 314.561 64.9164C314.598 66.0131 314.423 67.1067 314.046 68.1385C313.886 68.5788 313.756 69.0294 313.659 69.4872C313.581 69.9316 313.573 70.3837 313.504 70.8281C313.418 71.4044 313.216 71.9579 312.911 72.4559C312.606 72.954 312.203 73.3867 311.726 73.7284C311.591 73.838 311.421 73.8987 311.246 73.9008C310.944 73.8663 310.758 73.5177 310.646 73.2035C310.03 71.445 310.177 69.2956 309.043 67.8933C308.527 67.3277 307.903 66.8681 307.207 66.5409C306.924 66.3599 306.604 66.241 306.27 66.1922C305.779 66.2184 305.307 66.3892 304.915 66.6826C304.097 67.2251 303.191 67.6218 302.235 67.855C301.758 67.9668 301.262 67.9718 300.783 67.8697C300.304 67.7677 299.854 67.5611 299.466 67.265C298.932 66.8282 298.541 66.1731 297.948 65.8321C297.356 65.4911 296.736 65.5103 296.152 65.2766C295.779 65.1198 295.447 64.8808 295.182 64.578C294.917 64.2752 294.725 63.9165 294.621 63.5293C294.518 63.142 294.504 62.7364 294.583 62.3434C294.662 61.9504 294.83 61.5803 295.075 61.2614C295.462 60.8016 296.035 60.5411 296.38 60.0315C296.825 59.3725 296.787 58.4683 297 57.6791C297.126 57.1798 297.37 56.7173 297.713 56.3302C298.056 55.9431 298.487 55.6424 298.971 55.4531C299.44 55.2955 299.943 55.2653 300.428 55.3657C300.913 55.4661 301.362 55.6934 301.728 56.024C302.115 56.3688 302.425 56.8132 302.804 57.1734C303.179 57.5282 303.638 57.7843 304.138 57.9182C304.639 58.052 305.166 58.0594 305.67 57.9396" fill="#3F3D56"/>
<path opacity="0.1" d="M310.464 114.451C310.239 114.65 310.079 114.911 310.006 115.201C309.932 115.49 309.949 115.795 310.053 116.075C310.139 116.256 314.135 115.493 314.557 115.436C315.61 115.286 317.457 115.359 318.166 114.405C319.429 112.715 315.517 113.091 314.801 113.152C313.438 113.267 311.502 113.451 310.464 114.451Z" fill="black"/>
<path d="M274.11 65.0274C273.94 65.7828 273.841 66.5525 273.816 67.3262C272.654 67.5599 271.446 67.1768 270.331 66.7936L267.128 65.7132C266.934 65.59 266.699 65.5449 266.471 65.5868C266.244 65.6288 266.042 65.7548 265.905 65.9393C265.39 66.468 264.681 67.4718 263.969 68.0656C263.854 68.0536 263.741 68.0292 263.632 67.9928C263.093 67.7706 263.175 66.9469 263.562 66.514C263.949 66.081 264.522 65.8397 264.875 65.3646C265.039 65.0827 265.222 64.8125 265.425 64.5562C265.684 64.3362 265.994 64.1823 266.327 64.1079C268.561 63.4566 270.923 63.3684 273.2 63.8512C273.588 63.9355 274.029 64.0887 274.145 64.4604C274.183 64.6492 274.171 64.8445 274.11 65.0274Z" fill="#3F3D56"/>
<path opacity="0.1" d="M274.11 65.0274C273.94 65.7828 273.841 66.5525 273.816 67.3262C272.654 67.5599 271.446 67.1768 270.331 66.7936L267.128 65.7132C266.934 65.59 266.699 65.5449 266.471 65.5868C266.244 65.6288 266.042 65.7548 265.905 65.9393C265.39 66.468 264.681 67.4718 263.969 68.0656C263.854 68.0536 263.741 68.0292 263.632 67.9928C263.093 67.7706 263.175 66.9469 263.562 66.514C263.949 66.081 264.522 65.8397 264.875 65.3646C265.039 65.0827 265.222 64.8125 265.425 64.5562C265.684 64.3362 265.994 64.1823 266.327 64.1079C268.561 63.4566 270.923 63.3684 273.2 63.8512C273.588 63.9355 274.029 64.0887 274.145 64.4604C274.183 64.6492 274.171 64.8445 274.11 65.0274Z" fill="black"/>
<path opacity="0.1" d="M303.405 137.765C303.962 137.949 304.566 138.217 304.756 138.769L300.272 137.642L297.948 137.056C297.538 136.953 296.066 136.834 295.795 136.516C295.408 136.048 296.783 136.37 297.031 136.405C297.782 136.516 298.533 136.631 299.28 136.765C300.69 137.014 302.045 137.424 303.405 137.765Z" fill="black"/>
<path opacity="0.1" d="M305.143 141.692C304.756 141.435 303.645 141.466 303.168 141.354C302.471 141.19 301.786 140.971 301.1 140.761C299.71 140.312 298.332 139.803 296.903 139.473C296.639 139.416 295.741 139.4 295.784 139.071C295.826 138.741 296.682 138.627 296.895 138.611C298.161 138.519 299.741 139.105 300.918 139.523C302.419 140.055 303.84 140.784 305.143 141.692Z" fill="black"/>
<path opacity="0.1" d="M302.301 134.263C300.88 133.88 299.59 133.006 298.127 132.837C297.745 132.852 297.37 132.738 297.062 132.516C296.89 132.348 296.77 132.135 296.717 131.903C297.697 131.853 298.835 132.263 299.726 132.65C300.216 132.858 300.688 133.106 301.135 133.393C301.461 133.588 301.949 134.152 302.301 134.263Z" fill="black"/>
<path d="M329.392 99.9575C329.152 101.55 329.5 103.176 330.371 104.536C331.243 105.896 332.581 106.899 334.14 107.363C333.95 108.271 333.001 108.773 332.331 109.421C331.386 110.329 330.899 111.689 329.783 112.379C328.54 113.145 326.941 112.846 325.524 112.524C325.395 112.51 325.276 112.448 325.191 112.352C325.161 112.306 325.14 112.255 325.129 112.202C324.66 110.505 324.354 108.693 324.834 106.992C325.222 105.544 326.151 104.31 326.894 103.03C327.638 101.751 327.708 100.379 329.392 99.9575Z" fill="#3F3D56"/>
<path d="M294.769 77.9887C293.27 78.0966 291.815 78.5351 290.51 79.2721C289.642 79.7625 288.752 80.4215 287.76 80.3028C287.176 80.2376 286.599 79.9196 286.029 80.0729C285.709 80.2009 285.41 80.3766 285.143 80.5939C285.007 80.7007 284.846 80.7708 284.675 80.7977C284.504 80.8246 284.329 80.8072 284.167 80.7472L283.78 86.0497C283.632 88.065 283.489 90.1224 283.977 92.0878C284.229 93.0916 284.782 94.0035 284.844 95.0226C284.906 96.0417 284.813 97.0877 284.887 98.1183C284.957 99.0723 285.17 100.011 285.224 100.965C285.332 102.766 284.883 104.551 284.449 106.302C283.795 108.884 283.4 111.524 282.126 113.861C281.77 114.509 281.352 115.168 281.352 115.903C281.352 115.995 281.352 116.083 281.375 116.171C280.988 116.382 280.627 116.581 280.298 116.788C279.563 117.259 278.776 117.784 278.474 118.6C278.23 119.263 278.343 120.022 278.048 120.662C277.754 121.301 277.08 121.757 276.933 122.447C276.829 122.949 277.03 123.478 276.933 123.98C276.845 124.239 276.774 124.504 276.72 124.773C276.681 125.347 277.173 125.811 277.661 126.125C278.373 126.589 279.158 126.931 279.985 127.137L282.296 118.056C284.404 114.201 286.158 110.165 287.536 105.999C287.93 104.638 288.436 103.31 289.05 102.03C289.488 101.306 289.876 100.553 290.212 99.7773C290.564 98.8118 290.599 97.7658 290.769 96.7467C290.971 95.5572 291.276 94.387 291.679 93.2487C292.097 92.0189 292.581 90.7929 292.667 89.5017C292.794 87.655 292.117 85.7049 292.837 83.9961C293.143 83.3566 293.541 82.7642 294.018 82.2376C295.017 81.0269 295.927 79.7587 296.926 78.548C296.407 78.0001 295.544 77.9427 294.769 77.9887Z" fill="#3F3D56"/>
<g opacity="0.1">
<path opacity="0.1" d="M305.681 56.7979L305.197 56.8327L305.143 56.8714C305.324 56.8641 305.505 56.8394 305.681 56.7979Z" fill="black"/>
<path opacity="0.1" d="M314.542 64.7518C314.461 65.5135 314.294 66.264 314.046 66.9893C313.886 67.4295 313.756 67.8801 313.659 68.3379C313.581 68.7823 313.573 69.2344 313.504 69.6788C313.418 70.2551 313.216 70.8086 312.911 71.3067C312.606 71.8048 312.203 72.2374 311.726 72.5791C311.591 72.6887 311.421 72.7495 311.246 72.7516C310.944 72.7171 310.758 72.3684 310.646 72.0543C310.03 70.2957 310.177 68.1463 309.043 66.7441C308.527 66.1784 307.903 65.7188 307.207 65.3916C306.924 65.2106 306.604 65.0917 306.27 65.043C305.779 65.0691 305.307 65.2399 304.915 65.5334C304.097 66.0758 303.191 66.4726 302.235 66.7058C301.758 66.8175 301.262 66.8225 300.783 66.7205C300.304 66.6184 299.854 66.4118 299.466 66.1157C298.932 65.679 298.541 65.0238 297.948 64.6828C297.356 64.3419 296.736 64.361 296.152 64.1273C295.786 63.9729 295.461 63.7392 295.199 63.4434C294.938 63.1476 294.747 62.7973 294.641 62.4185C294.628 62.3708 294.617 62.3221 294.61 62.2729C294.514 62.7006 294.524 63.1453 294.641 63.5679C294.747 63.9467 294.938 64.2969 295.199 64.5928C295.461 64.8886 295.786 65.1223 296.152 65.2767C296.736 65.5104 297.395 65.5142 297.948 65.8322C298.502 66.1502 298.932 66.8284 299.466 67.2651C299.854 67.5612 300.304 67.7678 300.783 67.8699C301.262 67.9719 301.758 67.9669 302.235 67.8552C303.191 67.622 304.097 67.2252 304.915 66.6828C305.307 66.3893 305.779 66.2185 306.27 66.1924C306.604 66.2411 306.924 66.36 307.207 66.541C307.894 66.8746 308.509 67.338 309.016 67.905C310.15 69.3072 310.003 71.4566 310.619 73.2151C310.731 73.5331 310.917 73.878 311.219 73.9124C311.405 73.9134 311.585 73.8481 311.726 73.7285C312.205 73.3859 312.609 72.9515 312.915 72.4514C313.221 71.9512 313.423 71.3953 313.508 70.8167C313.577 70.3723 313.585 69.9202 313.663 69.4758C313.76 69.018 313.89 68.5674 314.05 68.1272C314.427 67.0953 314.602 66.0017 314.565 64.9051C314.557 64.8591 314.549 64.8054 314.542 64.7518Z" fill="black"/>
</g>
<path d="M290.041 95.4937L289.778 98.9916C289.739 99.4667 288.821 110.777 282.052 123.995C276.244 135.332 264.94 150.097 243.6 158.396C241.935 159.047 240.206 159.655 238.415 160.22L236.417 154.013C241.433 152.451 246.265 150.36 250.829 147.776C261.707 141.561 270.164 132.692 276.062 121.278C279.191 115.202 281.421 108.711 282.684 102.007H258.404V95.4937H290.041Z" fill="#0A7A22"/>
<path opacity="0.1" d="M240.986 158.4C262.323 150.101 273.63 135.339 279.435 124.003C286.204 110.785 287.125 99.4822 287.16 98.9994L287.423 95.5015H290.134L289.871 98.9994C289.836 99.4745 288.914 110.785 282.145 124.003C276.337 135.339 265.033 150.101 243.696 158.4C242.031 159.051 240.302 159.66 238.507 160.227L238.244 159.411C239.179 159.082 240.093 158.745 240.986 158.4Z" fill="white"/>
<path d="M198.266 154.013L196.268 160.22C194.473 159.653 192.744 159.043 191.079 158.392C169.742 150.094 158.435 135.332 152.63 123.995C145.861 110.777 144.939 99.4744 144.904 98.9916L144.641 95.4937H176.263V102.007H151.979C153.249 108.712 155.485 115.202 158.62 121.278C164.518 132.692 172.971 141.561 183.849 147.772C188.414 150.359 193.247 152.451 198.266 154.013Z" fill="#0A7A22"/>
<path opacity="0.1" d="M193.688 158.4C172.352 150.101 161.044 135.339 155.24 124.003C148.471 110.785 147.549 99.4822 147.514 98.9994L147.251 95.5015H144.54L144.804 98.9994C144.838 99.4745 145.76 110.785 152.529 124.003C158.338 135.339 169.641 150.101 190.978 158.4C192.643 159.051 194.373 159.66 196.167 160.227L196.43 159.411C195.498 159.082 194.584 158.745 193.688 158.4Z" fill="white"/>
<path d="M253.869 214.012V249.133H180.809V214.012L183.132 210.947C206.808 202.633 211.606 180.951 212.562 172.373C212.705 171.188 212.786 169.996 212.806 168.802H221.841C221.861 169.996 221.942 171.188 222.085 172.373C223.057 180.951 227.854 202.64 251.515 210.947L253.869 214.012Z" fill="#0A7A22"/>
<path opacity="0.1" d="M253.869 214.012H180.809V218.418H253.869V214.012Z" fill="black"/>
<path opacity="0.1" d="M187.005 210.947C210.68 202.633 215.478 180.951 216.435 172.373C216.577 171.188 216.659 169.996 216.679 168.802H212.806C212.786 169.996 212.705 171.188 212.562 172.373C211.59 180.951 206.793 202.64 183.132 210.947L180.809 214.012V249.133H184.681V214.012L187.005 210.947Z" fill="white"/>
<path opacity="0.1" d="M169.711 95.4937H176.263V102.007H170.292C170.057 99.8613 169.863 97.6903 169.711 95.4937Z" fill="black"/>
<path opacity="0.1" d="M198.266 154.013L196.268 160.22C194.473 159.653 192.744 159.044 191.079 158.392C188.339 155.083 185.919 151.527 183.849 147.772C188.414 150.359 193.247 152.451 198.266 154.013Z" fill="black"/>
<path opacity="0.1" d="M236.413 154.013C241.429 152.451 246.261 150.36 250.826 147.775C248.754 151.531 246.334 155.088 243.596 158.4C241.931 159.051 240.202 159.659 238.411 160.223L236.413 154.013Z" fill="black"/>
<path opacity="0.1" d="M264.964 95.4937C264.811 97.6903 264.618 99.8613 264.383 102.007H258.416V95.4937H264.964Z" fill="black"/>
<path opacity="0.1" d="M222.1 172.373C218.955 172.976 215.723 172.976 212.578 172.373C212.72 171.188 212.802 169.996 212.822 168.802H221.856C221.877 169.996 221.958 171.188 222.1 172.373Z" fill="black"/>
<path d="M170.485 84.7051C170.652 133.002 191.563 172.059 217.341 172.059C243.119 172.059 264.026 133.002 264.197 84.7051H170.485Z" fill="#0A7A22"/>
<path opacity="0.1" d="M178.811 84.7051H170.485C170.652 133.002 191.563 172.059 217.341 172.059C218.736 172.056 220.128 171.94 221.504 171.71C197.673 167.771 178.97 130.374 178.811 84.7051Z" fill="white"/>
<path d="M242.186 227.455H192.492V240.098H242.186V227.455Z" fill="#3F3D56"/>
<path opacity="0.1" d="M194.815 229.179H242.186V227.455H192.492V240.098H194.815V229.179Z" fill="white"/>
<path d="M143.983 131.336C143.088 131.041 137.822 126.918 137.423 125.052C137.024 123.186 140.207 105.804 140.207 105.804C140.207 105.804 139.913 105.804 139.433 105.746V105.467L140.087 82.6321C140.087 82.6321 142.771 67.307 137.702 68.1996C132.633 69.0923 135.812 82.6321 135.812 82.6321C135.812 82.6321 135.235 89.5055 134.828 91.5667C134.441 93.5552 132.668 101.655 133.876 104.172C133.92 104.261 133.969 104.348 134.023 104.432C134.023 104.432 134.224 113.072 132.036 114.252C129.949 115.374 129.082 121.026 129.008 121.531L128.896 121.485C128.273 121.1 127.726 120.605 127.281 120.026C127.235 119.968 127.2 119.907 127.157 119.846C128.582 118.26 129.35 116.201 129.308 114.079C129.265 111.958 128.416 109.93 126.929 108.401C126.237 107.691 125.426 107.105 124.532 106.67C124.506 105.938 124.331 105.218 124.017 104.555C123.01 102.425 117.434 99.6393 113.472 99.5742C111.645 99.5205 110.146 100.034 109.6 101.448C109.321 102.164 109.406 102.98 109.29 103.723C109.058 105.256 108.063 106.455 106.785 107.409C106.269 106.839 105.711 106.308 105.116 105.819C103.822 104.838 101.243 101.605 101.243 101.605C101.243 101.605 93.1927 93.356 92.5963 91.0955C92 88.835 83.9571 75.2607 82.168 77.6246C80.379 79.9886 88.329 90.2909 88.329 90.2909C88.329 90.2909 89.8392 94.0341 91.0009 95.2984C92.1626 96.5628 101.069 109.359 101.069 109.359L101.495 110.233C99.6131 111.214 97.8937 112.463 97.2858 114.409C96.3951 117.275 98.3429 120.156 99.6905 122.838C102.316 128.071 102.692 134.745 99.3033 139.527C96.2673 143.749 91.0009 145.757 86.0714 147.511C88.4521 149.361 91.4096 150.332 94.4357 150.258C93.2972 153.523 89.2622 154.603 85.8235 155.208C87.6281 156.925 90.2109 157.549 92.6893 157.929C93.9031 158.133 95.133 158.229 96.3641 158.216H96.6662L96.9682 158.193C97.388 158.165 97.8056 158.113 98.219 158.036C100.008 157.676 101.747 156.71 102.661 155.147C103.435 153.81 103.706 151.986 105.112 151.316C105.478 151.152 105.872 151.06 106.274 151.044H106.231C106.494 151.044 106.765 151.044 107.029 151.044L112.888 151.101C113.132 151.101 113.383 151.101 113.635 151.101C115.288 151.063 117.054 150.779 117.895 149.427C118.24 148.77 118.422 148.041 118.425 147.301C118.549 145.465 118.425 143.577 118.475 141.726C118.975 145.094 119.498 150.343 118.255 152.281C117.245 153.75 116.021 155.063 114.622 156.178C114.271 156.47 113.949 156.796 113.662 157.151C113.472 157.285 113.36 157.358 113.36 157.358L113.24 157.714C112.799 158.376 112.479 159.11 112.295 159.883C112.228 160.081 112.202 160.291 112.222 160.499C112.357 160.772 111.253 161.894 111.575 162.365C108.818 165.564 108.295 170.411 108.295 170.411L103.261 177.974C100.674 184.698 96.8017 185.388 96.8017 185.388C96.8017 185.388 87.7055 179.349 87.4577 179.054C87.2098 178.759 83.7324 177.284 83.7324 177.284C83.3224 176.573 82.6965 176.007 81.9434 175.668C80.7507 175.177 80.65 173.369 80.65 173.369C80.5029 169.097 77.9665 168.771 77.9665 168.771C75.9219 168.599 74.3613 168.959 73.1609 169.618L72.7969 169.645C71.0388 169.787 68.9245 169.944 66.6011 170.097C60.1381 170.518 58.6007 174.66 58.6007 174.66C58.6007 174.66 57.8069 175.545 58.8486 176.503C59.8902 177.461 66.5585 176.503 66.8411 176.48C66.3329 176.534 65.819 176.499 65.3232 176.376C66.3726 176.338 67.817 176.3 69.0484 176.3H69.3466C69.269 176.946 69.2315 177.596 69.2343 178.246C69.2343 179.472 72.6613 180.258 72.6613 180.258L83.0974 189.453C83.0974 189.453 89.6572 192.353 93.8316 196.525C98.006 200.698 101.696 197.096 101.696 197.096C106.115 196.016 118.828 180.809 118.839 180.794C118.839 181.238 119.107 196.027 119.614 198.996C119.634 199.147 119.672 199.295 119.726 199.437C120.323 200.713 119.525 204.199 119.18 205.671C118.96 206.902 118.876 208.153 118.928 209.402C118.928 209.402 114.162 227.409 114.557 228.992C114.952 230.574 111.974 237.926 111.974 237.926V244.056L112.493 244.03C112.425 244.128 112.363 244.231 112.307 244.336L112.272 244.401C112.272 244.401 115.451 245.087 117.589 244.892C119.726 244.696 123.397 246.52 123.397 246.52C123.397 246.52 124.64 247.102 128.466 247.347C132.292 247.593 132.292 245.677 132.292 245.677C131.854 243.068 125.81 242.194 125.624 242.167C125.136 241.865 124.679 241.535 124.303 241.252L124.226 241.191C124.251 241.133 124.273 241.074 124.292 241.014C124.938 238.409 121.36 237.279 121.36 237.279V236.643C123.684 235.463 124.145 227.363 124.145 227.363C124.145 227.363 127.63 217.348 128.118 215.678C128.606 214.007 128.118 211.506 128.118 211.506L128.466 209.345C128.466 209.345 129.214 207.874 129.214 207.579C129.31 206.831 129.601 206.121 130.058 205.517C130.604 204.877 129.461 203.356 129.461 203.356L130.457 200.805V198.004L132.78 187.843C132.78 187.843 135.216 176.009 134.372 172.135C133.527 168.262 135.367 166.292 135.367 166.292C135.201 166.379 135.03 166.455 134.856 166.522C135.088 165.991 135.289 165.445 135.456 164.89L140.684 165.53V165.607H142.569C142.569 165.607 141.973 158.327 141.973 155.392C141.973 152.458 143.983 141.925 143.983 141.925C143.983 141.925 144.877 131.631 143.983 131.336ZM120.776 122.838C120.776 123.125 120.749 123.424 120.729 123.731L120.625 123.888L120.431 123.727L120.195 124.091L120.125 124.125C119.614 123.865 119.351 122.374 118.983 122.696L118.932 122.738C118.851 122.646 118.77 122.619 118.685 122.696L118.607 122.761C118.607 122.65 118.607 122.535 118.607 122.42C119.316 122.601 120.044 122.692 120.776 122.692C120.779 122.742 120.776 122.792 120.776 122.838ZM138.163 156.737H138.275L138.089 157.22C138.112 157.059 138.135 156.902 138.163 156.737ZM119.076 243.62L118.363 243.443L118.75 243.378L119.11 243.612L119.153 243.643L119.076 243.62ZM126.356 242.589C126.119 242.466 125.879 242.325 125.647 242.179C125.725 242.221 126.03 242.378 126.356 242.589Z" fill="url(#paint1_linear)"/>
<path d="M140.734 149.5L136.045 161.592H137.183L132.772 165.07L140.734 166.051V149.5Z" fill="#F86D70"/>
<path opacity="0.1" d="M140.734 149.5L136.045 161.592L134.863 161.277L132.772 165.07L140.734 166.051V149.5Z" fill="black"/>
<path d="M133.38 157.235H140.734L143.433 135.263H133.38V157.235Z" fill="#F86D70"/>
<path opacity="0.1" d="M133.38 157.235H140.734L143.433 135.263H133.38V157.235Z" fill="black"/>
<path d="M119.018 140.465L120.605 140.201L124.253 139.588C124.253 139.588 135.208 137.144 137.469 136.944C138.839 136.765 140.175 136.388 141.435 135.826C142.027 135.573 142.403 135.381 142.403 135.381L138.457 128.251L132.335 123.761C132.335 123.761 128.462 122.945 126.824 120.715C126.459 120.235 126.221 119.672 126.132 119.078C126.043 118.484 126.107 117.877 126.317 117.313C127.316 114.248 120.35 120.244 120.35 120.244C120.35 120.244 120.416 121.68 120.35 123.512C120.35 123.872 120.315 124.247 120.288 124.631C120.288 124.883 120.253 125.136 120.226 125.397C120.055 127.217 119.707 129.09 119.018 130.209C117.333 132.945 119.018 140.465 119.018 140.465Z" fill="#FBBEBE"/>
<path opacity="0.1" d="M120.35 123.666H120.505C120.783 123.666 121.008 123.079 121.279 123.053C123.459 122.846 125.45 122.394 126.832 120.865C126.467 120.385 126.23 119.823 126.141 119.23C126.053 118.636 126.116 118.03 126.325 117.467C127.324 114.402 120.357 120.394 120.357 120.394C120.357 120.394 120.431 121.834 120.35 123.666Z" fill="black"/>
<path d="M111.869 114.976C111.869 116.079 112.088 117.171 112.514 118.19C112.941 119.21 113.566 120.136 114.354 120.916C115.142 121.695 116.078 122.314 117.108 122.736C118.139 123.158 119.243 123.375 120.357 123.374C120.636 123.374 120.911 123.374 121.186 123.336C122.822 123.177 124.375 122.552 125.659 121.537C126.942 120.521 127.9 119.159 128.416 117.615C128.932 116.071 128.984 114.412 128.566 112.84C128.148 111.268 127.277 109.849 126.06 108.757C124.842 107.665 123.331 106.945 121.708 106.687C120.086 106.428 118.422 106.641 116.92 107.299C115.417 107.958 114.14 109.034 113.243 110.396C112.347 111.759 111.869 113.35 111.869 114.976Z" fill="#FBBEBE"/>
<path d="M109.263 102.229C108.984 102.942 109.069 103.739 108.957 104.494C108.543 107.218 105.743 108.85 103.21 109.992C100.678 111.133 97.8201 112.486 97.0146 115.118C96.1317 117.965 98.0601 120.819 99.4 123.489C102.01 128.692 102.382 135.328 99.0127 140.087C96.0194 144.301 90.8033 146.301 85.8931 148.056C88.2563 149.895 91.1934 150.862 94.1994 150.791C93.0725 154.036 89.0646 155.113 85.6492 155.711C87.4421 157.419 90.0095 158.04 92.4684 158.415C94.2613 158.691 96.1007 158.871 97.8898 158.515C99.6788 158.159 101.375 157.197 102.297 155.642C103.071 154.312 103.334 152.5 104.732 151.829C105.363 151.584 106.043 151.485 106.719 151.542L112.527 151.603C114.336 151.603 116.477 151.465 117.41 149.937C117.755 149.284 117.935 148.558 117.937 147.822C118.189 144.052 117.457 140.067 119.025 136.627C119.498 135.589 116.466 133.945 116.783 132.845C117.875 129.064 118.15 126.087 118.138 122.152C118.138 119.106 120.14 116.482 121.794 113.911C123.447 111.34 124.83 108.095 123.525 105.337C122.053 102.26 111.002 97.789 109.263 102.229Z" fill="#3F3D56"/>
<path d="M116.996 242.516L118.475 243.485L118.704 243.635L118.746 243.662L120.501 244.811L124.598 245.493L128.199 245.248C128.199 245.248 129.237 243.102 127.606 243.152C127.084 243.126 126.575 242.98 126.119 242.727L125.895 242.616C125.659 242.493 125.422 242.355 125.19 242.21C124.706 241.907 124.249 241.577 123.881 241.298C123.339 240.884 122.979 240.57 122.979 240.57L116.996 242.516Z" fill="#FBBEBE"/>
<path opacity="0.1" d="M118.495 243.485L118.723 243.635L118.766 243.661L120.52 244.811L124.617 245.493L128.218 245.248C128.218 245.248 129.256 243.102 127.626 243.152C127.104 243.125 126.595 242.98 126.139 242.727C126.425 242.949 126.665 243.19 126.689 243.393C126.754 243.941 124.024 244.926 124.024 244.926L120.175 243.918C120.175 243.918 119.521 243.734 118.626 243.504L118.541 243.481L118.495 243.485Z" fill="black"/>
<path d="M111.912 244.42C111.912 244.42 115.068 245.102 117.19 244.907C119.312 244.711 122.967 246.52 122.967 246.52C122.967 246.52 124.203 247.095 128.001 247.34C131.8 247.585 131.8 245.677 131.8 245.677C131.367 243.083 125.364 242.229 125.179 242.19C125.252 242.229 125.566 242.386 125.883 242.597C126.309 242.872 126.77 243.233 126.805 243.524C126.871 244.068 124.141 245.056 124.141 245.056L120.292 244.052C120.292 244.052 119.637 243.865 118.743 243.635H118.657C117.331 243.277 115.983 243.002 114.622 242.811C112.965 242.635 112.117 244.029 111.943 244.344C111.93 244.368 111.92 244.394 111.912 244.42Z" fill="#3F3D56"/>
<path d="M62.1671 175.522L63.8439 176.794C63.8439 176.794 64.3318 176.771 65.0598 176.748H65.2921C66.3338 176.71 67.7704 176.672 68.9902 176.672C69.7788 176.637 70.5689 176.68 71.3485 176.802C72.185 177.093 73.672 172.066 73.672 172.066L71.9913 171.683L71.4337 171.553L71.0465 171.461L69.6795 171.143L65.5361 171.61L62.6241 173.465L62.1671 175.522Z" fill="#FBBEBE"/>
<path opacity="0.1" d="M62.1671 175.522L63.8439 176.794C63.8439 176.794 64.3318 176.771 65.0598 176.748C64.7257 176.621 64.4503 176.377 64.2853 176.062C63.201 173.086 68.5798 171.814 68.5798 171.814L71.0852 171.706L71.5731 171.683H71.9604L71.4027 171.553L71.0155 171.461L69.6485 171.143L65.5051 171.61L62.5931 173.465L62.1671 175.522Z" fill="black"/>
<path d="M58.8601 176.867C59.8747 177.794 66.5197 176.867 66.7985 176.844C66.2942 176.9 65.7837 176.865 65.2921 176.741C65.0487 176.697 64.8181 176.601 64.6172 176.459C64.4162 176.316 64.2499 176.131 64.1304 175.917C63.0461 172.936 68.4249 171.668 68.4249 171.668L70.9303 171.561L71.4144 171.538L77.5056 171.277L77.7999 169.618C77.7999 169.618 75.8211 169.802 72.7155 170.047C70.969 170.189 68.8431 170.346 66.5468 170.496C60.1303 170.917 58.6045 175.036 58.6045 175.036C58.6045 175.036 57.8262 175.917 58.8601 176.867Z" fill="#3F3D56"/>
<path d="M133.384 104.953C133.425 105.044 133.474 105.131 133.531 105.214L135.01 107.359L138.859 107.742L138.902 106.233L139.549 83.5208C139.549 83.5208 142.213 68.2875 137.179 69.1649C132.145 70.0423 135.305 83.5208 135.305 83.5208C135.305 83.5208 134.731 90.3558 134.329 92.4094C133.938 94.394 132.183 102.463 133.384 104.953Z" fill="#FBBEBE"/>
<path d="M124.745 161.365L125.841 163.219L128.292 167.369C128.292 167.369 132.737 168.982 133.876 167.752C134.499 167.081 135.173 164.74 135.645 162.771C136.033 161.177 136.292 159.833 136.292 159.833L124.745 161.365Z" fill="#FBBEBE"/>
<path opacity="0.1" d="M124.745 161.365L125.841 163.22C125.909 163.161 125.972 163.096 126.027 163.024C127.266 161.461 132.722 162.691 135.645 162.791C136.033 161.197 136.292 159.852 136.292 159.852L124.745 161.365Z" fill="black"/>
<path opacity="0.1" d="M68.9902 176.664C69.7788 176.629 70.5688 176.672 71.3485 176.794C72.1849 177.085 73.6719 172.059 73.6719 172.059L71.4337 171.538L77.525 171.277L77.8193 169.618C77.8193 169.618 75.8405 169.802 72.7348 170.047C72.0931 170.413 71.5205 170.886 71.0426 171.446L70.9497 171.561C69.6524 173.135 69.1722 175.166 68.9902 176.664Z" fill="black"/>
<path opacity="0.1" d="M116.996 242.516L118.704 243.635C121.252 243.179 123.579 242.463 123.854 241.336C123.855 241.318 123.855 241.301 123.854 241.283C123.312 240.869 122.952 240.555 122.952 240.555L116.996 242.516Z" fill="black"/>
<path opacity="0.1" d="M111.947 244.355C114.197 244.245 116.439 244.007 118.661 243.643C117.334 243.282 115.985 243.005 114.622 242.811C112.969 242.635 112.121 244.03 111.947 244.355Z" fill="black"/>
<path d="M69.1762 178.599C69.1762 179.821 72.58 180.603 72.58 180.603L82.9463 189.733C82.9463 189.733 89.4597 192.614 93.6031 196.763C97.7466 200.912 101.402 197.349 101.402 197.349C105.793 196.276 118.441 181.139 118.441 181.139C118.441 181.139 118.735 198.426 119.327 199.694C119.92 200.962 119.13 204.429 118.785 205.897C118.568 207.121 118.485 208.364 118.537 209.606C118.537 209.606 113.801 227.525 114.196 229.088C114.591 230.651 111.629 237.976 111.629 237.976V244.08C111.629 244.08 123.227 243.639 123.866 241.053C124.505 238.467 120.958 237.34 120.958 237.34V236.704C123.281 235.532 123.719 227.479 123.719 227.479C123.719 227.479 127.177 217.517 127.668 215.858C128.16 214.199 127.668 211.705 127.668 211.705L128.013 209.56C128.013 209.56 128.753 208.092 128.753 207.801C128.849 207.057 129.139 206.351 129.593 205.751C130.135 205.115 129.001 203.602 129.001 203.602L129.988 201.062V198.28L132.311 188.173C132.311 188.173 134.732 176.403 133.891 172.545C133.051 168.687 134.879 166.737 134.879 166.737C130.917 168.791 128.919 164.22 128.265 162.254C128.098 161.749 128.017 161.412 128.017 161.412C128.017 161.412 122.576 159.427 117.511 159.902C116.482 159.985 115.469 160.197 114.495 160.534C108.868 162.538 107.981 170.837 107.981 170.837L102.998 178.357C100.43 185.047 96.581 185.729 96.581 185.729C96.581 185.729 87.5506 179.725 87.2873 179.43C87.0239 179.135 83.5853 177.672 83.5853 177.672C83.1787 176.964 82.5567 176.4 81.8078 176.062C80.6229 175.572 80.5261 173.764 80.5261 173.764C80.3789 169.515 77.8619 169.166 77.8619 169.166C69.1258 168.446 69.1762 177.38 69.1762 178.599Z" fill="#3F3D56"/>
<path d="M119.416 154.726H124.745V138.37H119.416V154.726Z" fill="#F86D70"/>
<path opacity="0.1" d="M119.416 154.726H124.745V138.37H119.416V154.726Z" fill="black"/>
<path opacity="0.1" d="M133.38 104.919C133.379 104.93 133.379 104.942 133.38 104.953C133.421 105.044 133.471 105.132 133.527 105.214L135.007 107.359L138.856 107.743L138.898 106.233C137.698 106.141 134.964 105.815 133.38 104.919Z" fill="black"/>
<path d="M133.531 105.214C133.531 105.214 133.729 113.804 131.556 114.976C129.384 116.148 128.54 122.255 128.54 122.255C128.54 122.255 135.123 126.539 136.59 128.424C138.058 130.309 141.427 134.799 140.734 135.872C140.041 136.945 142.414 141.83 142.414 141.83C142.414 141.83 138.069 150.619 139.057 153.94C140.044 157.262 140.141 166.047 140.141 166.047H142.019C142.019 166.047 141.427 158.821 141.427 155.89C141.427 152.96 143.398 142.512 143.398 142.512C143.398 142.512 144.289 132.259 143.398 131.968C142.507 131.677 137.28 127.573 136.885 125.715C136.49 123.857 139.649 106.559 139.649 106.559C139.649 106.559 135.603 106.386 133.531 105.214Z" fill="#F86D70"/>
<path opacity="0.1" d="M119.316 136.853C119.496 138.048 119.936 139.191 120.605 140.201L124.253 139.588C124.253 139.588 135.208 137.144 137.47 136.945C138.839 136.766 140.175 136.389 141.435 135.826C140.567 132.783 138.873 130.033 136.536 127.876L135.146 126.6C133.098 124.719 130.723 123.217 128.137 122.167C128.3 122.302 139.793 132.01 137.276 133.914C134.759 135.818 127.982 131.183 127.982 131.183L120.276 124.631L119.997 124.393L119.552 125.079C119.779 125.171 120 125.276 120.214 125.393C122.841 126.82 124.79 129.216 125.636 132.06C127.219 137.328 119.316 136.853 119.316 136.853Z" fill="black"/>
<path d="M116.946 161.266C116.946 161.266 124.249 165.27 126.023 163.025C126.41 162.53 127.227 162.316 128.246 162.258C128.079 161.753 127.998 161.416 127.998 161.416C127.998 161.416 122.557 159.431 117.492 159.906C117.159 160.734 116.946 161.266 116.946 161.266Z" fill="#444053"/>
<path d="M120.307 124.401L128.292 131.198C128.292 131.198 135.042 135.849 137.586 133.93C140.13 132.01 128.443 122.179 128.443 122.179C131.024 123.232 133.395 124.729 135.448 126.601L136.838 127.876C140.494 131.229 141.319 131.229 141.443 136.156C141.474 137.37 141.055 139.114 140.734 139.428C139.549 140.577 138.72 148.926 138.902 149.903C139.084 150.879 136.695 159.312 137.47 161.657C138.244 164.002 127.789 160.485 126.019 162.734C124.249 164.982 116.946 160.975 116.946 160.975C116.946 160.975 120.993 150.719 121.98 150.037C122.967 149.355 124.152 144.079 121.98 141.638C119.808 139.198 119.614 136.853 119.614 136.853C119.614 136.853 127.514 137.336 125.93 132.068C125.484 130.541 124.711 129.127 123.663 127.922C122.616 126.718 121.318 125.751 119.858 125.087L120.307 124.401Z" fill="#E8E8F0"/>
<path opacity="0.1" d="M130.964 141.688C130.964 141.688 127.901 147.4 123.939 148.883C123.812 148.929 123.688 148.971 123.552 149.01C119.416 150.255 131.274 143.458 130.964 141.688Z" fill="black"/>
<path d="M88.1275 91.1489C88.1275 91.1489 89.6068 94.8614 90.7917 96.1296C91.9766 97.3978 100.759 110.095 100.759 110.095L101.503 111.627L102.142 112.934L107.768 112.347L108.155 110.102L107.939 109.842C107.373 109.171 105.832 107.371 104.798 106.585C103.516 105.612 100.949 102.39 100.949 102.39C100.949 102.39 92.9564 94.1833 92.3639 91.9382C91.7714 89.693 83.775 76.2298 82.0014 78.5593C80.2279 80.8887 88.1275 91.1489 88.1275 91.1489Z" fill="#FBBEBE"/>
<g opacity="0.1">
<path opacity="0.1" d="M104.454 151.542C103.778 151.484 103.098 151.581 102.467 151.826C101.073 152.496 100.81 154.308 100.035 155.638C99.1291 157.193 97.402 158.155 95.6246 158.511C95.2713 158.579 94.9145 158.628 94.5558 158.657C95.6878 158.766 96.8297 158.717 97.948 158.511C99.7254 158.155 101.452 157.193 102.359 155.638C103.133 154.308 103.396 152.496 104.79 151.826C105.157 151.663 105.551 151.572 105.952 151.557L104.454 151.542Z" fill="black"/>
<path opacity="0.1" d="M118.208 122.152C118.208 119.107 120.21 116.482 121.86 113.911C123.51 111.341 124.896 108.095 123.591 105.337C122.476 102.981 115.753 99.8198 111.873 100.444C115.672 100.931 120.354 103.406 121.267 105.337C122.572 108.095 121.186 111.341 119.536 113.911C117.887 116.482 115.877 119.107 115.885 122.152C115.885 126.083 115.618 129.049 114.526 132.846C114.212 133.938 117.236 135.589 116.772 136.623C115.199 140.071 115.935 144.048 115.683 147.818C115.678 148.555 115.496 149.28 115.153 149.933C114.378 151.194 112.791 151.519 111.246 151.588H112.597C114.402 151.588 116.543 151.45 117.476 149.922C117.82 149.268 118.002 148.543 118.007 147.807C118.259 144.037 117.523 140.056 119.095 136.612C119.567 135.577 116.535 133.93 116.849 132.834C117.941 129.064 118.216 126.083 118.208 122.152Z" fill="black"/>
</g>
<path opacity="0.1" d="M101.503 111.62L102.142 112.926L107.768 112.34L108.156 110.095L107.939 109.834C107.339 110.126 102.843 112.267 101.503 111.62Z" fill="black"/>
<path opacity="0.1" d="M122.278 126.305C122.278 126.305 120.896 124.16 120.106 124.742C119.316 125.325 119.01 122.984 118.557 123.374C118.104 123.765 116.783 124.853 116.233 123.332C115.803 122.122 111.126 114.463 109.228 111.383C108.74 110.586 108.434 110.095 108.434 110.095C108.434 110.095 103.106 112.731 101.824 111.854V113.708L102.908 113.808L108.717 124.535C108.717 124.535 110.545 127.413 110.421 128.416C110.297 129.42 112.764 133.815 113.159 134.106C113.554 134.397 117.806 139.282 117.806 139.282C117.806 139.282 119.978 149.83 118.1 152.761C116.222 155.692 112.969 157.837 112.969 157.837C112.969 157.837 111.989 160.668 112.132 160.963C112.276 161.258 110.994 162.527 111.586 162.917C112.179 163.308 112.969 166.04 112.969 166.04C112.969 166.04 115.734 161.645 117.229 160.963C118.723 160.281 120.636 151.293 120.636 151.293C120.636 151.293 121.182 145.998 121.225 142.581C121.267 139.163 121.093 126.305 122.278 126.305Z" fill="black"/>
<path d="M121.98 126.305C121.98 126.305 120.601 124.16 119.811 124.742C119.021 125.325 118.712 122.984 118.262 123.374C117.813 123.765 116.493 124.853 115.939 123.332C115.505 122.122 110.827 114.463 108.934 111.383L108.14 110.095C108.14 110.095 102.812 112.731 101.526 111.854V113.708L102.614 113.808L108.423 124.535C108.423 124.535 110.254 127.413 110.127 128.416C109.999 129.42 112.45 133.815 112.864 134.106C113.279 134.397 117.511 139.282 117.511 139.282C117.511 139.282 119.684 149.83 117.809 152.761C116.819 154.233 115.615 155.552 114.235 156.676C113.076 157.622 112.261 158.916 111.912 160.362C111.844 160.559 111.821 160.768 111.842 160.975C111.985 161.266 110.704 162.538 111.296 162.929C111.888 163.32 112.686 166.063 112.686 166.063C112.686 166.063 115.451 161.668 116.946 160.986C118.441 160.304 120.357 151.316 120.357 151.316C120.357 151.316 120.9 146.021 120.946 142.604C120.992 139.186 120.818 126.305 121.98 126.305Z" fill="#F86D70"/>
<path opacity="0.1" d="M108.458 170.741C108.458 170.741 112.605 171.507 114.266 172.691C115.928 173.875 107.95 170.837 107.95 170.837L108.458 170.741Z" fill="black"/>
<path opacity="0.1" d="M118.429 181.139C118.429 181.139 122.754 184.706 121.98 187.928C121.205 191.15 119.207 199.257 119.207 199.257L118.429 181.139Z" fill="black"/>
<path opacity="0.1" d="M80.5998 174.28C80.5998 174.28 74.5046 174.939 74.8996 175.721C75.2946 176.502 80.5998 175.001 80.5998 175.001V174.28Z" fill="black"/>
<path opacity="0.1" d="M127.401 203.943C127.401 203.943 127.788 204.429 125.527 203.943C123.265 203.456 124.934 201.954 124.934 201.954L127.401 203.943Z" fill="black"/>
<path opacity="0.1" d="M126.627 210.682C126.627 210.682 123.529 211.168 121.867 210.682C120.206 210.195 126.627 210.682 126.627 210.682Z" fill="black"/>
<path opacity="0.1" d="M120.253 237.049C120.253 237.049 119.711 236.463 116.996 237.536C114.282 238.608 113.197 238.658 112.407 238.302C111.617 237.946 120.253 237.049 120.253 237.049Z" fill="black"/>
<path opacity="0.1" d="M123.266 173.449L119.416 178.748C119.416 178.748 121.488 174.108 123.266 173.449Z" fill="black"/>
<path opacity="0.1" d="M115.784 124.742C115.784 124.742 115.618 126.5 113.136 127.186C110.653 127.872 110.181 128.427 110.181 128.427" fill="black"/>
<path opacity="0.1" d="M109.333 111.996C109.333 111.996 106.057 114.294 102.637 113.808L109.333 111.996Z" fill="black"/>
<path opacity="0.1" d="M111.827 161.216C111.827 161.216 112.783 161.81 115.079 159.212L111.827 161.216Z" fill="black"/>
<path opacity="0.1" d="M135.677 133.673C135.77 133.198 135.437 132.757 135.123 132.385L134.48 131.619C134.354 131.462 134.213 131.318 134.058 131.19C133.671 130.895 133.175 130.807 132.772 130.542" fill="black"/>
<path opacity="0.1" d="M343.592 0.109875C343.592 0.109875 310.991 -1.83642 314.824 20.7682C314.824 20.7682 314.05 24.7643 317.721 26.5765C317.721 26.5765 317.779 24.9022 321.067 25.4731C322.237 25.665 323.426 25.7216 324.61 25.6417C326.209 25.5324 327.729 24.9111 328.939 23.8716C328.939 23.8716 338.105 20.1246 341.668 5.30512C341.668 5.30512 344.305 2.0715 344.2 1.24011L338.698 3.56571C338.698 3.56571 340.58 7.49279 339.085 10.7571C339.085 10.7571 338.907 3.70747 337.85 3.86072C337.637 3.8952 334.992 5.22083 334.992 5.22083C334.992 5.22083 338.225 12.0597 335.786 17.0327C335.786 17.0327 336.711 8.60387 333.981 5.71507L330.109 7.95255C330.109 7.95255 333.888 15.0175 331.325 20.7836C331.325 20.7836 331.983 11.9409 329.292 8.49659L325.783 11.2053C325.783 11.2053 329.334 18.1706 327.17 22.9521C327.17 22.9521 326.887 12.6574 325.024 11.8796C325.024 11.8796 321.953 14.5615 321.485 15.6573C321.485 15.6573 323.917 20.7146 322.407 23.3812C322.407 23.3812 321.481 16.5232 320.722 16.4849C320.722 16.4849 317.663 21.0288 317.345 24.1475C317.345 24.1475 317.477 19.5154 319.982 16.0557C319.982 16.0557 317.024 16.5576 315.297 18.4541C315.297 18.4541 315.773 15.2435 320.738 14.9638C320.738 14.9638 323.266 11.5157 323.94 11.3049C323.94 11.3049 319.007 10.8988 316.013 12.2091C316.013 12.2091 318.646 9.17856 324.846 10.5578L328.312 7.75715C328.312 7.75715 321.814 6.87978 319.057 7.8491C319.057 7.8491 322.228 5.16719 329.245 7.12115L333.017 4.89134C333.017 4.89134 327.475 3.7113 324.176 4.12508C324.176 4.12508 327.661 2.2669 334.124 4.28216L336.835 3.08296C336.835 3.08296 332.777 2.29372 331.588 2.16728C330.399 2.04085 330.337 1.71902 330.337 1.71902C332.908 1.29484 335.548 1.58532 337.962 2.55808C337.962 2.55808 343.693 0.466186 343.592 0.109875Z" fill="#0A7A22"/>
<path opacity="0.1" d="M303.381 5.86039C303.381 5.86039 288.666 4.97919 290.39 15.1934C290.39 15.1934 290.045 17.0018 291.695 17.8217C291.695 17.8217 291.722 17.0554 293.209 17.3198C293.737 17.4078 294.274 17.4335 294.808 17.3964C295.531 17.3478 296.217 17.0666 296.764 16.5957C296.764 16.5957 300.907 14.9061 302.518 8.20898C302.518 8.20898 303.707 6.74542 303.66 6.36995L301.174 7.41973C301.174 7.41973 302.026 9.19745 301.356 10.6725C301.356 10.6725 301.275 7.48486 300.799 7.56149C300.702 7.56149 299.505 8.17449 299.505 8.17449C299.505 8.17449 300.969 11.2664 299.865 13.5153C299.865 13.5153 300.284 9.70702 299.048 8.40054L297.298 9.41201C297.298 9.41201 299.01 12.6035 297.848 15.2088C297.848 15.2088 298.146 11.2127 296.93 9.65721L295.346 10.8947C295.346 10.8947 296.949 14.044 295.974 16.2011C295.974 16.2011 295.846 11.5499 295.002 11.2012C295.002 11.2012 293.615 12.4119 293.402 12.91C293.402 12.91 294.502 15.2088 293.821 16.3965C293.821 16.3965 293.402 13.2969 293.046 13.2855C293.046 13.2855 291.667 15.339 291.52 16.7336C291.589 15.4321 292 14.1709 292.713 13.0747C291.915 13.2242 291.179 13.6011 290.595 14.159C290.595 14.159 290.812 12.7108 293.054 12.5805C293.054 12.5805 294.216 11.025 294.502 10.9292C294.502 10.9292 292.272 10.7453 290.92 11.3391C290.92 11.3391 292.109 9.96754 294.913 10.5729L296.461 9.30856C296.461 9.30856 293.526 8.92543 292.279 9.3507C292.279 9.3507 293.712 8.14001 296.884 9.02121L298.587 8.01358C298.587 8.01358 296.086 7.4772 294.591 7.67259C294.591 7.67259 296.167 6.82971 299.087 7.74156L300.307 7.20134C300.307 7.20134 298.471 6.8412 297.933 6.78756C297.395 6.73393 297.368 6.58451 297.368 6.58451C298.53 6.39317 299.723 6.52584 300.814 6.96764C300.814 6.96764 303.428 6.0213 303.381 5.86039Z" fill="#0A7A22"/>
<path d="M354.783 249.394C363.383 249.394 370.354 248.227 370.354 246.788C370.354 245.35 363.383 244.183 354.783 244.183C346.184 244.183 339.213 245.35 339.213 246.788C339.213 248.227 346.184 249.394 354.783 249.394Z" fill="#0A7A22"/>
<path d="M361.223 242.528C361.934 241.955 362.451 241.181 362.706 240.309C362.9 239.432 362.52 238.394 361.668 238.053C360.716 237.693 359.697 238.348 358.927 239.007C358.156 239.666 357.269 240.42 356.262 240.279C356.781 239.812 357.169 239.221 357.389 238.563C357.609 237.904 357.653 237.2 357.517 236.52C357.473 236.238 357.353 235.973 357.169 235.754C356.638 235.195 355.682 235.432 355.047 235.873C353.033 237.275 352.471 239.984 352.46 242.416C352.258 241.539 352.429 240.623 352.425 239.735C352.421 238.846 352.169 237.819 351.399 237.348C350.924 237.095 350.389 236.97 349.85 236.988C348.948 236.953 347.937 237.045 347.321 237.7C346.547 238.512 346.752 239.876 347.418 240.765C348.084 241.654 349.102 242.225 350.04 242.842C350.789 243.284 351.429 243.888 351.91 244.608C351.968 244.709 352.015 244.815 352.049 244.926H357.726C358.996 244.286 360.172 243.48 361.223 242.528Z" fill="#0A7A22"/>
</g>
<defs>
<linearGradient id="paint0_linear" x1="313.086" y1="193.521" x2="313.086" y2="39.388" gradientUnits="userSpaceOnUse">
<stop stop-color="#808080" stop-opacity="0.25"/>
<stop offset="0.54" stop-color="#808080" stop-opacity="0.12"/>
<stop offset="1" stop-color="#808080" stop-opacity="0.1"/>
</linearGradient>
<linearGradient id="paint1_linear" x1="15432" y1="96006.6" x2="34558.2" y2="96006.6" gradientUnits="userSpaceOnUse">
<stop stop-color="#808080" stop-opacity="0.25"/>
<stop offset="0.54" stop-color="#808080" stop-opacity="0.12"/>
<stop offset="1" stop-color="#808080" stop-opacity="0.1"/>
</linearGradient>
<clipPath id="clip0">
<rect width="443" height="250" fill="white" transform="translate(0 0.0678711)"/>
</clipPath>
</defs>
</svg>
