<svg width="184" height="94" viewBox="0 0 184 94" fill="none" xmlns="http://www.w3.org/2000/svg">
<path d="M42.9288 9.03859C42.8626 8.51684 42.7288 8.00586 42.5306 7.51849C42.4795 7.33213 42.3522 7.17578 42.1798 7.08765C42.0659 7.0581 41.9464 7.05676 41.8318 7.08376L40.0448 7.35644C39.8952 7.36325 39.752 7.41874 39.6371 7.51442C39.4043 7.75852 39.6335 8.15157 39.6264 8.48832C39.6184 8.86699 39.281 9.17436 38.9151 9.27606C38.5417 9.35131 38.1564 9.34654 37.7849 9.26208L35.2862 8.87485C36.0221 8.64055 36.6771 8.20465 37.1765 7.61689C37.5053 7.22842 37.6803 6.50317 37.2051 6.31922C37.0639 6.28057 36.9166 6.26879 36.7711 6.28446C35.639 6.29324 34.7481 5.35063 33.6882 4.95363C32.2968 4.46609 30.7487 4.9263 29.8521 6.09405L31.1832 6.15805C31.3084 6.15116 31.4326 6.18419 31.5377 6.25235C31.8295 6.49137 31.4668 6.95046 31.5079 7.32473C31.5613 7.81099 32.2087 7.91482 32.6967 7.96399C33.1848 8.01316 33.8039 8.40859 33.5692 8.8381C31.1162 9.68067 28.62 7.19105 26.0439 7.49751C25.3919 7.57508 24.7762 7.83051 24.1396 7.99112C20.251 8.97228 16.2309 6.35445 12.2584 6.90886C11.3753 7.059 10.5073 7.28727 9.6648 7.59099C9.12414 7.76802 8.5602 7.95933 8.16736 8.3699C7.77453 8.78046 7.62501 9.4826 7.99717 9.9119C6.97142 9.99614 5.93881 9.89825 4.94735 9.6228C5.49347 9.92554 5.83034 10.5014 5.82579 11.1245C4.2242 11.3849 2.66502 11.859 1.19019 12.534C1.46545 12.9905 1.78695 13.4176 2.14964 13.8086L0.12207 15.1076C0.807081 15.2797 1.16125 16.2112 0.762891 16.793C1.47317 16.4779 1.91337 15.6627 2.67289 15.4974C3.17048 15.3892 3.67679 15.5922 4.14883 15.7828C4.62087 15.9735 5.13969 16.1584 5.62835 16.0153C6.11701 15.8722 6.47745 15.2403 6.16693 14.8378C8.2556 14.23 10.4142 13.8937 12.5892 13.8372C12.757 13.8162 12.9272 13.8484 13.0756 13.9292C13.3587 14.1251 13.2842 14.5482 13.269 14.8915C13.2537 15.2348 13.5221 15.686 13.8297 15.5313C13.4677 15.8443 13.7772 16.4336 14.1245 16.7628C14.4718 17.0919 14.8904 17.5461 14.6778 17.9743C14.6223 18.0861 14.5281 18.1755 14.4748 18.2883C14.3171 18.6211 14.5674 19.0092 14.8625 19.2302C15.1577 19.4513 15.5192 19.6058 15.7243 19.9119C15.9293 20.218 15.8362 20.7537 15.4696 20.7965L14.4275 19.4771C14.0714 19.8452 13.8274 20.3065 13.7235 20.8074C14.8286 21.7082 14.9948 23.5418 14.0697 24.6256C13.5969 25.1795 12.9246 25.5161 12.3378 25.9481C11.751 26.3801 11.2081 26.9953 11.2096 27.7227C11.2121 28.9793 11.1091 30.1467 11.5813 31.3118C12.4521 33.46 13.4573 35.5516 14.5912 37.574C14.889 38.1051 15.2738 38.6872 15.8771 38.7786C15.1147 36.9279 14.4285 35.0484 13.8183 33.14C14.2157 33.1416 14.675 33.173 14.9079 33.4941C15.1009 33.76 15.0594 34.1215 15.1194 34.4442C15.1956 34.7568 15.3227 35.0549 15.4957 35.3265L19.1361 41.7932C19.4379 42.3293 19.7841 42.9047 20.3608 43.1218C20.7296 43.2606 21.1562 43.2344 21.4956 43.4343C21.7617 43.5909 21.9409 43.869 22.2121 44.0165C22.979 44.4337 24.0454 43.6336 24.762 44.1317C24.9669 44.2741 25.0973 44.5004 25.2861 44.6634C25.948 45.235 27.0338 44.8526 27.7979 45.279C28.2903 45.5539 28.5455 46.1035 28.8082 46.6015C29.4661 47.8492 30.5307 49.0714 31.9407 49.1708C32.3836 49.202 32.836 49.1182 33.269 49.2165C33.7019 49.3147 34.1281 49.6915 34.0586 50.1288C33.9395 50.8786 34.3109 51.6996 34.2112 52.4521C34.0295 53.8229 32.0797 54.4253 31.9122 55.798C31.8755 56.0985 31.9329 56.4087 31.8611 56.7029C31.7732 57.0634 31.5017 57.357 31.4052 57.7153C31.2224 58.3944 31.7103 59.0703 32.2463 59.5272C32.7823 59.9841 33.4216 60.3781 33.7146 61.0177C34.0244 61.6937 33.8722 62.4819 33.973 63.2184C34.1929 64.8261 35.5853 66.0179 37.0184 66.7864C37.455 67.0205 37.9238 67.2472 38.2064 67.6534C38.5752 68.1835 38.5385 68.8824 38.6616 69.5159C38.9633 71.0672 40.2729 72.3455 40.3101 73.9253C40.3365 75.0482 39.7106 76.0669 39.3367 77.1264C38.6274 79.1805 38.8506 81.4409 39.948 83.3176C40.2277 83.7886 40.5622 84.2327 40.7601 84.7432C41.1132 85.6544 40.9986 86.6901 41.3242 87.6114C41.7546 88.8295 42.9372 89.8355 42.824 91.122C43.361 92.2339 44.5466 92.7803 45.7389 93.1112L47.8756 93.7043C48.2847 93.8179 48.7123 93.9324 49.1289 93.8502C49.5455 93.7679 49.9431 93.423 49.9323 92.9996C48.8845 92.7639 47.803 92.5133 46.9393 91.8766C46.0755 91.2398 45.4838 90.1059 45.8116 89.0858C45.9635 88.6128 46.2868 88.0666 45.9794 87.6758C45.8035 87.452 45.4816 87.3935 45.2831 87.1893C44.9735 86.8709 45.0799 86.3359 45.3025 85.9518C45.5251 85.5678 45.8468 85.2246 45.9366 84.7902C46.0294 84.2925 45.8022 83.7896 45.3669 83.5292C45.7631 83.38 46.1234 83.1495 46.4245 82.8525C46.7026 82.5357 46.8311 82.0474 46.6123 81.6874C47.262 81.7695 48.0291 81.8098 48.4556 81.3141C48.7962 80.9184 48.7728 80.3267 48.6382 79.8227C48.5036 79.3187 48.2762 78.8292 48.2691 78.3077C49.7678 78.3786 51.2699 78.3278 52.7604 78.1558C52.5449 77.432 52.0551 76.8203 51.3949 76.4504C52.07 76.3365 52.6849 75.5306 52.8982 74.8818C53.1115 74.233 53.0571 73.5263 52.9253 72.8563C52.8747 72.6839 52.8677 72.5015 52.9051 72.3257C52.9811 72.0841 53.2191 71.9367 53.4393 71.8106L56.79 69.8916C56.99 69.7917 57.1712 69.6582 57.3258 69.4971C57.6769 69.0859 57.6249 68.4651 57.4451 67.9557C57.2654 67.4463 56.9774 66.9672 56.9082 66.4316C56.7011 64.8297 58.4207 63.6803 59.001 62.1724C59.2287 61.5807 59.2751 60.9374 59.3192 60.3051C59.3665 59.626 59.3701 58.8371 58.8472 58.3995C58.3459 57.9799 57.5627 58.0735 57.0382 57.6833C56.5573 57.3255 56.3914 56.6307 55.8661 56.3417C55.389 56.0793 54.7908 56.2462 54.2602 56.1227C53.326 55.9054 52.7381 54.8317 51.7839 54.7322C51.2456 54.6761 50.6363 54.9386 50.1951 54.6259C49.8063 54.3505 49.7908 53.7967 49.7168 53.3269C49.4511 51.8313 48.2794 50.659 46.7805 50.3893C46.2254 50.3006 45.6213 50.3343 45.1491 50.0301C44.6709 49.7221 44.4517 49.1454 44.0761 48.7189C43.4708 48.0314 42.5175 47.7871 41.6244 47.5778L37.9918 46.7262C37.3469 46.575 36.5157 46.4948 36.1697 47.0581C36.0672 47.2726 35.9947 47.5 35.9541 47.7341C35.6881 48.6029 34.8907 49.2015 33.9799 49.216C33.6754 48.6982 33.1822 48.3176 32.6031 48.1537C32.2348 48.0513 31.8405 48.04 31.4892 47.8893C31.1025 47.7011 30.8106 47.3624 30.6822 46.9529C30.5537 46.5434 30.6 46.0992 30.8102 45.7248C31.2408 44.9603 31.1044 44.003 30.4774 43.3884C29.8596 42.8353 28.966 42.7017 28.1377 42.757C27.9207 42.285 28.2835 41.7523 28.6744 41.4093C29.0653 41.0662 29.5399 40.729 29.6251 40.2167C29.759 39.4108 28.7279 38.7988 27.9451 39.039C27.1622 39.2793 26.6625 40.0376 26.3322 40.7851C26.1427 41.214 25.9816 41.6656 25.6827 42.0272C25.3838 42.3888 24.9024 42.6478 24.447 42.5317C23.8024 42.3674 23.5535 41.6037 23.4108 40.9556C23.2194 40.0861 23.0269 39.2046 23.067 38.3153C23.1071 37.426 23.4077 36.5129 24.0653 35.9108C25.1368 34.9298 26.7807 35.026 28.2268 35.1825C27.8852 34.7986 27.9696 34.1516 28.3352 33.7903C28.727 33.4431 29.2653 33.3113 29.7738 33.4378C30.2096 33.5283 30.6021 33.7624 30.8883 34.1023C31.2993 34.602 31.4161 35.2766 31.7268 35.8438C32.0374 36.4109 32.7358 36.8946 33.3075 36.5904C33.8013 36.3276 33.8797 35.6447 33.7568 35.1002C33.6339 34.5556 33.3729 34.0261 33.4174 33.4697C33.5024 32.4081 34.6059 31.769 35.5798 31.3318C36.5537 30.8945 37.6688 30.3065 37.8231 29.2526C37.8284 29.0463 37.8674 28.8422 37.9386 28.6484C38.0466 28.4772 38.1967 28.3364 38.3747 28.2395C41.2169 26.3663 44.1064 24.4703 47.3549 23.4468C47.5239 23.3936 47.5438 23.4528 47.716 23.411C47.9571 23.2721 47.7974 22.8878 47.5662 22.7329C47.3351 22.5781 47.0262 22.4594 46.9676 22.1879C46.9245 21.9884 47.0424 21.7925 47.073 21.5907C47.1482 21.0948 46.5533 20.637 46.0914 20.8352C45.8304 20.4906 46.3468 20.0901 46.7643 19.9755C48.018 19.6314 49.3049 19.4218 50.6032 19.3501C50.7531 19.3264 50.9066 19.3524 51.0401 19.4242C51.2581 19.5749 51.2303 19.9203 51.0757 20.1354C50.9212 20.3504 50.6808 20.4854 50.4882 20.6673C50.0593 21.084 49.8989 21.7042 50.0722 22.2758C50.75 22.6196 51.4869 22.9735 52.2376 22.8524C52.9883 22.7313 53.6545 21.8902 53.3017 21.2184C52.9731 20.5929 51.9861 20.4518 51.8164 19.7662C51.6177 18.9635 52.7571 18.2495 52.5005 17.4633C52.388 17.1189 52.0439 16.9163 51.7798 16.6676C51.1414 16.0437 50.9532 15.0926 51.306 14.2736C50.4331 14.4267 49.54 14.148 48.9104 13.526C48.3374 12.9493 47.8803 12.0397 47.0666 12.0655C46.32 12.0891 45.6768 12.9578 44.9786 12.6928C44.8069 12.6276 44.6258 12.4949 44.4594 12.5726C44.3488 12.6442 44.2774 12.7624 44.2657 12.8933C44.0882 13.7392 44.3934 14.7031 43.9311 15.434C43.428 16.2295 42.2643 16.3398 41.6544 17.0571C41.3233 17.4464 41.195 17.9711 40.8907 18.3816C40.5864 18.7922 39.9405 19.0532 39.5753 18.6954C39.9449 17.9376 39.7406 17.0257 39.0827 16.4968C38.7437 16.2762 38.3782 16.0989 37.9948 15.9691C37.5664 15.7883 37.1589 15.5618 36.7794 15.2936C36.5893 15.1792 36.4348 15.0144 36.3332 14.8175C36.2529 14.571 36.2637 14.3039 36.3637 14.0646C36.7411 12.9855 37.687 12.2038 38.8203 12.0341C39.3066 11.9682 39.8725 11.9914 40.1943 11.6219C40.3646 11.4264 40.4539 11.1309 40.7011 11.0515C40.8592 11.0198 41.0233 11.04 41.169 11.1089L42.984 11.746C43.1865 11.8372 43.4094 11.8739 43.6305 11.8526C43.858 11.8221 44.0233 11.6217 44.0096 11.3932C43.9516 11.0927 43.4878 10.9484 43.53 10.6453C43.5536 10.547 43.6066 10.4582 43.6819 10.3906C45.0081 8.98295 46.8956 8.23967 48.8284 8.36391C49.0575 8.73911 48.6952 9.1834 48.3937 9.5037C48.0923 9.82399 47.85 10.3963 48.2146 10.6428C48.364 10.7189 48.5302 10.7562 48.6979 10.7514C49.1447 10.8117 49.579 10.943 49.9841 11.1404C50.6113 11.4126 51.2265 11.7104 51.8296 12.0338C51.7763 11.6373 51.7254 11.2195 51.8762 10.8487C52.0269 10.4779 52.4553 10.1871 52.8294 10.3315C53.19 10.4707 53.375 10.9468 53.7591 10.9904C54.2716 11.0486 54.4738 10.2936 54.2597 9.82569C54.0457 9.35772 53.6219 8.96588 53.5865 8.45274C53.5627 8.10656 53.6948 7.67721 53.4175 7.46759C53.3188 7.40465 53.2068 7.36548 53.0903 7.35318L46.1665 6.0826C45.7553 6.00715 45.1613 6.06498 45.1431 6.48148C45.1329 6.71397 45.3411 6.94397 45.2489 7.15772C45.1505 7.38586 44.8271 7.36501 44.5915 7.4457C44.226 7.5709 44.0426 8.00368 44.0777 8.38745C44.142 8.7688 44.2901 9.13123 44.5114 9.44875C44.0611 9.26093 43.3792 9.22641 42.9288 9.03859Z" fill="#E4E7EB"/>
<path d="M37.0049 3.04766C36.0835 2.74043 35.0697 3.04632 34.4675 3.81328C34.3501 3.96909 34.2514 4.18388 34.3498 4.3526C34.4907 4.59448 34.8499 4.49894 35.1148 4.41242C35.504 4.2723 35.9277 4.26212 36.3231 4.38337C36.5718 4.4694 36.7943 4.62143 37.044 4.7042C37.2918 4.8086 37.5765 4.76668 37.7842 4.59521C37.9556 4.41908 37.9664 4.14524 37.9667 3.89856C37.9908 3.73139 37.9387 3.5622 37.825 3.43808C37.725 3.37974 37.6127 3.34626 37.4973 3.34042C37.2389 3.29223 37.0053 3.15469 36.8367 2.95153" fill="#E4E7EB"/>
<path d="M39.8749 2.93027C39.6497 2.92281 39.4344 2.98728 39.3068 3.10037C39.1792 3.21346 39.1577 3.35883 39.2501 3.48394C39.5902 3.54034 39.9455 3.55443 40.2947 3.52536C40.6509 3.49173 40.9389 3.33114 41.0248 3.11823C40.6137 3.16374 40.1894 3.11446 39.8347 2.98" fill="#E4E7EB"/>
<path d="M48.2228 1.24166C47.423 1.41474 46.6461 1.68337 45.9082 2.04197C46.6223 2.32138 47.0732 3.04305 47.0189 3.81984C46.9877 3.9651 46.9913 4.11587 47.0294 4.25941C47.1144 4.46917 47.3608 4.54788 47.5773 4.60172C47.9664 4.72224 48.3727 4.77502 48.779 4.75784C49.1919 4.73585 49.5661 4.50314 49.7737 4.13914C49.8326 3.96909 49.9017 3.80287 49.9805 3.64143C50.4996 2.83676 52.0417 3.80973 52.599 3.032C52.7953 2.75803 52.7774 2.34564 53.0333 2.12855C53.1657 2.03396 53.3191 1.97437 53.4797 1.95512C54.6005 1.72847 55.7326 1.56436 56.871 1.46351C57.4104 1.41573 58.1134 1.2186 58.1179 0.667523C56.0862 0.261387 53.9797 0.54984 52.1257 1.48804C51.4578 1.82858 50.5743 2.54491 49.9309 2.09344C49.69 1.9244 49.7019 1.46922 49.3703 1.27914C49.0313 1.0848 48.5826 1.16384 48.2228 1.24166Z" fill="#E4E7EB"/>
<path d="M54.7944 2.58958L55.7553 2.77433C55.3975 2.75847 55.0502 2.89756 54.8021 3.15607C54.554 3.41458 54.4292 3.76746 54.4596 4.12457C55.3594 4.42537 56.3404 4.13266 57.2883 4.17264C58.2362 4.21263 59.3391 4.89014 59.1772 5.82555C59.1283 6.10839 58.965 6.39103 59.0499 6.66521C59.1095 6.85738 59.2788 6.99374 59.3744 7.17073C59.5736 7.53954 59.4144 8.00603 59.1629 8.34129C58.9113 8.67655 58.5732 8.94405 58.3524 9.30034C57.8032 10.1865 58.1152 11.3321 58.4424 12.3221C58.537 12.6961 58.7116 13.0452 58.9543 13.345C59.439 13.8607 60.2288 13.9055 60.9362 13.9159C61.451 13.9234 62.0408 13.8979 62.3663 13.4988C62.7914 12.9777 62.4942 12.1647 62.774 11.5531C63.0282 10.9976 63.6757 10.7593 64.2624 10.5903C65.3372 10.2807 66.4325 10.0175 67.4486 9.54984C68.7104 8.96911 69.8896 8.06412 71.2764 7.98937C71.6655 7.9684 72.0642 8.01434 72.439 7.90767C72.8137 7.80101 73.1698 7.47679 73.1414 7.08794C73.1171 6.75571 72.8362 6.51174 72.6167 6.26128C72.3972 6.01082 72.2248 5.62569 72.4266 5.36071L76.0616 4.68132C75.8039 3.97867 75.6032 3.05326 76.1953 2.59589C76.4089 2.43087 76.695 2.36492 76.8769 2.16542C77.1869 1.82539 77.031 1.23967 76.6731 0.9505C76.3153 0.661329 75.8314 0.5942 75.373 0.5561C73.7791 0.423645 72.1761 0.51117 70.5791 0.598762C67.4574 0.769984 64.3356 0.941206 61.2139 1.11243C60.5855 1.1469 59.8599 1.09424 59.2836 1.30877C58.7956 1.49039 58.4487 1.82378 57.8906 1.94091C56.8604 2.15715 55.7267 2.01082 54.7944 2.58958Z" fill="#E4E7EB"/>
<path d="M72.546 10.3456C72.4494 10.3301 72.3507 10.3528 72.2701 10.409C72.2169 10.4684 72.1852 10.5445 72.1803 10.6246C72.1191 10.9783 72.192 11.3424 72.3844 11.6439C72.584 11.9452 72.9292 12.1129 73.2859 12.082C73.7127 12.0268 74.0273 11.6577 74.4197 11.4776C75.0244 11.2003 77.5929 10.768 75.8162 9.79516C75.2039 9.45989 74.8082 9.75585 74.3257 9.97665C73.7766 10.2613 73.1613 10.3889 72.546 10.3456Z" fill="#E4E7EB"/>
<path d="M87.9785 2.31751C87.7657 2.40228 87.5877 2.55336 87.4722 2.74717C87.3618 2.95157 87.4351 3.20452 87.639 3.32227C87.7185 3.35037 87.8027 3.3634 87.8873 3.36066L88.7525 3.38586C89.1201 3.39657 89.5793 3.4729 89.6781 3.81826C89.7514 4.07471 89.5872 4.40424 89.7853 4.5875C89.8703 4.65168 89.9725 4.69055 90.0797 4.69943C90.3647 4.77082 90.6624 4.78019 90.9515 4.72687C91.5811 4.56223 91.2503 4.1876 91.4486 3.85401C91.752 3.34361 91.6995 3.65258 92.234 3.36006C92.6288 3.14403 93.139 2.75215 92.8095 2.20155C92.2364 1.24406 88.8241 1.90618 87.9785 2.31751Z" fill="#E4E7EB"/>
<path d="M105.439 1.81424L104.922 1.88809C103.757 2.05461 102.585 2.22268 101.463 2.59742C101.949 2.80312 102.458 2.93706 102.978 2.99555C103.264 3.01057 103.548 3.05381 103.826 3.12475C104.322 3.28278 104.822 3.69088 105.301 3.48183C105.597 3.35221 105.694 3.0211 105.94 2.84562C106.11 2.72445 106.754 2.52833 106.826 2.40603C107.409 1.41732 105.886 1.75028 105.439 1.81424Z" fill="#E4E7EB"/>
<path d="M107.389 4.0173C106.732 4.40165 106.122 4.86868 105.573 5.40798C105.342 5.63525 105.105 5.91792 105.126 6.24902C105.154 6.68909 105.603 6.94435 105.991 7.1163L107.565 7.81277C107.755 7.53149 107.581 7.14323 107.383 6.86682C107.186 6.59041 106.952 6.27061 107.039 5.93799C107.138 5.55842 107.581 5.42907 107.952 5.36368C108.557 5.25714 110.189 5.26568 109.993 4.24662C109.762 3.04587 107.996 3.66251 107.389 4.0173Z" fill="#E4E7EB"/>
<path d="M107.069 70.0431C106.913 70.4837 106.898 71.0028 107.169 71.3875C107.473 71.8192 108.081 71.9801 108.608 71.8706C109.132 71.7351 109.599 71.4432 109.944 71.036C110.259 70.6949 110.518 70.3087 110.712 69.891C110.983 69.2401 111.174 68.5604 111.282 67.866L111.793 65.2598C111.907 64.6773 111.902 62.8916 110.801 63.4734C110.5 63.6323 109.803 64.8873 109.487 65.2431C108.919 65.8845 108.843 66.5069 108.544 67.2839C108.169 68.2571 107.416 69.0683 107.069 70.0431Z" fill="#E4E7EB"/>
<path d="M163.992 83.417C163.653 83.2685 163.325 83.0928 163.009 82.8911C162.692 83.8699 162.524 84.9016 162.511 85.9431L164.827 84.4702C165.175 84.2486 165.57 83.9407 165.563 83.4909C165.569 83.3778 165.52 83.2697 165.435 83.2092C165.383 83.186 165.327 83.1786 165.272 83.1878C164.929 83.22 164.616 83.4099 164.292 83.542C163.968 83.674 163.589 83.7438 163.292 83.5478" fill="#E4E7EB"/>
<path d="M176.611 84.3216C176.359 84.3917 176.112 84.4819 175.874 84.5916C175.347 84.8655 174.988 85.3857 174.513 85.7465C174.059 86.0917 173.513 86.2812 172.976 86.4655C172.818 86.608 172.891 86.8949 173.062 87.02C173.246 87.127 173.458 87.1755 173.669 87.1593C174.226 87.1718 174.814 87.1773 175.302 86.9024C175.577 86.7202 175.835 86.5116 176.071 86.2794C176.642 85.7931 177.328 85.4722 178.006 85.1621C178.253 85.0669 178.482 84.9275 178.681 84.7504C179.107 84.3215 179.137 83.6597 178.522 83.5137C178.025 83.3957 177.084 84.1653 176.611 84.3216Z" fill="#E4E7EB"/>
<path d="M182.369 80.9214C182.429 80.29 182.199 79.6659 181.747 79.2285C181.741 79.852 181.722 80.5163 181.377 81.0318C181.131 81.3992 180.746 81.6474 180.477 81.9973C180.207 82.3472 180.088 82.9019 180.404 83.2089C180.606 83.3651 180.851 83.4512 181.105 83.4545C181.734 83.5298 182.462 83.5717 182.903 83.1099C183.144 82.8579 183.261 82.4846 183.554 82.2993C183.664 82.2526 183.761 82.1816 183.84 82.0914C183.961 81.8955 183.769 81.6374 183.552 81.5668C183.335 81.4962 183.096 81.5294 182.878 81.4624C182.66 81.3953 182.46 81.1463 182.572 80.9447" fill="#E4E7EB"/>
<path d="M172.136 58.6873C171.814 58.7648 171.48 58.7843 171.151 58.7448C170.605 58.6454 170.18 58.238 169.739 57.9038C168.69 57.1139 167.415 56.6732 166.097 56.6452C164.898 56.6228 163.688 56.9441 162.511 56.7199C162.588 57.1432 162.954 57.4607 163.344 57.6494C163.735 57.8381 164.166 57.933 164.559 58.1179C165.187 58.4168 165.686 58.93 165.963 59.5632C166.09 59.8551 166.169 60.1728 166.361 60.4277C166.752 60.9487 167.494 61.0631 168.149 61.0205C169.002 60.965 169.894 60.7221 170.688 61.0367C171.296 61.2774 171.731 61.8035 172.238 62.2125C172.745 62.6216 173.46 62.9252 174.042 62.63C172.8 62.2323 171.964 61.0819 171.978 59.7907C172.55 59.8426 174.195 59.8225 174.106 58.8622C174.031 58.0483 172.627 58.5995 172.136 58.6873Z" fill="#E4E7EB"/>
<path d="M164.519 64.9941C164.622 64.4296 165.183 63.9312 165.008 63.3848C164.887 63.007 164.45 62.8204 164.055 62.8111C163.659 62.8018 163.27 62.92 162.874 62.9311C162.617 62.9174 162.359 62.9211 162.102 62.9421C161.316 63.0715 160.832 63.8968 160.092 64.1903C159.641 64.3687 159.136 64.3346 158.668 64.458C157.605 64.738 156.933 65.7445 156.19 66.5561C154.99 67.8615 153.426 68.7756 151.702 69.1799C151.097 69.3202 150.448 69.4099 149.968 69.8032C149.332 70.3241 149.175 71.2171 149.034 72.0281C148.643 74.2677 148.045 76.4661 147.249 78.5951L149.772 78.918C150.252 78.9794 150.749 79.0395 151.211 78.897C151.547 78.77 151.865 78.6002 152.158 78.3916C153.282 77.6922 154.539 77.2371 155.85 77.0558C156.51 76.9649 157.203 76.9482 157.823 77.1944C158.443 77.4406 158.975 77.9989 159.027 78.6655C159.574 78.4951 160.169 78.6403 160.577 79.0432C160.972 79.4467 161.23 79.9645 161.316 80.5233C161.383 80.8694 161.449 81.284 161.77 81.4291C162.031 81.5476 162.331 81.42 162.617 81.3971C163.587 81.3193 164.392 82.4532 165.345 82.2579C166.368 82.0485 166.619 80.5133 167.616 80.2058C168.189 80.0291 168.993 80.2439 169.267 79.7097C169.509 79.2387 169.027 78.6953 169.077 78.168C169.138 77.5188 169.902 77.2432 170.491 76.9662C172.521 76.0111 173.485 73.2715 172.501 71.251C171.918 70.0539 170.771 69.1115 170.559 67.7964C170.396 66.7846 170.794 65.6047 170.15 64.8082C169.823 64.4031 169.269 64.1794 169.074 63.696C168.951 63.3917 169.001 63.0464 168.935 62.725C168.869 62.4035 168.589 62.0672 168.272 62.1506C167.353 62.3924 167.06 65.239 166.567 65.9306C165.819 66.982 164.283 66.2894 164.519 64.9941Z" fill="#E4E7EB"/>
<path d="M147.942 59.8096C147.629 59.7206 147.286 59.6329 146.986 59.7601C146.686 59.8873 146.511 60.3339 146.752 60.5555C148.637 60.4811 150.533 60.4072 152.402 60.6666C154.555 60.9655 156.686 61.7057 158.848 61.488C157.613 61.1186 156.357 60.8234 155.088 60.6037L152.971 60.1938C152.403 60.0733 151.829 59.9834 151.251 59.9246C150.044 59.8235 149.129 60.147 147.942 59.8096Z" fill="#E4E7EB"/>
<path d="M149.669 52.7493C149.512 52.7366 149.318 52.7256 149.237 52.8564C149.159 52.9814 149.248 53.1466 149.206 53.2868C149.149 53.4783 148.891 53.5272 148.687 53.5011C148.483 53.475 148.263 53.4126 148.083 53.5079C147.895 53.6324 147.814 53.8624 147.885 54.0724C147.958 54.2753 148.078 54.4598 148.234 54.6126C148.501 54.9388 148.805 55.2347 149.14 55.4946C149.79 55.9596 150.669 56.1837 151.078 56.8587C151.136 56.9895 151.225 57.1053 151.337 57.1967C151.534 57.3173 151.79 57.2255 152.001 57.1318L152.742 56.8034C152.875 56.7567 152.995 56.6781 153.088 56.5748C153.258 56.352 153.154 56.0351 153.012 55.7951C152.87 55.555 152.688 55.3066 152.718 55.0313C152.772 54.5406 153.423 54.3529 153.69 53.933C153.96 53.5098 153.784 52.9645 153.815 52.4679C153.852 51.8871 154.228 51.1317 153.623 50.6977C153.108 50.329 152.617 50.6697 152.248 51.0768C151.469 51.9354 151.101 52.8652 149.669 52.7493Z" fill="#E4E7EB"/>
<path d="M154.093 43.7924C154.333 44.2919 154.832 44.5901 155.093 45.0766C155.376 45.604 155.344 46.2853 155.651 46.7965C155.966 47.3209 156.6 47.5993 156.777 48.1958C156.969 48.847 156.532 49.6385 156.881 50.2075C157.012 50.3956 157.21 50.5149 157.426 50.5365C157.642 50.5582 157.857 50.4801 158.018 50.3213C158.323 49.9585 158.308 49.3961 157.983 49.0536C157.777 48.8484 157.48 48.7597 157.308 48.52C157.218 48.3817 157.158 48.223 157.133 48.0558C157.039 47.5736 157.054 47.0737 157.176 46.5993C157.223 46.4789 157.234 46.3461 157.21 46.2183C157.132 45.9724 156.827 45.955 156.612 45.8409C156.125 45.5818 156.137 44.8328 156.222 44.2495C156.166 44.6378 154.896 43.9774 154.763 43.7574C154.499 43.3204 154.643 42.4775 154.591 41.9946C154.02 42.294 153.801 43.1815 154.093 43.7924Z" fill="#E4E7EB"/>
<path d="M140.569 51.5861C140.314 51.3172 139.93 51.036 139.588 51.1981C139.327 51.3218 139.255 51.6617 139.357 51.9193C139.482 52.1696 139.674 52.3849 139.914 52.5439C140.627 53.0973 141.394 53.5967 142.016 54.2399C143.129 55.3911 143.718 56.9444 144.929 58.0049C145.172 58.2508 145.494 58.4149 145.846 58.4721C146.198 58.503 146.594 58.2905 146.635 57.9594C146.668 57.6866 146.466 57.4424 146.269 57.2403C145.798 56.7589 145.284 56.3159 144.84 55.8129C144.635 55.6197 144.506 55.3665 144.475 55.095C144.473 54.8242 144.735 54.5407 145.014 54.6078C144.675 54.5262 144.423 53.9946 143.926 53.8947C143.51 53.8111 143.409 54.0535 142.914 53.8537C141.971 53.4726 141.23 52.2826 140.569 51.5861Z" fill="#E4E7EB"/>
<path d="M162.03 24.6221C161.759 24.5425 161.492 24.4485 161.23 24.3404C160.528 24.1323 159.598 24.6418 159.691 25.3595C159.754 25.8364 160.204 26.1579 160.452 26.5716C160.821 27.185 160.723 27.9631 160.529 28.6501C160.481 28.8628 160.391 29.0639 160.263 29.2414C160.084 29.4289 159.87 29.5806 159.633 29.6882C158.684 30.2131 157.847 30.9144 157.169 31.7533C157.095 31.8307 157.043 31.9263 157.02 32.03C156.986 32.2723 157.233 32.4488 157.373 32.651C157.683 33.0999 157.459 33.7041 157.489 34.2466C157.48 34.4025 157.553 34.5522 157.682 34.6424C157.869 34.736 158.091 34.5769 158.192 34.3959C158.528 33.795 158.275 32.8305 158.906 32.5408C159.025 32.486 159.17 32.4629 159.249 32.3595C159.376 32.1955 159.254 31.9526 159.318 31.7566C159.414 31.4622 159.822 31.449 160.135 31.4621C160.675 31.4843 161.214 31.4135 161.729 31.2528C161.931 31.2054 162.115 31.1007 162.257 30.9515C162.446 30.7193 162.429 30.3893 162.391 30.0942C162.202 28.6229 161.73 27.2009 160.999 25.9048C161.553 25.9747 162.156 26.0351 162.634 25.7503C162.902 25.5908 163.223 25.1138 163.09 24.7892C162.88 24.2758 162.501 24.7079 162.03 24.6221Z" fill="#E4E7EB"/>
<path d="M93.6097 32.3229C93.6739 32.6656 93.7371 33.0265 93.6241 33.3565C93.5112 33.6866 93.156 33.9623 92.8205 33.8612C92.5602 33.7827 92.4098 33.5224 92.225 33.3239C91.197 32.22 88.8776 32.8591 88.2426 31.4935C87.9834 30.9361 88.1595 30.2684 87.9827 29.68C87.7534 28.9806 87.0775 28.5239 86.3393 28.5695C86.0119 28.6166 85.6933 28.7112 85.3936 28.8503C83.3857 29.6502 81.2778 30.1745 79.1277 30.4091C78.7192 30.4338 78.315 30.507 77.9238 30.627C77.041 30.9453 76.4378 31.7594 76.0085 32.5901C75.5792 33.4208 75.2623 34.3201 74.6868 35.0581C74.082 35.8337 73.2344 36.3769 72.4437 36.9644C72.1392 37.1596 71.8856 37.424 71.7038 37.7357C71.5324 38.0857 71.5421 38.4928 71.5554 38.8819L71.7169 43.6076C71.7377 44.2155 71.7638 44.845 72.0373 45.389C72.3789 46.0683 73.0536 46.5131 73.5217 47.1132C73.9994 47.7298 74.2482 48.4917 74.2261 49.2698C74.2161 49.5827 74.1849 49.9527 74.4298 50.1492C74.5788 50.2453 74.7532 50.2952 74.9308 50.2925L81.3577 50.8157C82.4883 50.9077 83.7412 51.059 84.4793 51.9157C84.8277 52.3201 85.1075 52.9015 85.6411 52.9449C85.87 52.9635 86.0927 52.8701 86.3216 52.852C86.8991 52.8065 87.4065 53.2425 87.7267 53.7228C88.2113 54.4547 88.4313 55.3288 88.3505 56.2016C88.298 56.7494 88.1272 57.2819 88.0904 57.831C87.9503 59.9203 89.731 61.7355 89.7655 63.8291C89.7858 65.0606 89.1981 66.2112 88.625 67.303C89.5499 68.6966 88.7926 70.5523 89.1608 72.1814C89.5101 73.727 90.8058 74.937 91.1286 76.4883C91.2764 77.1985 91.285 78.0724 91.9146 78.4382C92.1908 78.5721 92.4971 78.6331 92.8039 78.6153C94.6546 78.6371 96.4842 78.2228 98.143 77.4064C98.9215 77.0221 99.7284 76.4484 99.8643 75.5946C99.974 74.9061 99.6229 74.1359 99.9802 73.5362C100.401 72.8293 101.48 72.8853 102.099 72.3418C103.105 71.4602 102.321 69.7787 102.728 68.5088C103.094 67.3673 104.354 66.7608 104.979 65.7363C105.225 65.2957 105.401 64.8202 105.502 64.3264C105.788 63.1462 105.966 61.9426 106.034 60.7305C106.051 59.994 106.105 59.2588 106.197 58.5279C106.871 54.3666 111.007 51.5801 112.35 47.5825C112.478 47.2007 112.538 46.6922 112.197 46.4761C111.994 46.38 111.765 46.3561 111.547 46.4084L108.584 46.78C108.216 46.8261 107.826 46.8692 107.488 46.7172C107.15 46.5652 106.908 46.14 107.087 45.817C107.59 44.9104 106.555 43.7648 106.095 42.8357C104.857 40.334 103.382 37.9551 101.691 35.7311C101.583 35.6167 101.515 35.4703 101.498 35.3141L102.339 35.342C102.055 34.3289 101.586 33.2204 100.597 32.8498C100.039 32.641 99.4218 32.7132 98.8269 32.7455C97.1229 32.8381 95.2961 32.5822 93.6097 32.3229Z" fill="#E4E7EB"/>
<path d="M98.2768 9.82799C98.7232 10.3015 99.2234 10.8035 99.8692 10.886C101.01 11.0318 101.83 9.8535 102.352 8.83003C102.392 9.37257 102.858 9.78457 103.402 9.75942C103.683 9.7121 103.952 9.60715 104.191 9.45116C106.451 8.21742 108.983 7.56373 111.558 7.54881C111.507 7.14517 111.769 6.76807 112.166 6.67513C112.689 6.57143 113.161 7.02367 113.414 7.49344C113.666 7.96322 113.824 8.50773 114.225 8.85936C114.626 9.21099 115.403 9.19567 115.562 8.68647C115.714 8.19761 115.204 7.78072 114.781 7.49251C114.357 7.2043 113.911 6.67086 114.196 6.24554C116.36 5.76705 118.537 5.28675 120.752 5.19164C121.129 5.20475 121.504 5.14011 121.855 5.00175C122.193 4.83622 122.461 4.46047 122.371 4.09584C121.382 4.32792 120.351 3.93958 119.763 3.11328C122.835 2.86001 126.103 2.64414 128.826 4.08829C129.153 4.78899 127.488 5.37196 127.933 6.00395C128.075 6.20551 128.36 6.22915 128.607 6.23373C130.499 6.26882 132.402 6.30323 134.273 6.01787C134.957 5.91358 135.647 5.76637 136.334 5.85093C137.477 5.99178 138.455 6.75379 139.58 7.00224C140.038 7.10336 140.551 7.10679 140.937 6.8408C141.323 6.57482 141.489 5.96918 141.172 5.6234C142.231 4.58659 143.989 4.84356 145.386 5.33993C146.783 5.83631 148.107 6.6368 149.586 6.74744C150.646 6.82678 151.721 6.54187 152.769 6.72296C153.427 6.83677 154.04 7.12937 154.684 7.30913C155.901 7.64912 157.188 7.57735 158.452 7.59372C161.676 7.63711 164.866 8.27011 167.862 9.46138C168.251 9.58813 168.608 9.79888 168.908 10.0787C169.186 10.3769 169.329 10.8403 169.141 11.2028L166.045 10.751C166.337 11.3246 167.092 11.4223 167.705 11.6202C168.317 11.8181 168.953 12.4941 168.584 13.0219C167.92 12.8107 167.319 13.4738 166.983 14.084C166.648 14.6941 166.239 15.4248 165.543 15.462C164.92 15.4953 164.167 14.9653 163.76 15.4385C164.322 16.1456 164.802 16.9129 165.193 17.7263C165.594 18.5614 165.88 19.6136 165.338 20.3649C165.252 20.499 165.123 20.5993 164.972 20.6484C164.529 20.7604 164.241 20.2191 163.923 19.8911C163.523 19.4777 162.918 19.3606 162.376 19.1667C161.834 18.9728 161.263 18.5914 161.22 18.0178C161.194 17.661 161.382 17.3292 161.521 16.9994C161.755 16.4435 161.857 15.8413 161.82 15.2395C161.789 14.7554 161.653 14.2518 161.305 13.9136C160.957 13.5753 160.356 13.468 159.983 13.7778C159.808 13.9224 159.669 14.1536 159.442 14.1623C159.042 14.1775 158.735 13.4809 158.413 13.7187C158.451 13.9721 158.398 14.2307 158.265 14.4493C157.304 15.2836 155.829 14.9307 154.59 15.2254C154.002 15.3937 153.438 15.6396 152.914 15.9566C152.718 16.0403 152.552 16.1801 152.435 16.3584C152.281 16.6584 152.451 17.0426 152.723 17.2421C153.012 17.4191 153.337 17.5298 153.674 17.5662C155.183 17.8518 156.715 18.2939 157.907 19.2624C159.098 20.2309 159.88 21.8319 159.503 23.3195L156.526 20.4783C156.639 21.6713 156.703 22.8675 156.719 24.0671C156.738 24.3013 156.706 24.5369 156.624 24.7574C156.412 25.2256 155.837 25.3832 155.333 25.4865C155.049 25.5403 154.802 25.7126 154.654 25.9599C154.505 26.2072 154.47 26.506 154.556 26.7812C154.735 27.3642 155.182 27.8188 155.591 28.2717C155.999 28.7247 156.402 29.2395 156.455 29.847C156.509 30.4545 156.05 31.1393 155.441 31.0971C154.979 31.065 154.637 30.6522 154.44 30.2338C154.243 29.8154 154.126 29.3493 153.83 28.9938C152.934 27.9178 150.922 28.3788 150.12 27.2317C149.704 27.7029 149.562 28.3556 149.745 28.9566C150.118 28.7232 150.629 28.9401 150.909 29.2793C151.19 29.6184 151.322 30.0532 151.542 30.4342C151.84 30.9482 152.313 31.4039 152.354 31.996C152.343 32.22 152.347 32.4443 152.365 32.6678C152.439 33.0266 152.743 33.2842 152.953 33.5841C153.443 34.2819 153.419 35.2405 153.103 36.0323C152.787 36.824 152.22 37.4856 151.658 38.127C150.677 39.2474 149.676 40.3611 148.513 41.2915C148.181 41.557 147.827 41.818 147.62 42.1892C147.413 42.5603 147.402 43.0813 147.72 43.3636C147.493 43.375 147.085 43.4867 146.858 43.4981C146.778 42.5872 146.761 41.672 146.806 40.7588C145.909 40.3285 144.943 41.4807 145.059 42.468C145.175 43.4552 145.889 44.2474 146.398 45.1015C146.771 45.7261 147.047 46.4544 146.923 47.1706C146.799 47.8867 146.159 48.5474 145.434 48.4843C144.281 48.3838 143.798 46.7303 142.657 46.5411C142.556 46.5175 142.45 46.5279 142.356 46.5709C142.187 46.6638 142.157 46.8903 142.148 47.0832C142.101 48.03 142.06 49.0143 142.43 49.8872C142.972 51.1641 144.37 52.2366 144.077 53.592C142.496 52.8583 141.675 51.0883 141.302 49.3881C140.929 47.688 140.867 45.9031 140.198 44.2958C139.69 44.9458 138.623 44.4085 138.159 43.7265C137.72 43.08 137.449 42.3321 137.022 41.6769C136.595 41.0217 135.942 40.435 135.16 40.399C134.341 40.3612 133.63 40.923 133.005 41.4538C132.491 41.8903 131.963 42.3439 131.663 42.9473C131.225 43.8253 131.34 44.8604 131.319 45.8408C131.296 46.9007 131.071 48.019 130.348 48.795C129.625 49.5709 128.29 49.8412 127.492 49.1418C127.076 48.7768 126.874 48.2313 126.694 47.7077C125.829 45.1838 125.108 42.6127 124.535 40.0068C124.401 40.6016 123.878 41.3681 123.378 41.0178C123.266 40.9236 123.176 40.8068 123.112 40.6749C122.18 39.0976 120.455 38.1515 118.712 37.5842C116.968 37.0169 115.134 36.7523 113.41 36.1289C112.444 35.7793 111.522 35.3202 110.66 34.7605C110.213 35.4169 110.162 36.2655 110.528 36.9705C110.91 37.6469 111.776 38.0382 112.517 37.8018C112.899 37.6796 113.223 37.4142 113.603 37.2831C113.982 37.152 114.492 37.2163 114.658 37.5819C114.817 37.9318 114.577 38.355 114.696 38.7203C114.878 39.2767 115.718 39.3196 116.012 39.8259C116.23 40.2026 116.05 40.7029 115.738 41.0068C115.426 41.3108 115.01 41.4775 114.629 41.6891C113.393 42.3757 112.514 43.5478 111.433 44.4597C110.353 45.3715 108.829 46.0373 107.542 45.4524C107.849 43.9002 105.998 42.7606 105.657 41.2154C105.545 40.7068 105.603 40.1666 105.443 39.6709C105.211 38.9533 104.574 38.46 104.051 37.9162C102.77 36.5692 102.088 34.7622 102.16 32.9056C102.188 32.267 102.306 31.618 102.16 30.9955C102.014 30.3731 101.499 29.7706 100.859 29.7988C99.3991 29.8633 97.5596 29.9717 96.7935 28.7284C96.52 28.2846 96.4011 27.6347 96.7964 27.2947C97.0752 27.0549 97.4869 27.0774 97.8531 27.1134L101.143 27.4367C101.913 27.5123 102.744 27.5747 103.405 27.1729C104.065 26.7711 104.351 25.7044 103.74 25.2317C103.293 24.8863 102.493 24.905 102.363 24.3558C102.255 23.8984 102.761 23.3794 102.488 22.9971C102.291 22.723 101.85 22.7991 101.583 23.0045C101.315 23.21 101.121 23.5105 100.822 23.6661C100.297 23.939 99.6697 23.6792 99.1049 23.5027C98.5401 23.3262 97.7829 23.3112 97.5089 23.8352C97.2026 24.4213 97.7807 25.1892 97.4766 25.7764C97.0746 26.5528 95.7132 26.1108 95.1486 26.7787C94.5008 27.545 95.5895 28.6877 95.371 29.6667C94.8036 29.9474 94.1302 29.9096 93.5978 29.5672C93.0734 29.2108 92.7875 28.5954 92.8536 27.9653C92.9076 27.5249 93.1375 27.0754 92.9835 26.6592C92.859 26.3227 92.5207 26.1224 92.2064 25.9489L89.0093 24.1841C88.7124 24.7342 89.0877 25.416 89.557 25.8292C90.0263 26.2423 90.6142 26.5534 90.9225 27.0971C91.3273 27.8791 91.0526 28.8407 90.2955 29.2914C90.203 29.3552 90.0873 29.3753 89.9786 29.3466C89.8756 29.2861 89.8014 29.1865 89.7731 29.0705C89.209 27.6286 88.362 26.2068 87.008 25.4535C85.6539 24.7003 83.7083 24.8551 82.8204 26.1241C82.6094 26.4255 82.4679 26.769 82.2842 27.0877C81.3081 28.7806 79.2155 29.5823 77.2604 29.5299C77.0691 29.5405 76.8789 29.4958 76.7123 29.4013C76.3963 29.1833 76.4106 28.7207 76.4589 28.3402L76.6642 26.7253C76.7054 26.401 76.7651 26.0426 77.022 25.8402C77.3842 25.5548 77.9067 25.7349 78.368 25.7283C79.0838 25.6948 79.7024 25.2179 79.9162 24.5347C80.1061 23.8483 79.9001 23.1133 79.381 22.6252C79.1696 22.4268 78.8859 22.1777 78.9975 21.9103C79.0877 21.7606 79.2396 21.6584 79.4124 21.6312C80.2409 21.3909 81.1164 21.3279 81.9311 21.0443C82.7458 20.7607 83.5359 20.1805 83.7288 19.3406C83.788 19.0832 83.8149 18.7713 84.0464 18.6437C84.1625 18.5947 84.2872 18.5693 84.4133 18.5688C85.3288 18.4387 85.9934 17.6319 85.9449 16.7094C86.3354 16.4369 86.8824 16.6374 87.2601 16.9272C87.6379 17.2171 87.9713 17.6001 88.431 17.725C89.2875 17.9579 90.1152 17.2003 91.0029 17.1968C91.3762 17.1953 91.7626 17.3272 92.1138 17.2008C92.4698 17.0726 92.6825 16.7186 92.9557 16.4571C93.2289 16.1955 93.7084 16.036 93.9607 16.3178L93.7458 14.7281C94.6212 14.949 95.5495 14.7813 96.2921 14.2682L93.5152 13.331C93.4186 13.3069 93.3293 13.2593 93.2556 13.1923C93.0537 12.9752 93.2542 12.6368 93.4184 12.39C93.8111 11.7995 93.877 10.8268 93.2312 10.5328C92.7904 10.3321 92.2844 10.573 91.8613 10.8086L89.8346 11.9374C89.7702 12.3223 90.2413 12.5404 90.5332 12.7996C90.8947 13.1206 91.0216 13.6305 90.8524 14.0832C90.6833 14.5359 90.253 14.8382 89.7693 14.8441C90.0397 15.1952 90.1356 15.65 90.03 16.0802L88.6664 16.1781C88.5133 16.2089 88.3543 16.1779 88.2241 16.0919C88.0783 15.9625 88.098 15.7358 88.0642 15.5439C87.9826 15.0807 87.5286 14.7561 87.0653 14.6729C86.6019 14.5896 86.1279 14.6963 85.669 14.8017C85.4742 14.8717 85.2603 14.8668 85.0689 14.7878C84.9591 14.7166 84.8757 14.6115 84.8314 14.4885C84.6303 14.0013 84.8183 13.4286 85.1414 13.012C85.4644 12.5953 85.9067 12.2907 86.3039 11.9439C87.2538 11.1114 87.9517 10.0301 88.3188 8.82224C89.0694 8.50806 89.8466 8.08119 90.5973 7.76701C91.7546 7.18169 93.0525 6.93051 94.3449 7.04169L96.8872 7.0902C97.6398 7.10456 98.4129 7.12296 99.1089 7.40959C99.8048 7.69622 100.416 8.31616 100.464 9.06661C100.494 9.23932 100.432 9.41501 100.301 9.53163C100.203 9.58521 100.092 9.61028 99.98 9.604C99.2781 9.62864 98.9788 9.80335 98.2768 9.82799Z" fill="#E4E7EB"/>
<path d="M78.4746 17.8118C78.6695 17.6198 78.7449 17.3304 78.6699 17.0623C78.1954 16.8717 77.6581 16.9773 77.283 17.3348C77.138 17.4874 77.0131 17.6593 76.9115 17.8461C76.5899 18.3921 76.3055 19.0443 76.4919 19.6546C76.5226 19.7891 76.604 19.905 76.7178 19.9762C76.8013 20.0111 76.8913 20.0258 76.9811 20.0191C77.3353 20.0187 77.6892 19.996 78.0408 19.9513C78.2567 19.9238 78.5075 19.8603 78.591 19.6512C78.7007 19.3764 78.4352 19.0653 78.5126 18.7788C78.5635 18.6507 78.6406 18.5357 78.7387 18.4418C78.8373 18.3459 78.8867 18.2073 78.872 18.0677C78.8408 17.9333 78.643 17.857 78.5718 17.9738" fill="#E4E7EB"/>
<path d="M80.2724 15.2136C79.9423 15.1407 79.6021 15.1201 79.2651 15.1527C79.1906 15.1506 79.1168 15.1668 79.0505 15.1997C78.9863 15.2453 78.9398 15.3102 78.9183 15.3841C78.7707 15.8402 79.0118 16.329 79.4722 16.507C79.5932 16.5337 79.7092 16.5786 79.8158 16.6399C80.1006 16.8527 79.919 17.2877 79.973 17.631C80.0335 18.0165 80.421 18.3401 80.35 18.7239C80.294 19.0263 79.9586 19.2657 80.0126 19.5684C80.0692 19.8855 80.487 19.9808 80.82 20.0062C81.013 20.0387 81.2117 20.0168 81.3921 19.943C81.5729 19.824 81.7014 19.6447 81.753 19.4397C81.8893 19.0489 81.9466 18.6366 81.9218 18.225C81.9203 18.0378 81.8715 17.8538 81.7795 17.6889C81.6792 17.5582 81.5681 17.4356 81.4471 17.3224C80.809 16.6077 81.4809 15.5416 80.2724 15.2136Z" fill="#E4E7EB"/>
</svg>
