<svg width="220" height="180" viewBox="0 0 220 180" fill="none" xmlns="http://www.w3.org/2000/svg">
<path d="M201.703 0V171.466L143.595 163.369L72.9583 177.779L72.3892 177.896L16.1865 162.416V13.3362L74.5325 0L138.356 13.3362L140.783 12.8242L201.703 0Z" fill="#444053"/>
<path d="M191.939 9.36377V162.78L139.949 155.536L76.7474 168.429L76.2378 168.532L25.9507 154.683V21.2949L78.1572 9.36377L135.26 21.2949L137.432 20.8377L191.939 9.36377Z" fill="white"/>
<path opacity="0.1" d="M143.595 163.369L72.9585 177.779L74.5327 0L138.356 13.3362L140.783 12.8242L143.595 163.369Z" fill="black"/>
<g opacity="0.3">
<path opacity="0.3" d="M136.542 32.8638L136.57 82.7555H157.289V62.2749H192.773L196.94 56.9309" stroke="#444053" stroke-width="0.71444" stroke-miterlimit="10"/>
<path opacity="0.3" d="M21.1885 48.7H98.229L102.992 46.5566H104.897V94.6623H138.238L139.666 98.9489V120.62H165.386V147.412" stroke="#444053" stroke-width="0.71444" stroke-miterlimit="10"/>
<path opacity="0.3" d="M115.073 147.413V94.6631" stroke="#444053" stroke-width="0.71444" stroke-miterlimit="10"/>
<path opacity="0.3" d="M196.941 133.28H115.073" stroke="#444053" stroke-width="0.71444" stroke-miterlimit="10"/>
<path opacity="0.3" d="M176.436 32.8638V147.412" stroke="#444053" stroke-width="0.71444" stroke-miterlimit="10"/>
<path opacity="0.3" d="M20.9502 123.154H196.941" stroke="#444053" stroke-width="0.71444" stroke-miterlimit="10"/>
<path opacity="0.3" d="M42.3691 147.412V32.8638" stroke="#444053" stroke-width="0.71444" stroke-miterlimit="10"/>
<path opacity="0.3" d="M83.2778 32.8638V147.412" stroke="#444053" stroke-width="0.71444" stroke-miterlimit="10"/>
<path opacity="0.3" d="M21.1885 61.7988L157.289 62.2751" stroke="#444053" stroke-width="0.71444" stroke-miterlimit="10"/>
<path opacity="0.3" d="M60.7993 33.0708V147.412" stroke="#444053" stroke-width="0.71444" stroke-miterlimit="10"/>
<path opacity="0.3" d="M20.9502 88.3096H83.278L115.073 123.155" stroke="#444053" stroke-width="0.71444" stroke-miterlimit="10"/>
<path opacity="0.3" d="M121.96 32.8638V94.6629" stroke="#444053" stroke-width="0.71444" stroke-miterlimit="10"/>
<path opacity="0.3" d="M115.073 105.731H196.941" stroke="#444053" stroke-width="0.71444" stroke-miterlimit="10"/>
</g>
<path d="M127.639 50.9634C124.148 50.9634 120.799 52.3504 118.33 54.8192C115.862 57.2881 114.475 60.6366 114.475 64.1281C114.475 71.3988 127.639 95.0205 127.639 95.0205C127.639 95.0205 140.804 71.4083 140.804 64.1281C140.804 60.6366 139.417 57.2881 136.948 54.8192C134.479 52.3504 131.131 50.9634 127.639 50.9634ZM127.639 69.7436C126.494 69.7436 125.374 69.404 124.422 68.7676C123.469 68.1312 122.727 67.2266 122.289 66.1683C121.85 65.11 121.735 63.9455 121.959 62.822C122.182 61.6985 122.734 60.6665 123.544 59.8565C124.354 59.0465 125.386 58.4949 126.509 58.2715C127.633 58.048 128.797 58.1627 129.856 58.601C130.914 59.0394 131.819 59.7817 132.455 60.7342C133.091 61.6866 133.431 62.8064 133.431 63.9519C133.43 65.4876 132.82 66.9601 131.734 68.0457C130.648 69.1314 129.175 69.7413 127.639 69.7413V69.7436Z" fill="#08611B"/>
<path opacity="0.1" d="M127.639 50.9634C124.148 50.9634 120.799 52.3504 118.33 54.8192C115.862 57.2881 114.475 60.6366 114.475 64.1281C114.475 71.3988 127.639 95.0205 127.639 95.0205C127.639 95.0205 140.804 71.4083 140.804 64.1281C140.804 60.6366 139.417 57.2881 136.948 54.8192C134.479 52.3504 131.131 50.9634 127.639 50.9634ZM127.639 69.7436C126.494 69.7436 125.374 69.404 124.422 68.7676C123.469 68.1312 122.727 67.2266 122.289 66.1683C121.85 65.11 121.735 63.9455 121.959 62.822C122.182 61.6985 122.734 60.6665 123.544 59.8565C124.354 59.0465 125.386 58.4949 126.509 58.2715C127.633 58.048 128.797 58.1627 129.856 58.601C130.914 59.0394 131.819 59.7817 132.455 60.7342C133.091 61.6866 133.431 62.8064 133.431 63.9519C133.43 65.4876 132.82 66.9601 131.734 68.0457C130.648 69.1314 129.175 69.7413 127.639 69.7413V69.7436Z" fill="black"/>
<path d="M139.547 105.261H115.494V94.7822L138.237 94.6631L139.666 98.7116L139.547 105.261Z" fill="#08611B"/>
<path d="M127.639 52.8682C124.148 52.8682 120.799 54.2552 118.33 56.724C115.862 59.1929 114.475 62.5414 114.475 66.0329C114.475 73.3035 127.639 96.9253 127.639 96.9253C127.639 96.9253 140.804 73.3131 140.804 66.0329C140.804 62.5414 139.417 59.1929 136.948 56.724C134.479 54.2552 131.131 52.8682 127.639 52.8682ZM127.639 71.6484C126.494 71.6484 125.374 71.3087 124.422 70.6723C123.469 70.0359 122.727 69.1314 122.289 68.0731C121.85 67.0148 121.735 65.8503 121.959 64.7268C122.182 63.6033 122.734 62.5713 123.544 61.7613C124.354 60.9513 125.386 60.3997 126.509 60.1762C127.633 59.9528 128.797 60.0675 129.856 60.5058C130.914 60.9442 131.819 61.6865 132.455 62.639C133.091 63.5914 133.431 64.7112 133.431 65.8567C133.43 67.3923 132.82 68.8649 131.734 69.9505C130.648 71.0362 129.175 71.646 127.639 71.646V71.6484Z" fill="#08611B"/>
<path d="M65.354 134H56.6313V130.2L64.879 130.157L65.3972 131.625L65.354 134Z" fill="#08611B"/>
<path d="M61.0354 115C59.7692 115 58.5549 115.503 57.6596 116.398C56.7642 117.294 56.2612 118.508 56.2612 119.774C56.2612 122.411 61.0354 130.977 61.0354 130.977C61.0354 130.977 65.8096 122.414 65.8096 119.774C65.8096 118.508 65.3066 117.294 64.4112 116.398C63.5159 115.503 62.3016 115 61.0354 115ZM61.0354 121.811C60.62 121.811 60.2139 121.687 59.8685 121.457C59.5231 121.226 59.2539 120.898 59.0949 120.514C58.936 120.13 58.8944 119.708 58.9754 119.3C59.0564 118.893 59.2565 118.519 59.5502 118.225C59.844 117.931 60.2182 117.731 60.6256 117.65C61.0331 117.569 61.4554 117.611 61.8392 117.77C62.223 117.929 62.551 118.198 62.7818 118.543C63.0126 118.889 63.1358 119.295 63.1358 119.71C63.1355 120.267 62.9141 120.801 62.5203 121.195C62.1264 121.589 61.5923 121.81 61.0354 121.81V121.811Z" fill="#08611B"/>
<path d="M51.0928 65.9999H42.3701V62.1999L50.6178 62.1567L51.136 63.6249L51.0928 65.9999Z" fill="#08611B"/>
<path d="M46.7742 47C45.508 47 44.2937 47.503 43.3983 48.3983C42.503 49.2937 42 50.508 42 51.7742C42 54.4108 46.7742 62.9772 46.7742 62.9772C46.7742 62.9772 51.5483 54.4143 51.5483 51.7742C51.5483 50.508 51.0453 49.2937 50.15 48.3983C49.2547 47.503 48.0404 47 46.7742 47ZM46.7742 53.8106C46.3588 53.8106 45.9527 53.6874 45.6073 53.4566C45.2619 53.2259 44.9927 52.8978 44.8337 52.514C44.6747 52.1302 44.6331 51.7079 44.7142 51.3005C44.7952 50.8931 44.9953 50.5188 45.289 50.2251C45.5827 49.9313 45.957 49.7313 46.3644 49.6503C46.7718 49.5692 47.1941 49.6108 47.5779 49.7698C47.9617 49.9288 48.2898 50.198 48.5205 50.5434C48.7513 50.8888 48.8745 51.2948 48.8745 51.7103C48.8743 52.2672 48.6529 52.8012 48.259 53.1949C47.8652 53.5886 47.3311 53.8098 46.7742 53.8098V53.8106Z" fill="#08611B"/>
<path d="M185.093 125H176.37V121.2L184.618 121.157L185.136 122.625L185.093 125Z" fill="#08611B"/>
<path d="M180.774 106C179.508 106 178.294 106.503 177.398 107.398C176.503 108.294 176 109.508 176 110.774C176 113.411 180.774 121.977 180.774 121.977C180.774 121.977 185.548 113.414 185.548 110.774C185.548 109.508 185.045 108.294 184.15 107.398C183.255 106.503 182.04 106 180.774 106ZM180.774 112.811C180.359 112.811 179.953 112.687 179.607 112.457C179.262 112.226 178.993 111.898 178.834 111.514C178.675 111.13 178.633 110.708 178.714 110.3C178.795 109.893 178.995 109.519 179.289 109.225C179.583 108.931 179.957 108.731 180.364 108.65C180.772 108.569 181.194 108.611 181.578 108.77C181.962 108.929 182.29 109.198 182.521 109.543C182.751 109.889 182.875 110.295 182.875 110.71C182.874 111.267 182.653 111.801 182.259 112.195C181.865 112.589 181.331 112.81 180.774 112.81V112.811Z" fill="#08611B"/>
</svg>
