<svg width="220" height="161" viewBox="0 0 220 161" fill="none" xmlns="http://www.w3.org/2000/svg">
<g clip-path="url(#clip0)">
<path d="M43.3235 83.8511L40.4359 53.2417L31.8257 53.5386L38.6416 83.7656C38.0855 84.2323 37.6852 84.8577 37.4941 85.5581C37.3031 86.2586 37.3305 87.0006 37.5726 87.685C37.8147 88.3695 38.26 88.9637 38.8489 89.3882C39.4379 89.8127 40.1424 90.0473 40.8683 90.0605C41.5942 90.0738 42.3068 89.8651 42.9109 89.4624C43.515 89.0597 43.9817 88.4821 44.2486 87.807C44.5156 87.1319 44.57 86.3913 44.4047 85.6844C44.2394 84.9775 43.8621 84.3379 43.3235 83.8511L43.3235 83.8511Z" fill="#FFB8B8"/>
<path d="M207.013 152.075C206.934 155.039 206.437 157.978 205.538 160.804C205.517 160.87 205.496 160.934 205.474 161H199.969C199.975 160.94 199.981 160.875 199.986 160.804C200.353 156.584 202.47 130.901 199.939 126.509C200.161 126.865 207.439 138.666 207.013 152.075Z" fill="#F0F0F0"/>
<path d="M206.129 160.591C206.033 160.728 205.933 160.865 205.83 161H197.194C197.259 160.883 197.335 160.746 197.423 160.591C198.85 158.015 203.073 150.318 206.993 142.335C211.206 133.758 215.071 124.855 214.745 121.633C214.845 122.36 217.76 144.513 206.129 160.591Z" fill="#F0F0F0"/>
<path d="M16.4347 147.578C16.553 151.993 17.2926 156.369 18.6318 160.578C18.6615 160.675 18.6944 160.772 18.7265 160.869H26.9246C26.916 160.782 26.9071 160.684 26.8985 160.578C26.3519 154.294 23.2003 116.046 26.9686 109.505C26.6387 110.035 15.7978 127.61 16.4347 147.578Z" fill="#F0F0F0"/>
<path d="M17.0496 160.578C17.1181 160.676 17.1894 160.774 17.2624 160.87H23.4125C23.3659 160.787 23.3119 160.689 23.2492 160.578C22.2332 158.745 19.2259 153.262 16.4344 147.578C13.4356 141.47 10.6821 135.131 10.914 132.836C10.8425 133.354 8.76652 149.129 17.0496 160.578Z" fill="#F0F0F0"/>
<path d="M194.647 128.911H109.059C108.639 128.91 108.236 128.743 107.939 128.446C107.642 128.149 107.475 127.746 107.474 127.326V106.095C107.475 105.675 107.642 105.272 107.939 104.975C108.236 104.678 108.639 104.511 109.059 104.51H194.647C195.067 104.511 195.47 104.678 195.767 104.975C196.064 105.272 196.231 105.675 196.232 106.095V127.326C196.231 127.746 196.064 128.149 195.767 128.446C195.47 128.743 195.067 128.91 194.647 128.911ZM109.059 105.143C108.807 105.144 108.566 105.244 108.388 105.422C108.21 105.6 108.109 105.841 108.109 106.093V127.324C108.109 127.576 108.21 127.817 108.388 127.995C108.566 128.173 108.807 128.273 109.059 128.274H194.647C194.899 128.273 195.14 128.173 195.318 127.995C195.496 127.817 195.596 127.576 195.597 127.324V106.095C195.596 105.843 195.496 105.602 195.318 105.424C195.14 105.246 194.899 105.146 194.647 105.145L109.059 105.143Z" fill="#3F3D56"/>
<path d="M100.98 154.536C104.546 154.536 107.436 151.645 107.436 148.08C107.436 144.514 104.546 141.624 100.98 141.624C97.4145 141.624 94.5239 144.514 94.5239 148.08C94.5239 151.645 97.4145 154.536 100.98 154.536Z" fill="#E6E6E6"/>
<path d="M115.891 143.998C115.606 143.998 115.332 144.111 115.131 144.313C114.929 144.515 114.815 144.789 114.815 145.074C114.815 145.359 114.929 145.633 115.131 145.835C115.332 146.037 115.606 146.15 115.891 146.15H166.619C166.761 146.15 166.901 146.123 167.031 146.069C167.162 146.015 167.281 145.936 167.381 145.836C167.481 145.737 167.56 145.618 167.615 145.488C167.669 145.357 167.697 145.217 167.697 145.076C167.698 144.935 167.67 144.795 167.616 144.664C167.563 144.534 167.483 144.415 167.384 144.315C167.284 144.215 167.166 144.135 167.035 144.081C166.905 144.026 166.765 143.998 166.624 143.998H115.891Z" fill="#E6E6E6"/>
<path d="M115.891 150.455C115.606 150.455 115.332 150.567 115.13 150.769C114.927 150.97 114.814 151.244 114.813 151.529C114.812 151.814 114.925 152.088 115.127 152.29C115.328 152.493 115.601 152.606 115.887 152.607H137.72C138.005 152.607 138.279 152.494 138.48 152.292C138.682 152.09 138.796 151.816 138.796 151.531C138.796 151.246 138.682 150.972 138.48 150.77C138.279 150.568 138.005 150.455 137.72 150.455H115.891Z" fill="#E6E6E6"/>
<path d="M122.358 123.064C125.923 123.064 128.814 120.174 128.814 116.608C128.814 113.042 125.923 110.152 122.358 110.152C118.792 110.152 115.901 113.042 115.901 116.608C115.901 120.174 118.792 123.064 122.358 123.064Z" fill="#E6E6E6"/>
<path d="M137.268 112.526C136.983 112.526 136.709 112.64 136.508 112.842C136.306 113.043 136.192 113.317 136.192 113.602C136.192 113.888 136.306 114.161 136.508 114.363C136.709 114.565 136.983 114.678 137.268 114.678H187.996C188.282 114.678 188.555 114.565 188.757 114.363C188.959 114.161 189.072 113.888 189.072 113.602C189.072 113.317 188.959 113.043 188.757 112.842C188.555 112.64 188.282 112.526 187.996 112.526H137.268Z" fill="#E6E6E6"/>
<path d="M137.268 118.983C136.983 118.983 136.709 119.097 136.508 119.299C136.306 119.5 136.192 119.774 136.192 120.059C136.192 120.345 136.306 120.618 136.508 120.82C136.709 121.022 136.983 121.135 137.268 121.135H159.097C159.382 121.135 159.656 121.022 159.858 120.82C160.059 120.618 160.173 120.345 160.173 120.059C160.173 119.774 160.059 119.5 159.858 119.299C159.656 119.097 159.382 118.983 159.097 118.983H137.268Z" fill="#E6E6E6"/>
<path d="M178.02 76.3591H92.432C92.0119 76.3585 91.6091 76.1914 91.312 75.8943C91.0149 75.5972 90.8477 75.1944 90.8472 74.7742V1.58488C90.8477 1.16471 91.0149 0.761908 91.312 0.464806C91.6091 0.167703 92.0119 0.000549905 92.432 0H178.02C178.44 0.000549905 178.843 0.167703 179.14 0.464806C179.437 0.761908 179.604 1.16471 179.605 1.58488V74.7739C179.604 75.1941 179.437 75.5969 179.14 75.8941C178.843 76.1912 178.44 76.3583 178.02 76.3588V76.3591ZM92.432 0.632702C92.1802 0.633251 91.9389 0.733527 91.7608 0.911585C91.5828 1.08964 91.4825 1.33098 91.4819 1.5828V74.7739C91.4825 75.0257 91.5828 75.2671 91.7608 75.4451C91.9389 75.6232 92.1802 75.7234 92.432 75.724H178.02C178.272 75.7235 178.513 75.6233 178.691 75.4452C178.869 75.2671 178.969 75.0257 178.97 74.7739V1.58488C178.969 1.33306 178.869 1.09172 178.691 0.913664C178.513 0.735606 178.272 0.635331 178.02 0.634782L92.432 0.632702Z" fill="#3F3D56"/>
<path d="M105.731 19.3259C109.296 19.3259 112.187 16.4354 112.187 12.8698C112.187 9.30411 109.296 6.41357 105.731 6.41357C102.165 6.41357 99.2744 9.30411 99.2744 12.8698C99.2744 16.4354 102.165 19.3259 105.731 19.3259Z" fill="#08611B"/>
<path d="M120.642 8.56592C120.357 8.56592 120.083 8.67928 119.881 8.88107C119.679 9.08285 119.566 9.35653 119.566 9.6419C119.566 9.92727 119.679 10.2009 119.881 10.4027C120.083 10.6045 120.357 10.7179 120.642 10.7179H171.37C171.655 10.7179 171.929 10.6045 172.131 10.4027C172.332 10.2009 172.446 9.92727 172.446 9.6419C172.446 9.35653 172.332 9.08285 172.131 8.88107C171.929 8.67928 171.655 8.56592 171.37 8.56592H120.642Z" fill="#CCCCCC"/>
<path d="M120.642 15.0225C120.357 15.0225 120.083 15.1358 119.881 15.3376C119.679 15.5394 119.566 15.8131 119.566 16.0984C119.566 16.3838 119.679 16.6575 119.881 16.8593C120.083 17.0611 120.357 17.1744 120.642 17.1744H142.47C142.756 17.1744 143.029 17.0611 143.231 16.8593C143.433 16.6575 143.546 16.3838 143.546 16.0984C143.546 15.8131 143.433 15.5394 143.231 15.3376C143.029 15.1358 142.756 15.0225 142.47 15.0225H120.642Z" fill="#CCCCCC"/>
<path d="M69.2349 154.783H62.7031L58.8433 100.449L58.6948 114.255L44.4434 152.259L38.8022 147.806L48.1547 109.95L43.7012 88.8701H72.7978L69.2349 154.783Z" fill="#2F2E41"/>
<path d="M58.8435 21.7701C63.1069 21.7701 66.5631 18.3139 66.5631 14.0506C66.5631 9.7872 63.1069 6.33105 58.8435 6.33105C54.5802 6.33105 51.124 9.7872 51.124 14.0506C51.124 18.3139 54.5802 21.7701 58.8435 21.7701Z" fill="#FFB8B8"/>
<path d="M73.6889 93.0268C61.077 89.7905 49.2435 87.6098 41.9201 91.5423C43.2027 78.0595 41.7191 60.8486 37.3181 42.8603C35.8888 37.0175 36.8582 31.7528 42.0685 28.747L49.0458 24.7388L59.7344 25.0357L65.3111 28.1211C68.0382 29.4837 70.246 31.6991 71.5993 34.4308C72.9526 37.1626 73.3774 40.2613 72.8091 43.2564C69.8125 59.0241 71.4318 76.0421 73.6889 93.0268Z" fill="#3F3D56"/>
<path d="M44.8896 55.3198L30.9351 54.4291C32.0253 40.7014 35.1279 33.1972 39.8422 30.6768L44.8896 36.6148V55.3198Z" fill="#3F3D56"/>
<path d="M198.355 66.8645H112.767C112.346 66.864 111.943 66.6969 111.646 66.3998C111.349 66.1027 111.182 65.6998 111.182 65.2796V27.7192C111.182 27.299 111.349 26.8961 111.646 26.599C111.943 26.3019 112.346 26.1347 112.767 26.1343H198.355C198.775 26.1347 199.178 26.3019 199.475 26.599C199.772 26.8961 199.939 27.299 199.939 27.7192V65.2796C199.939 65.6998 199.772 66.1027 199.475 66.3998C199.178 66.6969 198.775 66.864 198.355 66.8645Z" fill="#08611B"/>
<path d="M130.197 39.2261C129.912 39.2261 129.638 39.3394 129.436 39.5412C129.234 39.743 129.121 40.0167 129.121 40.3021C129.121 40.5874 129.234 40.8611 129.436 41.0629C129.638 41.2647 129.912 41.378 130.197 41.378H180.925C181.211 41.378 181.484 41.2647 181.686 41.0629C181.888 40.8611 182.001 40.5874 182.001 40.3021C182.001 40.0167 181.888 39.743 181.686 39.5412C181.484 39.3394 181.211 39.2261 180.925 39.2261H130.197Z" fill="white"/>
<path d="M130.197 45.4609C129.912 45.4609 129.638 45.5743 129.436 45.7761C129.234 45.9779 129.121 46.2516 129.121 46.5369C129.121 46.8223 129.234 47.096 129.436 47.2978C129.638 47.4995 129.912 47.6129 130.197 47.6129H180.925C181.211 47.6129 181.484 47.4995 181.686 47.2978C181.888 47.096 182.001 46.8223 182.001 46.5369C182.001 46.2516 181.888 45.9779 181.686 45.7761C181.484 45.5743 181.211 45.4609 180.925 45.4609H130.197Z" fill="white"/>
<path d="M130.197 51.6206C129.912 51.6206 129.638 51.734 129.436 51.9358C129.234 52.1375 129.121 52.4112 129.121 52.6966C129.121 52.982 129.234 53.2556 129.436 53.4574C129.638 53.6592 129.912 53.7726 130.197 53.7726H152.025C152.311 53.7726 152.585 53.6592 152.786 53.4574C152.988 53.2556 153.101 52.982 153.101 52.6966C153.101 52.4112 152.988 52.1375 152.786 51.9358C152.585 51.734 152.311 51.6206 152.025 51.6206H130.197Z" fill="white"/>
<path d="M61.4757 3.89206C60.7566 3.81664 60.0785 4.19935 59.3709 4.35582C57.9161 4.6747 56.4257 4.01379 54.9299 4.01943C53.6441 4.09253 52.3934 4.46582 51.2779 5.10937C50.3758 5.53571 49.5526 6.11207 48.8433 6.81389C48.1301 7.52703 47.7148 8.48479 47.6818 9.49286C47.7806 10.0703 47.7629 10.6617 47.6296 11.2321C47.4788 11.5198 47.2998 11.7917 47.0951 12.0439C46.91 12.341 46.7919 12.6749 46.7488 13.0223C46.7057 13.3697 46.7388 13.7223 46.8457 14.0557C47.1455 14.7161 47.5508 15.3232 48.0458 15.8532C49.0084 17.088 49.6114 18.5666 50.4751 19.8771C50.852 20.4459 51.2747 20.9831 51.739 21.483C51.815 21.5716 51.9076 21.6444 52.0116 21.6974C52.1139 21.7334 52.2222 21.7491 52.3305 21.7437C54.1626 21.796 56.0587 21.8364 57.7457 21.1176C58.2861 20.9302 58.745 20.5614 59.0444 20.0739C59.2877 19.4051 59.3319 18.6801 59.1717 17.9867C59.095 17.2144 59.1125 16.4356 59.224 15.6676C59.2316 15.4082 59.3378 15.1615 59.5209 14.9776C59.6593 14.8916 59.8178 14.8436 59.9807 14.8384C60.1435 14.8332 60.3048 14.8709 60.4484 14.9479C60.735 15.0988 61.048 15.1933 61.3703 15.2261C62.0024 15.2261 62.4023 14.507 62.53 13.8808C62.4604 13.3181 62.5437 12.747 62.7712 12.2276C62.9988 11.7083 63.3621 11.2599 63.823 10.9296C64.2573 10.3784 64.5556 9.73253 64.6936 9.04447C64.8316 8.35642 64.8054 7.64553 64.6172 6.96947C64.2007 5.66636 62.9252 4.03695 61.4757 3.89206Z" fill="#2F2E41"/>
<path d="M173.269 160.383H87.6816C87.2614 160.383 86.8586 160.216 86.5615 159.918C86.2644 159.621 86.0972 159.219 86.0967 158.798V137.567C86.0972 137.147 86.2643 136.744 86.5614 136.447C86.8585 136.15 87.2614 135.983 87.6816 135.982H173.269C173.689 135.983 174.092 136.15 174.389 136.447C174.686 136.744 174.854 137.147 174.854 137.567V158.798C174.854 159.218 174.686 159.621 174.389 159.918C174.092 160.215 173.689 160.382 173.269 160.383V160.383ZM87.6816 136.615C87.4297 136.616 87.1884 136.716 87.0103 136.894C86.8323 137.072 86.732 137.313 86.7315 137.565V158.796C86.732 159.048 86.8323 159.289 87.0103 159.467C87.1884 159.645 87.4297 159.745 87.6816 159.746H173.269C173.521 159.746 173.763 159.645 173.941 159.467C174.119 159.289 174.219 159.048 174.219 158.796V137.567C174.219 137.315 174.119 137.074 173.941 136.896C173.762 136.718 173.521 136.618 173.269 136.617L87.6816 136.615Z" fill="#3F3D56"/>
<path d="M76.2795 82.6631L73.392 52.0537L64.7817 52.3506L71.5976 82.5776C71.0416 83.0443 70.6412 83.6697 70.4502 84.3701C70.2591 85.0706 70.2865 85.8126 70.5286 86.4971C70.7707 87.1815 71.216 87.7757 71.805 88.2002C72.394 88.6247 73.0985 88.8593 73.8244 88.8725C74.5502 88.8858 75.2629 88.6771 75.8669 88.2744C76.471 87.8717 76.9377 87.2942 77.2047 86.619C77.4716 85.9439 77.5261 85.2033 77.3608 84.4964C77.1954 83.7895 76.8182 83.1499 76.2795 82.6631L76.2795 82.6631Z" fill="#FFB8B8"/>
<path d="M76.3607 52.6478L63.2969 55.6169L62.7031 34.2397L70.1257 34.5367L76.3607 52.6478Z" fill="#3F3D56"/>
<path d="M62.4966 154.248L71.9721 154.248H71.9725C73.574 154.248 75.1098 154.884 76.2423 156.017C77.3747 157.149 78.0109 158.685 78.011 160.286V160.483L62.4969 160.483L62.4966 154.248Z" fill="#2F2E41"/>
<path d="M38.6978 146.746L46.6635 151.877L46.6639 151.877C48.0101 152.745 48.9566 154.111 49.2953 155.677C49.634 157.242 49.337 158.878 48.4697 160.224L48.3635 160.389L35.3213 151.987L38.6978 146.746Z" fill="#2F2E41"/>
<path d="M219.181 160.406H0V161H219.181V160.406Z" fill="#CACACA"/>
</g>
<defs>
<clipPath id="clip0">
<rect width="219.181" height="161" fill="white"/>
</clipPath>
</defs>
</svg>
