<svg width="280" height="145" viewBox="0 0 280 145" fill="none" xmlns="http://www.w3.org/2000/svg">
<g clip-path="url(#clip0)">
<path d="M139.455 35.7842L139.448 35.8336L139.428 35.9764L137.369 50.9053L124.763 55.5792L124.566 55.4838L117.508 52.0967L113.859 37.9469L113.609 36.9756L113.685 36.946L129.298 31.0186L139.446 35.7785L139.455 35.7842Z" fill="#08611B"/>
<path d="M124.566 55.4835L117.508 52.0964L113.609 36.9753L113.685 36.9458L123.857 41.2824L124.566 55.4835Z" fill="#08611B"/>
<path opacity="0.2" d="M124.743 55.311L119.375 44.9149L120.064 41.9676L116.817 38.1035L116.541 38.3409L119.669 42.0636L117.332 52.0542L117.685 52.1388L119.247 45.4603L124.421 55.4805L124.743 55.311Z" fill="black"/>
<path d="M139.455 35.9673L139.428 35.9764L123.857 41.466L113.859 37.9469L113.609 36.9756L113.685 36.946L129.298 31.0186L139.446 35.7785L139.448 35.8336L139.455 35.9673Z" fill="#3F3D56"/>
<path d="M124.129 41.7407L120.955 39.2665L121.68 36.5171L130.749 33.2178L136.916 33.5843L139.364 35.6923L139.546 36.242L124.129 41.7407Z" fill="#08611B"/>
<path d="M113.791 36.9754L120.955 36.7003L124.836 35.3692L130.887 33.2178L132.019 31.5684L129.195 31.0576L113.791 36.9754Z" fill="#08611B"/>
<path d="M128.064 34.0258L124.329 35.3506L124.449 35.6964L128.184 34.3716L128.064 34.0258Z" fill="#CCCCCC"/>
<path d="M78.8612 12.5913L77.1099 21.4397L85.2823 27.6338L89.0769 16.1306L78.8612 12.5913Z" fill="#9F616A"/>
<path d="M85.4279 20.7018C89.7803 20.7018 93.3085 17.1363 93.3085 12.7381C93.3085 8.33988 89.7803 4.77441 85.4279 4.77441C81.0756 4.77441 77.5474 8.33988 77.5474 12.7381C77.5474 17.1363 81.0756 20.7018 85.4279 20.7018Z" fill="#9F616A"/>
<path d="M68.3532 73.0781C68.3892 75.6474 79.4626 104.242 77.9251 107.966C75.5016 110.469 70.2884 123.795 68.0611 127.349C67.7694 127.349 66.3101 131.773 66.3101 131.773C66.3101 131.773 69.8125 137.377 73.6069 135.018C78.3779 123.678 90.3265 117.354 90.5376 102.574C91.1144 107.243 92.8168 137.211 92.8168 137.211C92.8168 137.211 92.4903 137.352 99.8412 138.063C100.982 120.67 105.646 91.0785 95.2051 72.488C91.9949 71.0135 68.3532 73.0781 68.3532 73.0781Z" fill="#2F2E41"/>
<path d="M92.8166 136.628C92.4754 137.291 90.0283 143.412 92.2552 144.026C94.8233 144.734 97.3127 143.742 97.3127 143.742C97.3127 143.742 101.808 145.161 104.56 143.357C105.844 142.06 105.552 140.88 104.939 140.025C104.628 139.603 104.229 139.256 103.771 139.006C103.313 138.757 102.806 138.611 102.287 138.58C100.891 138.48 100.447 138.218 100.287 137.572C100.054 136.628 92.8166 136.628 92.8166 136.628Z" fill="#2F2E41"/>
<path d="M68.8002 131.283C68.8002 131.283 62.527 133.285 63.8477 135.621C64.7054 137.068 65.9578 138.235 67.4549 138.982C67.4549 138.982 68.7633 144.433 72.3951 144.433C74.211 144.433 74.8301 143.39 74.9952 142.347C75.0698 141.827 75.0311 141.296 74.8818 140.793C74.7325 140.289 74.4762 139.824 74.1307 139.431C73.2139 138.362 73.0833 137.86 73.4226 137.289C73.9178 136.455 68.8002 131.283 68.8002 131.283Z" fill="#2F2E41"/>
<path d="M96.6664 73.9414C96.6664 73.9414 95.4976 76.301 90.8278 75.4151C86.158 74.532 67.7709 75.4151 67.7709 75.4151C67.7709 75.4151 68.7909 54.327 66.456 41.6435C64.1211 28.96 73.3146 21.7338 73.3146 21.7338L76.2339 18.7837C79.1532 18.4913 85.3178 27.6454 85.3178 27.6454C87.3465 27.989 89.2402 36.703 90.8559 44.9486C90.9514 45.4199 91.0413 45.8856 91.1312 46.3512C91.8758 50.1957 92.9126 54.4747 93.5335 58.3164C93.5785 58.5889 93.6207 58.8587 93.66 59.1284C94.3981 64.1171 95.4017 69.0619 96.6664 73.9414Z" fill="#E6E6E6"/>
<path d="M76.2086 7.77969C76.2086 7.77969 74.7352 4.50403 78.5661 3.0151C78.5661 3.0151 81.8075 -2.34508 88.2905 1.22838C88.2905 1.22838 92.7107 3.01509 92.7107 7.77969C92.7107 12.5443 94.1841 13.4376 94.1841 13.4376C94.1841 13.4376 91.9899 11.1629 91.4006 9.3762C90.8112 7.58949 86.2277 7.18413 84.4597 8.97085C82.6916 10.7576 78.2714 10.4598 78.2714 10.4598L78.5661 17.0111C78.5661 17.0111 77.0927 13.1399 76.5033 13.1399C75.9139 13.1399 75.3246 7.77969 76.2086 7.77969Z" fill="#2F2E41"/>
<path opacity="0.2" d="M93.5333 58.3163C86.5707 54.4917 75.2924 46.1042 71.6537 41.5668C66.8575 35.59 72.0892 31.047 72.0892 31.047C78.0206 27.2649 85.1124 40.2409 85.1124 40.2409L90.8556 44.9485C90.9511 45.4199 91.041 45.8855 91.1309 46.3512C91.8755 50.1957 92.9123 54.4746 93.5333 58.3163Z" fill="black"/>
<path d="M114.318 53.9088C114.318 53.9088 124.669 58.1552 126.373 53.3817C128.077 48.6081 118.201 48.69 118.201 48.69L114.324 49.2452L114.318 53.9088Z" fill="#9F616A"/>
<path d="M70.7622 29.104C70.7622 29.104 65.533 33.6497 70.3258 39.6246C75.1186 45.5995 97.1452 58.3657 97.1452 58.3657L111.493 54.4461L115.553 55.197L116.319 47.4936L110.337 48.0837L95.1527 44.8165L85.4703 36.8773C85.4703 36.8773 76.6921 25.324 70.7622 29.104Z" fill="#E6E6E6"/>
<path opacity="0.2" d="M89.8126 83.8643L90.7274 105.467L88.4077 83.8643H89.8126Z" fill="black"/>
<path d="M188.585 68.4111L180.28 70.3558C179.637 70.5062 178.962 70.3976 178.398 70.053C177.833 69.7083 177.424 69.1549 177.257 68.5102C177.16 68.1363 177.148 67.7451 177.222 67.366C177.296 66.9868 177.454 66.6295 177.684 66.3208C177.915 66.0121 178.211 65.7601 178.551 65.5836C178.891 65.4071 179.267 65.3108 179.649 65.3018L187.671 65.1133L188.585 68.4111Z" fill="#FFB9B9"/>
<path d="M187.703 69.6441L185.859 64.0523L196.917 60.2354L193.982 34.1172C199.266 35.0881 201.781 39.287 201.545 44.7092L202.976 62.5315L187.703 69.6441Z" fill="#3F3D56"/>
<path d="M195.344 28.3576H213.41V19.2786C213.416 16.8266 212.466 14.4709 210.764 12.7229C209.933 11.8617 208.939 11.1776 207.842 10.7111C206.745 10.2446 205.567 10.0051 204.376 10.0068C201.999 10.0113 199.719 10.961 198.029 12.6506C196.34 14.3402 195.376 16.634 195.347 19.0361C195.345 19.1192 195.344 19.1982 195.344 19.2786L195.344 28.3576Z" fill="#2F2E41"/>
<path d="M220.964 135.049L215.189 134.379L208.277 87.2132L193.982 134.57L187.733 134.762L194.834 76.4981L193.792 63.1998L211.496 57.5552C224.035 66.4007 223.776 97.6437 220.964 135.049Z" fill="#2F2E41"/>
<path d="M202.787 26.5584C206.551 26.5584 209.603 23.4744 209.603 19.6701C209.603 15.8657 206.551 12.7817 202.787 12.7817C199.022 12.7817 195.97 15.8657 195.97 19.6701C195.97 23.4744 199.022 26.5584 202.787 26.5584Z" fill="#FFB9B9"/>
<path d="M209.603 32.1074L198.053 35.1689C199.999 31.3871 200.621 27.8568 199.568 24.6451L207.709 23.3057C207.186 26.3767 207.865 29.5331 209.603 32.1074Z" fill="#FFB9B9"/>
<path d="M213.485 60.1384C207.007 64.3017 199.46 69.0844 193.887 64.4436L191.237 51.4323C189.13 49.5359 190.064 43.6841 192.912 35.3431C193.093 34.8137 193.391 34.3328 193.783 33.937C194.175 33.5411 194.651 33.2407 195.176 33.0585L199.568 31.5327C201.514 33.1869 204.705 32.2003 208.467 30.002L212.822 31.15L214.715 45.5007C211.982 49.639 212.46 55.1493 213.485 60.1384Z" fill="#3F3D56"/>
<path d="M208.087 65.7329L199.782 67.6776C199.14 67.828 198.465 67.7194 197.9 67.3747C197.336 67.0301 196.927 66.4767 196.759 65.832C196.663 65.4581 196.651 65.0669 196.725 64.6877C196.799 64.3086 196.957 63.9512 197.187 63.6426C197.417 63.3339 197.713 63.0819 198.054 62.9054C198.394 62.7289 198.769 62.6326 199.152 62.6236L207.174 62.4351L208.087 65.7329Z" fill="#FFB9B9"/>
<path d="M219.96 144.067C218.99 144.514 218.178 141.741 217.36 142.554C215.071 144.827 209.581 144.317 209.581 144.317C209.397 144.257 209.226 144.16 209.08 144.032C208.934 143.903 208.815 143.746 208.731 143.57C208.647 143.394 208.599 143.203 208.59 143.007C208.581 142.812 208.611 142.616 208.679 142.433C208.761 142.214 208.894 142.018 209.067 141.862C209.239 141.706 209.447 141.595 209.672 141.538L212.106 140.924L215.927 134.132L220.092 133.6L220.197 133.773C221.002 135.085 221.521 136.554 221.72 138.085C221.918 139.615 221.791 141.17 221.348 142.647C221.001 143.768 220.53 143.804 219.96 144.067Z" fill="#2F2E41"/>
<path d="M192.505 144.067C191.535 144.514 190.723 141.741 189.904 142.554C187.616 144.827 182.126 144.317 182.126 144.317C181.942 144.257 181.771 144.16 181.625 144.032C181.479 143.903 181.36 143.746 181.276 143.57C181.192 143.394 181.144 143.203 181.135 143.007C181.126 142.812 181.156 142.616 181.224 142.433C181.306 142.214 181.439 142.018 181.611 141.862C181.784 141.706 181.992 141.595 182.217 141.538L184.651 140.924L188.472 134.132L192.637 133.6L192.742 133.773C193.547 135.085 194.066 136.554 194.265 138.085C194.463 139.615 194.336 141.17 193.893 142.647C193.546 143.768 193.075 143.804 192.505 144.067Z" fill="#2F2E41"/>
<path d="M210.778 13.9248L209.061 19.4445L194.218 19.1779C194.269 17.2467 194.915 15.3798 196.067 13.8379C197.219 12.2959 198.818 11.1561 200.642 10.5775C202.466 9.99889 204.424 10.0105 206.241 10.6106C208.058 11.2107 209.644 12.3694 210.778 13.9248H210.778Z" fill="#2F2E41"/>
<path d="M207.206 66.9645L205.362 61.3727L216.42 57.5558L212.237 30.8716C214.792 31.3411 217.092 32.73 218.712 34.7813C220.332 36.8327 221.162 39.4076 221.048 42.0295L222.479 59.8519L207.206 66.9645Z" fill="#3F3D56"/>
<path d="M180.795 51.8888L169.294 54.3883L166.944 42.9533L171.272 37.0795L175.168 36.3296L179.496 40.7661L180.795 51.8888Z" fill="#CCCCCC"/>
<path d="M175.477 52.3874H168.551L167.607 47.6769L166.573 42.5149L168.118 40.2661L171.088 41.2031L174.302 45.7035L175.109 50.2891L175.165 50.6156L175.477 52.3874Z" fill="#E6E6E6"/>
<path d="M187.102 49.639L179.125 50.5762L180.548 40.3287L183.763 37.3916L186.545 38.079L188.401 42.3906L187.102 49.639Z" fill="#CCCCCC"/>
<path d="M188.152 43.5765L187.41 47.7021L184.999 61.7599L175.724 64.7611L175.404 64.5851L170.405 61.8224L167.593 47.6709L167.607 47.6766L175.044 50.7005L175.109 50.2888L175.154 49.9907L175.724 46.3279L178.259 43.5765L186.73 41.5151L188.152 43.5765Z" fill="#E6E6E6"/>
<path d="M182.279 43.1407C183.372 43.1407 184.258 42.2455 184.258 41.1412C184.258 40.0368 183.372 39.1416 182.279 39.1416C181.186 39.1416 180.3 40.0368 180.3 41.1412C180.3 42.2455 181.186 43.1407 182.279 43.1407Z" fill="#E6E6E6"/>
<path d="M177.414 42.1735L172.9 42.9858L172.922 43.1089L177.436 42.2966L177.414 42.1735Z" fill="white"/>
<path d="M175.404 64.5854L170.405 61.8227L167.593 47.6712L167.607 47.6769L166.573 42.5149L168.118 40.2661L171.088 41.2031L174.302 45.7035L175.109 50.2891L175.154 49.991L175.165 50.6156L175.196 52.3874L175.404 64.5854Z" fill="#F2F2F2"/>
<path d="M170.467 61.8404L170.347 61.808L172.812 52.4648L169.989 48.7035L170.088 48.6279L172.948 52.4378L170.467 61.8404Z" fill="#CCCCCC"/>
<path d="M171.858 56.5068L171.747 56.561L175.668 64.7886L175.78 64.7344L171.858 56.5068Z" fill="#CCCCCC"/>
<path opacity="0.2" d="M187.665 46.8463L187.201 49.4389L187.177 49.4414L185.098 61.5613L175.823 64.5606L175.767 64.5875L175.73 64.5094L170.505 61.6237L170.445 61.6075L170.477 61.485L167.692 47.4706L167.706 47.4762L167.397 45.9378L167.628 45.6022L168.341 44.565L171.309 45.5023L174.524 50.0013L174.571 50.2687L174.909 52.1883L175.045 52.9594L175.331 54.5884L175.603 52.8382L175.701 52.2083L175.947 50.6261L178.482 47.8767L179.609 47.6024L180.394 47.4112L181.473 47.1488C181.139 46.9431 180.872 46.6416 180.707 46.2825C180.542 45.9234 180.486 45.5229 180.546 45.1316C180.606 44.7404 180.781 44.3761 181.046 44.0849C181.312 43.7938 181.657 43.5888 182.038 43.4961C182.419 43.4033 182.818 43.4269 183.186 43.564C183.553 43.701 183.873 43.9452 184.103 44.2657C184.333 44.5862 184.464 44.9685 184.478 45.3642C184.493 45.7599 184.392 46.1511 184.186 46.4883L186.953 45.8147L187.635 46.8039L187.665 46.8463Z" fill="black"/>
<path d="M175.7 57.3129H168.774L166.795 47.4401L168.341 45.1904L171.309 46.1277L174.525 50.6267L175.7 57.3129Z" fill="#E6E6E6"/>
<path d="M185.222 66.6851L175.947 69.6843L170.629 66.7475L167.816 52.5944L175.267 55.6248L175.947 51.2508L178.482 48.5014L186.954 46.4395L188.376 48.5014L187.634 52.6256L185.222 66.6851Z" fill="#E6E6E6"/>
<path d="M182.501 48.0646C183.594 48.0646 184.48 47.1693 184.48 46.065C184.48 44.9607 183.594 44.0654 182.501 44.0654C181.408 44.0654 180.522 44.9607 180.522 46.065C180.522 47.1693 181.408 48.0646 182.501 48.0646Z" fill="#E6E6E6"/>
<path d="M175.632 69.413L170.633 66.6503L167.821 52.4988L167.835 52.5045L166.801 47.3425L168.346 45.0938L171.316 46.0307L174.53 50.5312L175.337 55.1167L175.382 54.8186L175.393 55.4433L175.424 57.215L175.632 69.413Z" fill="#F2F2F2"/>
<path d="M170.689 66.7637L170.569 66.7316L173.035 57.3881L170.211 53.6268L170.31 53.5513L173.17 57.3614L170.689 66.7637Z" fill="#CCCCCC"/>
<path d="M172.081 61.4297L171.969 61.4839L175.891 69.7115L176.002 69.6572L172.081 61.4297Z" fill="#CCCCCC"/>
<path d="M253.286 132.057L241.785 134.557L239.436 123.122L243.764 117.248L247.659 116.498L251.988 120.935L253.286 132.057Z" fill="#CCCCCC"/>
<path d="M247.969 132.557H241.043L240.098 127.846L239.064 122.684L240.61 120.436L243.58 121.373L246.794 125.873L247.6 130.459L247.657 130.785L247.969 132.557Z" fill="#E6E6E6"/>
<path d="M259.593 129.809L251.617 130.746L253.039 120.498L256.254 117.562L259.037 118.249L260.892 122.56L259.593 129.809Z" fill="#CCCCCC"/>
<path d="M260.643 123.745L259.902 127.871L257.491 141.929L248.216 144.93L247.896 144.754L242.897 141.991L240.084 127.84L240.099 127.846L247.536 130.869L247.601 130.458L247.646 130.16L248.216 126.497L250.75 123.745L259.222 121.684L260.643 123.745Z" fill="#E6E6E6"/>
<path d="M254.771 123.31C255.863 123.31 256.749 122.414 256.749 121.31C256.749 120.206 255.863 119.311 254.771 119.311C253.678 119.311 252.792 120.206 252.792 121.31C252.792 122.414 253.678 123.31 254.771 123.31Z" fill="#E6E6E6"/>
<path d="M249.906 122.342L245.392 123.155L245.414 123.278L249.928 122.466L249.906 122.342Z" fill="white"/>
<path d="M247.896 144.755L242.897 141.992L240.084 127.841L240.098 127.846L239.064 122.684L240.61 120.436L243.58 121.373L246.794 125.873L247.6 130.459L247.645 130.16L247.657 130.785L247.688 132.557L247.896 144.755Z" fill="#F2F2F2"/>
<path d="M242.958 142.009L242.838 141.977L245.304 132.634L242.48 128.872L242.579 128.797L245.439 132.607L242.958 142.009Z" fill="#CCCCCC"/>
<path d="M244.35 136.675L244.239 136.729L248.16 144.957L248.272 144.902L244.35 136.675Z" fill="#CCCCCC"/>
<path d="M276.012 143.84H268.426L267.302 129.076H277.136L276.012 143.84Z" fill="#E6E6E6"/>
<path d="M277.277 135.038H267.162V137.31H277.277V135.038Z" fill="#F2F2F2"/>
<path d="M279.876 130.135L278.259 129.654L278.238 129.055L271.051 126.916L270.712 127.407L269.095 126.926L268.08 128.4L279.939 131.93L279.876 130.135Z" fill="#CCCCCC"/>
<path d="M41.9569 125.205L41.9496 125.254L41.9296 125.397L39.8709 140.326L27.2653 145L27.0677 144.905L20.0102 141.518L16.3609 127.368L16.1108 126.396L16.187 126.367L31.7996 120.439L41.9476 125.199L41.9569 125.205Z" fill="#08611B"/>
<path d="M27.0677 144.905L20.0102 141.518L16.1108 126.396L16.187 126.367L26.3586 130.704L27.0677 144.905Z" fill="#08611B"/>
<path opacity="0.2" d="M27.2445 144.732L21.8762 134.336L22.5657 131.389L19.3185 127.524L19.042 127.762L22.1704 131.485L19.8335 141.475L20.1867 141.56L21.7486 134.882L26.9228 144.902L27.2445 144.732Z" fill="black"/>
<path d="M41.9569 125.388L41.9296 125.397L26.3586 130.887L16.3609 127.368L16.1108 126.396L16.187 126.367L31.7996 120.439L41.9476 125.199L41.9496 125.254L41.9569 125.388Z" fill="#3F3D56"/>
<path d="M26.6307 131.161L23.4565 128.687L24.182 125.937L33.2508 122.638L39.4176 123.005L41.8663 125.112L42.0475 125.662L26.6307 131.161Z" fill="#08611B"/>
<path d="M16.292 126.397L23.4563 126.122L27.3374 124.79L33.3885 122.639L34.5202 120.99L31.6964 120.479L16.292 126.397Z" fill="#08611B"/>
<path d="M30.5657 123.447L26.8301 124.772L26.9502 125.118L30.6857 123.793L30.5657 123.447Z" fill="#CCCCCC"/>
<path d="M10.115 144.18H2.52869L1.40479 129.415H11.2389L10.115 144.18Z" fill="#08611B"/>
<path d="M11.3793 135.377H1.26416V137.649H11.3793V135.377Z" fill="#E6E6E6"/>
<path d="M11.801 128.563H10.1151L9.92769 127.995H2.43521L2.2478 128.563H0.56195L0 130.267H12.3629L11.801 128.563Z" fill="#3F3D56"/>
<path d="M227.123 144.005H56.8252V144.573H227.123V144.005Z" fill="#3F3D56"/>
</g>
<defs>
<clipPath id="clip0">
<rect width="279.939" height="145" fill="white"/>
</clipPath>
</defs>
</svg>
