<svg width="24" height="24" viewBox="0 0 14 14" fill="none" xmlns="http://www.w3.org/2000/svg">
<path d="M7.77839 10.0813H5.68576C5.33786 10.0813 5.05797 9.80136 5.05797 9.45346V5.05893H2.76392C2.29831 5.05893 2.0655 4.49654 2.39509 4.16695L6.37371 0.185713C6.56989 -0.0104719 6.89164 -0.0104719 7.08782 0.185713L11.0691 4.16695C11.3986 4.49654 11.1658 5.05893 10.7002 5.05893H8.40618V9.45346C8.40618 9.80136 8.12629 10.0813 7.77839 10.0813ZM13.4285 9.87199V12.8017C13.4285 13.1496 13.1486 13.4295 12.8007 13.4295H0.663435C0.315534 13.4295 0.0356445 13.1496 0.0356445 12.8017V9.87199C0.0356445 9.52409 0.315534 9.2442 0.663435 9.2442H4.22091V9.45346C4.22091 10.2617 4.87748 10.9183 5.68576 10.9183H7.77839C8.58667 10.9183 9.24323 10.2617 9.24323 9.45346V9.2442H12.8007C13.1486 9.2442 13.4285 9.52409 13.4285 9.87199ZM10.1849 12.1739C10.1849 11.8862 9.9495 11.6507 9.66176 11.6507C9.37402 11.6507 9.1386 11.8862 9.1386 12.1739C9.1386 12.4616 9.37402 12.697 9.66176 12.697C9.9495 12.697 10.1849 12.4616 10.1849 12.1739ZM11.859 12.1739C11.859 11.8862 11.6236 11.6507 11.3359 11.6507C11.0481 11.6507 10.8127 11.8862 10.8127 12.1739C10.8127 12.4616 11.0481 12.697 11.3359 12.697C11.6236 12.697 11.859 12.4616 11.859 12.1739Z" fill="#AFAFAF"/>
</svg>
