<svg width="84" height="84" viewBox="0 0 14 14" fill="none" xmlns="http://www.w3.org/2000/svg">
<path d="M7.77839 10.0817H5.68576C5.33786 10.0817 5.05797 9.80185 5.05797 9.45395V5.05942H2.76392C2.29831 5.05942 2.0655 4.49703 2.39509 4.16744L6.37371 0.186201C6.56989 -0.00998361 6.89164 -0.00998361 7.08782 0.186201L11.0691 4.16744C11.3986 4.49703 11.1658 5.05942 10.7002 5.05942H8.40618V9.45395C8.40618 9.80185 8.12629 10.0817 7.77839 10.0817ZM13.4285 9.87248V12.8022C13.4285 13.1501 13.1486 13.43 12.8007 13.43H0.663435C0.315534 13.43 0.0356445 13.1501 0.0356445 12.8022V9.87248C0.0356445 9.52458 0.315534 9.24469 0.663435 9.24469H4.22091V9.45395C4.22091 10.2622 4.87748 10.9188 5.68576 10.9188H7.77839C8.58667 10.9188 9.24323 10.2622 9.24323 9.45395V9.24469H12.8007C13.1486 9.24469 13.4285 9.52458 13.4285 9.87248ZM10.1849 12.1744C10.1849 11.8866 9.9495 11.6512 9.66176 11.6512C9.37402 11.6512 9.1386 11.8866 9.1386 12.1744C9.1386 12.4621 9.37402 12.6975 9.66176 12.6975C9.9495 12.6975 10.1849 12.4621 10.1849 12.1744ZM11.859 12.1744C11.859 11.8866 11.6236 11.6512 11.3359 11.6512C11.0481 11.6512 10.8127 11.8866 10.8127 12.1744C10.8127 12.4621 11.0481 12.6975 11.3359 12.6975C11.6236 12.6975 11.859 12.4621 11.859 12.1744Z" fill="#AFAFAF"/>
</svg>
