<svg width="803" height="909" viewBox="0 0 803 909" fill="none" xmlns="http://www.w3.org/2000/svg">
<path opacity="0.56" fill-rule="evenodd" clip-rule="evenodd" d="M432.505 -141.889C500.798 -125.64 536.035 -41.0886 585.16 13.7434C621.481 54.2828 638.772 119.093 686.308 141.396C762.228 177.017 862.967 121.937 929.737 175.414C985.996 220.471 1012.99 316.019 997.833 390.899C981.185 473.137 888.218 507.604 847.993 579.223C818.855 631.102 839.355 714.182 795.434 751.267C747.089 792.087 674.504 757.965 615.711 775.35C573.315 787.887 532.263 807.948 498.601 839.039C435.743 897.097 410.207 1006.23 332.971 1036.5C267.81 1062.04 189.925 1025.97 133.262 982.225C76.6042 938.481 60.3079 854.635 18.5858 793.774C-23.1734 732.859 -99.177 695.035 -114.656 620.579C-130.298 545.342 -87.3057 470.631 -63.7013 397.969C-43.2719 335.081 -26.4609 267.6 15.6116 219.573C56.302 173.124 130.619 178.691 170.143 131.031C214.632 77.383 204.082 -15.6361 252.034 -65.5174C299.324 -114.711 368.985 -157.003 432.505 -141.889Z" fill="#F1D302"/>
</svg>
