<svg width="439" height="503" viewBox="0 0 539 603" fill="none" xmlns="http://www.w3.org/2000/svg">
<path fill-rule="evenodd" clip-rule="evenodd" d="M257.413 7.32776C306.152 12.6064 350.085 32.2349 395.448 49.5805C443.003 67.7641 507.234 70.5095 531.987 112.317C557.897 156.08 526.055 210.186 519.899 259.781C515.383 296.16 509.227 331.051 500.403 366.745C491.587 402.412 494.763 444.165 467.731 470.826C440.605 497.581 395.096 496.566 357.389 507.799C324.048 517.732 289.822 521.18 257.413 533.482C205.379 553.235 163.995 609.675 108.326 602.348C58.3693 595.773 21.9907 545.166 6.94158 500.514C-8.04575 456.046 29.2939 410.454 27.9557 363.881C26.9258 328.04 -1.41616 296.694 0.0553637 260.866C1.63381 222.435 21.4969 187.905 36.6537 152.105C56.2898 105.725 59.0472 46.6715 102.922 17.8981C145.613 -10.0998 205.474 1.70238 257.413 7.32776Z" fill="#D1E5D4"/>
</svg>
