<svg width="360" height="200" viewBox="0 0 360 200" fill="none" xmlns="http://www.w3.org/2000/svg">
<mask id="mask0" style="mask-type:alpha" maskUnits="userSpaceOnUse" x="0" y="0" width="360" height="200">
<rect width="360" height="200" rx="5" fill="#261D58"/>
</mask>
<g mask="url(#mask0)">
<path opacity="0.1" d="M441 41C441 98.9899 393.99 146 336 146C278.01 146 231 98.9899 231 41C231 -16.9899 278.01 -64 336 -64C393.99 -64 441 -16.9899 441 41ZM236.768 41C236.768 95.8045 281.196 140.232 336 140.232C390.804 140.232 435.232 95.8045 435.232 41C435.232 -13.8045 390.804 -58.2322 336 -58.2322C281.196 -58.2322 236.768 -13.8045 236.768 41Z" fill="#FCFDFC"/>
<path opacity="0.1" d="M86 220C86 277.99 38.9899 325 -19 325C-76.9899 325 -124 277.99 -124 220C-124 162.01 -76.9899 115 -19 115C38.9899 115 86 162.01 86 220ZM-118.232 220C-118.232 274.804 -73.8045 319.232 -19 319.232C35.8045 319.232 80.2322 274.804 80.2322 220C80.2322 165.196 35.8045 120.768 -19 120.768C-73.8045 120.768 -118.232 165.196 -118.232 220Z" fill="#FCFDFC"/>
<path opacity="0.1" d="M418 41C418 86.2873 381.287 123 336 123C290.713 123 254 86.2873 254 41C254 -4.28735 290.713 -41 336 -41C381.287 -41 418 -4.28735 418 41ZM258.504 41C258.504 83.7997 293.2 118.496 336 118.496C378.8 118.496 413.496 83.7997 413.496 41C413.496 -1.79967 378.8 -36.4957 336 -36.4957C293.2 -36.4957 258.504 -1.79967 258.504 41Z" fill="#FCFDFC"/>
<path opacity="0.1" d="M63 220C63 265.287 26.2873 302 -19 302C-64.2873 302 -101 265.287 -101 220C-101 174.713 -64.2873 138 -19 138C26.2873 138 63 174.713 63 220ZM-96.4957 220C-96.4957 262.8 -61.7997 297.496 -19 297.496C23.7997 297.496 58.4957 262.8 58.4957 220C58.4957 177.2 23.7997 142.504 -19 142.504C-61.7997 142.504 -96.4957 177.2 -96.4957 220Z" fill="#FCFDFC"/>
<path opacity="0.1" d="M392 42C392 72.9279 366.928 98 336 98C305.072 98 280 72.9279 280 42C280 11.0721 305.072 -14 336 -14C366.928 -14 392 11.0721 392 42ZM283.076 42C283.076 71.229 306.771 94.9239 336 94.9239C365.229 94.9239 388.924 71.229 388.924 42C388.924 12.771 365.229 -10.9239 336 -10.9239C306.771 -10.9239 283.076 12.771 283.076 42Z" fill="#FCFDFC"/>
<path opacity="0.1" d="M37 221C37 251.928 11.9279 277 -19 277C-49.9279 277 -75 251.928 -75 221C-75 190.072 -49.9279 165 -19 165C11.9279 165 37 190.072 37 221ZM-71.9239 221C-71.9239 250.229 -48.229 273.924 -19 273.924C10.229 273.924 33.9239 250.229 33.9239 221C33.9239 191.771 10.229 168.076 -19 168.076C-48.229 168.076 -71.9239 191.771 -71.9239 221Z" fill="#FCFDFC"/>
</g>
</svg>
